<svg xmlns="http://www.w3.org/2000/svg" viewBox="0 0 400 340" font-family="system-ui, -apple-system, sans-serif">
  <rect width="400" height="340" fill="#0d1117"/>
  <text x="220.0" y="22" text-anchor="middle" fill="#e6edf3" font-size="13" font-weight="700">LZ4 + Dict (2 KB): 1 KB JSON (lower is better)</text>
  <text x="220.0" y="38" text-anchor="middle" fill="#7d8590" font-size="10">Apple M4</text>
  <line x1="70" y1="175.0" x2="370" y2="175.0" stroke="#21262d" stroke-width="1"/>
  <text x="62" y="175.0" text-anchor="end" dominant-baseline="middle" fill="#7d8590" font-size="10">0.5</text>
  <line x1="70" y1="120.0" x2="370" y2="120.0" stroke="#21262d" stroke-width="1"/>
  <text x="62" y="120.0" text-anchor="end" dominant-baseline="middle" fill="#7d8590" font-size="10">1.0</text>
  <line x1="70" y1="64.9" x2="370" y2="64.9" stroke="#21262d" stroke-width="1"/>
  <text x="62" y="64.9" text-anchor="end" dominant-baseline="middle" fill="#7d8590" font-size="10">1.5</text>
  <line x1="70" y1="230" x2="370" y2="230" stroke="#30363d" stroke-width="1.5"/>
  <text x="22" y="142.5" text-anchor="middle" fill="#e6edf3" font-size="11" font-weight="600" transform="rotate(-90,22,142.5)">seconds / GB</text>
  <rect x="115.0" y="143.7" width="90.0" height="86.3" fill="#60a5fa" rx="2"/>
  <rect x="115.0" y="118.2" width="90.0" height="25.6" fill="#4680c4" rx="2"/>
  <rect x="115.0" y="85.9" width="90.0" height="32.3" fill="#60a5fa" rx="2"/>
  <text x="160.0" y="79.9" text-anchor="middle" fill="#e6edf3" font-size="10" font-weight="600">1103 ns</text>
  <rect x="235.0" y="134.6" width="90.0" height="95.4" fill="#f87171" rx="2"/>
  <rect x="235.0" y="109.0" width="90.0" height="25.6" fill="#c45050" rx="2"/>
  <rect x="235.0" y="77.8" width="90.0" height="31.2" fill="#f87171" rx="2"/>
  <text x="280.0" y="71.8" text-anchor="middle" fill="#e6edf3" font-size="10" font-weight="600">1178 ns</text>
  <text x="160.0" y="246" text-anchor="middle" fill="#e6edf3" font-size="10" font-weight="600">lz4 (C)</text>
  <text x="280.0" y="246" text-anchor="middle" fill="#e6edf3" font-size="10" font-weight="600">lz4rip (safe Rust)</text>
  <rect x="70" y="277" width="12" height="12" fill="#60a5fa" rx="2"/>
  <text x="88" y="287" fill="#7d8590" font-size="10">compress + decompress</text>
  <rect x="250" y="277" width="12" height="12" fill="#4680c4" rx="2"/>
  <text x="268" y="287" fill="#7d8590" font-size="10">transfer @1 GB/s</text>
  <text x="220.0" y="330" text-anchor="middle" fill="#484f58" font-size="9">1 KB JSON message, dict trained on 2000 messages</text>
</svg>
