<svg xmlns="http://www.w3.org/2000/svg" viewBox="0 0 850 710" font-family="system-ui, -apple-system, sans-serif">
  <rect width="850" height="710" fill="#0d1117"/>
  <text x="442.5" y="22" text-anchor="middle" fill="#e6edf3" font-size="14" font-weight="700">LZ4 Block: Compress + Transfer @1 GB/s + Decompress (lower is better)</text>
  <text x="442.5" y="38" text-anchor="middle" fill="#7d8590" font-size="10">Apple M4</text>
  <line x1="55" y1="246.3" x2="830" y2="246.3" stroke="#21262d" stroke-width="1"/>
  <text x="47" y="246.3" text-anchor="end" dominant-baseline="middle" fill="#7d8590" font-size="10">0</text>
  <line x1="55" y1="202.5" x2="830" y2="202.5" stroke="#21262d" stroke-width="1"/>
  <text x="47" y="202.5" text-anchor="end" dominant-baseline="middle" fill="#7d8590" font-size="10">1</text>
  <line x1="55" y1="158.8" x2="830" y2="158.8" stroke="#21262d" stroke-width="1"/>
  <text x="47" y="158.8" text-anchor="end" dominant-baseline="middle" fill="#7d8590" font-size="10">2</text>
  <line x1="55" y1="115.0" x2="830" y2="115.0" stroke="#21262d" stroke-width="1"/>
  <text x="47" y="115.0" text-anchor="end" dominant-baseline="middle" fill="#7d8590" font-size="10">2</text>
  <line x1="55" y1="71.3" x2="830" y2="71.3" stroke="#21262d" stroke-width="1"/>
  <text x="47" y="71.3" text-anchor="end" dominant-baseline="middle" fill="#7d8590" font-size="10">2</text>
  <line x1="55" y1="290" x2="830" y2="290" stroke="#30363d" stroke-width="1.5"/>
  <text x="22" y="325.0" text-anchor="middle" fill="#e6edf3" font-size="11" font-weight="600" transform="rotate(-90,22,325.0)">seconds / GB</text>
  <rect x="67.1" y="214.9" width="18.2" height="75.1" fill="#60a5fa" rx="1"/>
  <rect x="67.1" y="147.7" width="18.2" height="67.2" fill="#4680c4" rx="1"/>
  <rect x="67.1" y="116.4" width="18.2" height="31.3" fill="#60a5fa" rx="1"/>
  <rect x="85.3" y="208.7" width="18.2" height="81.3" fill="#f87171" rx="1"/>
  <rect x="85.3" y="138.7" width="18.2" height="70.0" fill="#c45050" rx="1"/>
  <rect x="85.3" y="105.1" width="18.2" height="33.6" fill="#f87171" rx="1"/>
  <rect x="103.4" y="195.9" width="18.2" height="94.1" fill="#fbbf24" rx="1"/>
  <rect x="103.4" y="128.7" width="18.2" height="67.2" fill="#c49520" rx="1"/>
  <rect x="103.4" y="95.2" width="18.2" height="33.6" fill="#fbbf24" rx="1"/>
  <rect x="121.6" y="187.5" width="18.2" height="102.5" fill="#4ade80" rx="1"/>
  <rect x="121.6" y="120.2" width="18.2" height="67.3" fill="#3aaf60" rx="1"/>
  <rect x="121.6" y="86.4" width="18.2" height="33.8" fill="#4ade80" rx="1"/>
  <text x="103.4" y="306" text-anchor="middle" fill="#e6edf3" font-size="10" font-weight="600">1k</text>
  <text x="103.4" y="318" text-anchor="middle" fill="#7d8590" font-size="9">725 B</text>
  <rect x="164.0" y="200.6" width="18.2" height="89.4" fill="#60a5fa" rx="1"/>
  <rect x="164.0" y="150.7" width="18.2" height="49.9" fill="#4680c4" rx="1"/>
  <rect x="164.0" y="129.3" width="18.2" height="21.4" fill="#60a5fa" rx="1"/>
  <rect x="182.1" y="235.0" width="18.2" height="55.0" fill="#f87171" rx="1"/>
  <rect x="182.1" y="185.5" width="18.2" height="49.5" fill="#c45050" rx="1"/>
  <rect x="182.1" y="169.3" width="18.2" height="16.1" fill="#f87171" rx="1"/>
  <rect x="200.3" y="210.6" width="18.2" height="79.4" fill="#fbbf24" rx="1"/>
  <rect x="200.3" y="160.7" width="18.2" height="49.9" fill="#c49520" rx="1"/>
  <rect x="200.3" y="139.7" width="18.2" height="21.0" fill="#fbbf24" rx="1"/>
  <rect x="218.5" y="208.7" width="18.2" height="81.3" fill="#4ade80" rx="1"/>
  <rect x="218.5" y="158.0" width="18.2" height="50.7" fill="#3aaf60" rx="1"/>
  <rect x="218.5" y="135.6" width="18.2" height="22.4" fill="#4ade80" rx="1"/>
  <text x="200.3" y="306" text-anchor="middle" fill="#e6edf3" font-size="10" font-weight="600">34k</text>
  <text x="200.3" y="318" text-anchor="middle" fill="#7d8590" font-size="9">34 KB</text>
  <rect x="260.9" y="207.4" width="18.2" height="82.6" fill="#60a5fa" rx="1"/>
  <rect x="260.9" y="158.4" width="18.2" height="49.0" fill="#4680c4" rx="1"/>
  <rect x="260.9" y="139.1" width="18.2" height="19.3" fill="#60a5fa" rx="1"/>
  <rect x="279.0" y="234.3" width="18.2" height="55.7" fill="#f87171" rx="1"/>
  <rect x="279.0" y="184.9" width="18.2" height="49.4" fill="#c45050" rx="1"/>
  <rect x="279.0" y="169.6" width="18.2" height="15.3" fill="#f87171" rx="1"/>
  <rect x="297.2" y="213.8" width="18.2" height="76.2" fill="#fbbf24" rx="1"/>
  <rect x="297.2" y="164.8" width="18.2" height="49.0" fill="#c49520" rx="1"/>
  <rect x="297.2" y="144.6" width="18.2" height="20.2" fill="#fbbf24" rx="1"/>
  <rect x="315.4" y="211.3" width="18.2" height="78.7" fill="#4ade80" rx="1"/>
  <rect x="315.4" y="161.1" width="18.2" height="50.2" fill="#3aaf60" rx="1"/>
  <rect x="315.4" y="139.8" width="18.2" height="21.3" fill="#4ade80" rx="1"/>
  <text x="297.2" y="306" text-anchor="middle" fill="#e6edf3" font-size="10" font-weight="600">65k</text>
  <text x="297.2" y="318" text-anchor="middle" fill="#7d8590" font-size="9">65 KB</text>
  <rect x="357.7" y="257.4" width="18.2" height="32.6" fill="#60a5fa" rx="1"/>
  <rect x="357.7" y="237.4" width="18.2" height="20.0" fill="#4680c4" rx="1"/>
  <rect x="357.7" y="229.5" width="18.2" height="7.9" fill="#60a5fa" rx="1"/>
  <rect x="375.9" y="262.1" width="18.2" height="27.9" fill="#f87171" rx="1"/>
  <rect x="375.9" y="241.8" width="18.2" height="20.3" fill="#c45050" rx="1"/>
  <rect x="375.9" y="228.8" width="18.2" height="12.9" fill="#f87171" rx="1"/>
  <rect x="394.1" y="258.5" width="18.2" height="31.5" fill="#fbbf24" rx="1"/>
  <rect x="394.1" y="238.5" width="18.2" height="20.0" fill="#c49520" rx="1"/>
  <rect x="394.1" y="229.3" width="18.2" height="9.3" fill="#fbbf24" rx="1"/>
  <rect x="412.2" y="257.6" width="18.2" height="32.4" fill="#4ade80" rx="1"/>
  <rect x="412.2" y="237.6" width="18.2" height="20.0" fill="#3aaf60" rx="1"/>
  <rect x="412.2" y="230.0" width="18.2" height="7.6" fill="#4ade80" rx="1"/>
  <text x="394.1" y="306" text-anchor="middle" fill="#e6edf3" font-size="10" font-weight="600">66k_JSON</text>
  <text x="394.1" y="318" text-anchor="middle" fill="#7d8590" font-size="9">67 KB</text>
  <rect x="454.6" y="158.5" width="18.2" height="131.5" fill="#60a5fa" rx="1"/>
  <rect x="454.6" y="102.8" width="18.2" height="55.7" fill="#4680c4" rx="1"/>
  <rect x="454.6" y="86.1" width="18.2" height="16.7" fill="#60a5fa" rx="1"/>
  <rect x="472.8" y="166.6" width="18.2" height="123.4" fill="#f87171" rx="1"/>
  <rect x="472.8" y="109.9" width="18.2" height="56.7" fill="#c45050" rx="1"/>
  <rect x="472.8" y="85.9" width="18.2" height="24.0" fill="#f87171" rx="1"/>
  <rect x="490.9" y="153.2" width="18.2" height="136.8" fill="#fbbf24" rx="1"/>
  <rect x="490.9" y="97.5" width="18.2" height="55.7" fill="#c49520" rx="1"/>
  <rect x="490.9" y="79.7" width="18.2" height="17.7" fill="#fbbf24" rx="1"/>
  <rect x="509.1" y="146.6" width="18.2" height="143.4" fill="#4ade80" rx="1"/>
  <rect x="509.1" y="90.9" width="18.2" height="55.7" fill="#3aaf60" rx="1"/>
  <rect x="509.1" y="71.8" width="18.2" height="19.0" fill="#4ade80" rx="1"/>
  <text x="490.9" y="306" text-anchor="middle" fill="#e6edf3" font-size="10" font-weight="600">dickens</text>
  <text x="490.9" y="318" text-anchor="middle" fill="#7d8590" font-size="9">10.0 MB</text>
  <rect x="551.5" y="257.6" width="18.2" height="32.4" fill="#60a5fa" rx="1"/>
  <rect x="551.5" y="248.0" width="18.2" height="9.6" fill="#4680c4" rx="1"/>
  <rect x="551.5" y="242.4" width="18.2" height="5.5" fill="#60a5fa" rx="1"/>
  <rect x="569.6" y="260.0" width="18.2" height="30.0" fill="#f87171" rx="1"/>
  <rect x="569.6" y="250.3" width="18.2" height="9.7" fill="#c45050" rx="1"/>
  <rect x="569.6" y="239.1" width="18.2" height="11.2" fill="#f87171" rx="1"/>
  <rect x="587.8" y="256.9" width="18.2" height="33.1" fill="#fbbf24" rx="1"/>
  <rect x="587.8" y="247.3" width="18.2" height="9.6" fill="#c49520" rx="1"/>
  <rect x="587.8" y="239.3" width="18.2" height="8.0" fill="#fbbf24" rx="1"/>
  <rect x="606.0" y="256.3" width="18.2" height="33.7" fill="#4ade80" rx="1"/>
  <rect x="606.0" y="246.7" width="18.2" height="9.6" fill="#3aaf60" rx="1"/>
  <rect x="606.0" y="237.8" width="18.2" height="8.9" fill="#4ade80" rx="1"/>
  <text x="587.8" y="306" text-anchor="middle" fill="#e6edf3" font-size="10" font-weight="600">hdfs.json</text>
  <text x="587.8" y="318" text-anchor="middle" fill="#7d8590" font-size="9">7.0 MB</text>
  <rect x="648.4" y="142.1" width="18.2" height="147.9" fill="#60a5fa" rx="1"/>
  <rect x="648.4" y="100.1" width="18.2" height="42.0" fill="#4680c4" rx="1"/>
  <rect x="648.4" y="81.0" width="18.2" height="19.1" fill="#60a5fa" rx="1"/>
  <rect x="666.5" y="150.4" width="18.2" height="139.6" fill="#f87171" rx="1"/>
  <rect x="666.5" y="108.3" width="18.2" height="42.1" fill="#c45050" rx="1"/>
  <rect x="666.5" y="84.8" width="18.2" height="23.5" fill="#f87171" rx="1"/>
  <rect x="684.7" y="141.3" width="18.2" height="148.7" fill="#fbbf24" rx="1"/>
  <rect x="684.7" y="99.3" width="18.2" height="42.0" fill="#c49520" rx="1"/>
  <rect x="684.7" y="79.0" width="18.2" height="20.3" fill="#fbbf24" rx="1"/>
  <rect x="702.9" y="136.7" width="18.2" height="153.3" fill="#4ade80" rx="1"/>
  <rect x="702.9" y="94.6" width="18.2" height="42.0" fill="#3aaf60" rx="1"/>
  <rect x="702.9" y="72.7" width="18.2" height="22.0" fill="#4ade80" rx="1"/>
  <text x="684.7" y="306" text-anchor="middle" fill="#e6edf3" font-size="10" font-weight="600">reymont.pdf</text>
  <text x="684.7" y="318" text-anchor="middle" fill="#7d8590" font-size="9">6.6 MB</text>
  <rect x="745.2" y="225.0" width="18.2" height="65.0" fill="#60a5fa" rx="1"/>
  <rect x="745.2" y="204.8" width="18.2" height="20.2" fill="#4680c4" rx="1"/>
  <rect x="745.2" y="192.8" width="18.2" height="12.0" fill="#60a5fa" rx="1"/>
  <rect x="763.4" y="227.0" width="18.2" height="63.0" fill="#f87171" rx="1"/>
  <rect x="763.4" y="206.6" width="18.2" height="20.3" fill="#c45050" rx="1"/>
  <rect x="763.4" y="184.3" width="18.2" height="22.3" fill="#f87171" rx="1"/>
  <rect x="781.6" y="224.0" width="18.2" height="66.0" fill="#fbbf24" rx="1"/>
  <rect x="781.6" y="203.8" width="18.2" height="20.2" fill="#c49520" rx="1"/>
  <rect x="781.6" y="187.4" width="18.2" height="16.4" fill="#fbbf24" rx="1"/>
  <rect x="799.7" y="220.9" width="18.2" height="69.1" fill="#4ade80" rx="1"/>
  <rect x="799.7" y="200.6" width="18.2" height="20.2" fill="#3aaf60" rx="1"/>
  <rect x="799.7" y="183.6" width="18.2" height="17.0" fill="#4ade80" rx="1"/>
  <text x="781.6" y="306" text-anchor="middle" fill="#e6edf3" font-size="10" font-weight="600">xml_collection.xml</text>
  <text x="781.6" y="318" text-anchor="middle" fill="#7d8590" font-size="9">5.3 MB</text>
  <line x1="55" y1="556.3" x2="830" y2="556.3" stroke="#21262d" stroke-width="1"/>
  <text x="47" y="556.3" text-anchor="end" dominant-baseline="middle" fill="#7d8590" font-size="10">0</text>
  <line x1="55" y1="512.5" x2="830" y2="512.5" stroke="#21262d" stroke-width="1"/>
  <text x="47" y="512.5" text-anchor="end" dominant-baseline="middle" fill="#7d8590" font-size="10">1</text>
  <line x1="55" y1="468.8" x2="830" y2="468.8" stroke="#21262d" stroke-width="1"/>
  <text x="47" y="468.8" text-anchor="end" dominant-baseline="middle" fill="#7d8590" font-size="10">2</text>
  <line x1="55" y1="425.0" x2="830" y2="425.0" stroke="#21262d" stroke-width="1"/>
  <text x="47" y="425.0" text-anchor="end" dominant-baseline="middle" fill="#7d8590" font-size="10">2</text>
  <line x1="55" y1="381.3" x2="830" y2="381.3" stroke="#21262d" stroke-width="1"/>
  <text x="47" y="381.3" text-anchor="end" dominant-baseline="middle" fill="#7d8590" font-size="10">2</text>
  <line x1="55" y1="600" x2="830" y2="600" stroke="#30363d" stroke-width="1.5"/>
  <rect x="67.1" y="513.7" width="18.2" height="86.3" fill="#60a5fa" rx="1"/>
  <rect x="67.1" y="466.0" width="18.2" height="47.7" fill="#4680c4" rx="1"/>
  <rect x="67.1" y="452.3" width="18.2" height="13.7" fill="#60a5fa" rx="1"/>
  <rect x="85.3" y="531.9" width="18.2" height="68.1" fill="#f87171" rx="1"/>
  <rect x="85.3" y="482.9" width="18.2" height="49.0" fill="#c45050" rx="1"/>
  <rect x="85.3" y="467.3" width="18.2" height="15.6" fill="#f87171" rx="1"/>
  <rect x="103.4" y="513.6" width="18.2" height="86.4" fill="#fbbf24" rx="1"/>
  <rect x="103.4" y="465.9" width="18.2" height="47.7" fill="#c49520" rx="1"/>
  <rect x="103.4" y="450.0" width="18.2" height="15.9" fill="#fbbf24" rx="1"/>
  <rect x="121.6" y="511.9" width="18.2" height="88.1" fill="#4ade80" rx="1"/>
  <rect x="121.6" y="464.0" width="18.2" height="47.9" fill="#3aaf60" rx="1"/>
  <rect x="121.6" y="445.0" width="18.2" height="19.0" fill="#4ade80" rx="1"/>
  <text x="103.4" y="616" text-anchor="middle" fill="#e6edf3" font-size="10" font-weight="600">mr</text>
  <text x="103.4" y="628" text-anchor="middle" fill="#7d8590" font-size="9">10.0 MB</text>
  <rect x="164.0" y="515.1" width="18.2" height="84.9" fill="#60a5fa" rx="1"/>
  <rect x="164.0" y="469.9" width="18.2" height="45.1" fill="#4680c4" rx="1"/>
  <rect x="164.0" y="455.7" width="18.2" height="14.2" fill="#60a5fa" rx="1"/>
  <rect x="182.1" y="523.0" width="18.2" height="77.0" fill="#f87171" rx="1"/>
  <rect x="182.1" y="476.9" width="18.2" height="46.1" fill="#c45050" rx="1"/>
  <rect x="182.1" y="453.3" width="18.2" height="23.5" fill="#f87171" rx="1"/>
  <rect x="200.3" y="514.3" width="18.2" height="85.7" fill="#fbbf24" rx="1"/>
  <rect x="200.3" y="469.1" width="18.2" height="45.1" fill="#c49520" rx="1"/>
  <rect x="200.3" y="451.4" width="18.2" height="17.7" fill="#fbbf24" rx="1"/>
  <rect x="218.5" y="509.0" width="18.2" height="91.0" fill="#4ade80" rx="1"/>
  <rect x="218.5" y="463.8" width="18.2" height="45.2" fill="#3aaf60" rx="1"/>
  <rect x="218.5" y="443.6" width="18.2" height="20.1" fill="#4ade80" rx="1"/>
  <text x="200.3" y="616" text-anchor="middle" fill="#e6edf3" font-size="10" font-weight="600">mozilla</text>
  <text x="200.3" y="628" text-anchor="middle" fill="#7d8590" font-size="9">51.2 MB</text>
  <rect x="260.9" y="546.0" width="18.2" height="54.0" fill="#60a5fa" rx="1"/>
  <rect x="260.9" y="531.5" width="18.2" height="14.4" fill="#4680c4" rx="1"/>
  <rect x="260.9" y="521.2" width="18.2" height="10.3" fill="#60a5fa" rx="1"/>
  <rect x="279.0" y="549.1" width="18.2" height="50.9" fill="#f87171" rx="1"/>
  <rect x="279.0" y="534.6" width="18.2" height="14.4" fill="#c45050" rx="1"/>
  <rect x="279.0" y="513.3" width="18.2" height="21.4" fill="#f87171" rx="1"/>
  <rect x="297.2" y="547.8" width="18.2" height="52.2" fill="#fbbf24" rx="1"/>
  <rect x="297.2" y="533.4" width="18.2" height="14.4" fill="#c49520" rx="1"/>
  <rect x="297.2" y="519.9" width="18.2" height="13.5" fill="#fbbf24" rx="1"/>
  <rect x="315.4" y="542.5" width="18.2" height="57.5" fill="#4ade80" rx="1"/>
  <rect x="315.4" y="528.1" width="18.2" height="14.4" fill="#3aaf60" rx="1"/>
  <rect x="315.4" y="513.9" width="18.2" height="14.1" fill="#4ade80" rx="1"/>
  <text x="297.2" y="616" text-anchor="middle" fill="#e6edf3" font-size="10" font-weight="600">nci</text>
  <text x="297.2" y="628" text-anchor="middle" fill="#7d8590" font-size="9">33.6 MB</text>
  <rect x="357.7" y="517.3" width="18.2" height="82.7" fill="#60a5fa" rx="1"/>
  <rect x="357.7" y="471.7" width="18.2" height="45.6" fill="#4680c4" rx="1"/>
  <rect x="357.7" y="457.0" width="18.2" height="14.7" fill="#60a5fa" rx="1"/>
  <rect x="375.9" y="526.2" width="18.2" height="73.8" fill="#f87171" rx="1"/>
  <rect x="375.9" y="476.7" width="18.2" height="49.5" fill="#c45050" rx="1"/>
  <rect x="375.9" y="447.1" width="18.2" height="29.6" fill="#f87171" rx="1"/>
  <rect x="394.1" y="513.5" width="18.2" height="86.5" fill="#fbbf24" rx="1"/>
  <rect x="394.1" y="467.9" width="18.2" height="45.6" fill="#c49520" rx="1"/>
  <rect x="394.1" y="448.1" width="18.2" height="19.8" fill="#fbbf24" rx="1"/>
  <rect x="412.2" y="507.4" width="18.2" height="92.6" fill="#4ade80" rx="1"/>
  <rect x="412.2" y="461.7" width="18.2" height="45.8" fill="#3aaf60" rx="1"/>
  <rect x="412.2" y="441.8" width="18.2" height="19.9" fill="#4ade80" rx="1"/>
  <text x="394.1" y="616" text-anchor="middle" fill="#e6edf3" font-size="10" font-weight="600">osdb</text>
  <text x="394.1" y="628" text-anchor="middle" fill="#7d8590" font-size="9">10.1 MB</text>
  <rect x="454.6" y="513.6" width="18.2" height="86.4" fill="#60a5fa" rx="1"/>
  <rect x="454.6" y="482.3" width="18.2" height="31.2" fill="#4680c4" rx="1"/>
  <rect x="454.6" y="468.5" width="18.2" height="13.8" fill="#60a5fa" rx="1"/>
  <rect x="472.8" y="519.0" width="18.2" height="81.0" fill="#f87171" rx="1"/>
  <rect x="472.8" y="487.4" width="18.2" height="31.6" fill="#c45050" rx="1"/>
  <rect x="472.8" y="463.4" width="18.2" height="23.9" fill="#f87171" rx="1"/>
  <rect x="490.9" y="512.0" width="18.2" height="88.0" fill="#fbbf24" rx="1"/>
  <rect x="490.9" y="480.8" width="18.2" height="31.2" fill="#c49520" rx="1"/>
  <rect x="490.9" y="464.3" width="18.2" height="16.5" fill="#fbbf24" rx="1"/>
  <rect x="509.1" y="509.1" width="18.2" height="90.9" fill="#4ade80" rx="1"/>
  <rect x="509.1" y="477.8" width="18.2" height="31.2" fill="#3aaf60" rx="1"/>
  <rect x="509.1" y="459.6" width="18.2" height="18.2" fill="#4ade80" rx="1"/>
  <text x="490.9" y="616" text-anchor="middle" fill="#e6edf3" font-size="10" font-weight="600">samba</text>
  <text x="490.9" y="628" text-anchor="middle" fill="#7d8590" font-size="9">21.6 MB</text>
  <rect x="551.5" y="525.8" width="18.2" height="74.2" fill="#60a5fa" rx="1"/>
  <rect x="551.5" y="443.9" width="18.2" height="81.9" fill="#4680c4" rx="1"/>
  <rect x="551.5" y="433.4" width="18.2" height="10.5" fill="#60a5fa" rx="1"/>
  <rect x="569.6" y="564.2" width="18.2" height="35.8" fill="#f87171" rx="1"/>
  <rect x="569.6" y="479.7" width="18.2" height="84.5" fill="#c45050" rx="1"/>
  <rect x="569.6" y="463.5" width="18.2" height="16.2" fill="#f87171" rx="1"/>
  <rect x="587.8" y="522.1" width="18.2" height="77.9" fill="#fbbf24" rx="1"/>
  <rect x="587.8" y="440.2" width="18.2" height="81.9" fill="#c49520" rx="1"/>
  <rect x="587.8" y="422.8" width="18.2" height="17.4" fill="#fbbf24" rx="1"/>
  <rect x="606.0" y="518.9" width="18.2" height="81.1" fill="#4ade80" rx="1"/>
  <rect x="606.0" y="436.6" width="18.2" height="82.3" fill="#3aaf60" rx="1"/>
  <rect x="606.0" y="420.8" width="18.2" height="15.8" fill="#4ade80" rx="1"/>
  <text x="587.8" y="616" text-anchor="middle" fill="#e6edf3" font-size="10" font-weight="600">sao</text>
  <text x="587.8" y="628" text-anchor="middle" fill="#7d8590" font-size="9">7.3 MB</text>
  <rect x="648.4" y="477.4" width="18.2" height="122.6" fill="#60a5fa" rx="1"/>
  <rect x="648.4" y="434.9" width="18.2" height="42.5" fill="#4680c4" rx="1"/>
  <rect x="648.4" y="418.2" width="18.2" height="16.7" fill="#60a5fa" rx="1"/>
  <rect x="666.5" y="482.2" width="18.2" height="117.8" fill="#f87171" rx="1"/>
  <rect x="666.5" y="439.1" width="18.2" height="43.1" fill="#c45050" rx="1"/>
  <rect x="666.5" y="408.5" width="18.2" height="30.6" fill="#f87171" rx="1"/>
  <rect x="684.7" y="473.0" width="18.2" height="127.0" fill="#fbbf24" rx="1"/>
  <rect x="684.7" y="430.6" width="18.2" height="42.5" fill="#c49520" rx="1"/>
  <rect x="684.7" y="410.5" width="18.2" height="20.0" fill="#fbbf24" rx="1"/>
  <rect x="702.9" y="469.5" width="18.2" height="130.5" fill="#4ade80" rx="1"/>
  <rect x="702.9" y="427.0" width="18.2" height="42.5" fill="#3aaf60" rx="1"/>
  <rect x="702.9" y="405.5" width="18.2" height="21.5" fill="#4ade80" rx="1"/>
  <text x="684.7" y="616" text-anchor="middle" fill="#e6edf3" font-size="10" font-weight="600">webster</text>
  <text x="684.7" y="628" text-anchor="middle" fill="#7d8590" font-size="9">41.5 MB</text>
  <rect x="745.2" y="574.0" width="18.2" height="26.0" fill="#60a5fa" rx="1"/>
  <rect x="745.2" y="487.4" width="18.2" height="86.6" fill="#4680c4" rx="1"/>
  <rect x="745.2" y="484.0" width="18.2" height="3.5" fill="#60a5fa" rx="1"/>
  <rect x="763.4" y="598.7" width="18.2" height="1.3" fill="#f87171" rx="1"/>
  <rect x="763.4" y="510.8" width="18.2" height="87.8" fill="#c45050" rx="1"/>
  <rect x="763.4" y="509.7" width="18.2" height="1.2" fill="#f87171" rx="1"/>
  <rect x="781.6" y="572.9" width="18.2" height="27.1" fill="#fbbf24" rx="1"/>
  <rect x="781.6" y="486.3" width="18.2" height="86.6" fill="#c49520" rx="1"/>
  <rect x="781.6" y="482.2" width="18.2" height="4.1" fill="#fbbf24" rx="1"/>
  <rect x="799.7" y="578.6" width="18.2" height="21.4" fill="#4ade80" rx="1"/>
  <rect x="799.7" y="491.8" width="18.2" height="86.9" fill="#3aaf60" rx="1"/>
  <rect x="799.7" y="488.9" width="18.2" height="2.8" fill="#4ade80" rx="1"/>
  <text x="781.6" y="616" text-anchor="middle" fill="#e6edf3" font-size="10" font-weight="600">x-ray</text>
  <text x="781.6" y="628" text-anchor="middle" fill="#7d8590" font-size="9">8.5 MB</text>
  <rect x="262" y="645" width="12" height="12" fill="#60a5fa" rx="2"/>
  <text x="280" y="655" fill="#e6edf3" font-size="11" font-weight="500">lz4 (C)</text>
  <rect x="442" y="645" width="12" height="12" fill="#f87171" rx="2"/>
  <text x="460" y="655" fill="#e6edf3" font-size="11" font-weight="500">lz4rip (safe Rust)</text>
  <rect x="262" y="665" width="12" height="12" fill="#fbbf24" rx="2"/>
  <text x="280" y="675" fill="#e6edf3" font-size="11" font-weight="500">lz4_flex (unsafe Rust)</text>
  <rect x="442" y="665" width="12" height="12" fill="#4ade80" rx="2"/>
  <text x="460" y="675" fill="#e6edf3" font-size="11" font-weight="500">lz4_flex (safe Rust)</text>
  <rect x="282" y="689" width="12" height="12" fill="#60a5fa" rx="2"/>
  <text x="300" y="699" fill="#7d8590" font-size="10">compress + decompress</text>
  <rect x="482" y="689" width="12" height="12" fill="#4680c4" rx="2"/>
  <text x="500" y="699" fill="#7d8590" font-size="10">transfer (ratio)</text>
</svg>
