<svg xmlns="http://www.w3.org/2000/svg" viewBox="0 0 850 720" font-family="system-ui, -apple-system, sans-serif">
  <rect width="850" height="720" fill="#0d1117"/>
  <text x="442.5" y="22" text-anchor="middle" fill="#e6edf3" font-size="14" font-weight="700">LZ4 Block: Compress + Transfer @1 GB/s + Decompress (lower is better)</text>
  <text x="442.5" y="38" text-anchor="middle" fill="#7d8590" font-size="10">Apple M4</text>
  <line x1="55" y1="247.1" x2="830" y2="247.1" stroke="#21262d" stroke-width="1"/>
  <text x="47" y="247.1" text-anchor="end" dominant-baseline="middle" fill="#7d8590" font-size="10">0</text>
  <line x1="55" y1="204.2" x2="830" y2="204.2" stroke="#21262d" stroke-width="1"/>
  <text x="47" y="204.2" text-anchor="end" dominant-baseline="middle" fill="#7d8590" font-size="10">1</text>
  <line x1="55" y1="161.4" x2="830" y2="161.4" stroke="#21262d" stroke-width="1"/>
  <text x="47" y="161.4" text-anchor="end" dominant-baseline="middle" fill="#7d8590" font-size="10">2</text>
  <line x1="55" y1="118.5" x2="830" y2="118.5" stroke="#21262d" stroke-width="1"/>
  <text x="47" y="118.5" text-anchor="end" dominant-baseline="middle" fill="#7d8590" font-size="10">2</text>
  <line x1="55" y1="75.6" x2="830" y2="75.6" stroke="#21262d" stroke-width="1"/>
  <text x="47" y="75.6" text-anchor="end" dominant-baseline="middle" fill="#7d8590" font-size="10">2</text>
  <line x1="55" y1="290" x2="830" y2="290" stroke="#30363d" stroke-width="1.5"/>
  <text x="22" y="325.0" text-anchor="middle" fill="#e6edf3" font-size="11" font-weight="600" transform="rotate(-90,22,325.0)">seconds / GB</text>
  <rect x="67.1" y="210.5" width="18.2" height="79.5" fill="#60a5fa" rx="1"/>
  <rect x="67.1" y="144.6" width="18.2" height="65.9" fill="#4680c4" rx="1"/>
  <rect x="67.1" y="112.3" width="18.2" height="32.4" fill="#60a5fa" rx="1"/>
  <rect x="85.3" y="214.3" width="18.2" height="75.7" fill="#f87171" rx="1"/>
  <rect x="85.3" y="144.4" width="18.2" height="69.9" fill="#c45050" rx="1"/>
  <rect x="85.3" y="115.6" width="18.2" height="28.8" fill="#f87171" rx="1"/>
  <rect x="103.4" y="196.3" width="18.2" height="93.7" fill="#f59e0b" rx="1"/>
  <rect x="103.4" y="130.3" width="18.2" height="66.0" fill="#c47d08" rx="1"/>
  <rect x="103.4" y="96.8" width="18.2" height="33.4" fill="#f59e0b" rx="1"/>
  <rect x="121.6" y="186.4" width="18.2" height="103.6" fill="#4ade80" rx="1"/>
  <rect x="121.6" y="120.4" width="18.2" height="66.0" fill="#3aaf60" rx="1"/>
  <rect x="121.6" y="85.6" width="18.2" height="34.8" fill="#4ade80" rx="1"/>
  <text x="103.4" y="306" text-anchor="middle" fill="#e6edf3" font-size="10" font-weight="600">1k</text>
  <text x="103.4" y="318" text-anchor="middle" fill="#7d8590" font-size="9">725 B</text>
  <rect x="164.0" y="204.4" width="18.2" height="85.6" fill="#60a5fa" rx="1"/>
  <rect x="164.0" y="155.4" width="18.2" height="48.9" fill="#4680c4" rx="1"/>
  <rect x="164.0" y="133.6" width="18.2" height="21.8" fill="#60a5fa" rx="1"/>
  <rect x="182.1" y="231.8" width="18.2" height="58.2" fill="#f87171" rx="1"/>
  <rect x="182.1" y="181.7" width="18.2" height="50.1" fill="#c45050" rx="1"/>
  <rect x="182.1" y="166.1" width="18.2" height="15.6" fill="#f87171" rx="1"/>
  <rect x="200.3" y="209.9" width="18.2" height="80.1" fill="#f59e0b" rx="1"/>
  <rect x="200.3" y="160.2" width="18.2" height="49.7" fill="#c47d08" rx="1"/>
  <rect x="200.3" y="138.8" width="18.2" height="21.3" fill="#f59e0b" rx="1"/>
  <rect x="218.5" y="206.3" width="18.2" height="83.7" fill="#4ade80" rx="1"/>
  <rect x="218.5" y="156.6" width="18.2" height="49.7" fill="#3aaf60" rx="1"/>
  <rect x="218.5" y="134.0" width="18.2" height="22.6" fill="#4ade80" rx="1"/>
  <text x="200.3" y="306" text-anchor="middle" fill="#e6edf3" font-size="10" font-weight="600">34k</text>
  <text x="200.3" y="318" text-anchor="middle" fill="#7d8590" font-size="9">34 KB</text>
  <rect x="260.9" y="207.9" width="18.2" height="82.1" fill="#60a5fa" rx="1"/>
  <rect x="260.9" y="159.9" width="18.2" height="48.1" fill="#4680c4" rx="1"/>
  <rect x="260.9" y="139.1" width="18.2" height="20.7" fill="#60a5fa" rx="1"/>
  <rect x="279.0" y="234.6" width="18.2" height="55.4" fill="#f87171" rx="1"/>
  <rect x="279.0" y="184.1" width="18.2" height="50.5" fill="#c45050" rx="1"/>
  <rect x="279.0" y="169.7" width="18.2" height="14.4" fill="#f87171" rx="1"/>
  <rect x="297.2" y="209.9" width="18.2" height="80.1" fill="#f59e0b" rx="1"/>
  <rect x="297.2" y="160.7" width="18.2" height="49.2" fill="#c47d08" rx="1"/>
  <rect x="297.2" y="140.7" width="18.2" height="20.0" fill="#f59e0b" rx="1"/>
  <rect x="315.4" y="209.7" width="18.2" height="80.3" fill="#4ade80" rx="1"/>
  <rect x="315.4" y="160.5" width="18.2" height="49.2" fill="#3aaf60" rx="1"/>
  <rect x="315.4" y="139.7" width="18.2" height="20.8" fill="#4ade80" rx="1"/>
  <text x="297.2" y="306" text-anchor="middle" fill="#e6edf3" font-size="10" font-weight="600">65k</text>
  <text x="297.2" y="318" text-anchor="middle" fill="#7d8590" font-size="9">65 KB</text>
  <rect x="357.7" y="256.6" width="18.2" height="33.4" fill="#60a5fa" rx="1"/>
  <rect x="357.7" y="237.0" width="18.2" height="19.6" fill="#4680c4" rx="1"/>
  <rect x="357.7" y="228.8" width="18.2" height="8.2" fill="#60a5fa" rx="1"/>
  <rect x="375.9" y="260.9" width="18.2" height="29.1" fill="#f87171" rx="1"/>
  <rect x="375.9" y="240.6" width="18.2" height="20.2" fill="#c45050" rx="1"/>
  <rect x="375.9" y="232.2" width="18.2" height="8.5" fill="#f87171" rx="1"/>
  <rect x="394.1" y="258.3" width="18.2" height="31.7" fill="#f59e0b" rx="1"/>
  <rect x="394.1" y="238.7" width="18.2" height="19.6" fill="#c47d08" rx="1"/>
  <rect x="394.1" y="231.3" width="18.2" height="7.4" fill="#f59e0b" rx="1"/>
  <rect x="412.2" y="257.9" width="18.2" height="32.1" fill="#4ade80" rx="1"/>
  <rect x="412.2" y="238.3" width="18.2" height="19.6" fill="#3aaf60" rx="1"/>
  <rect x="412.2" y="230.7" width="18.2" height="7.6" fill="#4ade80" rx="1"/>
  <text x="394.1" y="306" text-anchor="middle" fill="#e6edf3" font-size="10" font-weight="600">66k_JSON</text>
  <text x="394.1" y="318" text-anchor="middle" fill="#7d8590" font-size="9">67 KB</text>
  <rect x="454.6" y="155.4" width="18.2" height="134.6" fill="#60a5fa" rx="1"/>
  <rect x="454.6" y="101.3" width="18.2" height="54.1" fill="#4680c4" rx="1"/>
  <rect x="454.6" y="84.0" width="18.2" height="17.4" fill="#60a5fa" rx="1"/>
  <rect x="472.8" y="176.6" width="18.2" height="113.4" fill="#f87171" rx="1"/>
  <rect x="472.8" y="115.3" width="18.2" height="61.3" fill="#c45050" rx="1"/>
  <rect x="472.8" y="97.0" width="18.2" height="18.4" fill="#f87171" rx="1"/>
  <rect x="490.9" y="152.8" width="18.2" height="137.2" fill="#f59e0b" rx="1"/>
  <rect x="490.9" y="98.7" width="18.2" height="54.1" fill="#c47d08" rx="1"/>
  <rect x="490.9" y="80.6" width="18.2" height="18.1" fill="#f59e0b" rx="1"/>
  <rect x="509.1" y="144.9" width="18.2" height="145.1" fill="#4ade80" rx="1"/>
  <rect x="509.1" y="90.8" width="18.2" height="54.1" fill="#3aaf60" rx="1"/>
  <rect x="509.1" y="71.8" width="18.2" height="19.0" fill="#4ade80" rx="1"/>
  <text x="490.9" y="306" text-anchor="middle" fill="#e6edf3" font-size="10" font-weight="600">dickens</text>
  <text x="490.9" y="318" text-anchor="middle" fill="#7d8590" font-size="9">10.2 MB</text>
  <rect x="551.5" y="256.7" width="18.2" height="33.3" fill="#60a5fa" rx="1"/>
  <rect x="551.5" y="247.3" width="18.2" height="9.4" fill="#4680c4" rx="1"/>
  <rect x="551.5" y="241.0" width="18.2" height="6.3" fill="#60a5fa" rx="1"/>
  <rect x="569.6" y="262.3" width="18.2" height="27.7" fill="#f87171" rx="1"/>
  <rect x="569.6" y="252.8" width="18.2" height="9.6" fill="#c45050" rx="1"/>
  <rect x="569.6" y="246.1" width="18.2" height="6.7" fill="#f87171" rx="1"/>
  <rect x="587.8" y="256.1" width="18.2" height="33.9" fill="#f59e0b" rx="1"/>
  <rect x="587.8" y="246.6" width="18.2" height="9.4" fill="#c47d08" rx="1"/>
  <rect x="587.8" y="239.7" width="18.2" height="6.9" fill="#f59e0b" rx="1"/>
  <rect x="606.0" y="256.3" width="18.2" height="33.7" fill="#4ade80" rx="1"/>
  <rect x="606.0" y="246.8" width="18.2" height="9.4" fill="#3aaf60" rx="1"/>
  <rect x="606.0" y="238.8" width="18.2" height="8.0" fill="#4ade80" rx="1"/>
  <text x="587.8" y="306" text-anchor="middle" fill="#e6edf3" font-size="10" font-weight="600">hdfs.json</text>
  <text x="587.8" y="318" text-anchor="middle" fill="#7d8590" font-size="9">7.0 MB</text>
  <rect x="648.4" y="139.8" width="18.2" height="150.2" fill="#60a5fa" rx="1"/>
  <rect x="648.4" y="98.6" width="18.2" height="41.2" fill="#4680c4" rx="1"/>
  <rect x="648.4" y="78.8" width="18.2" height="19.8" fill="#60a5fa" rx="1"/>
  <rect x="666.5" y="153.4" width="18.2" height="136.6" fill="#f87171" rx="1"/>
  <rect x="666.5" y="109.8" width="18.2" height="43.6" fill="#c45050" rx="1"/>
  <rect x="666.5" y="89.7" width="18.2" height="20.1" fill="#f87171" rx="1"/>
  <rect x="684.7" y="141.2" width="18.2" height="148.8" fill="#f59e0b" rx="1"/>
  <rect x="684.7" y="100.0" width="18.2" height="41.2" fill="#c47d08" rx="1"/>
  <rect x="684.7" y="79.7" width="18.2" height="20.3" fill="#f59e0b" rx="1"/>
  <rect x="702.9" y="136.5" width="18.2" height="153.5" fill="#4ade80" rx="1"/>
  <rect x="702.9" y="95.3" width="18.2" height="41.2" fill="#3aaf60" rx="1"/>
  <rect x="702.9" y="73.8" width="18.2" height="21.5" fill="#4ade80" rx="1"/>
  <text x="684.7" y="306" text-anchor="middle" fill="#e6edf3" font-size="10" font-weight="600">reymont.pdf</text>
  <text x="684.7" y="318" text-anchor="middle" fill="#7d8590" font-size="9">6.6 MB</text>
  <rect x="745.2" y="223.0" width="18.2" height="67.0" fill="#60a5fa" rx="1"/>
  <rect x="745.2" y="203.1" width="18.2" height="19.8" fill="#4680c4" rx="1"/>
  <rect x="745.2" y="190.1" width="18.2" height="13.1" fill="#60a5fa" rx="1"/>
  <rect x="763.4" y="227.8" width="18.2" height="62.2" fill="#f87171" rx="1"/>
  <rect x="763.4" y="206.8" width="18.2" height="21.0" fill="#c45050" rx="1"/>
  <rect x="763.4" y="192.7" width="18.2" height="14.2" fill="#f87171" rx="1"/>
  <rect x="781.6" y="223.9" width="18.2" height="66.1" fill="#f59e0b" rx="1"/>
  <rect x="781.6" y="204.1" width="18.2" height="19.8" fill="#c47d08" rx="1"/>
  <rect x="781.6" y="189.3" width="18.2" height="14.8" fill="#f59e0b" rx="1"/>
  <rect x="799.7" y="220.7" width="18.2" height="69.3" fill="#4ade80" rx="1"/>
  <rect x="799.7" y="200.9" width="18.2" height="19.8" fill="#3aaf60" rx="1"/>
  <rect x="799.7" y="185.3" width="18.2" height="15.7" fill="#4ade80" rx="1"/>
  <text x="781.6" y="306" text-anchor="middle" fill="#e6edf3" font-size="10" font-weight="600">xml_collection.xml</text>
  <text x="781.6" y="318" text-anchor="middle" fill="#7d8590" font-size="9">5.3 MB</text>
  <line x1="55" y1="557.1" x2="830" y2="557.1" stroke="#21262d" stroke-width="1"/>
  <text x="47" y="557.1" text-anchor="end" dominant-baseline="middle" fill="#7d8590" font-size="10">0</text>
  <line x1="55" y1="514.2" x2="830" y2="514.2" stroke="#21262d" stroke-width="1"/>
  <text x="47" y="514.2" text-anchor="end" dominant-baseline="middle" fill="#7d8590" font-size="10">1</text>
  <line x1="55" y1="471.4" x2="830" y2="471.4" stroke="#21262d" stroke-width="1"/>
  <text x="47" y="471.4" text-anchor="end" dominant-baseline="middle" fill="#7d8590" font-size="10">2</text>
  <line x1="55" y1="428.5" x2="830" y2="428.5" stroke="#21262d" stroke-width="1"/>
  <text x="47" y="428.5" text-anchor="end" dominant-baseline="middle" fill="#7d8590" font-size="10">2</text>
  <line x1="55" y1="385.6" x2="830" y2="385.6" stroke="#21262d" stroke-width="1"/>
  <text x="47" y="385.6" text-anchor="end" dominant-baseline="middle" fill="#7d8590" font-size="10">2</text>
  <line x1="55" y1="600" x2="830" y2="600" stroke="#30363d" stroke-width="1.5"/>
  <rect x="67.1" y="514.7" width="18.2" height="85.3" fill="#60a5fa" rx="1"/>
  <rect x="67.1" y="467.9" width="18.2" height="46.8" fill="#4680c4" rx="1"/>
  <rect x="67.1" y="453.8" width="18.2" height="14.0" fill="#60a5fa" rx="1"/>
  <rect x="85.3" y="540.2" width="18.2" height="59.8" fill="#f87171" rx="1"/>
  <rect x="85.3" y="489.8" width="18.2" height="50.4" fill="#c45050" rx="1"/>
  <rect x="85.3" y="477.3" width="18.2" height="12.5" fill="#f87171" rx="1"/>
  <rect x="103.4" y="518.7" width="18.2" height="81.3" fill="#f59e0b" rx="1"/>
  <rect x="103.4" y="471.7" width="18.2" height="47.0" fill="#c47d08" rx="1"/>
  <rect x="103.4" y="452.2" width="18.2" height="19.5" fill="#f59e0b" rx="1"/>
  <rect x="121.6" y="512.9" width="18.2" height="87.1" fill="#4ade80" rx="1"/>
  <rect x="121.6" y="466.0" width="18.2" height="47.0" fill="#3aaf60" rx="1"/>
  <rect x="121.6" y="447.6" width="18.2" height="18.4" fill="#4ade80" rx="1"/>
  <text x="103.4" y="616" text-anchor="middle" fill="#e6edf3" font-size="10" font-weight="600">mr</text>
  <text x="103.4" y="628" text-anchor="middle" fill="#7d8590" font-size="9">10.0 MB</text>
  <rect x="164.0" y="515.6" width="18.2" height="84.4" fill="#60a5fa" rx="1"/>
  <rect x="164.0" y="471.3" width="18.2" height="44.3" fill="#4680c4" rx="1"/>
  <rect x="164.0" y="456.9" width="18.2" height="14.5" fill="#60a5fa" rx="1"/>
  <rect x="182.1" y="526.6" width="18.2" height="73.4" fill="#f87171" rx="1"/>
  <rect x="182.1" y="479.9" width="18.2" height="46.7" fill="#c45050" rx="1"/>
  <rect x="182.1" y="464.0" width="18.2" height="15.9" fill="#f87171" rx="1"/>
  <rect x="200.3" y="515.3" width="18.2" height="84.7" fill="#f59e0b" rx="1"/>
  <rect x="200.3" y="471.0" width="18.2" height="44.4" fill="#c47d08" rx="1"/>
  <rect x="200.3" y="452.1" width="18.2" height="18.9" fill="#f59e0b" rx="1"/>
  <rect x="218.5" y="510.2" width="18.2" height="89.8" fill="#4ade80" rx="1"/>
  <rect x="218.5" y="465.8" width="18.2" height="44.4" fill="#3aaf60" rx="1"/>
  <rect x="218.5" y="445.8" width="18.2" height="20.0" fill="#4ade80" rx="1"/>
  <text x="200.3" y="616" text-anchor="middle" fill="#e6edf3" font-size="10" font-weight="600">mozilla</text>
  <text x="200.3" y="628" text-anchor="middle" fill="#7d8590" font-size="9">51.2 MB</text>
  <rect x="260.9" y="546.0" width="18.2" height="54.0" fill="#60a5fa" rx="1"/>
  <rect x="260.9" y="531.9" width="18.2" height="14.1" fill="#4680c4" rx="1"/>
  <rect x="260.9" y="521.4" width="18.2" height="10.5" fill="#60a5fa" rx="1"/>
  <rect x="279.0" y="550.2" width="18.2" height="49.8" fill="#f87171" rx="1"/>
  <rect x="279.0" y="535.6" width="18.2" height="14.6" fill="#c45050" rx="1"/>
  <rect x="279.0" y="524.7" width="18.2" height="10.9" fill="#f87171" rx="1"/>
  <rect x="297.2" y="545.1" width="18.2" height="54.9" fill="#f59e0b" rx="1"/>
  <rect x="297.2" y="530.9" width="18.2" height="14.1" fill="#c47d08" rx="1"/>
  <rect x="297.2" y="516.8" width="18.2" height="14.1" fill="#f59e0b" rx="1"/>
  <rect x="315.4" y="543.5" width="18.2" height="56.5" fill="#4ade80" rx="1"/>
  <rect x="315.4" y="529.4" width="18.2" height="14.1" fill="#3aaf60" rx="1"/>
  <rect x="315.4" y="515.4" width="18.2" height="13.9" fill="#4ade80" rx="1"/>
  <text x="297.2" y="616" text-anchor="middle" fill="#e6edf3" font-size="10" font-weight="600">nci</text>
  <text x="297.2" y="628" text-anchor="middle" fill="#7d8590" font-size="9">33.6 MB</text>
  <rect x="357.7" y="516.7" width="18.2" height="83.3" fill="#60a5fa" rx="1"/>
  <rect x="357.7" y="472.0" width="18.2" height="44.7" fill="#4680c4" rx="1"/>
  <rect x="357.7" y="457.3" width="18.2" height="14.7" fill="#60a5fa" rx="1"/>
  <rect x="375.9" y="530.5" width="18.2" height="69.5" fill="#f87171" rx="1"/>
  <rect x="375.9" y="471.2" width="18.2" height="59.3" fill="#c45050" rx="1"/>
  <rect x="375.9" y="453.2" width="18.2" height="18.0" fill="#f87171" rx="1"/>
  <rect x="394.1" y="515.3" width="18.2" height="84.7" fill="#f59e0b" rx="1"/>
  <rect x="394.1" y="470.4" width="18.2" height="44.9" fill="#c47d08" rx="1"/>
  <rect x="394.1" y="452.7" width="18.2" height="17.7" fill="#f59e0b" rx="1"/>
  <rect x="412.2" y="508.3" width="18.2" height="91.7" fill="#4ade80" rx="1"/>
  <rect x="412.2" y="463.4" width="18.2" height="44.9" fill="#3aaf60" rx="1"/>
  <rect x="412.2" y="443.4" width="18.2" height="19.9" fill="#4ade80" rx="1"/>
  <text x="394.1" y="616" text-anchor="middle" fill="#e6edf3" font-size="10" font-weight="600">osdb</text>
  <text x="394.1" y="628" text-anchor="middle" fill="#7d8590" font-size="9">10.1 MB</text>
  <rect x="454.6" y="513.1" width="18.2" height="86.9" fill="#60a5fa" rx="1"/>
  <rect x="454.6" y="482.4" width="18.2" height="30.6" fill="#4680c4" rx="1"/>
  <rect x="454.6" y="468.6" width="18.2" height="13.8" fill="#60a5fa" rx="1"/>
  <rect x="472.8" y="521.8" width="18.2" height="78.2" fill="#f87171" rx="1"/>
  <rect x="472.8" y="489.0" width="18.2" height="32.8" fill="#c45050" rx="1"/>
  <rect x="472.8" y="474.2" width="18.2" height="14.9" fill="#f87171" rx="1"/>
  <rect x="490.9" y="514.1" width="18.2" height="85.9" fill="#f59e0b" rx="1"/>
  <rect x="490.9" y="483.5" width="18.2" height="30.6" fill="#c47d08" rx="1"/>
  <rect x="490.9" y="466.2" width="18.2" height="17.3" fill="#f59e0b" rx="1"/>
  <rect x="509.1" y="510.1" width="18.2" height="89.9" fill="#4ade80" rx="1"/>
  <rect x="509.1" y="479.5" width="18.2" height="30.6" fill="#3aaf60" rx="1"/>
  <rect x="509.1" y="461.3" width="18.2" height="18.2" fill="#4ade80" rx="1"/>
  <text x="490.9" y="616" text-anchor="middle" fill="#e6edf3" font-size="10" font-weight="600">samba</text>
  <text x="490.9" y="628" text-anchor="middle" fill="#7d8590" font-size="9">21.6 MB</text>
  <rect x="551.5" y="526.9" width="18.2" height="73.1" fill="#60a5fa" rx="1"/>
  <rect x="551.5" y="446.6" width="18.2" height="80.3" fill="#4680c4" rx="1"/>
  <rect x="551.5" y="436.3" width="18.2" height="10.3" fill="#60a5fa" rx="1"/>
  <rect x="569.6" y="577.0" width="18.2" height="23.0" fill="#f87171" rx="1"/>
  <rect x="569.6" y="492.6" width="18.2" height="84.4" fill="#c45050" rx="1"/>
  <rect x="569.6" y="488.4" width="18.2" height="4.2" fill="#f87171" rx="1"/>
  <rect x="587.8" y="530.3" width="18.2" height="69.7" fill="#f59e0b" rx="1"/>
  <rect x="587.8" y="449.7" width="18.2" height="80.7" fill="#c47d08" rx="1"/>
  <rect x="587.8" y="437.4" width="18.2" height="12.2" fill="#f59e0b" rx="1"/>
  <rect x="606.0" y="519.4" width="18.2" height="80.6" fill="#4ade80" rx="1"/>
  <rect x="606.0" y="438.7" width="18.2" height="80.7" fill="#3aaf60" rx="1"/>
  <rect x="606.0" y="423.0" width="18.2" height="15.7" fill="#4ade80" rx="1"/>
  <text x="587.8" y="616" text-anchor="middle" fill="#e6edf3" font-size="10" font-weight="600">sao</text>
  <text x="587.8" y="628" text-anchor="middle" fill="#7d8590" font-size="9">7.3 MB</text>
  <rect x="648.4" y="477.3" width="18.2" height="122.7" fill="#60a5fa" rx="1"/>
  <rect x="648.4" y="435.6" width="18.2" height="41.7" fill="#4680c4" rx="1"/>
  <rect x="648.4" y="418.7" width="18.2" height="17.0" fill="#60a5fa" rx="1"/>
  <rect x="666.5" y="490.0" width="18.2" height="110.0" fill="#f87171" rx="1"/>
  <rect x="666.5" y="444.2" width="18.2" height="45.8" fill="#c45050" rx="1"/>
  <rect x="666.5" y="426.4" width="18.2" height="17.8" fill="#f87171" rx="1"/>
  <rect x="684.7" y="477.9" width="18.2" height="122.1" fill="#f59e0b" rx="1"/>
  <rect x="684.7" y="436.2" width="18.2" height="41.7" fill="#c47d08" rx="1"/>
  <rect x="684.7" y="416.5" width="18.2" height="19.7" fill="#f59e0b" rx="1"/>
  <rect x="702.9" y="471.7" width="18.2" height="128.3" fill="#4ade80" rx="1"/>
  <rect x="702.9" y="430.0" width="18.2" height="41.7" fill="#3aaf60" rx="1"/>
  <rect x="702.9" y="408.9" width="18.2" height="21.2" fill="#4ade80" rx="1"/>
  <text x="684.7" y="616" text-anchor="middle" fill="#e6edf3" font-size="10" font-weight="600">webster</text>
  <text x="684.7" y="628" text-anchor="middle" fill="#7d8590" font-size="9">41.5 MB</text>
  <rect x="745.2" y="574.4" width="18.2" height="25.6" fill="#60a5fa" rx="1"/>
  <rect x="745.2" y="489.5" width="18.2" height="84.9" fill="#4680c4" rx="1"/>
  <rect x="745.2" y="486.1" width="18.2" height="3.4" fill="#60a5fa" rx="1"/>
  <rect x="763.4" y="598.7" width="18.2" height="1.3" fill="#f87171" rx="1"/>
  <rect x="763.4" y="512.6" width="18.2" height="86.1" fill="#c45050" rx="1"/>
  <rect x="763.4" y="511.4" width="18.2" height="1.1" fill="#f87171" rx="1"/>
  <rect x="781.6" y="580.8" width="18.2" height="19.2" fill="#f59e0b" rx="1"/>
  <rect x="781.6" y="495.7" width="18.2" height="85.2" fill="#c47d08" rx="1"/>
  <rect x="781.6" y="492.5" width="18.2" height="3.2" fill="#f59e0b" rx="1"/>
  <rect x="799.7" y="578.8" width="18.2" height="21.2" fill="#4ade80" rx="1"/>
  <rect x="799.7" y="493.6" width="18.2" height="85.2" fill="#3aaf60" rx="1"/>
  <rect x="799.7" y="491.0" width="18.2" height="2.7" fill="#4ade80" rx="1"/>
  <text x="781.6" y="616" text-anchor="middle" fill="#e6edf3" font-size="10" font-weight="600">x-ray</text>
  <text x="781.6" y="628" text-anchor="middle" fill="#7d8590" font-size="9">8.5 MB</text>
  <rect x="242" y="645" width="12" height="12" fill="#60a5fa" rx="2"/>
  <text x="260" y="655" fill="#e6edf3" font-size="10" font-weight="500">lz4 (C)</text>
  <rect x="242" y="663" width="12" height="12" fill="#f87171" rx="2"/>
  <text x="260" y="673" fill="#e6edf3" font-size="10" font-weight="500">lz4rip (encapsulated unsafe, Rust)</text>
  <rect x="452" y="645" width="12" height="12" fill="#f59e0b" rx="2"/>
  <text x="470" y="655" fill="#e6edf3" font-size="10" font-weight="500">lz4_flex (unsafe Rust)</text>
  <rect x="452" y="663" width="12" height="12" fill="#4ade80" rx="2"/>
  <text x="470" y="673" fill="#e6edf3" font-size="10" font-weight="500">lz4_flex (safe Rust)</text>
  <text x="232" y="698" fill="#e6edf3" font-size="9">bright = compress + decompress</text>
  <text x="472" y="698" fill="#7d8590" font-size="9">dim = transfer @1 GB/s</text>
</svg>
