<svg xmlns="http://www.w3.org/2000/svg" viewBox="0 0 850 710" font-family="system-ui, -apple-system, sans-serif">
  <rect width="850" height="710" fill="#0d1117"/>
  <text x="442.5" y="22" text-anchor="middle" fill="#e6edf3" font-size="14" font-weight="700">LZ4 Block: Compress + Transfer @1 GB/s + Decompress (lower is better)</text>
  <text x="442.5" y="38" text-anchor="middle" fill="#7d8590" font-size="10">Apple M4</text>
  <line x1="55" y1="247.0" x2="830" y2="247.0" stroke="#21262d" stroke-width="1"/>
  <text x="47" y="247.0" text-anchor="end" dominant-baseline="middle" fill="#7d8590" font-size="10">0</text>
  <line x1="55" y1="204.0" x2="830" y2="204.0" stroke="#21262d" stroke-width="1"/>
  <text x="47" y="204.0" text-anchor="end" dominant-baseline="middle" fill="#7d8590" font-size="10">1</text>
  <line x1="55" y1="161.0" x2="830" y2="161.0" stroke="#21262d" stroke-width="1"/>
  <text x="47" y="161.0" text-anchor="end" dominant-baseline="middle" fill="#7d8590" font-size="10">2</text>
  <line x1="55" y1="118.1" x2="830" y2="118.1" stroke="#21262d" stroke-width="1"/>
  <text x="47" y="118.1" text-anchor="end" dominant-baseline="middle" fill="#7d8590" font-size="10">2</text>
  <line x1="55" y1="75.1" x2="830" y2="75.1" stroke="#21262d" stroke-width="1"/>
  <text x="47" y="75.1" text-anchor="end" dominant-baseline="middle" fill="#7d8590" font-size="10">2</text>
  <line x1="55" y1="290" x2="830" y2="290" stroke="#30363d" stroke-width="1.5"/>
  <text x="22" y="325.0" text-anchor="middle" fill="#e6edf3" font-size="11" font-weight="600" transform="rotate(-90,22,325.0)">seconds / GB</text>
  <rect x="65.8" y="213.5" width="16.1" height="76.5" fill="#60a5fa" rx="1"/>
  <rect x="65.8" y="147.4" width="16.1" height="66.0" fill="#4680c4" rx="1"/>
  <rect x="65.8" y="115.5" width="16.1" height="32.0" fill="#60a5fa" rx="1"/>
  <rect x="81.9" y="210.1" width="16.1" height="79.9" fill="#f87171" rx="1"/>
  <rect x="81.9" y="141.3" width="16.1" height="68.8" fill="#c45050" rx="1"/>
  <rect x="81.9" y="113.0" width="16.1" height="28.3" fill="#f87171" rx="1"/>
  <rect x="98.1" y="196.2" width="16.1" height="93.8" fill="#f59e0b" rx="1"/>
  <rect x="98.1" y="130.1" width="16.1" height="66.2" fill="#c47d08" rx="1"/>
  <rect x="98.1" y="98.5" width="16.1" height="31.6" fill="#f59e0b" rx="1"/>
  <rect x="114.2" y="189.3" width="16.1" height="100.7" fill="#4ade80" rx="1"/>
  <rect x="114.2" y="123.1" width="16.1" height="66.2" fill="#3aaf60" rx="1"/>
  <rect x="114.2" y="89.6" width="16.1" height="33.5" fill="#4ade80" rx="1"/>
  <text x="98.1" y="306" text-anchor="middle" fill="#e6edf3" font-size="10" font-weight="600">1k</text>
  <text x="98.1" y="318" text-anchor="middle" fill="#7d8590" font-size="9">725 B</text>
  <rect x="151.9" y="207.0" width="16.1" height="83.0" fill="#60a5fa" rx="1"/>
  <rect x="151.9" y="157.9" width="16.1" height="49.1" fill="#4680c4" rx="1"/>
  <rect x="151.9" y="136.7" width="16.1" height="21.2" fill="#60a5fa" rx="1"/>
  <rect x="168.0" y="231.9" width="16.1" height="58.1" fill="#f87171" rx="1"/>
  <rect x="168.0" y="183.2" width="16.1" height="48.7" fill="#c45050" rx="1"/>
  <rect x="168.0" y="167.5" width="16.1" height="15.7" fill="#f87171" rx="1"/>
  <rect x="184.2" y="209.7" width="16.1" height="80.3" fill="#f59e0b" rx="1"/>
  <rect x="184.2" y="159.9" width="16.1" height="49.8" fill="#c47d08" rx="1"/>
  <rect x="184.2" y="138.8" width="16.1" height="21.1" fill="#f59e0b" rx="1"/>
  <rect x="200.3" y="207.0" width="16.1" height="83.0" fill="#4ade80" rx="1"/>
  <rect x="200.3" y="157.2" width="16.1" height="49.8" fill="#3aaf60" rx="1"/>
  <rect x="200.3" y="134.6" width="16.1" height="22.6" fill="#4ade80" rx="1"/>
  <text x="184.2" y="306" text-anchor="middle" fill="#e6edf3" font-size="10" font-weight="600">34k</text>
  <text x="184.2" y="318" text-anchor="middle" fill="#7d8590" font-size="9">34 KB</text>
  <rect x="238.0" y="209.7" width="16.1" height="80.3" fill="#60a5fa" rx="1"/>
  <rect x="238.0" y="161.5" width="16.1" height="48.2" fill="#4680c4" rx="1"/>
  <rect x="238.0" y="141.1" width="16.1" height="20.4" fill="#60a5fa" rx="1"/>
  <rect x="254.1" y="232.7" width="16.1" height="57.3" fill="#f87171" rx="1"/>
  <rect x="254.1" y="184.1" width="16.1" height="48.6" fill="#c45050" rx="1"/>
  <rect x="254.1" y="169.1" width="16.1" height="15.1" fill="#f87171" rx="1"/>
  <rect x="270.3" y="213.8" width="16.1" height="76.2" fill="#f59e0b" rx="1"/>
  <rect x="270.3" y="164.5" width="16.1" height="49.3" fill="#c47d08" rx="1"/>
  <rect x="270.3" y="144.5" width="16.1" height="20.0" fill="#f59e0b" rx="1"/>
  <rect x="286.4" y="210.0" width="16.1" height="80.0" fill="#4ade80" rx="1"/>
  <rect x="286.4" y="160.7" width="16.1" height="49.3" fill="#3aaf60" rx="1"/>
  <rect x="286.4" y="139.8" width="16.1" height="20.9" fill="#4ade80" rx="1"/>
  <text x="270.3" y="306" text-anchor="middle" fill="#e6edf3" font-size="10" font-weight="600">65k</text>
  <text x="270.3" y="318" text-anchor="middle" fill="#7d8590" font-size="9">65 KB</text>
  <rect x="324.1" y="257.5" width="16.1" height="32.5" fill="#60a5fa" rx="1"/>
  <rect x="324.1" y="237.9" width="16.1" height="19.6" fill="#4680c4" rx="1"/>
  <rect x="324.1" y="229.7" width="16.1" height="8.2" fill="#60a5fa" rx="1"/>
  <rect x="340.2" y="261.4" width="16.1" height="28.6" fill="#f87171" rx="1"/>
  <rect x="340.2" y="241.4" width="16.1" height="20.0" fill="#c45050" rx="1"/>
  <rect x="340.2" y="233.0" width="16.1" height="8.4" fill="#f87171" rx="1"/>
  <rect x="356.4" y="258.3" width="16.1" height="31.7" fill="#f59e0b" rx="1"/>
  <rect x="356.4" y="238.6" width="16.1" height="19.7" fill="#c47d08" rx="1"/>
  <rect x="356.4" y="231.4" width="16.1" height="7.3" fill="#f59e0b" rx="1"/>
  <rect x="372.5" y="257.0" width="16.1" height="33.0" fill="#4ade80" rx="1"/>
  <rect x="372.5" y="237.3" width="16.1" height="19.7" fill="#3aaf60" rx="1"/>
  <rect x="372.5" y="229.5" width="16.1" height="7.8" fill="#4ade80" rx="1"/>
  <text x="356.4" y="306" text-anchor="middle" fill="#e6edf3" font-size="10" font-weight="600">66k_JSON</text>
  <text x="356.4" y="318" text-anchor="middle" fill="#7d8590" font-size="9">67 KB</text>
  <rect x="410.2" y="154.4" width="16.1" height="135.6" fill="#60a5fa" rx="1"/>
  <rect x="410.2" y="100.2" width="16.1" height="54.2" fill="#4680c4" rx="1"/>
  <rect x="410.2" y="83.1" width="16.1" height="17.1" fill="#60a5fa" rx="1"/>
  <rect x="426.4" y="163.1" width="16.1" height="126.9" fill="#f87171" rx="1"/>
  <rect x="426.4" y="108.1" width="16.1" height="55.1" fill="#c45050" rx="1"/>
  <rect x="426.4" y="89.8" width="16.1" height="18.3" fill="#f87171" rx="1"/>
  <rect x="442.5" y="150.6" width="16.1" height="139.4" fill="#f59e0b" rx="1"/>
  <rect x="442.5" y="96.3" width="16.1" height="54.2" fill="#c47d08" rx="1"/>
  <rect x="442.5" y="78.3" width="16.1" height="18.1" fill="#f59e0b" rx="1"/>
  <rect x="458.6" y="145.2" width="16.1" height="144.8" fill="#4ade80" rx="1"/>
  <rect x="458.6" y="90.9" width="16.1" height="54.2" fill="#3aaf60" rx="1"/>
  <rect x="458.6" y="71.8" width="16.1" height="19.1" fill="#4ade80" rx="1"/>
  <text x="442.5" y="306" text-anchor="middle" fill="#e6edf3" font-size="10" font-weight="600">dickens</text>
  <text x="442.5" y="318" text-anchor="middle" fill="#7d8590" font-size="9">10.2 MB</text>
  <rect x="496.3" y="256.9" width="16.1" height="33.1" fill="#60a5fa" rx="1"/>
  <rect x="496.3" y="247.4" width="16.1" height="9.5" fill="#4680c4" rx="1"/>
  <rect x="496.3" y="241.9" width="16.1" height="5.5" fill="#60a5fa" rx="1"/>
  <rect x="512.5" y="258.7" width="16.1" height="31.3" fill="#f87171" rx="1"/>
  <rect x="512.5" y="249.2" width="16.1" height="9.5" fill="#c45050" rx="1"/>
  <rect x="512.5" y="242.8" width="16.1" height="6.4" fill="#f87171" rx="1"/>
  <rect x="528.6" y="255.6" width="16.1" height="34.4" fill="#f59e0b" rx="1"/>
  <rect x="528.6" y="246.1" width="16.1" height="9.5" fill="#c47d08" rx="1"/>
  <rect x="528.6" y="239.2" width="16.1" height="6.9" fill="#f59e0b" rx="1"/>
  <rect x="544.8" y="256.2" width="16.1" height="33.8" fill="#4ade80" rx="1"/>
  <rect x="544.8" y="246.7" width="16.1" height="9.5" fill="#3aaf60" rx="1"/>
  <rect x="544.8" y="238.8" width="16.1" height="7.9" fill="#4ade80" rx="1"/>
  <text x="528.6" y="306" text-anchor="middle" fill="#e6edf3" font-size="10" font-weight="600">hdfs.json</text>
  <text x="528.6" y="318" text-anchor="middle" fill="#7d8590" font-size="9">7.0 MB</text>
  <rect x="582.4" y="140.8" width="16.1" height="149.2" fill="#60a5fa" rx="1"/>
  <rect x="582.4" y="99.5" width="16.1" height="41.3" fill="#4680c4" rx="1"/>
  <rect x="582.4" y="80.1" width="16.1" height="19.5" fill="#60a5fa" rx="1"/>
  <rect x="598.6" y="149.8" width="16.1" height="140.2" fill="#f87171" rx="1"/>
  <rect x="598.6" y="108.4" width="16.1" height="41.4" fill="#c45050" rx="1"/>
  <rect x="598.6" y="87.9" width="16.1" height="20.5" fill="#f87171" rx="1"/>
  <rect x="614.7" y="137.6" width="16.1" height="152.4" fill="#f59e0b" rx="1"/>
  <rect x="614.7" y="96.3" width="16.1" height="41.3" fill="#c47d08" rx="1"/>
  <rect x="614.7" y="76.0" width="16.1" height="20.3" fill="#f59e0b" rx="1"/>
  <rect x="630.9" y="137.5" width="16.1" height="152.5" fill="#4ade80" rx="1"/>
  <rect x="630.9" y="96.2" width="16.1" height="41.3" fill="#3aaf60" rx="1"/>
  <rect x="630.9" y="74.6" width="16.1" height="21.7" fill="#4ade80" rx="1"/>
  <text x="614.7" y="306" text-anchor="middle" fill="#e6edf3" font-size="10" font-weight="600">reymont.pdf</text>
  <text x="614.7" y="318" text-anchor="middle" fill="#7d8590" font-size="9">6.6 MB</text>
  <rect x="668.5" y="223.7" width="16.1" height="66.3" fill="#60a5fa" rx="1"/>
  <rect x="668.5" y="203.9" width="16.1" height="19.9" fill="#4680c4" rx="1"/>
  <rect x="668.5" y="191.6" width="16.1" height="12.3" fill="#60a5fa" rx="1"/>
  <rect x="684.7" y="225.5" width="16.1" height="64.5" fill="#f87171" rx="1"/>
  <rect x="684.7" y="205.5" width="16.1" height="20.0" fill="#c45050" rx="1"/>
  <rect x="684.7" y="191.7" width="16.1" height="13.9" fill="#f87171" rx="1"/>
  <rect x="700.8" y="222.1" width="16.1" height="67.9" fill="#f59e0b" rx="1"/>
  <rect x="700.8" y="202.3" width="16.1" height="19.9" fill="#c47d08" rx="1"/>
  <rect x="700.8" y="187.5" width="16.1" height="14.8" fill="#f59e0b" rx="1"/>
  <rect x="717.0" y="220.6" width="16.1" height="69.4" fill="#4ade80" rx="1"/>
  <rect x="717.0" y="200.7" width="16.1" height="19.9" fill="#3aaf60" rx="1"/>
  <rect x="717.0" y="184.9" width="16.1" height="15.8" fill="#4ade80" rx="1"/>
  <text x="700.8" y="306" text-anchor="middle" fill="#e6edf3" font-size="10" font-weight="600">xml_collection.xml</text>
  <text x="700.8" y="318" text-anchor="middle" fill="#7d8590" font-size="9">5.3 MB</text>
  <rect x="754.7" y="204.7" width="16.1" height="85.3" fill="#60a5fa" rx="1"/>
  <rect x="754.7" y="157.8" width="16.1" height="46.9" fill="#4680c4" rx="1"/>
  <rect x="754.7" y="143.6" width="16.1" height="14.2" fill="#60a5fa" rx="1"/>
  <rect x="770.8" y="221.8" width="16.1" height="68.2" fill="#f87171" rx="1"/>
  <rect x="770.8" y="173.7" width="16.1" height="48.1" fill="#c45050" rx="1"/>
  <rect x="770.8" y="160.7" width="16.1" height="13.0" fill="#f87171" rx="1"/>
  <rect x="786.9" y="207.0" width="16.1" height="83.0" fill="#f59e0b" rx="1"/>
  <rect x="786.9" y="159.9" width="16.1" height="47.1" fill="#c47d08" rx="1"/>
  <rect x="786.9" y="140.5" width="16.1" height="19.4" fill="#f59e0b" rx="1"/>
  <rect x="803.1" y="203.3" width="16.1" height="86.7" fill="#4ade80" rx="1"/>
  <rect x="803.1" y="156.2" width="16.1" height="47.1" fill="#3aaf60" rx="1"/>
  <rect x="803.1" y="137.5" width="16.1" height="18.7" fill="#4ade80" rx="1"/>
  <text x="786.9" y="306" text-anchor="middle" fill="#e6edf3" font-size="10" font-weight="600">mr</text>
  <text x="786.9" y="318" text-anchor="middle" fill="#7d8590" font-size="9">10.0 MB</text>
  <line x1="55" y1="557.0" x2="830" y2="557.0" stroke="#21262d" stroke-width="1"/>
  <text x="47" y="557.0" text-anchor="end" dominant-baseline="middle" fill="#7d8590" font-size="10">0</text>
  <line x1="55" y1="514.0" x2="830" y2="514.0" stroke="#21262d" stroke-width="1"/>
  <text x="47" y="514.0" text-anchor="end" dominant-baseline="middle" fill="#7d8590" font-size="10">1</text>
  <line x1="55" y1="471.0" x2="830" y2="471.0" stroke="#21262d" stroke-width="1"/>
  <text x="47" y="471.0" text-anchor="end" dominant-baseline="middle" fill="#7d8590" font-size="10">2</text>
  <line x1="55" y1="428.1" x2="830" y2="428.1" stroke="#21262d" stroke-width="1"/>
  <text x="47" y="428.1" text-anchor="end" dominant-baseline="middle" fill="#7d8590" font-size="10">2</text>
  <line x1="55" y1="385.1" x2="830" y2="385.1" stroke="#21262d" stroke-width="1"/>
  <text x="47" y="385.1" text-anchor="end" dominant-baseline="middle" fill="#7d8590" font-size="10">2</text>
  <line x1="55" y1="600" x2="830" y2="600" stroke="#30363d" stroke-width="1.5"/>
  <rect x="67.1" y="515.8" width="18.2" height="84.2" fill="#60a5fa" rx="1"/>
  <rect x="67.1" y="471.4" width="18.2" height="44.4" fill="#4680c4" rx="1"/>
  <rect x="67.1" y="456.9" width="18.2" height="14.5" fill="#60a5fa" rx="1"/>
  <rect x="85.3" y="522.4" width="18.2" height="77.6" fill="#f87171" rx="1"/>
  <rect x="85.3" y="477.0" width="18.2" height="45.3" fill="#c45050" rx="1"/>
  <rect x="85.3" y="461.6" width="18.2" height="15.4" fill="#f87171" rx="1"/>
  <rect x="103.4" y="514.6" width="18.2" height="85.4" fill="#f59e0b" rx="1"/>
  <rect x="103.4" y="470.1" width="18.2" height="44.5" fill="#c47d08" rx="1"/>
  <rect x="103.4" y="451.2" width="18.2" height="18.9" fill="#f59e0b" rx="1"/>
  <rect x="121.6" y="509.9" width="18.2" height="90.1" fill="#4ade80" rx="1"/>
  <rect x="121.6" y="465.5" width="18.2" height="44.5" fill="#3aaf60" rx="1"/>
  <rect x="121.6" y="445.4" width="18.2" height="20.1" fill="#4ade80" rx="1"/>
  <text x="103.4" y="616" text-anchor="middle" fill="#e6edf3" font-size="10" font-weight="600">mozilla</text>
  <text x="103.4" y="628" text-anchor="middle" fill="#7d8590" font-size="9">51.2 MB</text>
  <rect x="164.0" y="546.5" width="18.2" height="53.5" fill="#60a5fa" rx="1"/>
  <rect x="164.0" y="532.3" width="18.2" height="14.2" fill="#4680c4" rx="1"/>
  <rect x="164.0" y="522.0" width="18.2" height="10.3" fill="#60a5fa" rx="1"/>
  <rect x="182.1" y="548.5" width="18.2" height="51.5" fill="#f87171" rx="1"/>
  <rect x="182.1" y="534.3" width="18.2" height="14.2" fill="#c45050" rx="1"/>
  <rect x="182.1" y="523.6" width="18.2" height="10.7" fill="#f87171" rx="1"/>
  <rect x="200.3" y="543.9" width="18.2" height="56.1" fill="#f59e0b" rx="1"/>
  <rect x="200.3" y="529.7" width="18.2" height="14.2" fill="#c47d08" rx="1"/>
  <rect x="200.3" y="515.7" width="18.2" height="14.0" fill="#f59e0b" rx="1"/>
  <rect x="218.5" y="543.7" width="18.2" height="56.3" fill="#4ade80" rx="1"/>
  <rect x="218.5" y="529.6" width="18.2" height="14.2" fill="#3aaf60" rx="1"/>
  <rect x="218.5" y="515.6" width="18.2" height="14.0" fill="#4ade80" rx="1"/>
  <text x="200.3" y="616" text-anchor="middle" fill="#e6edf3" font-size="10" font-weight="600">nci</text>
  <text x="200.3" y="628" text-anchor="middle" fill="#7d8590" font-size="9">33.6 MB</text>
  <rect x="260.9" y="517.6" width="18.2" height="82.4" fill="#60a5fa" rx="1"/>
  <rect x="260.9" y="472.8" width="18.2" height="44.8" fill="#4680c4" rx="1"/>
  <rect x="260.9" y="458.1" width="18.2" height="14.8" fill="#60a5fa" rx="1"/>
  <rect x="279.0" y="524.5" width="18.2" height="75.5" fill="#f87171" rx="1"/>
  <rect x="279.0" y="475.9" width="18.2" height="48.6" fill="#c45050" rx="1"/>
  <rect x="279.0" y="460.0" width="18.2" height="15.8" fill="#f87171" rx="1"/>
  <rect x="297.2" y="513.5" width="18.2" height="86.5" fill="#f59e0b" rx="1"/>
  <rect x="297.2" y="468.5" width="18.2" height="45.0" fill="#c47d08" rx="1"/>
  <rect x="297.2" y="450.7" width="18.2" height="17.8" fill="#f59e0b" rx="1"/>
  <rect x="315.4" y="508.7" width="18.2" height="91.3" fill="#4ade80" rx="1"/>
  <rect x="315.4" y="463.7" width="18.2" height="45.0" fill="#3aaf60" rx="1"/>
  <rect x="315.4" y="443.7" width="18.2" height="20.0" fill="#4ade80" rx="1"/>
  <text x="297.2" y="616" text-anchor="middle" fill="#e6edf3" font-size="10" font-weight="600">osdb</text>
  <text x="297.2" y="628" text-anchor="middle" fill="#7d8590" font-size="9">10.1 MB</text>
  <rect x="357.7" y="514.7" width="18.2" height="85.3" fill="#60a5fa" rx="1"/>
  <rect x="357.7" y="484.0" width="18.2" height="30.7" fill="#4680c4" rx="1"/>
  <rect x="357.7" y="470.3" width="18.2" height="13.7" fill="#60a5fa" rx="1"/>
  <rect x="375.9" y="517.3" width="18.2" height="82.7" fill="#f87171" rx="1"/>
  <rect x="375.9" y="486.3" width="18.2" height="31.0" fill="#c45050" rx="1"/>
  <rect x="375.9" y="471.6" width="18.2" height="14.7" fill="#f87171" rx="1"/>
  <rect x="394.1" y="512.2" width="18.2" height="87.8" fill="#f59e0b" rx="1"/>
  <rect x="394.1" y="481.5" width="18.2" height="30.7" fill="#c47d08" rx="1"/>
  <rect x="394.1" y="464.2" width="18.2" height="17.3" fill="#f59e0b" rx="1"/>
  <rect x="412.2" y="509.8" width="18.2" height="90.2" fill="#4ade80" rx="1"/>
  <rect x="412.2" y="479.1" width="18.2" height="30.7" fill="#3aaf60" rx="1"/>
  <rect x="412.2" y="461.1" width="18.2" height="18.0" fill="#4ade80" rx="1"/>
  <text x="394.1" y="616" text-anchor="middle" fill="#e6edf3" font-size="10" font-weight="600">samba</text>
  <text x="394.1" y="628" text-anchor="middle" fill="#7d8590" font-size="9">21.6 MB</text>
  <rect x="454.6" y="527.0" width="18.2" height="73.0" fill="#60a5fa" rx="1"/>
  <rect x="454.6" y="446.5" width="18.2" height="80.5" fill="#4680c4" rx="1"/>
  <rect x="454.6" y="436.1" width="18.2" height="10.3" fill="#60a5fa" rx="1"/>
  <rect x="472.8" y="564.2" width="18.2" height="35.8" fill="#f87171" rx="1"/>
  <rect x="472.8" y="481.1" width="18.2" height="83.0" fill="#c45050" rx="1"/>
  <rect x="472.8" y="474.2" width="18.2" height="7.0" fill="#f87171" rx="1"/>
  <rect x="490.9" y="529.4" width="18.2" height="70.6" fill="#f59e0b" rx="1"/>
  <rect x="490.9" y="448.5" width="18.2" height="80.9" fill="#c47d08" rx="1"/>
  <rect x="490.9" y="436.3" width="18.2" height="12.2" fill="#f59e0b" rx="1"/>
  <rect x="509.1" y="519.9" width="18.2" height="80.1" fill="#4ade80" rx="1"/>
  <rect x="509.1" y="439.0" width="18.2" height="80.9" fill="#3aaf60" rx="1"/>
  <rect x="509.1" y="423.5" width="18.2" height="15.5" fill="#4ade80" rx="1"/>
  <text x="490.9" y="616" text-anchor="middle" fill="#e6edf3" font-size="10" font-weight="600">sao</text>
  <text x="490.9" y="628" text-anchor="middle" fill="#7d8590" font-size="9">7.3 MB</text>
  <rect x="551.5" y="477.4" width="18.2" height="122.6" fill="#60a5fa" rx="1"/>
  <rect x="551.5" y="435.6" width="18.2" height="41.8" fill="#4680c4" rx="1"/>
  <rect x="551.5" y="418.6" width="18.2" height="17.0" fill="#60a5fa" rx="1"/>
  <rect x="569.6" y="483.3" width="18.2" height="116.7" fill="#f87171" rx="1"/>
  <rect x="569.6" y="440.9" width="18.2" height="42.4" fill="#c45050" rx="1"/>
  <rect x="569.6" y="423.1" width="18.2" height="17.8" fill="#f87171" rx="1"/>
  <rect x="587.8" y="475.5" width="18.2" height="124.5" fill="#f59e0b" rx="1"/>
  <rect x="587.8" y="433.8" width="18.2" height="41.8" fill="#c47d08" rx="1"/>
  <rect x="587.8" y="414.0" width="18.2" height="19.8" fill="#f59e0b" rx="1"/>
  <rect x="606.0" y="471.7" width="18.2" height="128.3" fill="#4ade80" rx="1"/>
  <rect x="606.0" y="429.9" width="18.2" height="41.8" fill="#3aaf60" rx="1"/>
  <rect x="606.0" y="408.6" width="18.2" height="21.2" fill="#4ade80" rx="1"/>
  <text x="587.8" y="616" text-anchor="middle" fill="#e6edf3" font-size="10" font-weight="600">webster</text>
  <text x="587.8" y="628" text-anchor="middle" fill="#7d8590" font-size="9">41.5 MB</text>
  <rect x="648.4" y="573.8" width="18.2" height="26.2" fill="#60a5fa" rx="1"/>
  <rect x="648.4" y="488.7" width="18.2" height="85.1" fill="#4680c4" rx="1"/>
  <rect x="648.4" y="485.2" width="18.2" height="3.5" fill="#60a5fa" rx="1"/>
  <rect x="666.5" y="598.7" width="18.2" height="1.3" fill="#f87171" rx="1"/>
  <rect x="666.5" y="512.4" width="18.2" height="86.3" fill="#c45050" rx="1"/>
  <rect x="666.5" y="511.0" width="18.2" height="1.3" fill="#f87171" rx="1"/>
  <rect x="684.7" y="580.8" width="18.2" height="19.2" fill="#f59e0b" rx="1"/>
  <rect x="684.7" y="495.4" width="18.2" height="85.4" fill="#c47d08" rx="1"/>
  <rect x="684.7" y="492.3" width="18.2" height="3.1" fill="#f59e0b" rx="1"/>
  <rect x="702.9" y="578.3" width="18.2" height="21.7" fill="#4ade80" rx="1"/>
  <rect x="702.9" y="493.0" width="18.2" height="85.4" fill="#3aaf60" rx="1"/>
  <rect x="702.9" y="490.3" width="18.2" height="2.7" fill="#4ade80" rx="1"/>
  <text x="684.7" y="616" text-anchor="middle" fill="#e6edf3" font-size="10" font-weight="600">x-ray</text>
  <text x="684.7" y="628" text-anchor="middle" fill="#7d8590" font-size="9">8.5 MB</text>
  <text x="781.6" y="616" text-anchor="middle" fill="#e6edf3" font-size="10" font-weight="600">json_1k.json</text>
  <text x="781.6" y="628" text-anchor="middle" fill="#7d8590" font-size="9">1 KB</text>
  <rect x="262" y="645" width="12" height="12" fill="#60a5fa" rx="2"/>
  <text x="280" y="655" fill="#e6edf3" font-size="11" font-weight="500">lz4 (C)</text>
  <rect x="442" y="645" width="12" height="12" fill="#f87171" rx="2"/>
  <text x="460" y="655" fill="#e6edf3" font-size="11" font-weight="500">lz4rip (safe Rust)</text>
  <rect x="262" y="665" width="12" height="12" fill="#f59e0b" rx="2"/>
  <text x="280" y="675" fill="#e6edf3" font-size="11" font-weight="500">lz4_flex (unsafe Rust)</text>
  <rect x="442" y="665" width="12" height="12" fill="#4ade80" rx="2"/>
  <text x="460" y="675" fill="#e6edf3" font-size="11" font-weight="500">lz4_flex (safe Rust)</text>
  <rect x="282" y="689" width="12" height="12" fill="#60a5fa" rx="2"/>
  <text x="300" y="699" fill="#7d8590" font-size="10">compress + decompress</text>
  <rect x="482" y="689" width="12" height="12" fill="#4680c4" rx="2"/>
  <text x="500" y="699" fill="#7d8590" font-size="10">transfer (ratio)</text>
</svg>
