<svg xmlns="http://www.w3.org/2000/svg" viewBox="0 0 850 720" font-family="system-ui, -apple-system, sans-serif">
  <rect width="850" height="720" fill="#0d1117"/>
  <text x="442.5" y="22" text-anchor="middle" fill="#e6edf3" font-size="14" font-weight="700">LZ4 Block: Compress + Transfer @1 GB/s + Decompress (lower is better)</text>
  <text x="442.5" y="38" text-anchor="middle" fill="#7d8590" font-size="10">Apple M4</text>
  <line x1="55" y1="247.1" x2="830" y2="247.1" stroke="#21262d" stroke-width="1"/>
  <text x="47" y="247.1" text-anchor="end" dominant-baseline="middle" fill="#7d8590" font-size="10">0</text>
  <line x1="55" y1="204.2" x2="830" y2="204.2" stroke="#21262d" stroke-width="1"/>
  <text x="47" y="204.2" text-anchor="end" dominant-baseline="middle" fill="#7d8590" font-size="10">1</text>
  <line x1="55" y1="161.2" x2="830" y2="161.2" stroke="#21262d" stroke-width="1"/>
  <text x="47" y="161.2" text-anchor="end" dominant-baseline="middle" fill="#7d8590" font-size="10">2</text>
  <line x1="55" y1="118.3" x2="830" y2="118.3" stroke="#21262d" stroke-width="1"/>
  <text x="47" y="118.3" text-anchor="end" dominant-baseline="middle" fill="#7d8590" font-size="10">2</text>
  <line x1="55" y1="75.4" x2="830" y2="75.4" stroke="#21262d" stroke-width="1"/>
  <text x="47" y="75.4" text-anchor="end" dominant-baseline="middle" fill="#7d8590" font-size="10">2</text>
  <line x1="55" y1="290" x2="830" y2="290" stroke="#30363d" stroke-width="1.5"/>
  <text x="22" y="325.0" text-anchor="middle" fill="#e6edf3" font-size="11" font-weight="600" transform="rotate(-90,22,325.0)">seconds / GB</text>
  <rect x="67.1" y="211.1" width="18.2" height="78.9" fill="#60a5fa" rx="1"/>
  <rect x="67.1" y="145.2" width="18.2" height="65.9" fill="#4680c4" rx="1"/>
  <rect x="67.1" y="112.9" width="18.2" height="32.3" fill="#60a5fa" rx="1"/>
  <rect x="85.3" y="208.7" width="18.2" height="81.3" fill="#f87171" rx="1"/>
  <rect x="85.3" y="140.1" width="18.2" height="68.7" fill="#c45050" rx="1"/>
  <rect x="85.3" y="111.6" width="18.2" height="28.4" fill="#f87171" rx="1"/>
  <rect x="103.4" y="197.8" width="18.2" height="92.2" fill="#f59e0b" rx="1"/>
  <rect x="103.4" y="131.7" width="18.2" height="66.1" fill="#c47d08" rx="1"/>
  <rect x="103.4" y="99.7" width="18.2" height="32.0" fill="#f59e0b" rx="1"/>
  <rect x="121.6" y="189.5" width="18.2" height="100.5" fill="#4ade80" rx="1"/>
  <rect x="121.6" y="123.4" width="18.2" height="66.1" fill="#3aaf60" rx="1"/>
  <rect x="121.6" y="89.7" width="18.2" height="33.7" fill="#4ade80" rx="1"/>
  <text x="103.4" y="306" text-anchor="middle" fill="#e6edf3" font-size="10" font-weight="600">1k</text>
  <text x="103.4" y="318" text-anchor="middle" fill="#7d8590" font-size="9">725 B</text>
  <rect x="164.0" y="205.3" width="18.2" height="84.7" fill="#60a5fa" rx="1"/>
  <rect x="164.0" y="156.3" width="18.2" height="49.0" fill="#4680c4" rx="1"/>
  <rect x="164.0" y="134.5" width="18.2" height="21.8" fill="#60a5fa" rx="1"/>
  <rect x="182.1" y="231.9" width="18.2" height="58.1" fill="#f87171" rx="1"/>
  <rect x="182.1" y="183.3" width="18.2" height="48.6" fill="#c45050" rx="1"/>
  <rect x="182.1" y="166.8" width="18.2" height="16.5" fill="#f87171" rx="1"/>
  <rect x="200.3" y="210.0" width="18.2" height="80.0" fill="#f59e0b" rx="1"/>
  <rect x="200.3" y="160.2" width="18.2" height="49.8" fill="#c47d08" rx="1"/>
  <rect x="200.3" y="139.1" width="18.2" height="21.2" fill="#f59e0b" rx="1"/>
  <rect x="218.5" y="206.1" width="18.2" height="83.9" fill="#4ade80" rx="1"/>
  <rect x="218.5" y="156.4" width="18.2" height="49.8" fill="#3aaf60" rx="1"/>
  <rect x="218.5" y="133.9" width="18.2" height="22.5" fill="#4ade80" rx="1"/>
  <text x="200.3" y="306" text-anchor="middle" fill="#e6edf3" font-size="10" font-weight="600">34k</text>
  <text x="200.3" y="318" text-anchor="middle" fill="#7d8590" font-size="9">34 KB</text>
  <rect x="260.9" y="206.4" width="18.2" height="83.6" fill="#60a5fa" rx="1"/>
  <rect x="260.9" y="158.3" width="18.2" height="48.1" fill="#4680c4" rx="1"/>
  <rect x="260.9" y="137.6" width="18.2" height="20.7" fill="#60a5fa" rx="1"/>
  <rect x="279.0" y="233.0" width="18.2" height="57.0" fill="#f87171" rx="1"/>
  <rect x="279.0" y="184.5" width="18.2" height="48.5" fill="#c45050" rx="1"/>
  <rect x="279.0" y="169.1" width="18.2" height="15.4" fill="#f87171" rx="1"/>
  <rect x="297.2" y="213.5" width="18.2" height="76.5" fill="#f59e0b" rx="1"/>
  <rect x="297.2" y="164.2" width="18.2" height="49.3" fill="#c47d08" rx="1"/>
  <rect x="297.2" y="144.2" width="18.2" height="20.0" fill="#f59e0b" rx="1"/>
  <rect x="315.4" y="209.7" width="18.2" height="80.3" fill="#4ade80" rx="1"/>
  <rect x="315.4" y="160.4" width="18.2" height="49.3" fill="#3aaf60" rx="1"/>
  <rect x="315.4" y="139.5" width="18.2" height="20.9" fill="#4ade80" rx="1"/>
  <text x="297.2" y="306" text-anchor="middle" fill="#e6edf3" font-size="10" font-weight="600">65k</text>
  <text x="297.2" y="318" text-anchor="middle" fill="#7d8590" font-size="9">65 KB</text>
  <rect x="357.7" y="256.8" width="18.2" height="33.2" fill="#60a5fa" rx="1"/>
  <rect x="357.7" y="237.2" width="18.2" height="19.6" fill="#4680c4" rx="1"/>
  <rect x="357.7" y="229.0" width="18.2" height="8.2" fill="#60a5fa" rx="1"/>
  <rect x="375.9" y="261.3" width="18.2" height="28.7" fill="#f87171" rx="1"/>
  <rect x="375.9" y="241.3" width="18.2" height="20.0" fill="#c45050" rx="1"/>
  <rect x="375.9" y="232.8" width="18.2" height="8.5" fill="#f87171" rx="1"/>
  <rect x="394.1" y="257.5" width="18.2" height="32.5" fill="#f59e0b" rx="1"/>
  <rect x="394.1" y="237.8" width="18.2" height="19.7" fill="#c47d08" rx="1"/>
  <rect x="394.1" y="230.6" width="18.2" height="7.2" fill="#f59e0b" rx="1"/>
  <rect x="412.2" y="258.0" width="18.2" height="32.0" fill="#4ade80" rx="1"/>
  <rect x="412.2" y="238.3" width="18.2" height="19.7" fill="#3aaf60" rx="1"/>
  <rect x="412.2" y="230.5" width="18.2" height="7.8" fill="#4ade80" rx="1"/>
  <text x="394.1" y="306" text-anchor="middle" fill="#e6edf3" font-size="10" font-weight="600">66k_JSON</text>
  <text x="394.1" y="318" text-anchor="middle" fill="#7d8590" font-size="9">67 KB</text>
  <rect x="454.6" y="153.3" width="18.2" height="136.7" fill="#60a5fa" rx="1"/>
  <rect x="454.6" y="99.2" width="18.2" height="54.1" fill="#4680c4" rx="1"/>
  <rect x="454.6" y="81.8" width="18.2" height="17.5" fill="#60a5fa" rx="1"/>
  <rect x="472.8" y="163.8" width="18.2" height="126.2" fill="#f87171" rx="1"/>
  <rect x="472.8" y="108.8" width="18.2" height="55.0" fill="#c45050" rx="1"/>
  <rect x="472.8" y="90.0" width="18.2" height="18.8" fill="#f87171" rx="1"/>
  <rect x="490.9" y="152.5" width="18.2" height="137.5" fill="#f59e0b" rx="1"/>
  <rect x="490.9" y="98.3" width="18.2" height="54.1" fill="#c47d08" rx="1"/>
  <rect x="490.9" y="80.3" width="18.2" height="18.1" fill="#f59e0b" rx="1"/>
  <rect x="509.1" y="145.0" width="18.2" height="145.0" fill="#4ade80" rx="1"/>
  <rect x="509.1" y="90.9" width="18.2" height="54.1" fill="#3aaf60" rx="1"/>
  <rect x="509.1" y="71.8" width="18.2" height="19.0" fill="#4ade80" rx="1"/>
  <text x="490.9" y="306" text-anchor="middle" fill="#e6edf3" font-size="10" font-weight="600">dickens</text>
  <text x="490.9" y="318" text-anchor="middle" fill="#7d8590" font-size="9">10.2 MB</text>
  <rect x="551.5" y="256.6" width="18.2" height="33.4" fill="#60a5fa" rx="1"/>
  <rect x="551.5" y="247.1" width="18.2" height="9.4" fill="#4680c4" rx="1"/>
  <rect x="551.5" y="240.9" width="18.2" height="6.3" fill="#60a5fa" rx="1"/>
  <rect x="569.6" y="258.5" width="18.2" height="31.5" fill="#f87171" rx="1"/>
  <rect x="569.6" y="249.0" width="18.2" height="9.5" fill="#c45050" rx="1"/>
  <rect x="569.6" y="242.3" width="18.2" height="6.7" fill="#f87171" rx="1"/>
  <rect x="587.8" y="256.1" width="18.2" height="33.9" fill="#f59e0b" rx="1"/>
  <rect x="587.8" y="246.6" width="18.2" height="9.5" fill="#c47d08" rx="1"/>
  <rect x="587.8" y="239.7" width="18.2" height="6.9" fill="#f59e0b" rx="1"/>
  <rect x="606.0" y="256.2" width="18.2" height="33.8" fill="#4ade80" rx="1"/>
  <rect x="606.0" y="246.8" width="18.2" height="9.5" fill="#3aaf60" rx="1"/>
  <rect x="606.0" y="238.2" width="18.2" height="8.5" fill="#4ade80" rx="1"/>
  <text x="587.8" y="306" text-anchor="middle" fill="#e6edf3" font-size="10" font-weight="600">hdfs.json</text>
  <text x="587.8" y="318" text-anchor="middle" fill="#7d8590" font-size="9">7.0 MB</text>
  <rect x="648.4" y="139.8" width="18.2" height="150.2" fill="#60a5fa" rx="1"/>
  <rect x="648.4" y="98.6" width="18.2" height="41.2" fill="#4680c4" rx="1"/>
  <rect x="648.4" y="79.2" width="18.2" height="19.4" fill="#60a5fa" rx="1"/>
  <rect x="666.5" y="148.3" width="18.2" height="141.7" fill="#f87171" rx="1"/>
  <rect x="666.5" y="107.0" width="18.2" height="41.3" fill="#c45050" rx="1"/>
  <rect x="666.5" y="86.1" width="18.2" height="20.9" fill="#f87171" rx="1"/>
  <rect x="684.7" y="140.0" width="18.2" height="150.0" fill="#f59e0b" rx="1"/>
  <rect x="684.7" y="98.7" width="18.2" height="41.2" fill="#c47d08" rx="1"/>
  <rect x="684.7" y="78.5" width="18.2" height="20.3" fill="#f59e0b" rx="1"/>
  <rect x="702.9" y="137.4" width="18.2" height="152.6" fill="#4ade80" rx="1"/>
  <rect x="702.9" y="96.2" width="18.2" height="41.2" fill="#3aaf60" rx="1"/>
  <rect x="702.9" y="74.6" width="18.2" height="21.6" fill="#4ade80" rx="1"/>
  <text x="684.7" y="306" text-anchor="middle" fill="#e6edf3" font-size="10" font-weight="600">reymont.pdf</text>
  <text x="684.7" y="318" text-anchor="middle" fill="#7d8590" font-size="9">6.6 MB</text>
  <rect x="745.2" y="223.1" width="18.2" height="66.9" fill="#60a5fa" rx="1"/>
  <rect x="745.2" y="203.3" width="18.2" height="19.8" fill="#4680c4" rx="1"/>
  <rect x="745.2" y="190.1" width="18.2" height="13.1" fill="#60a5fa" rx="1"/>
  <rect x="763.4" y="225.7" width="18.2" height="64.3" fill="#f87171" rx="1"/>
  <rect x="763.4" y="205.7" width="18.2" height="20.0" fill="#c45050" rx="1"/>
  <rect x="763.4" y="191.8" width="18.2" height="14.0" fill="#f87171" rx="1"/>
  <rect x="781.6" y="223.2" width="18.2" height="66.8" fill="#f59e0b" rx="1"/>
  <rect x="781.6" y="203.3" width="18.2" height="19.8" fill="#c47d08" rx="1"/>
  <rect x="781.6" y="188.4" width="18.2" height="14.9" fill="#f59e0b" rx="1"/>
  <rect x="799.7" y="221.9" width="18.2" height="68.1" fill="#4ade80" rx="1"/>
  <rect x="799.7" y="202.0" width="18.2" height="19.8" fill="#3aaf60" rx="1"/>
  <rect x="799.7" y="186.2" width="18.2" height="15.8" fill="#4ade80" rx="1"/>
  <text x="781.6" y="306" text-anchor="middle" fill="#e6edf3" font-size="10" font-weight="600">xml_collection.xml</text>
  <text x="781.6" y="318" text-anchor="middle" fill="#7d8590" font-size="9">5.3 MB</text>
  <line x1="55" y1="557.1" x2="830" y2="557.1" stroke="#21262d" stroke-width="1"/>
  <text x="47" y="557.1" text-anchor="end" dominant-baseline="middle" fill="#7d8590" font-size="10">0</text>
  <line x1="55" y1="514.2" x2="830" y2="514.2" stroke="#21262d" stroke-width="1"/>
  <text x="47" y="514.2" text-anchor="end" dominant-baseline="middle" fill="#7d8590" font-size="10">1</text>
  <line x1="55" y1="471.2" x2="830" y2="471.2" stroke="#21262d" stroke-width="1"/>
  <text x="47" y="471.2" text-anchor="end" dominant-baseline="middle" fill="#7d8590" font-size="10">2</text>
  <line x1="55" y1="428.3" x2="830" y2="428.3" stroke="#21262d" stroke-width="1"/>
  <text x="47" y="428.3" text-anchor="end" dominant-baseline="middle" fill="#7d8590" font-size="10">2</text>
  <line x1="55" y1="385.4" x2="830" y2="385.4" stroke="#21262d" stroke-width="1"/>
  <text x="47" y="385.4" text-anchor="end" dominant-baseline="middle" fill="#7d8590" font-size="10">2</text>
  <line x1="55" y1="600" x2="830" y2="600" stroke="#30363d" stroke-width="1.5"/>
  <rect x="67.1" y="514.9" width="18.2" height="85.1" fill="#60a5fa" rx="1"/>
  <rect x="67.1" y="468.1" width="18.2" height="46.8" fill="#4680c4" rx="1"/>
  <rect x="67.1" y="454.0" width="18.2" height="14.1" fill="#60a5fa" rx="1"/>
  <rect x="85.3" y="532.5" width="18.2" height="67.5" fill="#f87171" rx="1"/>
  <rect x="85.3" y="484.4" width="18.2" height="48.1" fill="#c45050" rx="1"/>
  <rect x="85.3" y="470.4" width="18.2" height="14.0" fill="#f87171" rx="1"/>
  <rect x="103.4" y="518.3" width="18.2" height="81.7" fill="#f59e0b" rx="1"/>
  <rect x="103.4" y="471.3" width="18.2" height="47.0" fill="#c47d08" rx="1"/>
  <rect x="103.4" y="452.2" width="18.2" height="19.0" fill="#f59e0b" rx="1"/>
  <rect x="121.6" y="513.0" width="18.2" height="87.0" fill="#4ade80" rx="1"/>
  <rect x="121.6" y="466.0" width="18.2" height="47.0" fill="#3aaf60" rx="1"/>
  <rect x="121.6" y="447.5" width="18.2" height="18.5" fill="#4ade80" rx="1"/>
  <text x="103.4" y="616" text-anchor="middle" fill="#e6edf3" font-size="10" font-weight="600">mr</text>
  <text x="103.4" y="628" text-anchor="middle" fill="#7d8590" font-size="9">10.0 MB</text>
  <rect x="164.0" y="516.0" width="18.2" height="84.0" fill="#60a5fa" rx="1"/>
  <rect x="164.0" y="471.7" width="18.2" height="44.3" fill="#4680c4" rx="1"/>
  <rect x="164.0" y="457.0" width="18.2" height="14.7" fill="#60a5fa" rx="1"/>
  <rect x="182.1" y="523.0" width="18.2" height="77.0" fill="#f87171" rx="1"/>
  <rect x="182.1" y="477.7" width="18.2" height="45.3" fill="#c45050" rx="1"/>
  <rect x="182.1" y="461.7" width="18.2" height="16.0" fill="#f87171" rx="1"/>
  <rect x="200.3" y="515.6" width="18.2" height="84.4" fill="#f59e0b" rx="1"/>
  <rect x="200.3" y="471.2" width="18.2" height="44.4" fill="#c47d08" rx="1"/>
  <rect x="200.3" y="452.5" width="18.2" height="18.7" fill="#f59e0b" rx="1"/>
  <rect x="218.5" y="509.9" width="18.2" height="90.1" fill="#4ade80" rx="1"/>
  <rect x="218.5" y="465.5" width="18.2" height="44.4" fill="#3aaf60" rx="1"/>
  <rect x="218.5" y="445.4" width="18.2" height="20.1" fill="#4ade80" rx="1"/>
  <text x="200.3" y="616" text-anchor="middle" fill="#e6edf3" font-size="10" font-weight="600">mozilla</text>
  <text x="200.3" y="628" text-anchor="middle" fill="#7d8590" font-size="9">51.2 MB</text>
  <rect x="260.9" y="546.6" width="18.2" height="53.4" fill="#60a5fa" rx="1"/>
  <rect x="260.9" y="532.4" width="18.2" height="14.2" fill="#4680c4" rx="1"/>
  <rect x="260.9" y="522.0" width="18.2" height="10.4" fill="#60a5fa" rx="1"/>
  <rect x="279.0" y="548.6" width="18.2" height="51.4" fill="#f87171" rx="1"/>
  <rect x="279.0" y="534.5" width="18.2" height="14.2" fill="#c45050" rx="1"/>
  <rect x="279.0" y="523.7" width="18.2" height="10.8" fill="#f87171" rx="1"/>
  <rect x="297.2" y="545.4" width="18.2" height="54.6" fill="#f59e0b" rx="1"/>
  <rect x="297.2" y="531.2" width="18.2" height="14.2" fill="#c47d08" rx="1"/>
  <rect x="297.2" y="517.2" width="18.2" height="14.0" fill="#f59e0b" rx="1"/>
  <rect x="315.4" y="544.2" width="18.2" height="55.8" fill="#4ade80" rx="1"/>
  <rect x="315.4" y="530.0" width="18.2" height="14.2" fill="#3aaf60" rx="1"/>
  <rect x="315.4" y="515.9" width="18.2" height="14.1" fill="#4ade80" rx="1"/>
  <text x="297.2" y="616" text-anchor="middle" fill="#e6edf3" font-size="10" font-weight="600">nci</text>
  <text x="297.2" y="628" text-anchor="middle" fill="#7d8590" font-size="9">33.6 MB</text>
  <rect x="357.7" y="518.0" width="18.2" height="82.0" fill="#60a5fa" rx="1"/>
  <rect x="357.7" y="473.2" width="18.2" height="44.7" fill="#4680c4" rx="1"/>
  <rect x="357.7" y="458.4" width="18.2" height="14.8" fill="#60a5fa" rx="1"/>
  <rect x="375.9" y="525.0" width="18.2" height="75.0" fill="#f87171" rx="1"/>
  <rect x="375.9" y="476.5" width="18.2" height="48.5" fill="#c45050" rx="1"/>
  <rect x="375.9" y="459.7" width="18.2" height="16.8" fill="#f87171" rx="1"/>
  <rect x="394.1" y="515.0" width="18.2" height="85.0" fill="#f59e0b" rx="1"/>
  <rect x="394.1" y="470.1" width="18.2" height="44.9" fill="#c47d08" rx="1"/>
  <rect x="394.1" y="452.1" width="18.2" height="17.9" fill="#f59e0b" rx="1"/>
  <rect x="412.2" y="507.7" width="18.2" height="92.3" fill="#4ade80" rx="1"/>
  <rect x="412.2" y="462.7" width="18.2" height="44.9" fill="#3aaf60" rx="1"/>
  <rect x="412.2" y="443.1" width="18.2" height="19.6" fill="#4ade80" rx="1"/>
  <text x="394.1" y="616" text-anchor="middle" fill="#e6edf3" font-size="10" font-weight="600">osdb</text>
  <text x="394.1" y="628" text-anchor="middle" fill="#7d8590" font-size="9">10.1 MB</text>
  <rect x="454.6" y="513.0" width="18.2" height="87.0" fill="#60a5fa" rx="1"/>
  <rect x="454.6" y="482.3" width="18.2" height="30.7" fill="#4680c4" rx="1"/>
  <rect x="454.6" y="468.4" width="18.2" height="13.9" fill="#60a5fa" rx="1"/>
  <rect x="472.8" y="518.9" width="18.2" height="81.1" fill="#f87171" rx="1"/>
  <rect x="472.8" y="487.9" width="18.2" height="31.0" fill="#c45050" rx="1"/>
  <rect x="472.8" y="472.9" width="18.2" height="14.9" fill="#f87171" rx="1"/>
  <rect x="490.9" y="516.3" width="18.2" height="83.7" fill="#f59e0b" rx="1"/>
  <rect x="490.9" y="485.6" width="18.2" height="30.7" fill="#c47d08" rx="1"/>
  <rect x="490.9" y="468.3" width="18.2" height="17.3" fill="#f59e0b" rx="1"/>
  <rect x="509.1" y="510.2" width="18.2" height="89.8" fill="#4ade80" rx="1"/>
  <rect x="509.1" y="479.5" width="18.2" height="30.7" fill="#3aaf60" rx="1"/>
  <rect x="509.1" y="461.6" width="18.2" height="17.9" fill="#4ade80" rx="1"/>
  <text x="490.9" y="616" text-anchor="middle" fill="#e6edf3" font-size="10" font-weight="600">samba</text>
  <text x="490.9" y="628" text-anchor="middle" fill="#7d8590" font-size="9">21.6 MB</text>
  <rect x="551.5" y="527.3" width="18.2" height="72.7" fill="#60a5fa" rx="1"/>
  <rect x="551.5" y="446.9" width="18.2" height="80.4" fill="#4680c4" rx="1"/>
  <rect x="551.5" y="436.4" width="18.2" height="10.5" fill="#60a5fa" rx="1"/>
  <rect x="569.6" y="564.4" width="18.2" height="35.6" fill="#f87171" rx="1"/>
  <rect x="569.6" y="481.5" width="18.2" height="82.9" fill="#c45050" rx="1"/>
  <rect x="569.6" y="474.1" width="18.2" height="7.4" fill="#f87171" rx="1"/>
  <rect x="587.8" y="529.6" width="18.2" height="70.4" fill="#f59e0b" rx="1"/>
  <rect x="587.8" y="448.9" width="18.2" height="80.7" fill="#c47d08" rx="1"/>
  <rect x="587.8" y="436.7" width="18.2" height="12.3" fill="#f59e0b" rx="1"/>
  <rect x="606.0" y="519.8" width="18.2" height="80.2" fill="#4ade80" rx="1"/>
  <rect x="606.0" y="439.0" width="18.2" height="80.7" fill="#3aaf60" rx="1"/>
  <rect x="606.0" y="423.6" width="18.2" height="15.4" fill="#4ade80" rx="1"/>
  <text x="587.8" y="616" text-anchor="middle" fill="#e6edf3" font-size="10" font-weight="600">sao</text>
  <text x="587.8" y="628" text-anchor="middle" fill="#7d8590" font-size="9">7.3 MB</text>
  <rect x="648.4" y="477.2" width="18.2" height="122.8" fill="#60a5fa" rx="1"/>
  <rect x="648.4" y="435.5" width="18.2" height="41.7" fill="#4680c4" rx="1"/>
  <rect x="648.4" y="418.7" width="18.2" height="16.8" fill="#60a5fa" rx="1"/>
  <rect x="666.5" y="484.0" width="18.2" height="116.0" fill="#f87171" rx="1"/>
  <rect x="666.5" y="441.7" width="18.2" height="42.3" fill="#c45050" rx="1"/>
  <rect x="666.5" y="423.6" width="18.2" height="18.1" fill="#f87171" rx="1"/>
  <rect x="684.7" y="477.9" width="18.2" height="122.1" fill="#f59e0b" rx="1"/>
  <rect x="684.7" y="436.2" width="18.2" height="41.7" fill="#c47d08" rx="1"/>
  <rect x="684.7" y="416.5" width="18.2" height="19.8" fill="#f59e0b" rx="1"/>
  <rect x="702.9" y="471.7" width="18.2" height="128.3" fill="#4ade80" rx="1"/>
  <rect x="702.9" y="430.0" width="18.2" height="41.7" fill="#3aaf60" rx="1"/>
  <rect x="702.9" y="408.8" width="18.2" height="21.2" fill="#4ade80" rx="1"/>
  <text x="684.7" y="616" text-anchor="middle" fill="#e6edf3" font-size="10" font-weight="600">webster</text>
  <text x="684.7" y="628" text-anchor="middle" fill="#7d8590" font-size="9">41.5 MB</text>
  <rect x="745.2" y="573.8" width="18.2" height="26.2" fill="#60a5fa" rx="1"/>
  <rect x="745.2" y="488.8" width="18.2" height="85.0" fill="#4680c4" rx="1"/>
  <rect x="745.2" y="485.4" width="18.2" height="3.4" fill="#60a5fa" rx="1"/>
  <rect x="763.4" y="598.7" width="18.2" height="1.3" fill="#f87171" rx="1"/>
  <rect x="763.4" y="512.5" width="18.2" height="86.2" fill="#c45050" rx="1"/>
  <rect x="763.4" y="511.1" width="18.2" height="1.4" fill="#f87171" rx="1"/>
  <rect x="781.6" y="581.0" width="18.2" height="19.0" fill="#f59e0b" rx="1"/>
  <rect x="781.6" y="495.7" width="18.2" height="85.2" fill="#c47d08" rx="1"/>
  <rect x="781.6" y="492.6" width="18.2" height="3.2" fill="#f59e0b" rx="1"/>
  <rect x="799.7" y="578.5" width="18.2" height="21.5" fill="#4ade80" rx="1"/>
  <rect x="799.7" y="493.3" width="18.2" height="85.2" fill="#3aaf60" rx="1"/>
  <rect x="799.7" y="490.7" width="18.2" height="2.6" fill="#4ade80" rx="1"/>
  <text x="781.6" y="616" text-anchor="middle" fill="#e6edf3" font-size="10" font-weight="600">x-ray</text>
  <text x="781.6" y="628" text-anchor="middle" fill="#7d8590" font-size="9">8.5 MB</text>
  <rect x="242" y="645" width="12" height="12" fill="#60a5fa" rx="2"/>
  <text x="260" y="655" fill="#e6edf3" font-size="10" font-weight="500">lz4 (C)</text>
  <rect x="242" y="663" width="12" height="12" fill="#f87171" rx="2"/>
  <text x="260" y="673" fill="#e6edf3" font-size="10" font-weight="500">lz4rip (safe Rust)</text>
  <rect x="452" y="645" width="12" height="12" fill="#f59e0b" rx="2"/>
  <text x="470" y="655" fill="#e6edf3" font-size="10" font-weight="500">lz4_flex (unsafe Rust)</text>
  <rect x="452" y="663" width="12" height="12" fill="#4ade80" rx="2"/>
  <text x="470" y="673" fill="#e6edf3" font-size="10" font-weight="500">lz4_flex (safe Rust)</text>
  <text x="232" y="698" fill="#e6edf3" font-size="9">bright = compress + decompress</text>
  <text x="472" y="698" fill="#7d8590" font-size="9">dim = transfer @1 GB/s</text>
</svg>
