<svg xmlns="http://www.w3.org/2000/svg" viewBox="0 0 850 460" font-family="system-ui, -apple-system, sans-serif">
  <rect width="850" height="460" fill="#0d1117"/>
  <text x="450.0" y="22" text-anchor="middle" fill="#e6edf3" font-size="14" font-weight="700">LZ4 Pipeline @1 GB/s: Aggregate across corpus (lower is better)</text>
  <text x="450.0" y="38" text-anchor="middle" fill="#7d8590" font-size="10">Apple M4</text>
  <line x1="70" y1="246.0" x2="830" y2="246.0" stroke="#21262d" stroke-width="1"/>
  <text x="62" y="246.0" text-anchor="end" dominant-baseline="middle" fill="#7d8590" font-size="10">0</text>
  <line x1="70" y1="181.9" x2="830" y2="181.9" stroke="#21262d" stroke-width="1"/>
  <text x="62" y="181.9" text-anchor="end" dominant-baseline="middle" fill="#7d8590" font-size="10">1</text>
  <line x1="70" y1="117.9" x2="830" y2="117.9" stroke="#21262d" stroke-width="1"/>
  <text x="62" y="117.9" text-anchor="end" dominant-baseline="middle" fill="#7d8590" font-size="10">2</text>
  <line x1="70" y1="310" x2="830" y2="310" stroke="#30363d" stroke-width="1.5"/>
  <text x="22" y="182.5" text-anchor="middle" fill="#e6edf3" font-size="11" font-weight="600" transform="rotate(-90,22,182.5)">seconds / GB</text>
  <rect x="108.0" y="175.5" width="50.0" height="134.5" fill="#60a5fa" rx="1"/>
  <rect x="108.0" y="123.0" width="50.0" height="52.5" fill="#4680c4" rx="1"/>
  <rect x="108.0" y="101.7" width="50.0" height="21.3" fill="#60a5fa" rx="1"/>
  <rect x="159.9" y="184.2" width="50.0" height="125.8" fill="#f87171" rx="1"/>
  <rect x="159.9" y="130.7" width="50.0" height="53.5" fill="#c45050" rx="1"/>
  <rect x="159.9" y="107.7" width="50.0" height="22.9" fill="#f87171" rx="1"/>
  <rect x="211.8" y="175.5" width="50.0" height="134.5" fill="#f59e0b" rx="1"/>
  <rect x="211.8" y="122.9" width="50.0" height="52.6" fill="#c47d08" rx="1"/>
  <rect x="211.8" y="97.0" width="50.0" height="25.9" fill="#f59e0b" rx="1"/>
  <rect x="263.6" y="168.3" width="50.0" height="141.7" fill="#4ade80" rx="1"/>
  <rect x="263.6" y="115.8" width="50.0" height="52.6" fill="#3aaf60" rx="1"/>
  <rect x="263.6" y="88.3" width="50.0" height="27.5" fill="#4ade80" rx="1"/>
  <text x="211.8" y="328" text-anchor="middle" fill="#e6edf3" font-size="11" font-weight="600">Compressible</text>
  <rect x="488.0" y="217.2" width="50.0" height="92.8" fill="#60a5fa" rx="1"/>
  <rect x="488.0" y="114.5" width="50.0" height="102.8" fill="#4680c4" rx="1"/>
  <rect x="488.0" y="100.2" width="50.0" height="14.2" fill="#60a5fa" rx="1"/>
  <rect x="539.9" y="255.3" width="50.0" height="54.7" fill="#f87171" rx="1"/>
  <rect x="539.9" y="150.1" width="50.0" height="105.1" fill="#c45050" rx="1"/>
  <rect x="539.9" y="138.2" width="50.0" height="11.9" fill="#f87171" rx="1"/>
  <rect x="591.8" y="223.7" width="50.0" height="86.3" fill="#f59e0b" rx="1"/>
  <rect x="591.8" y="120.5" width="50.0" height="103.2" fill="#c47d08" rx="1"/>
  <rect x="591.8" y="102.8" width="50.0" height="17.7" fill="#f59e0b" rx="1"/>
  <rect x="643.6" y="215.3" width="50.0" height="94.7" fill="#4ade80" rx="1"/>
  <rect x="643.6" y="112.1" width="50.0" height="103.2" fill="#3aaf60" rx="1"/>
  <rect x="643.6" y="93.7" width="50.0" height="18.5" fill="#4ade80" rx="1"/>
  <text x="591.8" y="328" text-anchor="middle" fill="#e6edf3" font-size="11" font-weight="600">Incompressible</text>
  <rect x="250" y="345" width="12" height="12" fill="#60a5fa" rx="2"/>
  <text x="268" y="355" fill="#e6edf3" font-size="10" font-weight="500">lz4 (C)</text>
  <rect x="250" y="363" width="12" height="12" fill="#f87171" rx="2"/>
  <text x="268" y="373" fill="#e6edf3" font-size="10" font-weight="500">lz4rip (safe API, Rust)</text>
  <rect x="460" y="345" width="12" height="12" fill="#f59e0b" rx="2"/>
  <text x="478" y="355" fill="#e6edf3" font-size="10" font-weight="500">lz4_flex (unsafe Rust)</text>
  <rect x="460" y="363" width="12" height="12" fill="#4ade80" rx="2"/>
  <text x="478" y="373" fill="#e6edf3" font-size="10" font-weight="500">lz4_flex (safe Rust)</text>
  <text x="240" y="398" fill="#e6edf3" font-size="9">bright = compress + decompress</text>
  <text x="480" y="398" fill="#7d8590" font-size="9">dim = transfer @1 GB/s</text>
</svg>
