<svg xmlns="http://www.w3.org/2000/svg" viewBox="0 0 600 420" font-family="system-ui, -apple-system, sans-serif">
  <rect width="600" height="420" fill="#0d1117"/>
  <text x="320.0" y="22" text-anchor="middle" fill="#e6edf3" font-size="14" font-weight="700">LZ4 Pipeline @1 GB/s: Aggregate across corpus (lower is better)</text>
  <text x="320.0" y="38" text-anchor="middle" fill="#7d8590" font-size="10">Apple M4</text>
  <line x1="70" y1="245.6" x2="570" y2="245.6" stroke="#21262d" stroke-width="1"/>
  <text x="62" y="245.6" text-anchor="end" dominant-baseline="middle" fill="#7d8590" font-size="10">0</text>
  <line x1="70" y1="181.2" x2="570" y2="181.2" stroke="#21262d" stroke-width="1"/>
  <text x="62" y="181.2" text-anchor="end" dominant-baseline="middle" fill="#7d8590" font-size="10">1</text>
  <line x1="70" y1="116.7" x2="570" y2="116.7" stroke="#21262d" stroke-width="1"/>
  <text x="62" y="116.7" text-anchor="end" dominant-baseline="middle" fill="#7d8590" font-size="10">2</text>
  <line x1="70" y1="310" x2="570" y2="310" stroke="#30363d" stroke-width="1.5"/>
  <text x="22" y="182.5" text-anchor="middle" fill="#e6edf3" font-size="11" font-weight="600" transform="rotate(-90,22,182.5)">seconds / GB</text>
  <rect x="95.0" y="177.5" width="43.8" height="132.5" fill="#60a5fa" rx="1"/>
  <rect x="95.0" y="124.7" width="43.8" height="52.8" fill="#4680c4" rx="1"/>
  <rect x="95.0" y="104.1" width="43.8" height="20.6" fill="#60a5fa" rx="1"/>
  <rect x="145.0" y="186.0" width="43.8" height="124.0" fill="#f87171" rx="1"/>
  <rect x="145.0" y="132.1" width="43.8" height="53.9" fill="#c45050" rx="1"/>
  <rect x="145.0" y="95.9" width="43.8" height="36.2" fill="#f87171" rx="1"/>
  <rect x="195.0" y="175.2" width="43.8" height="134.8" fill="#fbbf24" rx="1"/>
  <rect x="195.0" y="122.4" width="43.8" height="52.8" fill="#c49520" rx="1"/>
  <rect x="195.0" y="97.1" width="43.8" height="25.2" fill="#fbbf24" rx="1"/>
  <rect x="245.0" y="168.6" width="43.8" height="141.4" fill="#4ade80" rx="1"/>
  <rect x="245.0" y="115.7" width="43.8" height="52.9" fill="#3aaf60" rx="1"/>
  <rect x="245.0" y="88.3" width="43.8" height="27.4" fill="#4ade80" rx="1"/>
  <text x="195.0" y="328" text-anchor="middle" fill="#e6edf3" font-size="11" font-weight="600">Compressible</text>
  <rect x="345.0" y="217.2" width="43.8" height="92.8" fill="#60a5fa" rx="1"/>
  <rect x="345.0" y="113.8" width="43.8" height="103.4" fill="#4680c4" rx="1"/>
  <rect x="345.0" y="100.0" width="43.8" height="13.9" fill="#60a5fa" rx="1"/>
  <rect x="395.0" y="255.5" width="43.8" height="54.5" fill="#f87171" rx="1"/>
  <rect x="395.0" y="149.8" width="43.8" height="105.8" fill="#c45050" rx="1"/>
  <rect x="395.0" y="133.6" width="43.8" height="16.2" fill="#f87171" rx="1"/>
  <rect x="445.0" y="215.1" width="43.8" height="94.9" fill="#fbbf24" rx="1"/>
  <rect x="445.0" y="111.7" width="43.8" height="103.4" fill="#c49520" rx="1"/>
  <rect x="445.0" y="93.4" width="43.8" height="18.3" fill="#fbbf24" rx="1"/>
  <rect x="495.0" y="215.6" width="43.8" height="94.4" fill="#4ade80" rx="1"/>
  <rect x="495.0" y="111.8" width="43.8" height="103.8" fill="#3aaf60" rx="1"/>
  <rect x="495.0" y="93.0" width="43.8" height="18.8" fill="#4ade80" rx="1"/>
  <text x="445.0" y="328" text-anchor="middle" fill="#e6edf3" font-size="11" font-weight="600">Incompressible</text>
  <rect x="140" y="345" width="12" height="12" fill="#60a5fa" rx="2"/>
  <text x="158" y="355" fill="#e6edf3" font-size="11" font-weight="500">lz4 (C)</text>
  <rect x="320" y="345" width="12" height="12" fill="#f87171" rx="2"/>
  <text x="338" y="355" fill="#e6edf3" font-size="11" font-weight="500">lz4rip (safe Rust)</text>
  <rect x="140" y="365" width="12" height="12" fill="#fbbf24" rx="2"/>
  <text x="158" y="375" fill="#e6edf3" font-size="11" font-weight="500">lz4_flex (unsafe Rust)</text>
  <rect x="320" y="365" width="12" height="12" fill="#4ade80" rx="2"/>
  <text x="338" y="375" fill="#e6edf3" font-size="11" font-weight="500">lz4_flex (safe Rust)</text>
  <rect x="160" y="389" width="12" height="12" fill="#60a5fa" rx="2"/>
  <text x="178" y="399" fill="#7d8590" font-size="10">compress + decompress</text>
  <rect x="360" y="389" width="12" height="12" fill="#4680c4" rx="2"/>
  <text x="378" y="399" fill="#7d8590" font-size="10">transfer @1 GB/s</text>
</svg>
