<svg xmlns="http://www.w3.org/2000/svg" viewBox="0 0 600 420" font-family="system-ui, -apple-system, sans-serif">
  <rect width="600" height="420" fill="#0d1117"/>
  <text x="320.0" y="22" text-anchor="middle" fill="#e6edf3" font-size="14" font-weight="700">LZ4 Pipeline @1 GB/s: Aggregate across corpus (lower is better)</text>
  <text x="320.0" y="38" text-anchor="middle" fill="#7d8590" font-size="10">Apple M4</text>
  <line x1="70" y1="245.9" x2="570" y2="245.9" stroke="#21262d" stroke-width="1"/>
  <text x="62" y="245.9" text-anchor="end" dominant-baseline="middle" fill="#7d8590" font-size="10">0</text>
  <line x1="70" y1="181.8" x2="570" y2="181.8" stroke="#21262d" stroke-width="1"/>
  <text x="62" y="181.8" text-anchor="end" dominant-baseline="middle" fill="#7d8590" font-size="10">1</text>
  <line x1="70" y1="117.8" x2="570" y2="117.8" stroke="#21262d" stroke-width="1"/>
  <text x="62" y="117.8" text-anchor="end" dominant-baseline="middle" fill="#7d8590" font-size="10">2</text>
  <line x1="70" y1="310" x2="570" y2="310" stroke="#30363d" stroke-width="1.5"/>
  <text x="22" y="182.5" text-anchor="middle" fill="#e6edf3" font-size="11" font-weight="600" transform="rotate(-90,22,182.5)">seconds / GB</text>
  <rect x="95.0" y="176.0" width="43.8" height="134.0" fill="#60a5fa" rx="1"/>
  <rect x="95.0" y="123.4" width="43.8" height="52.5" fill="#4680c4" rx="1"/>
  <rect x="95.0" y="102.4" width="43.8" height="21.1" fill="#60a5fa" rx="1"/>
  <rect x="145.0" y="183.5" width="43.8" height="126.5" fill="#f87171" rx="1"/>
  <rect x="145.0" y="130.0" width="43.8" height="53.6" fill="#c45050" rx="1"/>
  <rect x="145.0" y="107.6" width="43.8" height="22.4" fill="#f87171" rx="1"/>
  <rect x="195.0" y="172.8" width="43.8" height="137.2" fill="#f59e0b" rx="1"/>
  <rect x="195.0" y="120.2" width="43.8" height="52.6" fill="#c47d08" rx="1"/>
  <rect x="195.0" y="94.2" width="43.8" height="26.0" fill="#f59e0b" rx="1"/>
  <rect x="245.0" y="168.3" width="43.8" height="141.7" fill="#4ade80" rx="1"/>
  <rect x="245.0" y="115.7" width="43.8" height="52.6" fill="#3aaf60" rx="1"/>
  <rect x="245.0" y="88.3" width="43.8" height="27.5" fill="#4ade80" rx="1"/>
  <text x="195.0" y="328" text-anchor="middle" fill="#e6edf3" font-size="11" font-weight="600">Compressible</text>
  <rect x="345.0" y="217.1" width="43.8" height="92.9" fill="#60a5fa" rx="1"/>
  <rect x="345.0" y="114.2" width="43.8" height="102.9" fill="#4680c4" rx="1"/>
  <rect x="345.0" y="99.9" width="43.8" height="14.3" fill="#60a5fa" rx="1"/>
  <rect x="395.0" y="254.8" width="43.8" height="55.2" fill="#f87171" rx="1"/>
  <rect x="395.0" y="149.6" width="43.8" height="105.2" fill="#c45050" rx="1"/>
  <rect x="395.0" y="138.5" width="43.8" height="11.1" fill="#f87171" rx="1"/>
  <rect x="445.0" y="222.8" width="43.8" height="87.2" fill="#f59e0b" rx="1"/>
  <rect x="445.0" y="119.6" width="43.8" height="103.2" fill="#c47d08" rx="1"/>
  <rect x="445.0" y="101.7" width="43.8" height="17.9" fill="#f59e0b" rx="1"/>
  <rect x="495.0" y="215.5" width="43.8" height="94.5" fill="#4ade80" rx="1"/>
  <rect x="495.0" y="112.3" width="43.8" height="103.2" fill="#3aaf60" rx="1"/>
  <rect x="495.0" y="93.6" width="43.8" height="18.7" fill="#4ade80" rx="1"/>
  <text x="445.0" y="328" text-anchor="middle" fill="#e6edf3" font-size="11" font-weight="600">Incompressible</text>
  <rect x="140" y="345" width="12" height="12" fill="#60a5fa" rx="2"/>
  <text x="158" y="355" fill="#e6edf3" font-size="11" font-weight="500">lz4 (C)</text>
  <rect x="320" y="345" width="12" height="12" fill="#f87171" rx="2"/>
  <text x="338" y="355" fill="#e6edf3" font-size="11" font-weight="500">lz4rip (safe Rust)</text>
  <rect x="140" y="365" width="12" height="12" fill="#f59e0b" rx="2"/>
  <text x="158" y="375" fill="#e6edf3" font-size="11" font-weight="500">lz4_flex (unsafe Rust)</text>
  <rect x="320" y="365" width="12" height="12" fill="#4ade80" rx="2"/>
  <text x="338" y="375" fill="#e6edf3" font-size="11" font-weight="500">lz4_flex (safe Rust)</text>
  <rect x="160" y="389" width="12" height="12" fill="#60a5fa" rx="2"/>
  <text x="178" y="399" fill="#7d8590" font-size="10">compress + decompress</text>
  <rect x="360" y="389" width="12" height="12" fill="#4680c4" rx="2"/>
  <text x="378" y="399" fill="#7d8590" font-size="10">transfer @1 GB/s</text>
</svg>
