<svg xmlns="http://www.w3.org/2000/svg" viewBox="0 0 850 340" font-family="system-ui, -apple-system, sans-serif">
  <rect width="850" height="340" fill="#0d1117"/>
  <text x="450.0" y="22" text-anchor="middle" fill="#e6edf3" font-size="13" font-weight="700">LZ4 + Dict (2 KB): 1 KB JSON (lower is better)</text>
  <text x="450.0" y="38" text-anchor="middle" fill="#7d8590" font-size="10">Intel Core i7-8700B @ 3.20GHz, performance governor, turbo off</text>
  <line x1="70" y1="190.2" x2="830" y2="190.2" stroke="#21262d" stroke-width="1"/>
  <text x="62" y="190.2" text-anchor="end" dominant-baseline="middle" fill="#7d8590" font-size="10">1.0</text>
  <line x1="70" y1="150.4" x2="830" y2="150.4" stroke="#21262d" stroke-width="1"/>
  <text x="62" y="150.4" text-anchor="end" dominant-baseline="middle" fill="#7d8590" font-size="10">2.0</text>
  <line x1="70" y1="110.6" x2="830" y2="110.6" stroke="#21262d" stroke-width="1"/>
  <text x="62" y="110.6" text-anchor="end" dominant-baseline="middle" fill="#7d8590" font-size="10">3.0</text>
  <line x1="70" y1="70.7" x2="830" y2="70.7" stroke="#21262d" stroke-width="1"/>
  <text x="62" y="70.7" text-anchor="end" dominant-baseline="middle" fill="#7d8590" font-size="10">4.0</text>
  <line x1="70" y1="230" x2="830" y2="230" stroke="#30363d" stroke-width="1.5"/>
  <text x="22" y="142.5" text-anchor="middle" fill="#e6edf3" font-size="11" font-weight="600" transform="rotate(-90,22,142.5)">seconds / GB</text>
  <rect x="184.0" y="134.8" width="228.0" height="95.2" fill="#60a5fa" rx="2"/>
  <rect x="184.0" y="125.5" width="228.0" height="9.3" fill="#4680c4" rx="2"/>
  <rect x="184.0" y="77.8" width="228.0" height="47.7" fill="#60a5fa" rx="2"/>
  <text x="298.0" y="71.8" text-anchor="middle" fill="#e6edf3" font-size="10" font-weight="600">3676 ns</text>
  <rect x="488.0" y="142.3" width="228.0" height="87.7" fill="#f87171" rx="2"/>
  <rect x="488.0" y="133.1" width="228.0" height="9.3" fill="#c45050" rx="2"/>
  <rect x="488.0" y="81.9" width="228.0" height="51.2" fill="#f87171" rx="2"/>
  <text x="602.0" y="75.9" text-anchor="middle" fill="#e6edf3" font-size="10" font-weight="600">3572 ns</text>
  <text x="298.0" y="246" text-anchor="middle" fill="#e6edf3" font-size="10" font-weight="600">lz4 (C)</text>
  <text x="602.0" y="246" text-anchor="middle" fill="#e6edf3" font-size="10" font-weight="600">lz4rip (safe Rust)</text>
  <text x="300" y="287" fill="#e6edf3" font-size="9">bright = compress + decompress</text>
  <text x="470" y="287" fill="#7d8590" font-size="9">dim = transfer @1 GB/s</text>
  <text x="450.0" y="330" text-anchor="middle" fill="#484f58" font-size="9">1 KB JSON message, dict trained on 2000 messages</text>
</svg>
