<svg xmlns="http://www.w3.org/2000/svg" viewBox="0 0 850 720" font-family="system-ui, -apple-system, sans-serif">
  <rect width="850" height="720" fill="#0d1117"/>
  <text x="442.5" y="22" text-anchor="middle" fill="#e6edf3" font-size="14" font-weight="700">LZ4 Block: Compress + Transfer @1 GB/s + Decompress (lower is better)</text>
  <text x="442.5" y="38" text-anchor="middle" fill="#7d8590" font-size="10">Intel Core i7-8700B @ 3.20GHz, performance governor, turbo off</text>
  <line x1="55" y1="224.5" x2="830" y2="224.5" stroke="#21262d" stroke-width="1"/>
  <text x="47" y="224.5" text-anchor="end" dominant-baseline="middle" fill="#7d8590" font-size="10">2</text>
  <line x1="55" y1="158.9" x2="830" y2="158.9" stroke="#21262d" stroke-width="1"/>
  <text x="47" y="158.9" text-anchor="end" dominant-baseline="middle" fill="#7d8590" font-size="10">4</text>
  <line x1="55" y1="93.4" x2="830" y2="93.4" stroke="#21262d" stroke-width="1"/>
  <text x="47" y="93.4" text-anchor="end" dominant-baseline="middle" fill="#7d8590" font-size="10">6</text>
  <line x1="55" y1="290" x2="830" y2="290" stroke="#30363d" stroke-width="1.5"/>
  <text x="22" y="325.0" text-anchor="middle" fill="#e6edf3" font-size="11" font-weight="600" transform="rotate(-90,22,325.0)">seconds / GB</text>
  <rect x="65.8" y="190.8" width="12.9" height="99.2" fill="#60a5fa" rx="1"/>
  <rect x="65.8" y="165.6" width="12.9" height="25.2" fill="#4680c4" rx="1"/>
  <rect x="65.8" y="113.4" width="12.9" height="52.2" fill="#60a5fa" rx="1"/>
  <rect x="78.7" y="203.5" width="12.9" height="86.5" fill="#f87171" rx="1"/>
  <rect x="78.7" y="176.8" width="12.9" height="26.7" fill="#c45050" rx="1"/>
  <rect x="78.7" y="126.3" width="12.9" height="50.5" fill="#f87171" rx="1"/>
  <rect x="91.6" y="182.0" width="12.9" height="108.0" fill="#f59e0b" rx="1"/>
  <rect x="91.6" y="156.8" width="12.9" height="25.2" fill="#c47d08" rx="1"/>
  <rect x="91.6" y="105.1" width="12.9" height="51.7" fill="#f59e0b" rx="1"/>
  <rect x="104.5" y="174.7" width="12.9" height="115.3" fill="#f472b6" rx="1"/>
  <rect x="104.5" y="148.0" width="12.9" height="26.7" fill="#c05a92" rx="1"/>
  <rect x="104.5" y="95.2" width="12.9" height="52.7" fill="#f472b6" rx="1"/>
  <rect x="117.4" y="152.6" width="12.9" height="137.4" fill="#4ade80" rx="1"/>
  <rect x="117.4" y="127.4" width="12.9" height="25.2" fill="#3aaf60" rx="1"/>
  <rect x="117.4" y="71.8" width="12.9" height="55.6" fill="#4ade80" rx="1"/>
  <text x="98.1" y="306" text-anchor="middle" fill="#e6edf3" font-size="10" font-weight="600">1k</text>
  <text x="98.1" y="318" text-anchor="middle" fill="#7d8590" font-size="9">725 B</text>
  <rect x="151.9" y="201.1" width="12.9" height="88.9" fill="#60a5fa" rx="1"/>
  <rect x="151.9" y="182.4" width="12.9" height="18.7" fill="#4680c4" rx="1"/>
  <rect x="151.9" y="163.8" width="12.9" height="18.6" fill="#60a5fa" rx="1"/>
  <rect x="164.8" y="203.4" width="12.9" height="86.6" fill="#f87171" rx="1"/>
  <rect x="164.8" y="184.3" width="12.9" height="19.2" fill="#c45050" rx="1"/>
  <rect x="164.8" y="167.3" width="12.9" height="17.0" fill="#f87171" rx="1"/>
  <rect x="177.7" y="183.0" width="12.9" height="107.0" fill="#f59e0b" rx="1"/>
  <rect x="177.7" y="164.0" width="12.9" height="19.0" fill="#c47d08" rx="1"/>
  <rect x="177.7" y="146.8" width="12.9" height="17.2" fill="#f59e0b" rx="1"/>
  <rect x="190.6" y="172.9" width="12.9" height="117.1" fill="#f472b6" rx="1"/>
  <rect x="190.6" y="153.8" width="12.9" height="19.2" fill="#c05a92" rx="1"/>
  <rect x="190.6" y="135.3" width="12.9" height="18.5" fill="#f472b6" rx="1"/>
  <rect x="203.5" y="165.5" width="12.9" height="124.5" fill="#4ade80" rx="1"/>
  <rect x="203.5" y="146.5" width="12.9" height="19.0" fill="#3aaf60" rx="1"/>
  <rect x="203.5" y="124.0" width="12.9" height="22.4" fill="#4ade80" rx="1"/>
  <text x="184.2" y="306" text-anchor="middle" fill="#e6edf3" font-size="10" font-weight="600">34k</text>
  <text x="184.2" y="318" text-anchor="middle" fill="#7d8590" font-size="9">34 KB</text>
  <rect x="238.0" y="186.1" width="12.9" height="103.9" fill="#60a5fa" rx="1"/>
  <rect x="238.0" y="167.7" width="12.9" height="18.4" fill="#4680c4" rx="1"/>
  <rect x="238.0" y="150.3" width="12.9" height="17.4" fill="#60a5fa" rx="1"/>
  <rect x="250.9" y="201.4" width="12.9" height="88.6" fill="#f87171" rx="1"/>
  <rect x="250.9" y="182.1" width="12.9" height="19.3" fill="#c45050" rx="1"/>
  <rect x="250.9" y="166.5" width="12.9" height="15.6" fill="#f87171" rx="1"/>
  <rect x="263.8" y="179.6" width="12.9" height="110.4" fill="#f59e0b" rx="1"/>
  <rect x="263.8" y="160.8" width="12.9" height="18.8" fill="#c47d08" rx="1"/>
  <rect x="263.8" y="144.9" width="12.9" height="15.9" fill="#f59e0b" rx="1"/>
  <rect x="276.7" y="173.6" width="12.9" height="116.4" fill="#f472b6" rx="1"/>
  <rect x="276.7" y="154.4" width="12.9" height="19.3" fill="#c05a92" rx="1"/>
  <rect x="276.7" y="137.0" width="12.9" height="17.3" fill="#f472b6" rx="1"/>
  <rect x="289.7" y="160.8" width="12.9" height="129.2" fill="#4ade80" rx="1"/>
  <rect x="289.7" y="142.0" width="12.9" height="18.8" fill="#3aaf60" rx="1"/>
  <rect x="289.7" y="121.0" width="12.9" height="20.9" fill="#4ade80" rx="1"/>
  <text x="270.3" y="306" text-anchor="middle" fill="#e6edf3" font-size="10" font-weight="600">65k</text>
  <text x="270.3" y="318" text-anchor="middle" fill="#7d8590" font-size="9">65 KB</text>
  <rect x="324.1" y="255.0" width="12.9" height="35.0" fill="#60a5fa" rx="1"/>
  <rect x="324.1" y="247.5" width="12.9" height="7.5" fill="#4680c4" rx="1"/>
  <rect x="324.1" y="239.2" width="12.9" height="8.3" fill="#60a5fa" rx="1"/>
  <rect x="337.0" y="251.9" width="12.9" height="38.1" fill="#f87171" rx="1"/>
  <rect x="337.0" y="244.2" width="12.9" height="7.7" fill="#c45050" rx="1"/>
  <rect x="337.0" y="232.9" width="12.9" height="11.3" fill="#f87171" rx="1"/>
  <rect x="349.9" y="251.1" width="12.9" height="38.9" fill="#f59e0b" rx="1"/>
  <rect x="349.9" y="243.6" width="12.9" height="7.5" fill="#c47d08" rx="1"/>
  <rect x="349.9" y="233.8" width="12.9" height="9.8" fill="#f59e0b" rx="1"/>
  <rect x="362.8" y="243.6" width="12.9" height="46.4" fill="#f472b6" rx="1"/>
  <rect x="362.8" y="235.8" width="12.9" height="7.7" fill="#c05a92" rx="1"/>
  <rect x="362.8" y="222.0" width="12.9" height="13.8" fill="#f472b6" rx="1"/>
  <rect x="375.8" y="242.1" width="12.9" height="47.9" fill="#4ade80" rx="1"/>
  <rect x="375.8" y="234.6" width="12.9" height="7.5" fill="#3aaf60" rx="1"/>
  <rect x="375.8" y="221.1" width="12.9" height="13.4" fill="#4ade80" rx="1"/>
  <text x="356.4" y="306" text-anchor="middle" fill="#e6edf3" font-size="10" font-weight="600">66k_JSON</text>
  <text x="356.4" y="318" text-anchor="middle" fill="#7d8590" font-size="9">67 KB</text>
  <rect x="410.2" y="184.7" width="12.9" height="105.3" fill="#60a5fa" rx="1"/>
  <rect x="410.2" y="164.0" width="12.9" height="20.7" fill="#4680c4" rx="1"/>
  <rect x="410.2" y="149.6" width="12.9" height="14.4" fill="#60a5fa" rx="1"/>
  <rect x="423.1" y="197.6" width="12.9" height="92.4" fill="#f87171" rx="1"/>
  <rect x="423.1" y="174.2" width="12.9" height="23.4" fill="#c45050" rx="1"/>
  <rect x="423.1" y="156.5" width="12.9" height="17.7" fill="#f87171" rx="1"/>
  <rect x="436.0" y="177.4" width="12.9" height="112.6" fill="#f59e0b" rx="1"/>
  <rect x="436.0" y="156.7" width="12.9" height="20.7" fill="#c47d08" rx="1"/>
  <rect x="436.0" y="142.7" width="12.9" height="14.0" fill="#f59e0b" rx="1"/>
  <rect x="449.0" y="172.8" width="12.9" height="117.2" fill="#f472b6" rx="1"/>
  <rect x="449.0" y="149.3" width="12.9" height="23.4" fill="#c05a92" rx="1"/>
  <rect x="449.0" y="129.3" width="12.9" height="20.0" fill="#f472b6" rx="1"/>
  <rect x="461.9" y="149.0" width="12.9" height="141.0" fill="#4ade80" rx="1"/>
  <rect x="461.9" y="128.3" width="12.9" height="20.7" fill="#3aaf60" rx="1"/>
  <rect x="461.9" y="110.1" width="12.9" height="18.2" fill="#4ade80" rx="1"/>
  <text x="442.5" y="306" text-anchor="middle" fill="#e6edf3" font-size="10" font-weight="600">dickens</text>
  <text x="442.5" y="318" text-anchor="middle" fill="#7d8590" font-size="9">10.2 MB</text>
  <rect x="496.3" y="264.3" width="12.9" height="25.7" fill="#60a5fa" rx="1"/>
  <rect x="496.3" y="260.7" width="12.9" height="3.6" fill="#4680c4" rx="1"/>
  <rect x="496.3" y="254.0" width="12.9" height="6.7" fill="#60a5fa" rx="1"/>
  <rect x="509.2" y="264.6" width="12.9" height="25.4" fill="#f87171" rx="1"/>
  <rect x="509.2" y="260.9" width="12.9" height="3.7" fill="#c45050" rx="1"/>
  <rect x="509.2" y="253.6" width="12.9" height="7.4" fill="#f87171" rx="1"/>
  <rect x="522.2" y="261.1" width="12.9" height="28.9" fill="#f59e0b" rx="1"/>
  <rect x="522.2" y="257.4" width="12.9" height="3.6" fill="#c47d08" rx="1"/>
  <rect x="522.2" y="249.0" width="12.9" height="8.4" fill="#f59e0b" rx="1"/>
  <rect x="535.1" y="261.7" width="12.9" height="28.3" fill="#f472b6" rx="1"/>
  <rect x="535.1" y="258.1" width="12.9" height="3.7" fill="#c05a92" rx="1"/>
  <rect x="535.1" y="250.1" width="12.9" height="8.0" fill="#f472b6" rx="1"/>
  <rect x="548.0" y="256.9" width="12.9" height="33.1" fill="#4ade80" rx="1"/>
  <rect x="548.0" y="253.3" width="12.9" height="3.6" fill="#3aaf60" rx="1"/>
  <rect x="548.0" y="244.4" width="12.9" height="8.9" fill="#4ade80" rx="1"/>
  <text x="528.6" y="306" text-anchor="middle" fill="#e6edf3" font-size="10" font-weight="600">hdfs.json</text>
  <text x="528.6" y="318" text-anchor="middle" fill="#7d8590" font-size="9">7.0 MB</text>
  <rect x="582.4" y="185.4" width="12.9" height="104.6" fill="#60a5fa" rx="1"/>
  <rect x="582.4" y="169.7" width="12.9" height="15.7" fill="#4680c4" rx="1"/>
  <rect x="582.4" y="153.4" width="12.9" height="16.3" fill="#60a5fa" rx="1"/>
  <rect x="595.3" y="186.4" width="12.9" height="103.6" fill="#f87171" rx="1"/>
  <rect x="595.3" y="169.8" width="12.9" height="16.7" fill="#c45050" rx="1"/>
  <rect x="595.3" y="150.4" width="12.9" height="19.4" fill="#f87171" rx="1"/>
  <rect x="608.3" y="183.9" width="12.9" height="106.1" fill="#f59e0b" rx="1"/>
  <rect x="608.3" y="168.2" width="12.9" height="15.7" fill="#c47d08" rx="1"/>
  <rect x="608.3" y="152.5" width="12.9" height="15.7" fill="#f59e0b" rx="1"/>
  <rect x="621.2" y="166.0" width="12.9" height="124.0" fill="#f472b6" rx="1"/>
  <rect x="621.2" y="149.4" width="12.9" height="16.7" fill="#c05a92" rx="1"/>
  <rect x="621.2" y="128.2" width="12.9" height="21.2" fill="#f472b6" rx="1"/>
  <rect x="634.1" y="165.6" width="12.9" height="124.4" fill="#4ade80" rx="1"/>
  <rect x="634.1" y="149.9" width="12.9" height="15.7" fill="#3aaf60" rx="1"/>
  <rect x="634.1" y="129.2" width="12.9" height="20.7" fill="#4ade80" rx="1"/>
  <text x="614.7" y="306" text-anchor="middle" fill="#e6edf3" font-size="10" font-weight="600">reymont.pdf</text>
  <text x="614.7" y="318" text-anchor="middle" fill="#7d8590" font-size="9">6.6 MB</text>
  <rect x="668.5" y="241.5" width="12.9" height="48.5" fill="#60a5fa" rx="1"/>
  <rect x="668.5" y="233.9" width="12.9" height="7.6" fill="#4680c4" rx="1"/>
  <rect x="668.5" y="221.9" width="12.9" height="12.0" fill="#60a5fa" rx="1"/>
  <rect x="681.5" y="241.7" width="12.9" height="48.3" fill="#f87171" rx="1"/>
  <rect x="681.5" y="233.6" width="12.9" height="8.0" fill="#c45050" rx="1"/>
  <rect x="681.5" y="220.2" width="12.9" height="13.4" fill="#f87171" rx="1"/>
  <rect x="694.4" y="239.1" width="12.9" height="50.9" fill="#f59e0b" rx="1"/>
  <rect x="694.4" y="231.5" width="12.9" height="7.6" fill="#c47d08" rx="1"/>
  <rect x="694.4" y="217.9" width="12.9" height="13.6" fill="#f59e0b" rx="1"/>
  <rect x="707.3" y="233.6" width="12.9" height="56.4" fill="#f472b6" rx="1"/>
  <rect x="707.3" y="225.6" width="12.9" height="8.0" fill="#c05a92" rx="1"/>
  <rect x="707.3" y="210.4" width="12.9" height="15.2" fill="#f472b6" rx="1"/>
  <rect x="720.2" y="229.7" width="12.9" height="60.3" fill="#4ade80" rx="1"/>
  <rect x="720.2" y="222.2" width="12.9" height="7.6" fill="#3aaf60" rx="1"/>
  <rect x="720.2" y="206.8" width="12.9" height="15.3" fill="#4ade80" rx="1"/>
  <text x="700.8" y="306" text-anchor="middle" fill="#e6edf3" font-size="10" font-weight="600">xml_collection.xml</text>
  <text x="700.8" y="318" text-anchor="middle" fill="#7d8590" font-size="9">5.3 MB</text>
  <rect x="754.7" y="224.3" width="12.9" height="65.7" fill="#60a5fa" rx="1"/>
  <rect x="754.7" y="206.4" width="12.9" height="17.9" fill="#4680c4" rx="1"/>
  <rect x="754.7" y="194.4" width="12.9" height="12.0" fill="#60a5fa" rx="1"/>
  <rect x="767.6" y="245.3" width="12.9" height="44.7" fill="#f87171" rx="1"/>
  <rect x="767.6" y="226.1" width="12.9" height="19.3" fill="#c45050" rx="1"/>
  <rect x="767.6" y="214.0" width="12.9" height="12.1" fill="#f87171" rx="1"/>
  <rect x="780.5" y="222.7" width="12.9" height="67.3" fill="#f59e0b" rx="1"/>
  <rect x="780.5" y="204.8" width="12.9" height="17.9" fill="#c47d08" rx="1"/>
  <rect x="780.5" y="191.1" width="12.9" height="13.7" fill="#f59e0b" rx="1"/>
  <rect x="793.4" y="231.4" width="12.9" height="58.6" fill="#f472b6" rx="1"/>
  <rect x="793.4" y="212.1" width="12.9" height="19.3" fill="#c05a92" rx="1"/>
  <rect x="793.4" y="199.3" width="12.9" height="12.8" fill="#f472b6" rx="1"/>
  <rect x="806.3" y="207.7" width="12.9" height="82.3" fill="#4ade80" rx="1"/>
  <rect x="806.3" y="189.7" width="12.9" height="17.9" fill="#3aaf60" rx="1"/>
  <rect x="806.3" y="174.4" width="12.9" height="15.3" fill="#4ade80" rx="1"/>
  <text x="786.9" y="306" text-anchor="middle" fill="#e6edf3" font-size="10" font-weight="600">mr</text>
  <text x="786.9" y="318" text-anchor="middle" fill="#7d8590" font-size="9">10.0 MB</text>
  <line x1="55" y1="534.5" x2="830" y2="534.5" stroke="#21262d" stroke-width="1"/>
  <text x="47" y="534.5" text-anchor="end" dominant-baseline="middle" fill="#7d8590" font-size="10">2</text>
  <line x1="55" y1="468.9" x2="830" y2="468.9" stroke="#21262d" stroke-width="1"/>
  <text x="47" y="468.9" text-anchor="end" dominant-baseline="middle" fill="#7d8590" font-size="10">4</text>
  <line x1="55" y1="403.4" x2="830" y2="403.4" stroke="#21262d" stroke-width="1"/>
  <text x="47" y="403.4" text-anchor="end" dominant-baseline="middle" fill="#7d8590" font-size="10">6</text>
  <line x1="55" y1="600" x2="830" y2="600" stroke="#30363d" stroke-width="1.5"/>
  <rect x="67.1" y="536.7" width="14.5" height="63.3" fill="#60a5fa" rx="1"/>
  <rect x="67.1" y="519.8" width="14.5" height="16.9" fill="#4680c4" rx="1"/>
  <rect x="67.1" y="506.9" width="14.5" height="12.9" fill="#60a5fa" rx="1"/>
  <rect x="81.6" y="544.5" width="14.5" height="55.5" fill="#f87171" rx="1"/>
  <rect x="81.6" y="526.6" width="14.5" height="17.8" fill="#c45050" rx="1"/>
  <rect x="81.6" y="511.7" width="14.5" height="15.0" fill="#f87171" rx="1"/>
  <rect x="96.2" y="531.5" width="14.5" height="68.5" fill="#f59e0b" rx="1"/>
  <rect x="96.2" y="514.6" width="14.5" height="16.9" fill="#c47d08" rx="1"/>
  <rect x="96.2" y="499.7" width="14.5" height="14.9" fill="#f59e0b" rx="1"/>
  <rect x="110.7" y="529.8" width="14.5" height="70.2" fill="#f472b6" rx="1"/>
  <rect x="110.7" y="511.9" width="14.5" height="17.8" fill="#c05a92" rx="1"/>
  <rect x="110.7" y="495.2" width="14.5" height="16.7" fill="#f472b6" rx="1"/>
  <rect x="125.2" y="514.6" width="14.5" height="85.4" fill="#4ade80" rx="1"/>
  <rect x="125.2" y="497.7" width="14.5" height="16.9" fill="#3aaf60" rx="1"/>
  <rect x="125.2" y="480.8" width="14.5" height="16.8" fill="#4ade80" rx="1"/>
  <text x="103.4" y="616" text-anchor="middle" fill="#e6edf3" font-size="10" font-weight="600">mozilla</text>
  <text x="103.4" y="628" text-anchor="middle" fill="#7d8590" font-size="9">51.2 MB</text>
  <rect x="164.0" y="561.3" width="14.5" height="38.7" fill="#60a5fa" rx="1"/>
  <rect x="164.0" y="555.8" width="14.5" height="5.4" fill="#4680c4" rx="1"/>
  <rect x="164.0" y="546.5" width="14.5" height="9.3" fill="#60a5fa" rx="1"/>
  <rect x="178.5" y="560.3" width="14.5" height="39.7" fill="#f87171" rx="1"/>
  <rect x="178.5" y="554.7" width="14.5" height="5.6" fill="#c45050" rx="1"/>
  <rect x="178.5" y="544.2" width="14.5" height="10.5" fill="#f87171" rx="1"/>
  <rect x="193.0" y="558.6" width="14.5" height="41.4" fill="#f59e0b" rx="1"/>
  <rect x="193.0" y="553.2" width="14.5" height="5.4" fill="#c47d08" rx="1"/>
  <rect x="193.0" y="540.5" width="14.5" height="12.7" fill="#f59e0b" rx="1"/>
  <rect x="207.6" y="554.5" width="14.5" height="45.5" fill="#f472b6" rx="1"/>
  <rect x="207.6" y="548.9" width="14.5" height="5.6" fill="#c05a92" rx="1"/>
  <rect x="207.6" y="536.8" width="14.5" height="12.1" fill="#f472b6" rx="1"/>
  <rect x="222.1" y="551.1" width="14.5" height="48.9" fill="#4ade80" rx="1"/>
  <rect x="222.1" y="545.7" width="14.5" height="5.4" fill="#3aaf60" rx="1"/>
  <rect x="222.1" y="532.4" width="14.5" height="13.3" fill="#4ade80" rx="1"/>
  <text x="200.3" y="616" text-anchor="middle" fill="#e6edf3" font-size="10" font-weight="600">nci</text>
  <text x="200.3" y="628" text-anchor="middle" fill="#7d8590" font-size="9">33.6 MB</text>
  <rect x="260.9" y="526.4" width="14.5" height="73.6" fill="#60a5fa" rx="1"/>
  <rect x="260.9" y="509.4" width="14.5" height="17.1" fill="#4680c4" rx="1"/>
  <rect x="260.9" y="495.7" width="14.5" height="13.7" fill="#60a5fa" rx="1"/>
  <rect x="275.4" y="541.3" width="14.5" height="58.7" fill="#f87171" rx="1"/>
  <rect x="275.4" y="518.6" width="14.5" height="22.7" fill="#c45050" rx="1"/>
  <rect x="275.4" y="501.7" width="14.5" height="16.9" fill="#f87171" rx="1"/>
  <rect x="289.9" y="516.8" width="14.5" height="83.2" fill="#f59e0b" rx="1"/>
  <rect x="289.9" y="499.6" width="14.5" height="17.2" fill="#c47d08" rx="1"/>
  <rect x="289.9" y="483.6" width="14.5" height="16.0" fill="#f59e0b" rx="1"/>
  <rect x="304.5" y="523.6" width="14.5" height="76.4" fill="#f472b6" rx="1"/>
  <rect x="304.5" y="500.9" width="14.5" height="22.7" fill="#c05a92" rx="1"/>
  <rect x="304.5" y="481.4" width="14.5" height="19.5" fill="#f472b6" rx="1"/>
  <rect x="319.0" y="499.5" width="14.5" height="100.5" fill="#4ade80" rx="1"/>
  <rect x="319.0" y="482.3" width="14.5" height="17.2" fill="#3aaf60" rx="1"/>
  <rect x="319.0" y="464.3" width="14.5" height="18.0" fill="#4ade80" rx="1"/>
  <text x="297.2" y="616" text-anchor="middle" fill="#e6edf3" font-size="10" font-weight="600">osdb</text>
  <text x="297.2" y="628" text-anchor="middle" fill="#7d8590" font-size="9">10.1 MB</text>
  <rect x="357.7" y="538.6" width="14.5" height="61.4" fill="#60a5fa" rx="1"/>
  <rect x="357.7" y="526.9" width="14.5" height="11.7" fill="#4680c4" rx="1"/>
  <rect x="357.7" y="515.0" width="14.5" height="11.9" fill="#60a5fa" rx="1"/>
  <rect x="372.3" y="541.4" width="14.5" height="58.6" fill="#f87171" rx="1"/>
  <rect x="372.3" y="528.8" width="14.5" height="12.5" fill="#c45050" rx="1"/>
  <rect x="372.3" y="515.0" width="14.5" height="13.9" fill="#f87171" rx="1"/>
  <rect x="386.8" y="535.7" width="14.5" height="64.3" fill="#f59e0b" rx="1"/>
  <rect x="386.8" y="524.0" width="14.5" height="11.7" fill="#c47d08" rx="1"/>
  <rect x="386.8" y="510.3" width="14.5" height="13.7" fill="#f59e0b" rx="1"/>
  <rect x="401.3" y="530.2" width="14.5" height="69.8" fill="#f472b6" rx="1"/>
  <rect x="401.3" y="517.7" width="14.5" height="12.5" fill="#c05a92" rx="1"/>
  <rect x="401.3" y="502.1" width="14.5" height="15.6" fill="#f472b6" rx="1"/>
  <rect x="415.9" y="523.2" width="14.5" height="76.8" fill="#4ade80" rx="1"/>
  <rect x="415.9" y="511.5" width="14.5" height="11.7" fill="#3aaf60" rx="1"/>
  <rect x="415.9" y="495.8" width="14.5" height="15.8" fill="#4ade80" rx="1"/>
  <text x="394.1" y="616" text-anchor="middle" fill="#e6edf3" font-size="10" font-weight="600">samba</text>
  <text x="394.1" y="628" text-anchor="middle" fill="#7d8590" font-size="9">21.6 MB</text>
  <rect x="454.6" y="527.6" width="14.5" height="72.4" fill="#60a5fa" rx="1"/>
  <rect x="454.6" y="496.9" width="14.5" height="30.7" fill="#4680c4" rx="1"/>
  <rect x="454.6" y="485.3" width="14.5" height="11.6" fill="#60a5fa" rx="1"/>
  <rect x="469.1" y="579.3" width="14.5" height="20.7" fill="#f87171" rx="1"/>
  <rect x="469.1" y="547.0" width="14.5" height="32.3" fill="#c45050" rx="1"/>
  <rect x="469.1" y="541.5" width="14.5" height="5.5" fill="#f87171" rx="1"/>
  <rect x="483.7" y="517.9" width="14.5" height="82.1" fill="#f59e0b" rx="1"/>
  <rect x="483.7" y="487.1" width="14.5" height="30.8" fill="#c47d08" rx="1"/>
  <rect x="483.7" y="474.3" width="14.5" height="12.8" fill="#f59e0b" rx="1"/>
  <rect x="498.2" y="570.0" width="14.5" height="30.0" fill="#f472b6" rx="1"/>
  <rect x="498.2" y="537.8" width="14.5" height="32.3" fill="#c05a92" rx="1"/>
  <rect x="498.2" y="531.5" width="14.5" height="6.2" fill="#f472b6" rx="1"/>
  <rect x="512.7" y="498.3" width="14.5" height="101.7" fill="#4ade80" rx="1"/>
  <rect x="512.7" y="467.5" width="14.5" height="30.8" fill="#3aaf60" rx="1"/>
  <rect x="512.7" y="452.6" width="14.5" height="14.9" fill="#4ade80" rx="1"/>
  <text x="490.9" y="616" text-anchor="middle" fill="#e6edf3" font-size="10" font-weight="600">sao</text>
  <text x="490.9" y="628" text-anchor="middle" fill="#7d8590" font-size="9">7.3 MB</text>
  <rect x="551.5" y="508.3" width="14.5" height="91.7" fill="#60a5fa" rx="1"/>
  <rect x="551.5" y="492.4" width="14.5" height="15.9" fill="#4680c4" rx="1"/>
  <rect x="551.5" y="477.9" width="14.5" height="14.5" fill="#60a5fa" rx="1"/>
  <rect x="566.0" y="514.2" width="14.5" height="85.8" fill="#f87171" rx="1"/>
  <rect x="566.0" y="496.7" width="14.5" height="17.5" fill="#c45050" rx="1"/>
  <rect x="566.0" y="479.7" width="14.5" height="16.9" fill="#f87171" rx="1"/>
  <rect x="580.5" y="503.6" width="14.5" height="96.4" fill="#f59e0b" rx="1"/>
  <rect x="580.5" y="487.6" width="14.5" height="15.9" fill="#c47d08" rx="1"/>
  <rect x="580.5" y="471.9" width="14.5" height="15.8" fill="#f59e0b" rx="1"/>
  <rect x="595.1" y="495.3" width="14.5" height="104.7" fill="#f472b6" rx="1"/>
  <rect x="595.1" y="477.8" width="14.5" height="17.5" fill="#c05a92" rx="1"/>
  <rect x="595.1" y="458.3" width="14.5" height="19.5" fill="#f472b6" rx="1"/>
  <rect x="609.6" y="481.7" width="14.5" height="118.3" fill="#4ade80" rx="1"/>
  <rect x="609.6" y="465.8" width="14.5" height="15.9" fill="#3aaf60" rx="1"/>
  <rect x="609.6" y="446.6" width="14.5" height="19.3" fill="#4ade80" rx="1"/>
  <text x="587.8" y="616" text-anchor="middle" fill="#e6edf3" font-size="10" font-weight="600">webster</text>
  <text x="587.8" y="628" text-anchor="middle" fill="#7d8590" font-size="9">41.5 MB</text>
  <rect x="648.4" y="573.4" width="14.5" height="26.6" fill="#60a5fa" rx="1"/>
  <rect x="648.4" y="541.0" width="14.5" height="32.4" fill="#4680c4" rx="1"/>
  <rect x="648.4" y="536.6" width="14.5" height="4.4" fill="#60a5fa" rx="1"/>
  <rect x="662.9" y="597.6" width="14.5" height="2.4" fill="#f87171" rx="1"/>
  <rect x="662.9" y="564.7" width="14.5" height="32.9" fill="#c45050" rx="1"/>
  <rect x="662.9" y="562.4" width="14.5" height="2.3" fill="#f87171" rx="1"/>
  <rect x="677.4" y="577.3" width="14.5" height="22.7" fill="#f59e0b" rx="1"/>
  <rect x="677.4" y="544.7" width="14.5" height="32.5" fill="#c47d08" rx="1"/>
  <rect x="677.4" y="540.8" width="14.5" height="3.9" fill="#f59e0b" rx="1"/>
  <rect x="692.0" y="597.3" width="14.5" height="2.7" fill="#f472b6" rx="1"/>
  <rect x="692.0" y="564.4" width="14.5" height="32.9" fill="#c05a92" rx="1"/>
  <rect x="692.0" y="562.0" width="14.5" height="2.4" fill="#f472b6" rx="1"/>
  <rect x="706.5" y="572.6" width="14.5" height="27.4" fill="#4ade80" rx="1"/>
  <rect x="706.5" y="540.0" width="14.5" height="32.5" fill="#3aaf60" rx="1"/>
  <rect x="706.5" y="536.1" width="14.5" height="4.0" fill="#4ade80" rx="1"/>
  <text x="684.7" y="616" text-anchor="middle" fill="#e6edf3" font-size="10" font-weight="600">x-ray</text>
  <text x="684.7" y="628" text-anchor="middle" fill="#7d8590" font-size="9">8.5 MB</text>
  <rect x="745.2" y="523.5" width="14.5" height="76.5" fill="#60a5fa" rx="1"/>
  <rect x="745.2" y="500.4" width="14.5" height="23.1" fill="#4680c4" rx="1"/>
  <rect x="745.2" y="486.2" width="14.5" height="14.2" fill="#60a5fa" rx="1"/>
  <rect x="759.8" y="546.3" width="14.5" height="53.7" fill="#f87171" rx="1"/>
  <rect x="759.8" y="521.2" width="14.5" height="25.1" fill="#c45050" rx="1"/>
  <rect x="759.8" y="507.2" width="14.5" height="14.1" fill="#f87171" rx="1"/>
  <rect x="774.3" y="515.1" width="14.5" height="84.9" fill="#f59e0b" rx="1"/>
  <rect x="774.3" y="491.9" width="14.5" height="23.2" fill="#c47d08" rx="1"/>
  <rect x="774.3" y="476.1" width="14.5" height="15.8" fill="#f59e0b" rx="1"/>
  <rect x="788.8" y="529.9" width="14.5" height="70.1" fill="#f472b6" rx="1"/>
  <rect x="788.8" y="504.9" width="14.5" height="25.1" fill="#c05a92" rx="1"/>
  <rect x="788.8" y="488.7" width="14.5" height="16.1" fill="#f472b6" rx="1"/>
  <rect x="803.4" y="493.3" width="14.5" height="106.7" fill="#4ade80" rx="1"/>
  <rect x="803.4" y="470.1" width="14.5" height="23.2" fill="#3aaf60" rx="1"/>
  <rect x="803.4" y="452.7" width="14.5" height="17.4" fill="#4ade80" rx="1"/>
  <text x="781.6" y="616" text-anchor="middle" fill="#e6edf3" font-size="10" font-weight="600">ooffice</text>
  <text x="781.6" y="628" text-anchor="middle" fill="#7d8590" font-size="9">6.2 MB</text>
  <rect x="242" y="645" width="12" height="12" fill="#60a5fa" rx="2"/>
  <text x="260" y="655" fill="#e6edf3" font-size="10" font-weight="500">lz4 (C)</text>
  <rect x="242" y="663" width="12" height="12" fill="#f87171" rx="2"/>
  <text x="260" y="673" fill="#e6edf3" font-size="10" font-weight="500">lz4rip (encapsulated unsafe)</text>
  <rect x="242" y="681" width="12" height="12" fill="#f59e0b" rx="2"/>
  <text x="260" y="691" fill="#e6edf3" font-size="10" font-weight="500">lz4_flex (unsafe)</text>
  <rect x="452" y="645" width="12" height="12" fill="#f472b6" rx="2"/>
  <text x="470" y="655" fill="#e6edf3" font-size="10" font-weight="500">lz4rip paranoid (safe)</text>
  <rect x="452" y="663" width="12" height="12" fill="#4ade80" rx="2"/>
  <text x="470" y="673" fill="#e6edf3" font-size="10" font-weight="500">lz4_flex (safe)</text>
  <text x="232" y="716" fill="#e6edf3" font-size="9">bright = compress + decompress</text>
  <text x="472" y="716" fill="#7d8590" font-size="9">dim = transfer @1 GB/s</text>
</svg>
