<svg xmlns="http://www.w3.org/2000/svg" viewBox="0 0 850 720" font-family="system-ui, -apple-system, sans-serif">
  <rect width="850" height="720" fill="#0d1117"/>
  <text x="442.5" y="22" text-anchor="middle" fill="#e6edf3" font-size="14" font-weight="700">LZ4 Block: Compress + Transfer @1 GB/s + Decompress (lower is better)</text>
  <text x="442.5" y="38" text-anchor="middle" fill="#7d8590" font-size="10">Intel Core i7-8700B @ 3.20GHz, performance governor, turbo off</text>
  <line x1="55" y1="222.5" x2="830" y2="222.5" stroke="#21262d" stroke-width="1"/>
  <text x="47" y="222.5" text-anchor="end" dominant-baseline="middle" fill="#7d8590" font-size="10">2</text>
  <line x1="55" y1="154.9" x2="830" y2="154.9" stroke="#21262d" stroke-width="1"/>
  <text x="47" y="154.9" text-anchor="end" dominant-baseline="middle" fill="#7d8590" font-size="10">4</text>
  <line x1="55" y1="87.4" x2="830" y2="87.4" stroke="#21262d" stroke-width="1"/>
  <text x="47" y="87.4" text-anchor="end" dominant-baseline="middle" fill="#7d8590" font-size="10">6</text>
  <line x1="55" y1="290" x2="830" y2="290" stroke="#30363d" stroke-width="1.5"/>
  <text x="22" y="325.0" text-anchor="middle" fill="#e6edf3" font-size="11" font-weight="600" transform="rotate(-90,22,325.0)">seconds / GB</text>
  <rect x="67.1" y="188.7" width="18.2" height="101.3" fill="#60a5fa" rx="1"/>
  <rect x="67.1" y="162.8" width="18.2" height="25.9" fill="#4680c4" rx="1"/>
  <rect x="67.1" y="109.2" width="18.2" height="53.6" fill="#60a5fa" rx="1"/>
  <rect x="85.3" y="197.5" width="18.2" height="92.5" fill="#f87171" rx="1"/>
  <rect x="85.3" y="170.4" width="18.2" height="27.0" fill="#c45050" rx="1"/>
  <rect x="85.3" y="118.2" width="18.2" height="52.3" fill="#f87171" rx="1"/>
  <rect x="103.4" y="177.7" width="18.2" height="112.3" fill="#f59e0b" rx="1"/>
  <rect x="103.4" y="151.7" width="18.2" height="26.0" fill="#c47d08" rx="1"/>
  <rect x="103.4" y="98.4" width="18.2" height="53.3" fill="#f59e0b" rx="1"/>
  <rect x="121.6" y="156.4" width="18.2" height="133.6" fill="#4ade80" rx="1"/>
  <rect x="121.6" y="130.4" width="18.2" height="26.0" fill="#3aaf60" rx="1"/>
  <rect x="121.6" y="71.8" width="18.2" height="58.6" fill="#4ade80" rx="1"/>
  <text x="103.4" y="306" text-anchor="middle" fill="#e6edf3" font-size="10" font-weight="600">1k</text>
  <text x="103.4" y="318" text-anchor="middle" fill="#7d8590" font-size="9">725 B</text>
  <rect x="164.0" y="197.4" width="18.2" height="92.6" fill="#60a5fa" rx="1"/>
  <rect x="164.0" y="178.2" width="18.2" height="19.3" fill="#4680c4" rx="1"/>
  <rect x="164.0" y="159.1" width="18.2" height="19.1" fill="#60a5fa" rx="1"/>
  <rect x="182.1" y="197.8" width="18.2" height="92.2" fill="#f87171" rx="1"/>
  <rect x="182.1" y="178.6" width="18.2" height="19.1" fill="#c45050" rx="1"/>
  <rect x="182.1" y="161.5" width="18.2" height="17.1" fill="#f87171" rx="1"/>
  <rect x="200.3" y="184.5" width="18.2" height="105.5" fill="#f59e0b" rx="1"/>
  <rect x="200.3" y="165.0" width="18.2" height="19.6" fill="#c47d08" rx="1"/>
  <rect x="200.3" y="146.8" width="18.2" height="18.2" fill="#f59e0b" rx="1"/>
  <rect x="218.5" y="161.1" width="18.2" height="128.9" fill="#4ade80" rx="1"/>
  <rect x="218.5" y="141.5" width="18.2" height="19.6" fill="#3aaf60" rx="1"/>
  <rect x="218.5" y="115.7" width="18.2" height="25.8" fill="#4ade80" rx="1"/>
  <text x="200.3" y="306" text-anchor="middle" fill="#e6edf3" font-size="10" font-weight="600">34k</text>
  <text x="200.3" y="318" text-anchor="middle" fill="#7d8590" font-size="9">34 KB</text>
  <rect x="260.9" y="182.6" width="18.2" height="107.4" fill="#60a5fa" rx="1"/>
  <rect x="260.9" y="163.7" width="18.2" height="18.9" fill="#4680c4" rx="1"/>
  <rect x="260.9" y="145.8" width="18.2" height="17.9" fill="#60a5fa" rx="1"/>
  <rect x="279.0" y="195.2" width="18.2" height="94.8" fill="#f87171" rx="1"/>
  <rect x="279.0" y="176.2" width="18.2" height="19.1" fill="#c45050" rx="1"/>
  <rect x="279.0" y="160.1" width="18.2" height="16.1" fill="#f87171" rx="1"/>
  <rect x="297.2" y="175.7" width="18.2" height="114.3" fill="#f59e0b" rx="1"/>
  <rect x="297.2" y="156.4" width="18.2" height="19.4" fill="#c47d08" rx="1"/>
  <rect x="297.2" y="139.3" width="18.2" height="17.1" fill="#f59e0b" rx="1"/>
  <rect x="315.4" y="158.0" width="18.2" height="132.0" fill="#4ade80" rx="1"/>
  <rect x="315.4" y="138.6" width="18.2" height="19.4" fill="#3aaf60" rx="1"/>
  <rect x="315.4" y="114.6" width="18.2" height="24.0" fill="#4ade80" rx="1"/>
  <text x="297.2" y="306" text-anchor="middle" fill="#e6edf3" font-size="10" font-weight="600">65k</text>
  <text x="297.2" y="318" text-anchor="middle" fill="#7d8590" font-size="9">65 KB</text>
  <rect x="357.7" y="253.9" width="18.2" height="36.1" fill="#60a5fa" rx="1"/>
  <rect x="357.7" y="246.2" width="18.2" height="7.7" fill="#4680c4" rx="1"/>
  <rect x="357.7" y="237.7" width="18.2" height="8.5" fill="#60a5fa" rx="1"/>
  <rect x="375.9" y="251.5" width="18.2" height="38.5" fill="#f87171" rx="1"/>
  <rect x="375.9" y="243.6" width="18.2" height="7.9" fill="#c45050" rx="1"/>
  <rect x="375.9" y="231.4" width="18.2" height="12.2" fill="#f87171" rx="1"/>
  <rect x="394.1" y="244.0" width="18.2" height="46.0" fill="#f59e0b" rx="1"/>
  <rect x="394.1" y="236.3" width="18.2" height="7.7" fill="#c47d08" rx="1"/>
  <rect x="394.1" y="226.3" width="18.2" height="10.0" fill="#f59e0b" rx="1"/>
  <rect x="412.2" y="236.7" width="18.2" height="53.3" fill="#4ade80" rx="1"/>
  <rect x="412.2" y="228.9" width="18.2" height="7.7" fill="#3aaf60" rx="1"/>
  <rect x="412.2" y="216.4" width="18.2" height="12.5" fill="#4ade80" rx="1"/>
  <text x="394.1" y="306" text-anchor="middle" fill="#e6edf3" font-size="10" font-weight="600">66k_JSON</text>
  <text x="394.1" y="318" text-anchor="middle" fill="#7d8590" font-size="9">67 KB</text>
  <rect x="454.6" y="181.0" width="18.2" height="109.0" fill="#60a5fa" rx="1"/>
  <rect x="454.6" y="159.7" width="18.2" height="21.3" fill="#4680c4" rx="1"/>
  <rect x="454.6" y="144.6" width="18.2" height="15.2" fill="#60a5fa" rx="1"/>
  <rect x="472.8" y="176.6" width="18.2" height="113.4" fill="#f87171" rx="1"/>
  <rect x="472.8" y="154.9" width="18.2" height="21.6" fill="#c45050" rx="1"/>
  <rect x="472.8" y="136.6" width="18.2" height="18.3" fill="#f87171" rx="1"/>
  <rect x="490.9" y="167.8" width="18.2" height="122.2" fill="#f59e0b" rx="1"/>
  <rect x="490.9" y="146.5" width="18.2" height="21.3" fill="#c47d08" rx="1"/>
  <rect x="490.9" y="131.8" width="18.2" height="14.7" fill="#f59e0b" rx="1"/>
  <rect x="509.1" y="145.6" width="18.2" height="144.4" fill="#4ade80" rx="1"/>
  <rect x="509.1" y="124.3" width="18.2" height="21.3" fill="#3aaf60" rx="1"/>
  <rect x="509.1" y="103.1" width="18.2" height="21.2" fill="#4ade80" rx="1"/>
  <text x="490.9" y="306" text-anchor="middle" fill="#e6edf3" font-size="10" font-weight="600">dickens</text>
  <text x="490.9" y="318" text-anchor="middle" fill="#7d8590" font-size="9">10.2 MB</text>
  <rect x="551.5" y="263.3" width="18.2" height="26.7" fill="#60a5fa" rx="1"/>
  <rect x="551.5" y="259.6" width="18.2" height="3.7" fill="#4680c4" rx="1"/>
  <rect x="551.5" y="252.6" width="18.2" height="7.0" fill="#60a5fa" rx="1"/>
  <rect x="569.6" y="261.9" width="18.2" height="28.1" fill="#f87171" rx="1"/>
  <rect x="569.6" y="258.2" width="18.2" height="3.7" fill="#c45050" rx="1"/>
  <rect x="569.6" y="250.4" width="18.2" height="7.7" fill="#f87171" rx="1"/>
  <rect x="587.8" y="258.6" width="18.2" height="31.4" fill="#f59e0b" rx="1"/>
  <rect x="587.8" y="254.9" width="18.2" height="3.7" fill="#c47d08" rx="1"/>
  <rect x="587.8" y="246.3" width="18.2" height="8.6" fill="#f59e0b" rx="1"/>
  <rect x="606.0" y="253.7" width="18.2" height="36.3" fill="#4ade80" rx="1"/>
  <rect x="606.0" y="250.0" width="18.2" height="3.7" fill="#3aaf60" rx="1"/>
  <rect x="606.0" y="240.5" width="18.2" height="9.5" fill="#4ade80" rx="1"/>
  <text x="587.8" y="306" text-anchor="middle" fill="#e6edf3" font-size="10" font-weight="600">hdfs.json</text>
  <text x="587.8" y="318" text-anchor="middle" fill="#7d8590" font-size="9">7.0 MB</text>
  <rect x="648.4" y="182.0" width="18.2" height="108.0" fill="#60a5fa" rx="1"/>
  <rect x="648.4" y="165.8" width="18.2" height="16.2" fill="#4680c4" rx="1"/>
  <rect x="648.4" y="148.6" width="18.2" height="17.2" fill="#60a5fa" rx="1"/>
  <rect x="666.5" y="180.5" width="18.2" height="109.5" fill="#f87171" rx="1"/>
  <rect x="666.5" y="164.2" width="18.2" height="16.2" fill="#c45050" rx="1"/>
  <rect x="666.5" y="144.4" width="18.2" height="19.9" fill="#f87171" rx="1"/>
  <rect x="684.7" y="177.7" width="18.2" height="112.3" fill="#f59e0b" rx="1"/>
  <rect x="684.7" y="161.5" width="18.2" height="16.2" fill="#c47d08" rx="1"/>
  <rect x="684.7" y="145.0" width="18.2" height="16.5" fill="#f59e0b" rx="1"/>
  <rect x="702.9" y="157.5" width="18.2" height="132.5" fill="#4ade80" rx="1"/>
  <rect x="702.9" y="141.3" width="18.2" height="16.2" fill="#3aaf60" rx="1"/>
  <rect x="702.9" y="117.4" width="18.2" height="23.9" fill="#4ade80" rx="1"/>
  <text x="684.7" y="306" text-anchor="middle" fill="#e6edf3" font-size="10" font-weight="600">reymont.pdf</text>
  <text x="684.7" y="318" text-anchor="middle" fill="#7d8590" font-size="9">6.6 MB</text>
  <rect x="745.2" y="239.7" width="18.2" height="50.3" fill="#60a5fa" rx="1"/>
  <rect x="745.2" y="231.9" width="18.2" height="7.8" fill="#4680c4" rx="1"/>
  <rect x="745.2" y="219.4" width="18.2" height="12.6" fill="#60a5fa" rx="1"/>
  <rect x="763.4" y="238.2" width="18.2" height="51.8" fill="#f87171" rx="1"/>
  <rect x="763.4" y="230.3" width="18.2" height="7.9" fill="#c45050" rx="1"/>
  <rect x="763.4" y="216.5" width="18.2" height="13.8" fill="#f87171" rx="1"/>
  <rect x="781.6" y="235.1" width="18.2" height="54.9" fill="#f59e0b" rx="1"/>
  <rect x="781.6" y="227.3" width="18.2" height="7.8" fill="#c47d08" rx="1"/>
  <rect x="781.6" y="213.2" width="18.2" height="14.1" fill="#f59e0b" rx="1"/>
  <rect x="799.7" y="225.2" width="18.2" height="64.8" fill="#4ade80" rx="1"/>
  <rect x="799.7" y="217.4" width="18.2" height="7.8" fill="#3aaf60" rx="1"/>
  <rect x="799.7" y="200.8" width="18.2" height="16.7" fill="#4ade80" rx="1"/>
  <text x="781.6" y="306" text-anchor="middle" fill="#e6edf3" font-size="10" font-weight="600">xml_collection.xml</text>
  <text x="781.6" y="318" text-anchor="middle" fill="#7d8590" font-size="9">5.3 MB</text>
  <line x1="55" y1="532.5" x2="830" y2="532.5" stroke="#21262d" stroke-width="1"/>
  <text x="47" y="532.5" text-anchor="end" dominant-baseline="middle" fill="#7d8590" font-size="10">2</text>
  <line x1="55" y1="464.9" x2="830" y2="464.9" stroke="#21262d" stroke-width="1"/>
  <text x="47" y="464.9" text-anchor="end" dominant-baseline="middle" fill="#7d8590" font-size="10">4</text>
  <line x1="55" y1="397.4" x2="830" y2="397.4" stroke="#21262d" stroke-width="1"/>
  <text x="47" y="397.4" text-anchor="end" dominant-baseline="middle" fill="#7d8590" font-size="10">6</text>
  <line x1="55" y1="600" x2="830" y2="600" stroke="#30363d" stroke-width="1.5"/>
  <rect x="67.1" y="531.8" width="18.2" height="68.2" fill="#60a5fa" rx="1"/>
  <rect x="67.1" y="513.4" width="18.2" height="18.4" fill="#4680c4" rx="1"/>
  <rect x="67.1" y="500.6" width="18.2" height="12.8" fill="#60a5fa" rx="1"/>
  <rect x="85.3" y="544.1" width="18.2" height="55.9" fill="#f87171" rx="1"/>
  <rect x="85.3" y="525.2" width="18.2" height="18.9" fill="#c45050" rx="1"/>
  <rect x="85.3" y="511.7" width="18.2" height="13.5" fill="#f87171" rx="1"/>
  <rect x="103.4" y="530.1" width="18.2" height="69.9" fill="#f59e0b" rx="1"/>
  <rect x="103.4" y="511.6" width="18.2" height="18.5" fill="#c47d08" rx="1"/>
  <rect x="103.4" y="497.2" width="18.2" height="14.4" fill="#f59e0b" rx="1"/>
  <rect x="121.6" y="515.6" width="18.2" height="84.4" fill="#4ade80" rx="1"/>
  <rect x="121.6" y="497.1" width="18.2" height="18.5" fill="#3aaf60" rx="1"/>
  <rect x="121.6" y="479.7" width="18.2" height="17.5" fill="#4ade80" rx="1"/>
  <text x="103.4" y="616" text-anchor="middle" fill="#e6edf3" font-size="10" font-weight="600">mr</text>
  <text x="103.4" y="628" text-anchor="middle" fill="#7d8590" font-size="9">10.0 MB</text>
  <rect x="164.0" y="534.2" width="18.2" height="65.8" fill="#60a5fa" rx="1"/>
  <rect x="164.0" y="516.8" width="18.2" height="17.4" fill="#4680c4" rx="1"/>
  <rect x="164.0" y="503.3" width="18.2" height="13.5" fill="#60a5fa" rx="1"/>
  <rect x="182.1" y="535.4" width="18.2" height="64.6" fill="#f87171" rx="1"/>
  <rect x="182.1" y="517.6" width="18.2" height="17.8" fill="#c45050" rx="1"/>
  <rect x="182.1" y="502.0" width="18.2" height="15.7" fill="#f87171" rx="1"/>
  <rect x="200.3" y="527.2" width="18.2" height="72.8" fill="#f59e0b" rx="1"/>
  <rect x="200.3" y="509.7" width="18.2" height="17.5" fill="#c47d08" rx="1"/>
  <rect x="200.3" y="494.2" width="18.2" height="15.5" fill="#f59e0b" rx="1"/>
  <rect x="218.5" y="512.0" width="18.2" height="88.0" fill="#4ade80" rx="1"/>
  <rect x="218.5" y="494.6" width="18.2" height="17.5" fill="#3aaf60" rx="1"/>
  <rect x="218.5" y="476.0" width="18.2" height="18.6" fill="#4ade80" rx="1"/>
  <text x="200.3" y="616" text-anchor="middle" fill="#e6edf3" font-size="10" font-weight="600">mozilla</text>
  <text x="200.3" y="628" text-anchor="middle" fill="#7d8590" font-size="9">51.2 MB</text>
  <rect x="260.9" y="559.4" width="18.2" height="40.6" fill="#60a5fa" rx="1"/>
  <rect x="260.9" y="553.9" width="18.2" height="5.6" fill="#4680c4" rx="1"/>
  <rect x="260.9" y="544.0" width="18.2" height="9.9" fill="#60a5fa" rx="1"/>
  <rect x="279.0" y="557.4" width="18.2" height="42.6" fill="#f87171" rx="1"/>
  <rect x="279.0" y="551.8" width="18.2" height="5.6" fill="#c45050" rx="1"/>
  <rect x="279.0" y="540.9" width="18.2" height="11.0" fill="#f87171" rx="1"/>
  <rect x="297.2" y="554.9" width="18.2" height="45.1" fill="#f59e0b" rx="1"/>
  <rect x="297.2" y="549.4" width="18.2" height="5.6" fill="#c47d08" rx="1"/>
  <rect x="297.2" y="536.2" width="18.2" height="13.2" fill="#f59e0b" rx="1"/>
  <rect x="315.4" y="546.5" width="18.2" height="53.5" fill="#4ade80" rx="1"/>
  <rect x="315.4" y="540.9" width="18.2" height="5.6" fill="#3aaf60" rx="1"/>
  <rect x="315.4" y="526.5" width="18.2" height="14.4" fill="#4ade80" rx="1"/>
  <text x="297.2" y="616" text-anchor="middle" fill="#e6edf3" font-size="10" font-weight="600">nci</text>
  <text x="297.2" y="628" text-anchor="middle" fill="#7d8590" font-size="9">33.6 MB</text>
  <rect x="357.7" y="524.0" width="18.2" height="76.0" fill="#60a5fa" rx="1"/>
  <rect x="357.7" y="506.4" width="18.2" height="17.6" fill="#4680c4" rx="1"/>
  <rect x="357.7" y="491.8" width="18.2" height="14.5" fill="#60a5fa" rx="1"/>
  <rect x="375.9" y="527.4" width="18.2" height="72.6" fill="#f87171" rx="1"/>
  <rect x="375.9" y="508.3" width="18.2" height="19.1" fill="#c45050" rx="1"/>
  <rect x="375.9" y="490.9" width="18.2" height="17.4" fill="#f87171" rx="1"/>
  <rect x="394.1" y="513.6" width="18.2" height="86.4" fill="#f59e0b" rx="1"/>
  <rect x="394.1" y="496.0" width="18.2" height="17.7" fill="#c47d08" rx="1"/>
  <rect x="394.1" y="479.2" width="18.2" height="16.7" fill="#f59e0b" rx="1"/>
  <rect x="412.2" y="497.8" width="18.2" height="102.2" fill="#4ade80" rx="1"/>
  <rect x="412.2" y="480.1" width="18.2" height="17.7" fill="#3aaf60" rx="1"/>
  <rect x="412.2" y="460.4" width="18.2" height="19.8" fill="#4ade80" rx="1"/>
  <text x="394.1" y="616" text-anchor="middle" fill="#e6edf3" font-size="10" font-weight="600">osdb</text>
  <text x="394.1" y="628" text-anchor="middle" fill="#7d8590" font-size="9">10.1 MB</text>
  <rect x="454.6" y="536.1" width="18.2" height="63.9" fill="#60a5fa" rx="1"/>
  <rect x="454.6" y="524.0" width="18.2" height="12.1" fill="#4680c4" rx="1"/>
  <rect x="454.6" y="511.4" width="18.2" height="12.6" fill="#60a5fa" rx="1"/>
  <rect x="472.8" y="534.2" width="18.2" height="65.8" fill="#f87171" rx="1"/>
  <rect x="472.8" y="522.0" width="18.2" height="12.2" fill="#c45050" rx="1"/>
  <rect x="472.8" y="507.5" width="18.2" height="14.4" fill="#f87171" rx="1"/>
  <rect x="490.9" y="530.6" width="18.2" height="69.4" fill="#f59e0b" rx="1"/>
  <rect x="490.9" y="518.5" width="18.2" height="12.1" fill="#c47d08" rx="1"/>
  <rect x="490.9" y="504.1" width="18.2" height="14.4" fill="#f59e0b" rx="1"/>
  <rect x="509.1" y="518.6" width="18.2" height="81.4" fill="#4ade80" rx="1"/>
  <rect x="509.1" y="506.5" width="18.2" height="12.1" fill="#3aaf60" rx="1"/>
  <rect x="509.1" y="488.8" width="18.2" height="17.7" fill="#4ade80" rx="1"/>
  <text x="490.9" y="616" text-anchor="middle" fill="#e6edf3" font-size="10" font-weight="600">samba</text>
  <text x="490.9" y="628" text-anchor="middle" fill="#7d8590" font-size="9">21.6 MB</text>
  <rect x="551.5" y="524.7" width="18.2" height="75.3" fill="#60a5fa" rx="1"/>
  <rect x="551.5" y="493.1" width="18.2" height="31.6" fill="#4680c4" rx="1"/>
  <rect x="551.5" y="480.9" width="18.2" height="12.2" fill="#60a5fa" rx="1"/>
  <rect x="569.6" y="562.4" width="18.2" height="37.6" fill="#f87171" rx="1"/>
  <rect x="569.6" y="529.8" width="18.2" height="32.6" fill="#c45050" rx="1"/>
  <rect x="569.6" y="520.3" width="18.2" height="9.6" fill="#f87171" rx="1"/>
  <rect x="587.8" y="519.6" width="18.2" height="80.4" fill="#f59e0b" rx="1"/>
  <rect x="587.8" y="487.9" width="18.2" height="31.8" fill="#c47d08" rx="1"/>
  <rect x="587.8" y="474.4" width="18.2" height="13.5" fill="#f59e0b" rx="1"/>
  <rect x="606.0" y="501.2" width="18.2" height="98.8" fill="#4ade80" rx="1"/>
  <rect x="606.0" y="469.4" width="18.2" height="31.8" fill="#3aaf60" rx="1"/>
  <rect x="606.0" y="454.2" width="18.2" height="15.3" fill="#4ade80" rx="1"/>
  <text x="587.8" y="616" text-anchor="middle" fill="#e6edf3" font-size="10" font-weight="600">sao</text>
  <text x="587.8" y="628" text-anchor="middle" fill="#7d8590" font-size="9">7.3 MB</text>
  <rect x="648.4" y="504.7" width="18.2" height="95.3" fill="#60a5fa" rx="1"/>
  <rect x="648.4" y="488.3" width="18.2" height="16.4" fill="#4680c4" rx="1"/>
  <rect x="648.4" y="473.1" width="18.2" height="15.1" fill="#60a5fa" rx="1"/>
  <rect x="666.5" y="500.9" width="18.2" height="99.1" fill="#f87171" rx="1"/>
  <rect x="666.5" y="484.2" width="18.2" height="16.6" fill="#c45050" rx="1"/>
  <rect x="666.5" y="466.7" width="18.2" height="17.6" fill="#f87171" rx="1"/>
  <rect x="684.7" y="494.7" width="18.2" height="105.3" fill="#f59e0b" rx="1"/>
  <rect x="684.7" y="478.3" width="18.2" height="16.4" fill="#c47d08" rx="1"/>
  <rect x="684.7" y="462.0" width="18.2" height="16.3" fill="#f59e0b" rx="1"/>
  <rect x="702.9" y="476.5" width="18.2" height="123.5" fill="#4ade80" rx="1"/>
  <rect x="702.9" y="460.1" width="18.2" height="16.4" fill="#3aaf60" rx="1"/>
  <rect x="702.9" y="438.6" width="18.2" height="21.6" fill="#4ade80" rx="1"/>
  <text x="684.7" y="616" text-anchor="middle" fill="#e6edf3" font-size="10" font-weight="600">webster</text>
  <text x="684.7" y="628" text-anchor="middle" fill="#7d8590" font-size="9">41.5 MB</text>
  <rect x="745.2" y="572.5" width="18.2" height="27.5" fill="#60a5fa" rx="1"/>
  <rect x="745.2" y="539.0" width="18.2" height="33.4" fill="#4680c4" rx="1"/>
  <rect x="745.2" y="534.2" width="18.2" height="4.8" fill="#60a5fa" rx="1"/>
  <rect x="763.4" y="596.4" width="18.2" height="3.6" fill="#f87171" rx="1"/>
  <rect x="763.4" y="562.5" width="18.2" height="33.9" fill="#c45050" rx="1"/>
  <rect x="763.4" y="559.8" width="18.2" height="2.7" fill="#f87171" rx="1"/>
  <rect x="781.6" y="577.4" width="18.2" height="22.6" fill="#f59e0b" rx="1"/>
  <rect x="781.6" y="543.9" width="18.2" height="33.5" fill="#c47d08" rx="1"/>
  <rect x="781.6" y="539.6" width="18.2" height="4.3" fill="#f59e0b" rx="1"/>
  <rect x="799.7" y="572.9" width="18.2" height="27.1" fill="#4ade80" rx="1"/>
  <rect x="799.7" y="539.3" width="18.2" height="33.5" fill="#3aaf60" rx="1"/>
  <rect x="799.7" y="534.9" width="18.2" height="4.4" fill="#4ade80" rx="1"/>
  <text x="781.6" y="616" text-anchor="middle" fill="#e6edf3" font-size="10" font-weight="600">x-ray</text>
  <text x="781.6" y="628" text-anchor="middle" fill="#7d8590" font-size="9">8.5 MB</text>
  <rect x="242" y="645" width="12" height="12" fill="#60a5fa" rx="2"/>
  <text x="260" y="655" fill="#e6edf3" font-size="10" font-weight="500">lz4 (C)</text>
  <rect x="242" y="663" width="12" height="12" fill="#f87171" rx="2"/>
  <text x="260" y="673" fill="#e6edf3" font-size="10" font-weight="500">lz4rip (safe Rust)</text>
  <rect x="452" y="645" width="12" height="12" fill="#f59e0b" rx="2"/>
  <text x="470" y="655" fill="#e6edf3" font-size="10" font-weight="500">lz4_flex (unsafe Rust)</text>
  <rect x="452" y="663" width="12" height="12" fill="#4ade80" rx="2"/>
  <text x="470" y="673" fill="#e6edf3" font-size="10" font-weight="500">lz4_flex (safe Rust)</text>
  <text x="232" y="698" fill="#e6edf3" font-size="9">bright = compress + decompress</text>
  <text x="472" y="698" fill="#7d8590" font-size="9">dim = transfer @1 GB/s</text>
</svg>
