<svg xmlns="http://www.w3.org/2000/svg" viewBox="0 0 850 720" font-family="system-ui, -apple-system, sans-serif">
  <rect width="850" height="720" fill="#0d1117"/>
  <text x="442.5" y="22" text-anchor="middle" fill="#e6edf3" font-size="14" font-weight="700">LZ4 Block: Compress + Transfer @1 GB/s + Decompress (lower is better)</text>
  <text x="442.5" y="38" text-anchor="middle" fill="#7d8590" font-size="10">Intel Core i7-8700B @ 3.20GHz, performance governor, turbo off</text>
  <line x1="55" y1="224.0" x2="830" y2="224.0" stroke="#21262d" stroke-width="1"/>
  <text x="47" y="224.0" text-anchor="end" dominant-baseline="middle" fill="#7d8590" font-size="10">2</text>
  <line x1="55" y1="157.9" x2="830" y2="157.9" stroke="#21262d" stroke-width="1"/>
  <text x="47" y="157.9" text-anchor="end" dominant-baseline="middle" fill="#7d8590" font-size="10">4</text>
  <line x1="55" y1="91.9" x2="830" y2="91.9" stroke="#21262d" stroke-width="1"/>
  <text x="47" y="91.9" text-anchor="end" dominant-baseline="middle" fill="#7d8590" font-size="10">6</text>
  <line x1="55" y1="290" x2="830" y2="290" stroke="#30363d" stroke-width="1.5"/>
  <text x="22" y="325.0" text-anchor="middle" fill="#e6edf3" font-size="11" font-weight="600" transform="rotate(-90,22,325.0)">seconds / GB</text>
  <rect x="67.1" y="191.5" width="18.2" height="98.5" fill="#60a5fa" rx="1"/>
  <rect x="67.1" y="166.1" width="18.2" height="25.4" fill="#4680c4" rx="1"/>
  <rect x="67.1" y="113.5" width="18.2" height="52.6" fill="#60a5fa" rx="1"/>
  <rect x="85.3" y="200.0" width="18.2" height="90.0" fill="#f87171" rx="1"/>
  <rect x="85.3" y="173.1" width="18.2" height="26.9" fill="#c45050" rx="1"/>
  <rect x="85.3" y="123.1" width="18.2" height="50.0" fill="#f87171" rx="1"/>
  <rect x="103.4" y="175.9" width="18.2" height="114.1" fill="#f59e0b" rx="1"/>
  <rect x="103.4" y="150.5" width="18.2" height="25.4" fill="#c47d08" rx="1"/>
  <rect x="103.4" y="98.2" width="18.2" height="52.2" fill="#f59e0b" rx="1"/>
  <rect x="121.6" y="153.4" width="18.2" height="136.6" fill="#4ade80" rx="1"/>
  <rect x="121.6" y="128.0" width="18.2" height="25.4" fill="#3aaf60" rx="1"/>
  <rect x="121.6" y="71.8" width="18.2" height="56.2" fill="#4ade80" rx="1"/>
  <text x="103.4" y="306" text-anchor="middle" fill="#e6edf3" font-size="10" font-weight="600">1k</text>
  <text x="103.4" y="318" text-anchor="middle" fill="#7d8590" font-size="9">725 B</text>
  <rect x="164.0" y="199.5" width="18.2" height="90.5" fill="#60a5fa" rx="1"/>
  <rect x="164.0" y="180.7" width="18.2" height="18.8" fill="#4680c4" rx="1"/>
  <rect x="164.0" y="161.9" width="18.2" height="18.7" fill="#60a5fa" rx="1"/>
  <rect x="182.1" y="202.6" width="18.2" height="87.4" fill="#f87171" rx="1"/>
  <rect x="182.1" y="183.3" width="18.2" height="19.3" fill="#c45050" rx="1"/>
  <rect x="182.1" y="169.5" width="18.2" height="13.8" fill="#f87171" rx="1"/>
  <rect x="200.3" y="188.3" width="18.2" height="101.7" fill="#f59e0b" rx="1"/>
  <rect x="200.3" y="169.2" width="18.2" height="19.1" fill="#c47d08" rx="1"/>
  <rect x="200.3" y="152.1" width="18.2" height="17.1" fill="#f59e0b" rx="1"/>
  <rect x="218.5" y="163.7" width="18.2" height="126.3" fill="#4ade80" rx="1"/>
  <rect x="218.5" y="144.5" width="18.2" height="19.1" fill="#3aaf60" rx="1"/>
  <rect x="218.5" y="122.0" width="18.2" height="22.6" fill="#4ade80" rx="1"/>
  <text x="200.3" y="306" text-anchor="middle" fill="#e6edf3" font-size="10" font-weight="600">34k</text>
  <text x="200.3" y="318" text-anchor="middle" fill="#7d8590" font-size="9">34 KB</text>
  <rect x="260.9" y="185.7" width="18.2" height="104.3" fill="#60a5fa" rx="1"/>
  <rect x="260.9" y="167.2" width="18.2" height="18.5" fill="#4680c4" rx="1"/>
  <rect x="260.9" y="149.5" width="18.2" height="17.7" fill="#60a5fa" rx="1"/>
  <rect x="279.0" y="198.8" width="18.2" height="91.2" fill="#f87171" rx="1"/>
  <rect x="279.0" y="179.4" width="18.2" height="19.4" fill="#c45050" rx="1"/>
  <rect x="279.0" y="166.5" width="18.2" height="12.8" fill="#f87171" rx="1"/>
  <rect x="297.2" y="180.6" width="18.2" height="109.4" fill="#f59e0b" rx="1"/>
  <rect x="297.2" y="161.6" width="18.2" height="19.0" fill="#c47d08" rx="1"/>
  <rect x="297.2" y="145.6" width="18.2" height="16.1" fill="#f59e0b" rx="1"/>
  <rect x="315.4" y="159.3" width="18.2" height="130.7" fill="#4ade80" rx="1"/>
  <rect x="315.4" y="140.4" width="18.2" height="19.0" fill="#3aaf60" rx="1"/>
  <rect x="315.4" y="119.3" width="18.2" height="21.1" fill="#4ade80" rx="1"/>
  <text x="297.2" y="306" text-anchor="middle" fill="#e6edf3" font-size="10" font-weight="600">65k</text>
  <text x="297.2" y="318" text-anchor="middle" fill="#7d8590" font-size="9">65 KB</text>
  <rect x="357.7" y="254.8" width="18.2" height="35.2" fill="#60a5fa" rx="1"/>
  <rect x="357.7" y="247.3" width="18.2" height="7.5" fill="#4680c4" rx="1"/>
  <rect x="357.7" y="238.3" width="18.2" height="9.0" fill="#60a5fa" rx="1"/>
  <rect x="375.9" y="251.9" width="18.2" height="38.1" fill="#f87171" rx="1"/>
  <rect x="375.9" y="244.1" width="18.2" height="7.8" fill="#c45050" rx="1"/>
  <rect x="375.9" y="234.2" width="18.2" height="9.8" fill="#f87171" rx="1"/>
  <rect x="394.1" y="250.5" width="18.2" height="39.5" fill="#f59e0b" rx="1"/>
  <rect x="394.1" y="242.9" width="18.2" height="7.6" fill="#c47d08" rx="1"/>
  <rect x="394.1" y="233.1" width="18.2" height="9.8" fill="#f59e0b" rx="1"/>
  <rect x="412.2" y="241.5" width="18.2" height="48.5" fill="#4ade80" rx="1"/>
  <rect x="412.2" y="233.9" width="18.2" height="7.6" fill="#3aaf60" rx="1"/>
  <rect x="412.2" y="220.1" width="18.2" height="13.8" fill="#4ade80" rx="1"/>
  <text x="394.1" y="306" text-anchor="middle" fill="#e6edf3" font-size="10" font-weight="600">66k_JSON</text>
  <text x="394.1" y="318" text-anchor="middle" fill="#7d8590" font-size="9">67 KB</text>
  <rect x="454.6" y="182.9" width="18.2" height="107.1" fill="#60a5fa" rx="1"/>
  <rect x="454.6" y="162.1" width="18.2" height="20.8" fill="#4680c4" rx="1"/>
  <rect x="454.6" y="147.2" width="18.2" height="14.9" fill="#60a5fa" rx="1"/>
  <rect x="472.8" y="197.0" width="18.2" height="93.0" fill="#f87171" rx="1"/>
  <rect x="472.8" y="173.3" width="18.2" height="23.6" fill="#c45050" rx="1"/>
  <rect x="472.8" y="157.8" width="18.2" height="15.6" fill="#f87171" rx="1"/>
  <rect x="490.9" y="178.4" width="18.2" height="111.6" fill="#f59e0b" rx="1"/>
  <rect x="490.9" y="157.6" width="18.2" height="20.8" fill="#c47d08" rx="1"/>
  <rect x="490.9" y="143.2" width="18.2" height="14.4" fill="#f59e0b" rx="1"/>
  <rect x="509.1" y="146.7" width="18.2" height="143.3" fill="#4ade80" rx="1"/>
  <rect x="509.1" y="125.9" width="18.2" height="20.8" fill="#3aaf60" rx="1"/>
  <rect x="509.1" y="107.2" width="18.2" height="18.7" fill="#4ade80" rx="1"/>
  <text x="490.9" y="306" text-anchor="middle" fill="#e6edf3" font-size="10" font-weight="600">dickens</text>
  <text x="490.9" y="318" text-anchor="middle" fill="#7d8590" font-size="9">10.2 MB</text>
  <rect x="551.5" y="263.8" width="18.2" height="26.2" fill="#60a5fa" rx="1"/>
  <rect x="551.5" y="260.1" width="18.2" height="3.6" fill="#4680c4" rx="1"/>
  <rect x="551.5" y="253.2" width="18.2" height="6.9" fill="#60a5fa" rx="1"/>
  <rect x="569.6" y="264.5" width="18.2" height="25.5" fill="#f87171" rx="1"/>
  <rect x="569.6" y="260.9" width="18.2" height="3.7" fill="#c45050" rx="1"/>
  <rect x="569.6" y="254.0" width="18.2" height="6.8" fill="#f87171" rx="1"/>
  <rect x="587.8" y="259.9" width="18.2" height="30.1" fill="#f59e0b" rx="1"/>
  <rect x="587.8" y="256.3" width="18.2" height="3.6" fill="#c47d08" rx="1"/>
  <rect x="587.8" y="247.7" width="18.2" height="8.5" fill="#f59e0b" rx="1"/>
  <rect x="606.0" y="256.5" width="18.2" height="33.5" fill="#4ade80" rx="1"/>
  <rect x="606.0" y="252.9" width="18.2" height="3.6" fill="#3aaf60" rx="1"/>
  <rect x="606.0" y="243.8" width="18.2" height="9.1" fill="#4ade80" rx="1"/>
  <text x="587.8" y="306" text-anchor="middle" fill="#e6edf3" font-size="10" font-weight="600">hdfs.json</text>
  <text x="587.8" y="318" text-anchor="middle" fill="#7d8590" font-size="9">7.0 MB</text>
  <rect x="648.4" y="184.3" width="18.2" height="105.7" fill="#60a5fa" rx="1"/>
  <rect x="648.4" y="168.5" width="18.2" height="15.9" fill="#4680c4" rx="1"/>
  <rect x="648.4" y="151.8" width="18.2" height="16.7" fill="#60a5fa" rx="1"/>
  <rect x="666.5" y="185.5" width="18.2" height="104.5" fill="#f87171" rx="1"/>
  <rect x="666.5" y="168.8" width="18.2" height="16.8" fill="#c45050" rx="1"/>
  <rect x="666.5" y="153.3" width="18.2" height="15.4" fill="#f87171" rx="1"/>
  <rect x="684.7" y="181.0" width="18.2" height="109.0" fill="#f59e0b" rx="1"/>
  <rect x="684.7" y="165.1" width="18.2" height="15.9" fill="#c47d08" rx="1"/>
  <rect x="684.7" y="149.0" width="18.2" height="16.1" fill="#f59e0b" rx="1"/>
  <rect x="702.9" y="164.2" width="18.2" height="125.8" fill="#4ade80" rx="1"/>
  <rect x="702.9" y="148.4" width="18.2" height="15.9" fill="#3aaf60" rx="1"/>
  <rect x="702.9" y="127.3" width="18.2" height="21.0" fill="#4ade80" rx="1"/>
  <text x="684.7" y="306" text-anchor="middle" fill="#e6edf3" font-size="10" font-weight="600">reymont.pdf</text>
  <text x="684.7" y="318" text-anchor="middle" fill="#7d8590" font-size="9">6.6 MB</text>
  <rect x="745.2" y="240.9" width="18.2" height="49.1" fill="#60a5fa" rx="1"/>
  <rect x="745.2" y="233.3" width="18.2" height="7.6" fill="#4680c4" rx="1"/>
  <rect x="745.2" y="220.9" width="18.2" height="12.3" fill="#60a5fa" rx="1"/>
  <rect x="763.4" y="241.5" width="18.2" height="48.5" fill="#f87171" rx="1"/>
  <rect x="763.4" y="233.4" width="18.2" height="8.1" fill="#c45050" rx="1"/>
  <rect x="763.4" y="221.2" width="18.2" height="12.2" fill="#f87171" rx="1"/>
  <rect x="781.6" y="238.0" width="18.2" height="52.0" fill="#f59e0b" rx="1"/>
  <rect x="781.6" y="230.4" width="18.2" height="7.6" fill="#c47d08" rx="1"/>
  <rect x="781.6" y="216.6" width="18.2" height="13.8" fill="#f59e0b" rx="1"/>
  <rect x="799.7" y="229.0" width="18.2" height="61.0" fill="#4ade80" rx="1"/>
  <rect x="799.7" y="221.4" width="18.2" height="7.6" fill="#3aaf60" rx="1"/>
  <rect x="799.7" y="205.8" width="18.2" height="15.6" fill="#4ade80" rx="1"/>
  <text x="781.6" y="306" text-anchor="middle" fill="#e6edf3" font-size="10" font-weight="600">xml_collection.xml</text>
  <text x="781.6" y="318" text-anchor="middle" fill="#7d8590" font-size="9">5.3 MB</text>
  <line x1="55" y1="534.0" x2="830" y2="534.0" stroke="#21262d" stroke-width="1"/>
  <text x="47" y="534.0" text-anchor="end" dominant-baseline="middle" fill="#7d8590" font-size="10">2</text>
  <line x1="55" y1="467.9" x2="830" y2="467.9" stroke="#21262d" stroke-width="1"/>
  <text x="47" y="467.9" text-anchor="end" dominant-baseline="middle" fill="#7d8590" font-size="10">4</text>
  <line x1="55" y1="401.9" x2="830" y2="401.9" stroke="#21262d" stroke-width="1"/>
  <text x="47" y="401.9" text-anchor="end" dominant-baseline="middle" fill="#7d8590" font-size="10">6</text>
  <line x1="55" y1="600" x2="830" y2="600" stroke="#30363d" stroke-width="1.5"/>
  <rect x="67.1" y="533.6" width="18.2" height="66.4" fill="#60a5fa" rx="1"/>
  <rect x="67.1" y="515.6" width="18.2" height="18.0" fill="#4680c4" rx="1"/>
  <rect x="67.1" y="503.2" width="18.2" height="12.4" fill="#60a5fa" rx="1"/>
  <rect x="85.3" y="554.9" width="18.2" height="45.1" fill="#f87171" rx="1"/>
  <rect x="85.3" y="535.5" width="18.2" height="19.4" fill="#c45050" rx="1"/>
  <rect x="85.3" y="524.9" width="18.2" height="10.5" fill="#f87171" rx="1"/>
  <rect x="103.4" y="534.3" width="18.2" height="65.7" fill="#f59e0b" rx="1"/>
  <rect x="103.4" y="516.2" width="18.2" height="18.1" fill="#c47d08" rx="1"/>
  <rect x="103.4" y="502.2" width="18.2" height="14.0" fill="#f59e0b" rx="1"/>
  <rect x="121.6" y="516.7" width="18.2" height="83.3" fill="#4ade80" rx="1"/>
  <rect x="121.6" y="498.6" width="18.2" height="18.1" fill="#3aaf60" rx="1"/>
  <rect x="121.6" y="483.0" width="18.2" height="15.6" fill="#4ade80" rx="1"/>
  <text x="103.4" y="616" text-anchor="middle" fill="#e6edf3" font-size="10" font-weight="600">mr</text>
  <text x="103.4" y="628" text-anchor="middle" fill="#7d8590" font-size="9">10.0 MB</text>
  <rect x="164.0" y="535.8" width="18.2" height="64.2" fill="#60a5fa" rx="1"/>
  <rect x="164.0" y="518.8" width="18.2" height="17.0" fill="#4680c4" rx="1"/>
  <rect x="164.0" y="505.5" width="18.2" height="13.2" fill="#60a5fa" rx="1"/>
  <rect x="182.1" y="543.9" width="18.2" height="56.1" fill="#f87171" rx="1"/>
  <rect x="182.1" y="526.0" width="18.2" height="18.0" fill="#c45050" rx="1"/>
  <rect x="182.1" y="511.8" width="18.2" height="14.2" fill="#f87171" rx="1"/>
  <rect x="200.3" y="532.4" width="18.2" height="67.6" fill="#f59e0b" rx="1"/>
  <rect x="200.3" y="515.4" width="18.2" height="17.1" fill="#c47d08" rx="1"/>
  <rect x="200.3" y="500.1" width="18.2" height="15.2" fill="#f59e0b" rx="1"/>
  <rect x="218.5" y="513.5" width="18.2" height="86.5" fill="#4ade80" rx="1"/>
  <rect x="218.5" y="496.5" width="18.2" height="17.1" fill="#3aaf60" rx="1"/>
  <rect x="218.5" y="479.3" width="18.2" height="17.2" fill="#4ade80" rx="1"/>
  <text x="200.3" y="616" text-anchor="middle" fill="#e6edf3" font-size="10" font-weight="600">mozilla</text>
  <text x="200.3" y="628" text-anchor="middle" fill="#7d8590" font-size="9">51.2 MB</text>
  <rect x="260.9" y="560.6" width="18.2" height="39.4" fill="#60a5fa" rx="1"/>
  <rect x="260.9" y="555.1" width="18.2" height="5.4" fill="#4680c4" rx="1"/>
  <rect x="260.9" y="545.4" width="18.2" height="9.7" fill="#60a5fa" rx="1"/>
  <rect x="279.0" y="560.0" width="18.2" height="40.0" fill="#f87171" rx="1"/>
  <rect x="279.0" y="554.4" width="18.2" height="5.6" fill="#c45050" rx="1"/>
  <rect x="279.0" y="544.4" width="18.2" height="10.0" fill="#f87171" rx="1"/>
  <rect x="297.2" y="557.0" width="18.2" height="43.0" fill="#f59e0b" rx="1"/>
  <rect x="297.2" y="551.6" width="18.2" height="5.4" fill="#c47d08" rx="1"/>
  <rect x="297.2" y="538.5" width="18.2" height="13.1" fill="#f59e0b" rx="1"/>
  <rect x="315.4" y="550.3" width="18.2" height="49.7" fill="#4ade80" rx="1"/>
  <rect x="315.4" y="544.9" width="18.2" height="5.4" fill="#3aaf60" rx="1"/>
  <rect x="315.4" y="531.3" width="18.2" height="13.6" fill="#4ade80" rx="1"/>
  <text x="297.2" y="616" text-anchor="middle" fill="#e6edf3" font-size="10" font-weight="600">nci</text>
  <text x="297.2" y="628" text-anchor="middle" fill="#7d8590" font-size="9">33.6 MB</text>
  <rect x="357.7" y="525.7" width="18.2" height="74.3" fill="#60a5fa" rx="1"/>
  <rect x="357.7" y="508.5" width="18.2" height="17.2" fill="#4680c4" rx="1"/>
  <rect x="357.7" y="494.4" width="18.2" height="14.1" fill="#60a5fa" rx="1"/>
  <rect x="375.9" y="540.3" width="18.2" height="59.7" fill="#f87171" rx="1"/>
  <rect x="375.9" y="517.5" width="18.2" height="22.8" fill="#c45050" rx="1"/>
  <rect x="375.9" y="500.5" width="18.2" height="17.0" fill="#f87171" rx="1"/>
  <rect x="394.1" y="519.5" width="18.2" height="80.5" fill="#f59e0b" rx="1"/>
  <rect x="394.1" y="502.2" width="18.2" height="17.3" fill="#c47d08" rx="1"/>
  <rect x="394.1" y="485.9" width="18.2" height="16.2" fill="#f59e0b" rx="1"/>
  <rect x="412.2" y="498.7" width="18.2" height="101.3" fill="#4ade80" rx="1"/>
  <rect x="412.2" y="481.4" width="18.2" height="17.3" fill="#3aaf60" rx="1"/>
  <rect x="412.2" y="463.0" width="18.2" height="18.4" fill="#4ade80" rx="1"/>
  <text x="394.1" y="616" text-anchor="middle" fill="#e6edf3" font-size="10" font-weight="600">osdb</text>
  <text x="394.1" y="628" text-anchor="middle" fill="#7d8590" font-size="9">10.1 MB</text>
  <rect x="454.6" y="537.8" width="18.2" height="62.2" fill="#60a5fa" rx="1"/>
  <rect x="454.6" y="526.0" width="18.2" height="11.8" fill="#4680c4" rx="1"/>
  <rect x="454.6" y="513.8" width="18.2" height="12.2" fill="#60a5fa" rx="1"/>
  <rect x="472.8" y="541.1" width="18.2" height="58.9" fill="#f87171" rx="1"/>
  <rect x="472.8" y="528.5" width="18.2" height="12.6" fill="#c45050" rx="1"/>
  <rect x="472.8" y="515.8" width="18.2" height="12.6" fill="#f87171" rx="1"/>
  <rect x="490.9" y="534.8" width="18.2" height="65.2" fill="#f59e0b" rx="1"/>
  <rect x="490.9" y="523.0" width="18.2" height="11.8" fill="#c47d08" rx="1"/>
  <rect x="490.9" y="509.0" width="18.2" height="14.0" fill="#f59e0b" rx="1"/>
  <rect x="509.1" y="522.3" width="18.2" height="77.7" fill="#4ade80" rx="1"/>
  <rect x="509.1" y="510.5" width="18.2" height="11.8" fill="#3aaf60" rx="1"/>
  <rect x="509.1" y="494.3" width="18.2" height="16.1" fill="#4ade80" rx="1"/>
  <text x="490.9" y="616" text-anchor="middle" fill="#e6edf3" font-size="10" font-weight="600">samba</text>
  <text x="490.9" y="628" text-anchor="middle" fill="#7d8590" font-size="9">21.6 MB</text>
  <rect x="551.5" y="526.7" width="18.2" height="73.3" fill="#60a5fa" rx="1"/>
  <rect x="551.5" y="495.8" width="18.2" height="30.9" fill="#4680c4" rx="1"/>
  <rect x="551.5" y="483.8" width="18.2" height="12.0" fill="#60a5fa" rx="1"/>
  <rect x="569.6" y="579.0" width="18.2" height="21.0" fill="#f87171" rx="1"/>
  <rect x="569.6" y="546.5" width="18.2" height="32.5" fill="#c45050" rx="1"/>
  <rect x="569.6" y="540.5" width="18.2" height="6.0" fill="#f87171" rx="1"/>
  <rect x="587.8" y="524.0" width="18.2" height="76.0" fill="#f59e0b" rx="1"/>
  <rect x="587.8" y="492.9" width="18.2" height="31.1" fill="#c47d08" rx="1"/>
  <rect x="587.8" y="479.7" width="18.2" height="13.2" fill="#f59e0b" rx="1"/>
  <rect x="606.0" y="497.1" width="18.2" height="102.9" fill="#4ade80" rx="1"/>
  <rect x="606.0" y="466.0" width="18.2" height="31.1" fill="#3aaf60" rx="1"/>
  <rect x="606.0" y="450.8" width="18.2" height="15.3" fill="#4ade80" rx="1"/>
  <text x="587.8" y="616" text-anchor="middle" fill="#e6edf3" font-size="10" font-weight="600">sao</text>
  <text x="587.8" y="628" text-anchor="middle" fill="#7d8590" font-size="9">7.3 MB</text>
  <rect x="648.4" y="507.0" width="18.2" height="93.0" fill="#60a5fa" rx="1"/>
  <rect x="648.4" y="491.0" width="18.2" height="16.0" fill="#4680c4" rx="1"/>
  <rect x="648.4" y="476.1" width="18.2" height="14.9" fill="#60a5fa" rx="1"/>
  <rect x="666.5" y="513.3" width="18.2" height="86.7" fill="#f87171" rx="1"/>
  <rect x="666.5" y="495.7" width="18.2" height="17.6" fill="#c45050" rx="1"/>
  <rect x="666.5" y="480.5" width="18.2" height="15.2" fill="#f87171" rx="1"/>
  <rect x="684.7" y="503.3" width="18.2" height="96.7" fill="#f59e0b" rx="1"/>
  <rect x="684.7" y="487.2" width="18.2" height="16.0" fill="#c47d08" rx="1"/>
  <rect x="684.7" y="471.1" width="18.2" height="16.1" fill="#f59e0b" rx="1"/>
  <rect x="702.9" y="480.2" width="18.2" height="119.8" fill="#4ade80" rx="1"/>
  <rect x="702.9" y="464.2" width="18.2" height="16.0" fill="#3aaf60" rx="1"/>
  <rect x="702.9" y="444.5" width="18.2" height="19.7" fill="#4ade80" rx="1"/>
  <text x="684.7" y="616" text-anchor="middle" fill="#e6edf3" font-size="10" font-weight="600">webster</text>
  <text x="684.7" y="628" text-anchor="middle" fill="#7d8590" font-size="9">41.5 MB</text>
  <rect x="745.2" y="573.0" width="18.2" height="27.0" fill="#60a5fa" rx="1"/>
  <rect x="745.2" y="540.3" width="18.2" height="32.7" fill="#4680c4" rx="1"/>
  <rect x="745.2" y="535.5" width="18.2" height="4.8" fill="#60a5fa" rx="1"/>
  <rect x="763.4" y="596.6" width="18.2" height="3.4" fill="#f87171" rx="1"/>
  <rect x="763.4" y="563.4" width="18.2" height="33.1" fill="#c45050" rx="1"/>
  <rect x="763.4" y="560.6" width="18.2" height="2.8" fill="#f87171" rx="1"/>
  <rect x="781.6" y="578.3" width="18.2" height="21.7" fill="#f59e0b" rx="1"/>
  <rect x="781.6" y="545.5" width="18.2" height="32.8" fill="#c47d08" rx="1"/>
  <rect x="781.6" y="541.4" width="18.2" height="4.2" fill="#f59e0b" rx="1"/>
  <rect x="799.7" y="572.0" width="18.2" height="28.0" fill="#4ade80" rx="1"/>
  <rect x="799.7" y="539.2" width="18.2" height="32.8" fill="#3aaf60" rx="1"/>
  <rect x="799.7" y="535.0" width="18.2" height="4.2" fill="#4ade80" rx="1"/>
  <text x="781.6" y="616" text-anchor="middle" fill="#e6edf3" font-size="10" font-weight="600">x-ray</text>
  <text x="781.6" y="628" text-anchor="middle" fill="#7d8590" font-size="9">8.5 MB</text>
  <rect x="242" y="645" width="12" height="12" fill="#60a5fa" rx="2"/>
  <text x="260" y="655" fill="#e6edf3" font-size="10" font-weight="500">lz4 (C)</text>
  <rect x="242" y="663" width="12" height="12" fill="#f87171" rx="2"/>
  <text x="260" y="673" fill="#e6edf3" font-size="10" font-weight="500">lz4rip (safe Rust)</text>
  <rect x="452" y="645" width="12" height="12" fill="#f59e0b" rx="2"/>
  <text x="470" y="655" fill="#e6edf3" font-size="10" font-weight="500">lz4_flex (unsafe Rust)</text>
  <rect x="452" y="663" width="12" height="12" fill="#4ade80" rx="2"/>
  <text x="470" y="673" fill="#e6edf3" font-size="10" font-weight="500">lz4_flex (safe Rust)</text>
  <text x="232" y="698" fill="#e6edf3" font-size="9">bright = compress + decompress</text>
  <text x="472" y="698" fill="#7d8590" font-size="9">dim = transfer @1 GB/s</text>
</svg>
