<svg xmlns="http://www.w3.org/2000/svg" viewBox="0 0 850 710" font-family="system-ui, -apple-system, sans-serif">
  <rect width="850" height="710" fill="#0d1117"/>
  <text x="442.5" y="22" text-anchor="middle" fill="#e6edf3" font-size="14" font-weight="700">LZ4 Block: Compress + Transfer @1 GB/s + Decompress (lower is better)</text>
  <text x="442.5" y="38" text-anchor="middle" fill="#7d8590" font-size="10">Intel Core i7-8700B @ 3.20GHz, performance governor, turbo off</text>
  <line x1="55" y1="224.4" x2="830" y2="224.4" stroke="#21262d" stroke-width="1"/>
  <text x="47" y="224.4" text-anchor="end" dominant-baseline="middle" fill="#7d8590" font-size="10">2</text>
  <line x1="55" y1="158.9" x2="830" y2="158.9" stroke="#21262d" stroke-width="1"/>
  <text x="47" y="158.9" text-anchor="end" dominant-baseline="middle" fill="#7d8590" font-size="10">4</text>
  <line x1="55" y1="93.3" x2="830" y2="93.3" stroke="#21262d" stroke-width="1"/>
  <text x="47" y="93.3" text-anchor="end" dominant-baseline="middle" fill="#7d8590" font-size="10">6</text>
  <line x1="55" y1="290" x2="830" y2="290" stroke="#30363d" stroke-width="1.5"/>
  <text x="22" y="325.0" text-anchor="middle" fill="#e6edf3" font-size="11" font-weight="600" transform="rotate(-90,22,325.0)">seconds / GB</text>
  <rect x="67.1" y="192.4" width="18.2" height="97.6" fill="#60a5fa" rx="1"/>
  <rect x="67.1" y="167.3" width="18.2" height="25.2" fill="#4680c4" rx="1"/>
  <rect x="67.1" y="115.0" width="18.2" height="52.2" fill="#60a5fa" rx="1"/>
  <rect x="85.3" y="195.2" width="18.2" height="94.8" fill="#f87171" rx="1"/>
  <rect x="85.3" y="169.0" width="18.2" height="26.2" fill="#c45050" rx="1"/>
  <rect x="85.3" y="118.5" width="18.2" height="50.6" fill="#f87171" rx="1"/>
  <rect x="103.4" y="196.4" width="18.2" height="93.6" fill="#fbbf24" rx="1"/>
  <rect x="103.4" y="171.2" width="18.2" height="25.2" fill="#c49520" rx="1"/>
  <rect x="103.4" y="116.2" width="18.2" height="55.0" fill="#fbbf24" rx="1"/>
  <rect x="121.6" y="152.7" width="18.2" height="137.3" fill="#4ade80" rx="1"/>
  <rect x="121.6" y="127.4" width="18.2" height="25.2" fill="#3aaf60" rx="1"/>
  <rect x="121.6" y="71.8" width="18.2" height="55.6" fill="#4ade80" rx="1"/>
  <text x="103.4" y="306" text-anchor="middle" fill="#e6edf3" font-size="10" font-weight="600">1k</text>
  <text x="103.4" y="318" text-anchor="middle" fill="#7d8590" font-size="9">725 B</text>
  <rect x="164.0" y="200.1" width="18.2" height="89.9" fill="#60a5fa" rx="1"/>
  <rect x="164.0" y="181.4" width="18.2" height="18.7" fill="#4680c4" rx="1"/>
  <rect x="164.0" y="162.9" width="18.2" height="18.6" fill="#60a5fa" rx="1"/>
  <rect x="182.1" y="200.5" width="18.2" height="89.5" fill="#f87171" rx="1"/>
  <rect x="182.1" y="181.9" width="18.2" height="18.6" fill="#c45050" rx="1"/>
  <rect x="182.1" y="167.7" width="18.2" height="14.2" fill="#f87171" rx="1"/>
  <rect x="200.3" y="196.2" width="18.2" height="93.8" fill="#fbbf24" rx="1"/>
  <rect x="200.3" y="177.4" width="18.2" height="18.7" fill="#c49520" rx="1"/>
  <rect x="200.3" y="154.7" width="18.2" height="22.7" fill="#fbbf24" rx="1"/>
  <rect x="218.5" y="165.2" width="18.2" height="124.8" fill="#4ade80" rx="1"/>
  <rect x="218.5" y="146.2" width="18.2" height="19.0" fill="#3aaf60" rx="1"/>
  <rect x="218.5" y="123.8" width="18.2" height="22.4" fill="#4ade80" rx="1"/>
  <text x="200.3" y="306" text-anchor="middle" fill="#e6edf3" font-size="10" font-weight="600">34k</text>
  <text x="200.3" y="318" text-anchor="middle" fill="#7d8590" font-size="9">34 KB</text>
  <rect x="260.9" y="186.6" width="18.2" height="103.4" fill="#60a5fa" rx="1"/>
  <rect x="260.9" y="168.2" width="18.2" height="18.4" fill="#4680c4" rx="1"/>
  <rect x="260.9" y="150.8" width="18.2" height="17.4" fill="#60a5fa" rx="1"/>
  <rect x="279.0" y="197.2" width="18.2" height="92.8" fill="#f87171" rx="1"/>
  <rect x="279.0" y="178.7" width="18.2" height="18.5" fill="#c45050" rx="1"/>
  <rect x="279.0" y="165.2" width="18.2" height="13.5" fill="#f87171" rx="1"/>
  <rect x="297.2" y="188.8" width="18.2" height="101.2" fill="#fbbf24" rx="1"/>
  <rect x="297.2" y="170.4" width="18.2" height="18.4" fill="#c49520" rx="1"/>
  <rect x="297.2" y="148.8" width="18.2" height="21.6" fill="#fbbf24" rx="1"/>
  <rect x="315.4" y="160.6" width="18.2" height="129.4" fill="#4ade80" rx="1"/>
  <rect x="315.4" y="141.8" width="18.2" height="18.8" fill="#3aaf60" rx="1"/>
  <rect x="315.4" y="120.8" width="18.2" height="20.9" fill="#4ade80" rx="1"/>
  <text x="297.2" y="306" text-anchor="middle" fill="#e6edf3" font-size="10" font-weight="600">65k</text>
  <text x="297.2" y="318" text-anchor="middle" fill="#7d8590" font-size="9">65 KB</text>
  <rect x="357.7" y="255.0" width="18.2" height="35.0" fill="#60a5fa" rx="1"/>
  <rect x="357.7" y="247.5" width="18.2" height="7.5" fill="#4680c4" rx="1"/>
  <rect x="357.7" y="239.2" width="18.2" height="8.3" fill="#60a5fa" rx="1"/>
  <rect x="375.9" y="248.2" width="18.2" height="41.8" fill="#f87171" rx="1"/>
  <rect x="375.9" y="240.5" width="18.2" height="7.6" fill="#c45050" rx="1"/>
  <rect x="375.9" y="229.9" width="18.2" height="10.6" fill="#f87171" rx="1"/>
  <rect x="394.1" y="254.3" width="18.2" height="35.7" fill="#fbbf24" rx="1"/>
  <rect x="394.1" y="246.9" width="18.2" height="7.5" fill="#c49520" rx="1"/>
  <rect x="394.1" y="232.6" width="18.2" height="14.3" fill="#fbbf24" rx="1"/>
  <rect x="412.2" y="242.6" width="18.2" height="47.4" fill="#4ade80" rx="1"/>
  <rect x="412.2" y="235.1" width="18.2" height="7.5" fill="#3aaf60" rx="1"/>
  <rect x="412.2" y="221.6" width="18.2" height="13.5" fill="#4ade80" rx="1"/>
  <text x="394.1" y="306" text-anchor="middle" fill="#e6edf3" font-size="10" font-weight="600">66k_JSON</text>
  <text x="394.1" y="318" text-anchor="middle" fill="#7d8590" font-size="9">67 KB</text>
  <rect x="454.6" y="184.6" width="18.2" height="105.4" fill="#60a5fa" rx="1"/>
  <rect x="454.6" y="163.8" width="18.2" height="20.9" fill="#4680c4" rx="1"/>
  <rect x="454.6" y="148.8" width="18.2" height="14.9" fill="#60a5fa" rx="1"/>
  <rect x="472.8" y="180.0" width="18.2" height="110.0" fill="#f87171" rx="1"/>
  <rect x="472.8" y="158.8" width="18.2" height="21.2" fill="#c45050" rx="1"/>
  <rect x="472.8" y="142.1" width="18.2" height="16.7" fill="#f87171" rx="1"/>
  <rect x="490.9" y="184.3" width="18.2" height="105.7" fill="#fbbf24" rx="1"/>
  <rect x="490.9" y="163.4" width="18.2" height="20.9" fill="#c49520" rx="1"/>
  <rect x="490.9" y="144.8" width="18.2" height="18.6" fill="#fbbf24" rx="1"/>
  <rect x="509.1" y="148.7" width="18.2" height="141.3" fill="#4ade80" rx="1"/>
  <rect x="509.1" y="127.8" width="18.2" height="20.9" fill="#3aaf60" rx="1"/>
  <rect x="509.1" y="109.1" width="18.2" height="18.8" fill="#4ade80" rx="1"/>
  <text x="490.9" y="306" text-anchor="middle" fill="#e6edf3" font-size="10" font-weight="600">dickens</text>
  <text x="490.9" y="318" text-anchor="middle" fill="#7d8590" font-size="9">10.0 MB</text>
  <rect x="551.5" y="263.9" width="18.2" height="26.1" fill="#60a5fa" rx="1"/>
  <rect x="551.5" y="260.3" width="18.2" height="3.6" fill="#4680c4" rx="1"/>
  <rect x="551.5" y="253.5" width="18.2" height="6.8" fill="#60a5fa" rx="1"/>
  <rect x="569.6" y="262.3" width="18.2" height="27.7" fill="#f87171" rx="1"/>
  <rect x="569.6" y="258.7" width="18.2" height="3.6" fill="#c45050" rx="1"/>
  <rect x="569.6" y="249.8" width="18.2" height="8.9" fill="#f87171" rx="1"/>
  <rect x="587.8" y="262.5" width="18.2" height="27.5" fill="#fbbf24" rx="1"/>
  <rect x="587.8" y="258.9" width="18.2" height="3.6" fill="#c49520" rx="1"/>
  <rect x="587.8" y="249.5" width="18.2" height="9.4" fill="#fbbf24" rx="1"/>
  <rect x="606.0" y="256.5" width="18.2" height="33.5" fill="#4ade80" rx="1"/>
  <rect x="606.0" y="252.9" width="18.2" height="3.6" fill="#3aaf60" rx="1"/>
  <rect x="606.0" y="243.9" width="18.2" height="9.0" fill="#4ade80" rx="1"/>
  <text x="587.8" y="306" text-anchor="middle" fill="#e6edf3" font-size="10" font-weight="600">hdfs.json</text>
  <text x="587.8" y="318" text-anchor="middle" fill="#7d8590" font-size="9">7.0 MB</text>
  <rect x="648.4" y="184.9" width="18.2" height="105.1" fill="#60a5fa" rx="1"/>
  <rect x="648.4" y="169.2" width="18.2" height="15.7" fill="#4680c4" rx="1"/>
  <rect x="648.4" y="152.4" width="18.2" height="16.7" fill="#60a5fa" rx="1"/>
  <rect x="666.5" y="184.2" width="18.2" height="105.8" fill="#f87171" rx="1"/>
  <rect x="666.5" y="168.5" width="18.2" height="15.8" fill="#c45050" rx="1"/>
  <rect x="666.5" y="150.5" width="18.2" height="18.0" fill="#f87171" rx="1"/>
  <rect x="684.7" y="184.2" width="18.2" height="105.8" fill="#fbbf24" rx="1"/>
  <rect x="684.7" y="168.5" width="18.2" height="15.7" fill="#c49520" rx="1"/>
  <rect x="684.7" y="147.4" width="18.2" height="21.0" fill="#fbbf24" rx="1"/>
  <rect x="702.9" y="164.7" width="18.2" height="125.3" fill="#4ade80" rx="1"/>
  <rect x="702.9" y="149.0" width="18.2" height="15.8" fill="#3aaf60" rx="1"/>
  <rect x="702.9" y="127.9" width="18.2" height="21.1" fill="#4ade80" rx="1"/>
  <text x="684.7" y="306" text-anchor="middle" fill="#e6edf3" font-size="10" font-weight="600">reymont.pdf</text>
  <text x="684.7" y="318" text-anchor="middle" fill="#7d8590" font-size="9">6.6 MB</text>
  <rect x="745.2" y="241.2" width="18.2" height="48.8" fill="#60a5fa" rx="1"/>
  <rect x="745.2" y="233.6" width="18.2" height="7.6" fill="#4680c4" rx="1"/>
  <rect x="745.2" y="221.4" width="18.2" height="12.2" fill="#60a5fa" rx="1"/>
  <rect x="763.4" y="238.6" width="18.2" height="51.4" fill="#f87171" rx="1"/>
  <rect x="763.4" y="231.0" width="18.2" height="7.6" fill="#c45050" rx="1"/>
  <rect x="763.4" y="216.0" width="18.2" height="15.0" fill="#f87171" rx="1"/>
  <rect x="781.6" y="240.6" width="18.2" height="49.4" fill="#fbbf24" rx="1"/>
  <rect x="781.6" y="233.0" width="18.2" height="7.6" fill="#c49520" rx="1"/>
  <rect x="781.6" y="216.6" width="18.2" height="16.4" fill="#fbbf24" rx="1"/>
  <rect x="799.7" y="229.4" width="18.2" height="60.6" fill="#4ade80" rx="1"/>
  <rect x="799.7" y="221.8" width="18.2" height="7.6" fill="#3aaf60" rx="1"/>
  <rect x="799.7" y="206.3" width="18.2" height="15.5" fill="#4ade80" rx="1"/>
  <text x="781.6" y="306" text-anchor="middle" fill="#e6edf3" font-size="10" font-weight="600">xml_collection.xml</text>
  <text x="781.6" y="318" text-anchor="middle" fill="#7d8590" font-size="9">5.3 MB</text>
  <line x1="55" y1="534.4" x2="830" y2="534.4" stroke="#21262d" stroke-width="1"/>
  <text x="47" y="534.4" text-anchor="end" dominant-baseline="middle" fill="#7d8590" font-size="10">2</text>
  <line x1="55" y1="468.9" x2="830" y2="468.9" stroke="#21262d" stroke-width="1"/>
  <text x="47" y="468.9" text-anchor="end" dominant-baseline="middle" fill="#7d8590" font-size="10">4</text>
  <line x1="55" y1="403.3" x2="830" y2="403.3" stroke="#21262d" stroke-width="1"/>
  <text x="47" y="403.3" text-anchor="end" dominant-baseline="middle" fill="#7d8590" font-size="10">6</text>
  <line x1="55" y1="600" x2="830" y2="600" stroke="#30363d" stroke-width="1.5"/>
  <rect x="67.1" y="533.8" width="18.2" height="66.2" fill="#60a5fa" rx="1"/>
  <rect x="67.1" y="515.9" width="18.2" height="17.9" fill="#4680c4" rx="1"/>
  <rect x="67.1" y="503.5" width="18.2" height="12.4" fill="#60a5fa" rx="1"/>
  <rect x="85.3" y="546.8" width="18.2" height="53.2" fill="#f87171" rx="1"/>
  <rect x="85.3" y="528.4" width="18.2" height="18.4" fill="#c45050" rx="1"/>
  <rect x="85.3" y="516.3" width="18.2" height="12.2" fill="#f87171" rx="1"/>
  <rect x="103.4" y="532.9" width="18.2" height="67.1" fill="#fbbf24" rx="1"/>
  <rect x="103.4" y="515.0" width="18.2" height="17.9" fill="#c49520" rx="1"/>
  <rect x="103.4" y="499.2" width="18.2" height="15.8" fill="#fbbf24" rx="1"/>
  <rect x="121.6" y="517.1" width="18.2" height="82.9" fill="#4ade80" rx="1"/>
  <rect x="121.6" y="499.1" width="18.2" height="18.0" fill="#3aaf60" rx="1"/>
  <rect x="121.6" y="483.3" width="18.2" height="15.8" fill="#4ade80" rx="1"/>
  <text x="103.4" y="616" text-anchor="middle" fill="#e6edf3" font-size="10" font-weight="600">mr</text>
  <text x="103.4" y="628" text-anchor="middle" fill="#7d8590" font-size="9">10.0 MB</text>
  <rect x="164.0" y="535.5" width="18.2" height="64.5" fill="#60a5fa" rx="1"/>
  <rect x="164.0" y="518.6" width="18.2" height="16.9" fill="#4680c4" rx="1"/>
  <rect x="164.0" y="504.9" width="18.2" height="13.7" fill="#60a5fa" rx="1"/>
  <rect x="182.1" y="536.6" width="18.2" height="63.4" fill="#f87171" rx="1"/>
  <rect x="182.1" y="519.4" width="18.2" height="17.3" fill="#c45050" rx="1"/>
  <rect x="182.1" y="502.8" width="18.2" height="16.5" fill="#f87171" rx="1"/>
  <rect x="200.3" y="534.5" width="18.2" height="65.5" fill="#fbbf24" rx="1"/>
  <rect x="200.3" y="517.6" width="18.2" height="16.9" fill="#c49520" rx="1"/>
  <rect x="200.3" y="500.3" width="18.2" height="17.3" fill="#fbbf24" rx="1"/>
  <rect x="218.5" y="513.5" width="18.2" height="86.5" fill="#4ade80" rx="1"/>
  <rect x="218.5" y="496.5" width="18.2" height="17.0" fill="#3aaf60" rx="1"/>
  <rect x="218.5" y="478.9" width="18.2" height="17.6" fill="#4ade80" rx="1"/>
  <text x="200.3" y="616" text-anchor="middle" fill="#e6edf3" font-size="10" font-weight="600">mozilla</text>
  <text x="200.3" y="628" text-anchor="middle" fill="#7d8590" font-size="9">51.2 MB</text>
  <rect x="260.9" y="560.3" width="18.2" height="39.7" fill="#60a5fa" rx="1"/>
  <rect x="260.9" y="554.9" width="18.2" height="5.4" fill="#4680c4" rx="1"/>
  <rect x="260.9" y="544.9" width="18.2" height="9.9" fill="#60a5fa" rx="1"/>
  <rect x="279.0" y="557.7" width="18.2" height="42.3" fill="#f87171" rx="1"/>
  <rect x="279.0" y="552.3" width="18.2" height="5.4" fill="#c45050" rx="1"/>
  <rect x="279.0" y="538.4" width="18.2" height="13.9" fill="#f87171" rx="1"/>
  <rect x="297.2" y="559.2" width="18.2" height="40.8" fill="#fbbf24" rx="1"/>
  <rect x="297.2" y="553.8" width="18.2" height="5.4" fill="#c49520" rx="1"/>
  <rect x="297.2" y="540.3" width="18.2" height="13.5" fill="#fbbf24" rx="1"/>
  <rect x="315.4" y="550.1" width="18.2" height="49.9" fill="#4ade80" rx="1"/>
  <rect x="315.4" y="544.7" width="18.2" height="5.4" fill="#3aaf60" rx="1"/>
  <rect x="315.4" y="530.9" width="18.2" height="13.8" fill="#4ade80" rx="1"/>
  <text x="297.2" y="616" text-anchor="middle" fill="#e6edf3" font-size="10" font-weight="600">nci</text>
  <text x="297.2" y="628" text-anchor="middle" fill="#7d8590" font-size="9">33.6 MB</text>
  <rect x="357.7" y="525.8" width="18.2" height="74.2" fill="#60a5fa" rx="1"/>
  <rect x="357.7" y="508.7" width="18.2" height="17.1" fill="#4680c4" rx="1"/>
  <rect x="357.7" y="494.6" width="18.2" height="14.2" fill="#60a5fa" rx="1"/>
  <rect x="375.9" y="530.2" width="18.2" height="69.8" fill="#f87171" rx="1"/>
  <rect x="375.9" y="511.6" width="18.2" height="18.5" fill="#c45050" rx="1"/>
  <rect x="375.9" y="492.9" width="18.2" height="18.8" fill="#f87171" rx="1"/>
  <rect x="394.1" y="523.5" width="18.2" height="76.5" fill="#fbbf24" rx="1"/>
  <rect x="394.1" y="506.4" width="18.2" height="17.1" fill="#c49520" rx="1"/>
  <rect x="394.1" y="487.2" width="18.2" height="19.2" fill="#fbbf24" rx="1"/>
  <rect x="412.2" y="499.1" width="18.2" height="100.9" fill="#4ade80" rx="1"/>
  <rect x="412.2" y="482.0" width="18.2" height="17.2" fill="#3aaf60" rx="1"/>
  <rect x="412.2" y="463.5" width="18.2" height="18.5" fill="#4ade80" rx="1"/>
  <text x="394.1" y="616" text-anchor="middle" fill="#e6edf3" font-size="10" font-weight="600">osdb</text>
  <text x="394.1" y="628" text-anchor="middle" fill="#7d8590" font-size="9">10.1 MB</text>
  <rect x="454.6" y="537.6" width="18.2" height="62.4" fill="#60a5fa" rx="1"/>
  <rect x="454.6" y="525.9" width="18.2" height="11.7" fill="#4680c4" rx="1"/>
  <rect x="454.6" y="513.4" width="18.2" height="12.5" fill="#60a5fa" rx="1"/>
  <rect x="472.8" y="535.4" width="18.2" height="64.6" fill="#f87171" rx="1"/>
  <rect x="472.8" y="523.5" width="18.2" height="11.8" fill="#c45050" rx="1"/>
  <rect x="472.8" y="507.7" width="18.2" height="15.8" fill="#f87171" rx="1"/>
  <rect x="490.9" y="536.7" width="18.2" height="63.3" fill="#fbbf24" rx="1"/>
  <rect x="490.9" y="525.0" width="18.2" height="11.7" fill="#c49520" rx="1"/>
  <rect x="490.9" y="508.7" width="18.2" height="16.3" fill="#fbbf24" rx="1"/>
  <rect x="509.1" y="522.2" width="18.2" height="77.8" fill="#4ade80" rx="1"/>
  <rect x="509.1" y="510.5" width="18.2" height="11.7" fill="#3aaf60" rx="1"/>
  <rect x="509.1" y="494.1" width="18.2" height="16.4" fill="#4ade80" rx="1"/>
  <text x="490.9" y="616" text-anchor="middle" fill="#e6edf3" font-size="10" font-weight="600">samba</text>
  <text x="490.9" y="628" text-anchor="middle" fill="#7d8590" font-size="9">21.6 MB</text>
  <rect x="551.5" y="526.9" width="18.2" height="73.1" fill="#60a5fa" rx="1"/>
  <rect x="551.5" y="496.2" width="18.2" height="30.7" fill="#4680c4" rx="1"/>
  <rect x="551.5" y="484.2" width="18.2" height="12.0" fill="#60a5fa" rx="1"/>
  <rect x="569.6" y="565.5" width="18.2" height="34.5" fill="#f87171" rx="1"/>
  <rect x="569.6" y="533.9" width="18.2" height="31.7" fill="#c45050" rx="1"/>
  <rect x="569.6" y="524.1" width="18.2" height="9.8" fill="#f87171" rx="1"/>
  <rect x="587.8" y="523.8" width="18.2" height="76.2" fill="#fbbf24" rx="1"/>
  <rect x="587.8" y="493.1" width="18.2" height="30.7" fill="#c49520" rx="1"/>
  <rect x="587.8" y="477.0" width="18.2" height="16.0" fill="#fbbf24" rx="1"/>
  <rect x="606.0" y="497.5" width="18.2" height="102.5" fill="#4ade80" rx="1"/>
  <rect x="606.0" y="466.6" width="18.2" height="30.8" fill="#3aaf60" rx="1"/>
  <rect x="606.0" y="451.4" width="18.2" height="15.2" fill="#4ade80" rx="1"/>
  <text x="587.8" y="616" text-anchor="middle" fill="#e6edf3" font-size="10" font-weight="600">sao</text>
  <text x="587.8" y="628" text-anchor="middle" fill="#7d8590" font-size="9">7.3 MB</text>
  <rect x="648.4" y="506.9" width="18.2" height="93.1" fill="#60a5fa" rx="1"/>
  <rect x="648.4" y="490.9" width="18.2" height="15.9" fill="#4680c4" rx="1"/>
  <rect x="648.4" y="475.6" width="18.2" height="15.3" fill="#60a5fa" rx="1"/>
  <rect x="666.5" y="502.6" width="18.2" height="97.4" fill="#f87171" rx="1"/>
  <rect x="666.5" y="486.4" width="18.2" height="16.2" fill="#c45050" rx="1"/>
  <rect x="666.5" y="467.7" width="18.2" height="18.7" fill="#f87171" rx="1"/>
  <rect x="684.7" y="506.5" width="18.2" height="93.5" fill="#fbbf24" rx="1"/>
  <rect x="684.7" y="490.6" width="18.2" height="15.9" fill="#c49520" rx="1"/>
  <rect x="684.7" y="470.9" width="18.2" height="19.7" fill="#fbbf24" rx="1"/>
  <rect x="702.9" y="480.5" width="18.2" height="119.5" fill="#4ade80" rx="1"/>
  <rect x="702.9" y="464.5" width="18.2" height="15.9" fill="#3aaf60" rx="1"/>
  <rect x="702.9" y="444.4" width="18.2" height="20.1" fill="#4ade80" rx="1"/>
  <text x="684.7" y="616" text-anchor="middle" fill="#e6edf3" font-size="10" font-weight="600">webster</text>
  <text x="684.7" y="628" text-anchor="middle" fill="#7d8590" font-size="9">41.5 MB</text>
  <rect x="745.2" y="572.8" width="18.2" height="27.2" fill="#60a5fa" rx="1"/>
  <rect x="745.2" y="540.4" width="18.2" height="32.5" fill="#4680c4" rx="1"/>
  <rect x="745.2" y="535.6" width="18.2" height="4.8" fill="#60a5fa" rx="1"/>
  <rect x="763.4" y="596.1" width="18.2" height="3.9" fill="#f87171" rx="1"/>
  <rect x="763.4" y="563.2" width="18.2" height="32.9" fill="#c45050" rx="1"/>
  <rect x="763.4" y="560.2" width="18.2" height="2.9" fill="#f87171" rx="1"/>
  <rect x="781.6" y="571.6" width="18.2" height="28.4" fill="#fbbf24" rx="1"/>
  <rect x="781.6" y="539.1" width="18.2" height="32.5" fill="#c49520" rx="1"/>
  <rect x="781.6" y="533.6" width="18.2" height="5.5" fill="#fbbf24" rx="1"/>
  <rect x="799.7" y="571.8" width="18.2" height="28.2" fill="#4ade80" rx="1"/>
  <rect x="799.7" y="539.3" width="18.2" height="32.6" fill="#3aaf60" rx="1"/>
  <rect x="799.7" y="535.0" width="18.2" height="4.3" fill="#4ade80" rx="1"/>
  <text x="781.6" y="616" text-anchor="middle" fill="#e6edf3" font-size="10" font-weight="600">x-ray</text>
  <text x="781.6" y="628" text-anchor="middle" fill="#7d8590" font-size="9">8.5 MB</text>
  <rect x="262" y="645" width="12" height="12" fill="#60a5fa" rx="2"/>
  <text x="280" y="655" fill="#e6edf3" font-size="11" font-weight="500">lz4 (C)</text>
  <rect x="442" y="645" width="12" height="12" fill="#f87171" rx="2"/>
  <text x="460" y="655" fill="#e6edf3" font-size="11" font-weight="500">lz4rip (safe Rust)</text>
  <rect x="262" y="665" width="12" height="12" fill="#fbbf24" rx="2"/>
  <text x="280" y="675" fill="#e6edf3" font-size="11" font-weight="500">lz4_flex (unsafe Rust)</text>
  <rect x="442" y="665" width="12" height="12" fill="#4ade80" rx="2"/>
  <text x="460" y="675" fill="#e6edf3" font-size="11" font-weight="500">lz4_flex (safe Rust)</text>
  <rect x="282" y="689" width="12" height="12" fill="#60a5fa" rx="2"/>
  <text x="300" y="699" fill="#7d8590" font-size="10">compress + decompress</text>
  <rect x="482" y="689" width="12" height="12" fill="#4680c4" rx="2"/>
  <text x="500" y="699" fill="#7d8590" font-size="10">transfer (ratio)</text>
</svg>
