<svg xmlns="http://www.w3.org/2000/svg" viewBox="0 0 850 720" font-family="system-ui, -apple-system, sans-serif">
  <rect width="850" height="720" fill="#0d1117"/>
  <text x="442.5" y="22" text-anchor="middle" fill="#e6edf3" font-size="14" font-weight="700">LZ4 Block: Compress + Transfer @1 GB/s + Decompress (lower is better)</text>
  <text x="442.5" y="38" text-anchor="middle" fill="#7d8590" font-size="10">Intel Core i7-8700B @ 3.20GHz, performance governor, turbo off</text>
  <line x1="55" y1="224.1" x2="830" y2="224.1" stroke="#21262d" stroke-width="1"/>
  <text x="47" y="224.1" text-anchor="end" dominant-baseline="middle" fill="#7d8590" font-size="10">2</text>
  <line x1="55" y1="158.2" x2="830" y2="158.2" stroke="#21262d" stroke-width="1"/>
  <text x="47" y="158.2" text-anchor="end" dominant-baseline="middle" fill="#7d8590" font-size="10">4</text>
  <line x1="55" y1="92.3" x2="830" y2="92.3" stroke="#21262d" stroke-width="1"/>
  <text x="47" y="92.3" text-anchor="end" dominant-baseline="middle" fill="#7d8590" font-size="10">6</text>
  <line x1="55" y1="290" x2="830" y2="290" stroke="#30363d" stroke-width="1.5"/>
  <text x="22" y="325.0" text-anchor="middle" fill="#e6edf3" font-size="11" font-weight="600" transform="rotate(-90,22,325.0)">seconds / GB</text>
  <rect x="67.1" y="191.8" width="18.2" height="98.2" fill="#60a5fa" rx="1"/>
  <rect x="67.1" y="166.5" width="18.2" height="25.3" fill="#4680c4" rx="1"/>
  <rect x="67.1" y="113.8" width="18.2" height="52.7" fill="#60a5fa" rx="1"/>
  <rect x="85.3" y="204.0" width="18.2" height="86.0" fill="#f87171" rx="1"/>
  <rect x="85.3" y="177.1" width="18.2" height="26.9" fill="#c45050" rx="1"/>
  <rect x="85.3" y="127.5" width="18.2" height="49.6" fill="#f87171" rx="1"/>
  <rect x="103.4" y="181.4" width="18.2" height="108.6" fill="#f59e0b" rx="1"/>
  <rect x="103.4" y="156.1" width="18.2" height="25.4" fill="#c47d08" rx="1"/>
  <rect x="103.4" y="104.1" width="18.2" height="52.0" fill="#f59e0b" rx="1"/>
  <rect x="121.6" y="152.7" width="18.2" height="137.3" fill="#4ade80" rx="1"/>
  <rect x="121.6" y="127.3" width="18.2" height="25.4" fill="#3aaf60" rx="1"/>
  <rect x="121.6" y="71.8" width="18.2" height="55.5" fill="#4ade80" rx="1"/>
  <text x="103.4" y="306" text-anchor="middle" fill="#e6edf3" font-size="10" font-weight="600">1k</text>
  <text x="103.4" y="318" text-anchor="middle" fill="#7d8590" font-size="9">725 B</text>
  <rect x="164.0" y="199.8" width="18.2" height="90.2" fill="#60a5fa" rx="1"/>
  <rect x="164.0" y="181.0" width="18.2" height="18.8" fill="#4680c4" rx="1"/>
  <rect x="164.0" y="162.3" width="18.2" height="18.7" fill="#60a5fa" rx="1"/>
  <rect x="182.1" y="200.0" width="18.2" height="90.0" fill="#f87171" rx="1"/>
  <rect x="182.1" y="180.7" width="18.2" height="19.3" fill="#c45050" rx="1"/>
  <rect x="182.1" y="167.1" width="18.2" height="13.6" fill="#f87171" rx="1"/>
  <rect x="200.3" y="181.9" width="18.2" height="108.1" fill="#f59e0b" rx="1"/>
  <rect x="200.3" y="162.8" width="18.2" height="19.1" fill="#c47d08" rx="1"/>
  <rect x="200.3" y="145.8" width="18.2" height="17.0" fill="#f59e0b" rx="1"/>
  <rect x="218.5" y="154.6" width="18.2" height="135.4" fill="#4ade80" rx="1"/>
  <rect x="218.5" y="135.5" width="18.2" height="19.1" fill="#3aaf60" rx="1"/>
  <rect x="218.5" y="114.2" width="18.2" height="21.3" fill="#4ade80" rx="1"/>
  <text x="200.3" y="306" text-anchor="middle" fill="#e6edf3" font-size="10" font-weight="600">34k</text>
  <text x="200.3" y="318" text-anchor="middle" fill="#7d8590" font-size="9">34 KB</text>
  <rect x="260.9" y="185.5" width="18.2" height="104.5" fill="#60a5fa" rx="1"/>
  <rect x="260.9" y="167.0" width="18.2" height="18.5" fill="#4680c4" rx="1"/>
  <rect x="260.9" y="149.4" width="18.2" height="17.6" fill="#60a5fa" rx="1"/>
  <rect x="279.0" y="201.4" width="18.2" height="88.6" fill="#f87171" rx="1"/>
  <rect x="279.0" y="182.0" width="18.2" height="19.4" fill="#c45050" rx="1"/>
  <rect x="279.0" y="169.1" width="18.2" height="12.8" fill="#f87171" rx="1"/>
  <rect x="297.2" y="177.9" width="18.2" height="112.1" fill="#f59e0b" rx="1"/>
  <rect x="297.2" y="159.0" width="18.2" height="18.9" fill="#c47d08" rx="1"/>
  <rect x="297.2" y="143.1" width="18.2" height="15.9" fill="#f59e0b" rx="1"/>
  <rect x="315.4" y="151.1" width="18.2" height="138.9" fill="#4ade80" rx="1"/>
  <rect x="315.4" y="132.2" width="18.2" height="18.9" fill="#3aaf60" rx="1"/>
  <rect x="315.4" y="112.2" width="18.2" height="20.0" fill="#4ade80" rx="1"/>
  <text x="297.2" y="306" text-anchor="middle" fill="#e6edf3" font-size="10" font-weight="600">65k</text>
  <text x="297.2" y="318" text-anchor="middle" fill="#7d8590" font-size="9">65 KB</text>
  <rect x="357.7" y="254.6" width="18.2" height="35.4" fill="#60a5fa" rx="1"/>
  <rect x="357.7" y="247.1" width="18.2" height="7.5" fill="#4680c4" rx="1"/>
  <rect x="357.7" y="238.8" width="18.2" height="8.3" fill="#60a5fa" rx="1"/>
  <rect x="375.9" y="248.7" width="18.2" height="41.3" fill="#f87171" rx="1"/>
  <rect x="375.9" y="241.0" width="18.2" height="7.8" fill="#c45050" rx="1"/>
  <rect x="375.9" y="230.1" width="18.2" height="10.8" fill="#f87171" rx="1"/>
  <rect x="394.1" y="245.6" width="18.2" height="44.4" fill="#f59e0b" rx="1"/>
  <rect x="394.1" y="238.1" width="18.2" height="7.5" fill="#c47d08" rx="1"/>
  <rect x="394.1" y="228.6" width="18.2" height="9.4" fill="#f59e0b" rx="1"/>
  <rect x="412.2" y="237.6" width="18.2" height="52.4" fill="#4ade80" rx="1"/>
  <rect x="412.2" y="230.0" width="18.2" height="7.5" fill="#3aaf60" rx="1"/>
  <rect x="412.2" y="218.7" width="18.2" height="11.3" fill="#4ade80" rx="1"/>
  <text x="394.1" y="306" text-anchor="middle" fill="#e6edf3" font-size="10" font-weight="600">66k_JSON</text>
  <text x="394.1" y="318" text-anchor="middle" fill="#7d8590" font-size="9">67 KB</text>
  <rect x="454.6" y="183.0" width="18.2" height="107.0" fill="#60a5fa" rx="1"/>
  <rect x="454.6" y="162.2" width="18.2" height="20.8" fill="#4680c4" rx="1"/>
  <rect x="454.6" y="147.1" width="18.2" height="15.1" fill="#60a5fa" rx="1"/>
  <rect x="472.8" y="194.5" width="18.2" height="95.5" fill="#f87171" rx="1"/>
  <rect x="472.8" y="170.9" width="18.2" height="23.6" fill="#c45050" rx="1"/>
  <rect x="472.8" y="154.8" width="18.2" height="16.2" fill="#f87171" rx="1"/>
  <rect x="490.9" y="177.0" width="18.2" height="113.0" fill="#f59e0b" rx="1"/>
  <rect x="490.9" y="156.2" width="18.2" height="20.8" fill="#c47d08" rx="1"/>
  <rect x="490.9" y="141.6" width="18.2" height="14.6" fill="#f59e0b" rx="1"/>
  <rect x="509.1" y="148.7" width="18.2" height="141.3" fill="#4ade80" rx="1"/>
  <rect x="509.1" y="127.9" width="18.2" height="20.8" fill="#3aaf60" rx="1"/>
  <rect x="509.1" y="109.6" width="18.2" height="18.3" fill="#4ade80" rx="1"/>
  <text x="490.9" y="306" text-anchor="middle" fill="#e6edf3" font-size="10" font-weight="600">dickens</text>
  <text x="490.9" y="318" text-anchor="middle" fill="#7d8590" font-size="9">10.2 MB</text>
  <rect x="551.5" y="263.7" width="18.2" height="26.3" fill="#60a5fa" rx="1"/>
  <rect x="551.5" y="260.1" width="18.2" height="3.6" fill="#4680c4" rx="1"/>
  <rect x="551.5" y="253.2" width="18.2" height="6.9" fill="#60a5fa" rx="1"/>
  <rect x="569.6" y="263.8" width="18.2" height="26.2" fill="#f87171" rx="1"/>
  <rect x="569.6" y="260.1" width="18.2" height="3.7" fill="#c45050" rx="1"/>
  <rect x="569.6" y="252.9" width="18.2" height="7.3" fill="#f87171" rx="1"/>
  <rect x="587.8" y="259.0" width="18.2" height="31.0" fill="#f59e0b" rx="1"/>
  <rect x="587.8" y="255.4" width="18.2" height="3.6" fill="#c47d08" rx="1"/>
  <rect x="587.8" y="246.8" width="18.2" height="8.6" fill="#f59e0b" rx="1"/>
  <rect x="606.0" y="254.6" width="18.2" height="35.4" fill="#4ade80" rx="1"/>
  <rect x="606.0" y="251.0" width="18.2" height="3.6" fill="#3aaf60" rx="1"/>
  <rect x="606.0" y="241.9" width="18.2" height="9.1" fill="#4ade80" rx="1"/>
  <text x="587.8" y="306" text-anchor="middle" fill="#e6edf3" font-size="10" font-weight="600">hdfs.json</text>
  <text x="587.8" y="318" text-anchor="middle" fill="#7d8590" font-size="9">7.0 MB</text>
  <rect x="648.4" y="184.3" width="18.2" height="105.7" fill="#60a5fa" rx="1"/>
  <rect x="648.4" y="168.5" width="18.2" height="15.8" fill="#4680c4" rx="1"/>
  <rect x="648.4" y="151.7" width="18.2" height="16.8" fill="#60a5fa" rx="1"/>
  <rect x="666.5" y="183.9" width="18.2" height="106.1" fill="#f87171" rx="1"/>
  <rect x="666.5" y="167.1" width="18.2" height="16.8" fill="#c45050" rx="1"/>
  <rect x="666.5" y="151.5" width="18.2" height="15.7" fill="#f87171" rx="1"/>
  <rect x="684.7" y="180.4" width="18.2" height="109.6" fill="#f59e0b" rx="1"/>
  <rect x="684.7" y="164.6" width="18.2" height="15.8" fill="#c47d08" rx="1"/>
  <rect x="684.7" y="148.4" width="18.2" height="16.2" fill="#f59e0b" rx="1"/>
  <rect x="702.9" y="160.6" width="18.2" height="129.4" fill="#4ade80" rx="1"/>
  <rect x="702.9" y="144.7" width="18.2" height="15.8" fill="#3aaf60" rx="1"/>
  <rect x="702.9" y="124.6" width="18.2" height="20.1" fill="#4ade80" rx="1"/>
  <text x="684.7" y="306" text-anchor="middle" fill="#e6edf3" font-size="10" font-weight="600">reymont.pdf</text>
  <text x="684.7" y="318" text-anchor="middle" fill="#7d8590" font-size="9">6.6 MB</text>
  <rect x="745.2" y="240.8" width="18.2" height="49.2" fill="#60a5fa" rx="1"/>
  <rect x="745.2" y="233.2" width="18.2" height="7.6" fill="#4680c4" rx="1"/>
  <rect x="745.2" y="220.8" width="18.2" height="12.4" fill="#60a5fa" rx="1"/>
  <rect x="763.4" y="240.6" width="18.2" height="49.4" fill="#f87171" rx="1"/>
  <rect x="763.4" y="232.5" width="18.2" height="8.1" fill="#c45050" rx="1"/>
  <rect x="763.4" y="220.2" width="18.2" height="12.3" fill="#f87171" rx="1"/>
  <rect x="781.6" y="237.1" width="18.2" height="52.9" fill="#f59e0b" rx="1"/>
  <rect x="781.6" y="229.5" width="18.2" height="7.6" fill="#c47d08" rx="1"/>
  <rect x="781.6" y="215.7" width="18.2" height="13.8" fill="#f59e0b" rx="1"/>
  <rect x="799.7" y="226.9" width="18.2" height="63.1" fill="#4ade80" rx="1"/>
  <rect x="799.7" y="219.3" width="18.2" height="7.6" fill="#3aaf60" rx="1"/>
  <rect x="799.7" y="203.9" width="18.2" height="15.4" fill="#4ade80" rx="1"/>
  <text x="781.6" y="306" text-anchor="middle" fill="#e6edf3" font-size="10" font-weight="600">xml_collection.xml</text>
  <text x="781.6" y="318" text-anchor="middle" fill="#7d8590" font-size="9">5.3 MB</text>
  <line x1="55" y1="534.1" x2="830" y2="534.1" stroke="#21262d" stroke-width="1"/>
  <text x="47" y="534.1" text-anchor="end" dominant-baseline="middle" fill="#7d8590" font-size="10">2</text>
  <line x1="55" y1="468.2" x2="830" y2="468.2" stroke="#21262d" stroke-width="1"/>
  <text x="47" y="468.2" text-anchor="end" dominant-baseline="middle" fill="#7d8590" font-size="10">4</text>
  <line x1="55" y1="402.3" x2="830" y2="402.3" stroke="#21262d" stroke-width="1"/>
  <text x="47" y="402.3" text-anchor="end" dominant-baseline="middle" fill="#7d8590" font-size="10">6</text>
  <line x1="55" y1="600" x2="830" y2="600" stroke="#30363d" stroke-width="1.5"/>
  <rect x="67.1" y="533.5" width="18.2" height="66.5" fill="#60a5fa" rx="1"/>
  <rect x="67.1" y="515.5" width="18.2" height="18.0" fill="#4680c4" rx="1"/>
  <rect x="67.1" y="503.0" width="18.2" height="12.5" fill="#60a5fa" rx="1"/>
  <rect x="85.3" y="553.5" width="18.2" height="46.5" fill="#f87171" rx="1"/>
  <rect x="85.3" y="534.1" width="18.2" height="19.4" fill="#c45050" rx="1"/>
  <rect x="85.3" y="523.3" width="18.2" height="10.8" fill="#f87171" rx="1"/>
  <rect x="103.4" y="533.0" width="18.2" height="67.0" fill="#f59e0b" rx="1"/>
  <rect x="103.4" y="514.9" width="18.2" height="18.1" fill="#c47d08" rx="1"/>
  <rect x="103.4" y="500.7" width="18.2" height="14.2" fill="#f59e0b" rx="1"/>
  <rect x="121.6" y="517.5" width="18.2" height="82.5" fill="#4ade80" rx="1"/>
  <rect x="121.6" y="499.4" width="18.2" height="18.1" fill="#3aaf60" rx="1"/>
  <rect x="121.6" y="484.0" width="18.2" height="15.4" fill="#4ade80" rx="1"/>
  <text x="103.4" y="616" text-anchor="middle" fill="#e6edf3" font-size="10" font-weight="600">mr</text>
  <text x="103.4" y="628" text-anchor="middle" fill="#7d8590" font-size="9">10.0 MB</text>
  <rect x="164.0" y="535.0" width="18.2" height="65.0" fill="#60a5fa" rx="1"/>
  <rect x="164.0" y="518.0" width="18.2" height="17.0" fill="#4680c4" rx="1"/>
  <rect x="164.0" y="504.1" width="18.2" height="13.9" fill="#60a5fa" rx="1"/>
  <rect x="182.1" y="542.2" width="18.2" height="57.8" fill="#f87171" rx="1"/>
  <rect x="182.1" y="524.2" width="18.2" height="17.9" fill="#c45050" rx="1"/>
  <rect x="182.1" y="509.2" width="18.2" height="15.0" fill="#f87171" rx="1"/>
  <rect x="200.3" y="530.7" width="18.2" height="69.3" fill="#f59e0b" rx="1"/>
  <rect x="200.3" y="513.7" width="18.2" height="17.0" fill="#c47d08" rx="1"/>
  <rect x="200.3" y="497.8" width="18.2" height="15.8" fill="#f59e0b" rx="1"/>
  <rect x="218.5" y="513.6" width="18.2" height="86.4" fill="#4ade80" rx="1"/>
  <rect x="218.5" y="496.6" width="18.2" height="17.0" fill="#3aaf60" rx="1"/>
  <rect x="218.5" y="478.8" width="18.2" height="17.8" fill="#4ade80" rx="1"/>
  <text x="200.3" y="616" text-anchor="middle" fill="#e6edf3" font-size="10" font-weight="600">mozilla</text>
  <text x="200.3" y="628" text-anchor="middle" fill="#7d8590" font-size="9">51.2 MB</text>
  <rect x="260.9" y="560.0" width="18.2" height="40.0" fill="#60a5fa" rx="1"/>
  <rect x="260.9" y="554.5" width="18.2" height="5.4" fill="#4680c4" rx="1"/>
  <rect x="260.9" y="544.4" width="18.2" height="10.1" fill="#60a5fa" rx="1"/>
  <rect x="279.0" y="558.6" width="18.2" height="41.4" fill="#f87171" rx="1"/>
  <rect x="279.0" y="553.0" width="18.2" height="5.6" fill="#c45050" rx="1"/>
  <rect x="279.0" y="542.6" width="18.2" height="10.4" fill="#f87171" rx="1"/>
  <rect x="297.2" y="555.3" width="18.2" height="44.7" fill="#f59e0b" rx="1"/>
  <rect x="297.2" y="549.9" width="18.2" height="5.4" fill="#c47d08" rx="1"/>
  <rect x="297.2" y="536.4" width="18.2" height="13.4" fill="#f59e0b" rx="1"/>
  <rect x="315.4" y="547.4" width="18.2" height="52.6" fill="#4ade80" rx="1"/>
  <rect x="315.4" y="541.9" width="18.2" height="5.4" fill="#3aaf60" rx="1"/>
  <rect x="315.4" y="528.0" width="18.2" height="13.9" fill="#4ade80" rx="1"/>
  <text x="297.2" y="616" text-anchor="middle" fill="#e6edf3" font-size="10" font-weight="600">nci</text>
  <text x="297.2" y="628" text-anchor="middle" fill="#7d8590" font-size="9">33.6 MB</text>
  <rect x="357.7" y="525.3" width="18.2" height="74.7" fill="#60a5fa" rx="1"/>
  <rect x="357.7" y="508.2" width="18.2" height="17.2" fill="#4680c4" rx="1"/>
  <rect x="357.7" y="493.5" width="18.2" height="14.6" fill="#60a5fa" rx="1"/>
  <rect x="375.9" y="539.3" width="18.2" height="60.7" fill="#f87171" rx="1"/>
  <rect x="375.9" y="516.5" width="18.2" height="22.8" fill="#c45050" rx="1"/>
  <rect x="375.9" y="499.1" width="18.2" height="17.3" fill="#f87171" rx="1"/>
  <rect x="394.1" y="518.3" width="18.2" height="81.7" fill="#f59e0b" rx="1"/>
  <rect x="394.1" y="501.0" width="18.2" height="17.3" fill="#c47d08" rx="1"/>
  <rect x="394.1" y="484.7" width="18.2" height="16.3" fill="#f59e0b" rx="1"/>
  <rect x="412.2" y="500.2" width="18.2" height="99.8" fill="#4ade80" rx="1"/>
  <rect x="412.2" y="482.9" width="18.2" height="17.3" fill="#3aaf60" rx="1"/>
  <rect x="412.2" y="463.8" width="18.2" height="19.1" fill="#4ade80" rx="1"/>
  <text x="394.1" y="616" text-anchor="middle" fill="#e6edf3" font-size="10" font-weight="600">osdb</text>
  <text x="394.1" y="628" text-anchor="middle" fill="#7d8590" font-size="9">10.1 MB</text>
  <rect x="454.6" y="537.3" width="18.2" height="62.7" fill="#60a5fa" rx="1"/>
  <rect x="454.6" y="525.5" width="18.2" height="11.8" fill="#4680c4" rx="1"/>
  <rect x="454.6" y="512.8" width="18.2" height="12.7" fill="#60a5fa" rx="1"/>
  <rect x="472.8" y="539.7" width="18.2" height="60.3" fill="#f87171" rx="1"/>
  <rect x="472.8" y="527.1" width="18.2" height="12.6" fill="#c45050" rx="1"/>
  <rect x="472.8" y="514.1" width="18.2" height="13.0" fill="#f87171" rx="1"/>
  <rect x="490.9" y="533.1" width="18.2" height="66.9" fill="#f59e0b" rx="1"/>
  <rect x="490.9" y="521.4" width="18.2" height="11.8" fill="#c47d08" rx="1"/>
  <rect x="490.9" y="506.9" width="18.2" height="14.4" fill="#f59e0b" rx="1"/>
  <rect x="509.1" y="520.2" width="18.2" height="79.8" fill="#4ade80" rx="1"/>
  <rect x="509.1" y="508.4" width="18.2" height="11.8" fill="#3aaf60" rx="1"/>
  <rect x="509.1" y="492.1" width="18.2" height="16.3" fill="#4ade80" rx="1"/>
  <text x="490.9" y="616" text-anchor="middle" fill="#e6edf3" font-size="10" font-weight="600">samba</text>
  <text x="490.9" y="628" text-anchor="middle" fill="#7d8590" font-size="9">21.6 MB</text>
  <rect x="551.5" y="526.5" width="18.2" height="73.5" fill="#60a5fa" rx="1"/>
  <rect x="551.5" y="495.6" width="18.2" height="30.9" fill="#4680c4" rx="1"/>
  <rect x="551.5" y="483.6" width="18.2" height="12.0" fill="#60a5fa" rx="1"/>
  <rect x="569.6" y="578.6" width="18.2" height="21.4" fill="#f87171" rx="1"/>
  <rect x="569.6" y="546.2" width="18.2" height="32.4" fill="#c45050" rx="1"/>
  <rect x="569.6" y="540.1" width="18.2" height="6.1" fill="#f87171" rx="1"/>
  <rect x="587.8" y="523.1" width="18.2" height="76.9" fill="#f59e0b" rx="1"/>
  <rect x="587.8" y="492.1" width="18.2" height="31.0" fill="#c47d08" rx="1"/>
  <rect x="587.8" y="478.9" width="18.2" height="13.3" fill="#f59e0b" rx="1"/>
  <rect x="606.0" y="503.3" width="18.2" height="96.7" fill="#4ade80" rx="1"/>
  <rect x="606.0" y="472.3" width="18.2" height="31.0" fill="#3aaf60" rx="1"/>
  <rect x="606.0" y="456.3" width="18.2" height="15.9" fill="#4ade80" rx="1"/>
  <text x="587.8" y="616" text-anchor="middle" fill="#e6edf3" font-size="10" font-weight="600">sao</text>
  <text x="587.8" y="628" text-anchor="middle" fill="#7d8590" font-size="9">7.3 MB</text>
  <rect x="648.4" y="506.3" width="18.2" height="93.7" fill="#60a5fa" rx="1"/>
  <rect x="648.4" y="490.3" width="18.2" height="16.0" fill="#4680c4" rx="1"/>
  <rect x="648.4" y="474.8" width="18.2" height="15.5" fill="#60a5fa" rx="1"/>
  <rect x="666.5" y="511.1" width="18.2" height="88.9" fill="#f87171" rx="1"/>
  <rect x="666.5" y="493.5" width="18.2" height="17.6" fill="#c45050" rx="1"/>
  <rect x="666.5" y="477.6" width="18.2" height="15.9" fill="#f87171" rx="1"/>
  <rect x="684.7" y="500.7" width="18.2" height="99.3" fill="#f59e0b" rx="1"/>
  <rect x="684.7" y="484.7" width="18.2" height="16.0" fill="#c47d08" rx="1"/>
  <rect x="684.7" y="468.1" width="18.2" height="16.6" fill="#f59e0b" rx="1"/>
  <rect x="702.9" y="478.9" width="18.2" height="121.1" fill="#4ade80" rx="1"/>
  <rect x="702.9" y="462.9" width="18.2" height="16.0" fill="#3aaf60" rx="1"/>
  <rect x="702.9" y="442.8" width="18.2" height="20.1" fill="#4ade80" rx="1"/>
  <text x="684.7" y="616" text-anchor="middle" fill="#e6edf3" font-size="10" font-weight="600">webster</text>
  <text x="684.7" y="628" text-anchor="middle" fill="#7d8590" font-size="9">41.5 MB</text>
  <rect x="745.2" y="572.7" width="18.2" height="27.3" fill="#60a5fa" rx="1"/>
  <rect x="745.2" y="540.1" width="18.2" height="32.6" fill="#4680c4" rx="1"/>
  <rect x="745.2" y="535.3" width="18.2" height="4.8" fill="#60a5fa" rx="1"/>
  <rect x="763.4" y="596.2" width="18.2" height="3.8" fill="#f87171" rx="1"/>
  <rect x="763.4" y="563.1" width="18.2" height="33.1" fill="#c45050" rx="1"/>
  <rect x="763.4" y="560.2" width="18.2" height="2.9" fill="#f87171" rx="1"/>
  <rect x="781.6" y="577.9" width="18.2" height="22.1" fill="#f59e0b" rx="1"/>
  <rect x="781.6" y="545.1" width="18.2" height="32.7" fill="#c47d08" rx="1"/>
  <rect x="781.6" y="540.9" width="18.2" height="4.2" fill="#f59e0b" rx="1"/>
  <rect x="799.7" y="573.1" width="18.2" height="26.9" fill="#4ade80" rx="1"/>
  <rect x="799.7" y="540.4" width="18.2" height="32.7" fill="#3aaf60" rx="1"/>
  <rect x="799.7" y="536.0" width="18.2" height="4.3" fill="#4ade80" rx="1"/>
  <text x="781.6" y="616" text-anchor="middle" fill="#e6edf3" font-size="10" font-weight="600">x-ray</text>
  <text x="781.6" y="628" text-anchor="middle" fill="#7d8590" font-size="9">8.5 MB</text>
  <rect x="242" y="645" width="12" height="12" fill="#60a5fa" rx="2"/>
  <text x="260" y="655" fill="#e6edf3" font-size="10" font-weight="500">lz4 (C)</text>
  <rect x="242" y="663" width="12" height="12" fill="#f87171" rx="2"/>
  <text x="260" y="673" fill="#e6edf3" font-size="10" font-weight="500">lz4rip (safe API, Rust)</text>
  <rect x="452" y="645" width="12" height="12" fill="#f59e0b" rx="2"/>
  <text x="470" y="655" fill="#e6edf3" font-size="10" font-weight="500">lz4_flex (unsafe Rust)</text>
  <rect x="452" y="663" width="12" height="12" fill="#4ade80" rx="2"/>
  <text x="470" y="673" fill="#e6edf3" font-size="10" font-weight="500">lz4_flex (safe Rust)</text>
  <text x="232" y="698" fill="#e6edf3" font-size="9">bright = compress + decompress</text>
  <text x="472" y="698" fill="#7d8590" font-size="9">dim = transfer @1 GB/s</text>
</svg>
