<svg xmlns="http://www.w3.org/2000/svg" viewBox="0 0 850 720" font-family="system-ui, -apple-system, sans-serif">
  <rect width="850" height="720" fill="#0d1117"/>
  <text x="442.5" y="22" text-anchor="middle" fill="#e6edf3" font-size="14" font-weight="700">LZ4 Block: Compress + Transfer @1 GB/s + Decompress (lower is better)</text>
  <text x="442.5" y="38" text-anchor="middle" fill="#7d8590" font-size="10">Intel Core i7-8700B @ 3.20GHz, performance governor, turbo off</text>
  <line x1="55" y1="224.2" x2="830" y2="224.2" stroke="#21262d" stroke-width="1"/>
  <text x="47" y="224.2" text-anchor="end" dominant-baseline="middle" fill="#7d8590" font-size="10">2</text>
  <line x1="55" y1="158.5" x2="830" y2="158.5" stroke="#21262d" stroke-width="1"/>
  <text x="47" y="158.5" text-anchor="end" dominant-baseline="middle" fill="#7d8590" font-size="10">4</text>
  <line x1="55" y1="92.7" x2="830" y2="92.7" stroke="#21262d" stroke-width="1"/>
  <text x="47" y="92.7" text-anchor="end" dominant-baseline="middle" fill="#7d8590" font-size="10">6</text>
  <line x1="55" y1="290" x2="830" y2="290" stroke="#30363d" stroke-width="1.5"/>
  <text x="22" y="325.0" text-anchor="middle" fill="#e6edf3" font-size="11" font-weight="600" transform="rotate(-90,22,325.0)">seconds / GB</text>
  <rect x="67.1" y="190.9" width="18.2" height="99.1" fill="#60a5fa" rx="1"/>
  <rect x="67.1" y="165.7" width="18.2" height="25.3" fill="#4680c4" rx="1"/>
  <rect x="67.1" y="112.7" width="18.2" height="52.9" fill="#60a5fa" rx="1"/>
  <rect x="85.3" y="199.3" width="18.2" height="90.7" fill="#f87171" rx="1"/>
  <rect x="85.3" y="173.0" width="18.2" height="26.3" fill="#c45050" rx="1"/>
  <rect x="85.3" y="121.7" width="18.2" height="51.3" fill="#f87171" rx="1"/>
  <rect x="103.4" y="183.0" width="18.2" height="107.0" fill="#f59e0b" rx="1"/>
  <rect x="103.4" y="157.6" width="18.2" height="25.3" fill="#c47d08" rx="1"/>
  <rect x="103.4" y="105.4" width="18.2" height="52.3" fill="#f59e0b" rx="1"/>
  <rect x="121.6" y="154.6" width="18.2" height="135.4" fill="#4ade80" rx="1"/>
  <rect x="121.6" y="129.3" width="18.2" height="25.3" fill="#3aaf60" rx="1"/>
  <rect x="121.6" y="71.8" width="18.2" height="57.4" fill="#4ade80" rx="1"/>
  <text x="103.4" y="306" text-anchor="middle" fill="#e6edf3" font-size="10" font-weight="600">1k</text>
  <text x="103.4" y="318" text-anchor="middle" fill="#7d8590" font-size="9">725 B</text>
  <rect x="164.0" y="200.4" width="18.2" height="89.6" fill="#60a5fa" rx="1"/>
  <rect x="164.0" y="181.6" width="18.2" height="18.8" fill="#4680c4" rx="1"/>
  <rect x="164.0" y="163.0" width="18.2" height="18.6" fill="#60a5fa" rx="1"/>
  <rect x="182.1" y="200.1" width="18.2" height="89.9" fill="#f87171" rx="1"/>
  <rect x="182.1" y="181.5" width="18.2" height="18.6" fill="#c45050" rx="1"/>
  <rect x="182.1" y="164.8" width="18.2" height="16.7" fill="#f87171" rx="1"/>
  <rect x="200.3" y="181.2" width="18.2" height="108.8" fill="#f59e0b" rx="1"/>
  <rect x="200.3" y="162.2" width="18.2" height="19.1" fill="#c47d08" rx="1"/>
  <rect x="200.3" y="144.9" width="18.2" height="17.2" fill="#f59e0b" rx="1"/>
  <rect x="218.5" y="158.2" width="18.2" height="131.8" fill="#4ade80" rx="1"/>
  <rect x="218.5" y="139.1" width="18.2" height="19.1" fill="#3aaf60" rx="1"/>
  <rect x="218.5" y="114.0" width="18.2" height="25.1" fill="#4ade80" rx="1"/>
  <text x="200.3" y="306" text-anchor="middle" fill="#e6edf3" font-size="10" font-weight="600">34k</text>
  <text x="200.3" y="318" text-anchor="middle" fill="#7d8590" font-size="9">34 KB</text>
  <rect x="260.9" y="185.7" width="18.2" height="104.3" fill="#60a5fa" rx="1"/>
  <rect x="260.9" y="167.2" width="18.2" height="18.4" fill="#4680c4" rx="1"/>
  <rect x="260.9" y="149.8" width="18.2" height="17.5" fill="#60a5fa" rx="1"/>
  <rect x="279.0" y="197.7" width="18.2" height="92.3" fill="#f87171" rx="1"/>
  <rect x="279.0" y="179.1" width="18.2" height="18.6" fill="#c45050" rx="1"/>
  <rect x="279.0" y="163.5" width="18.2" height="15.6" fill="#f87171" rx="1"/>
  <rect x="297.2" y="178.5" width="18.2" height="111.5" fill="#f59e0b" rx="1"/>
  <rect x="297.2" y="159.6" width="18.2" height="18.9" fill="#c47d08" rx="1"/>
  <rect x="297.2" y="143.6" width="18.2" height="16.0" fill="#f59e0b" rx="1"/>
  <rect x="315.4" y="153.9" width="18.2" height="136.1" fill="#4ade80" rx="1"/>
  <rect x="315.4" y="135.0" width="18.2" height="18.9" fill="#3aaf60" rx="1"/>
  <rect x="315.4" y="111.5" width="18.2" height="23.5" fill="#4ade80" rx="1"/>
  <text x="297.2" y="306" text-anchor="middle" fill="#e6edf3" font-size="10" font-weight="600">65k</text>
  <text x="297.2" y="318" text-anchor="middle" fill="#7d8590" font-size="9">65 KB</text>
  <rect x="357.7" y="254.9" width="18.2" height="35.1" fill="#60a5fa" rx="1"/>
  <rect x="357.7" y="247.4" width="18.2" height="7.5" fill="#4680c4" rx="1"/>
  <rect x="357.7" y="239.1" width="18.2" height="8.3" fill="#60a5fa" rx="1"/>
  <rect x="375.9" y="252.2" width="18.2" height="37.8" fill="#f87171" rx="1"/>
  <rect x="375.9" y="244.6" width="18.2" height="7.6" fill="#c45050" rx="1"/>
  <rect x="375.9" y="232.8" width="18.2" height="11.8" fill="#f87171" rx="1"/>
  <rect x="394.1" y="245.1" width="18.2" height="44.9" fill="#f59e0b" rx="1"/>
  <rect x="394.1" y="237.6" width="18.2" height="7.5" fill="#c47d08" rx="1"/>
  <rect x="394.1" y="227.8" width="18.2" height="9.8" fill="#f59e0b" rx="1"/>
  <rect x="412.2" y="237.3" width="18.2" height="52.7" fill="#4ade80" rx="1"/>
  <rect x="412.2" y="229.8" width="18.2" height="7.5" fill="#3aaf60" rx="1"/>
  <rect x="412.2" y="217.6" width="18.2" height="12.2" fill="#4ade80" rx="1"/>
  <text x="394.1" y="306" text-anchor="middle" fill="#e6edf3" font-size="10" font-weight="600">66k_JSON</text>
  <text x="394.1" y="318" text-anchor="middle" fill="#7d8590" font-size="9">67 KB</text>
  <rect x="454.6" y="183.4" width="18.2" height="106.6" fill="#60a5fa" rx="1"/>
  <rect x="454.6" y="162.7" width="18.2" height="20.7" fill="#4680c4" rx="1"/>
  <rect x="454.6" y="147.9" width="18.2" height="14.8" fill="#60a5fa" rx="1"/>
  <rect x="472.8" y="179.5" width="18.2" height="110.5" fill="#f87171" rx="1"/>
  <rect x="472.8" y="158.4" width="18.2" height="21.1" fill="#c45050" rx="1"/>
  <rect x="472.8" y="140.6" width="18.2" height="17.8" fill="#f87171" rx="1"/>
  <rect x="490.9" y="170.4" width="18.2" height="119.6" fill="#f59e0b" rx="1"/>
  <rect x="490.9" y="149.7" width="18.2" height="20.7" fill="#c47d08" rx="1"/>
  <rect x="490.9" y="135.3" width="18.2" height="14.4" fill="#f59e0b" rx="1"/>
  <rect x="509.1" y="145.8" width="18.2" height="144.2" fill="#4ade80" rx="1"/>
  <rect x="509.1" y="125.1" width="18.2" height="20.7" fill="#3aaf60" rx="1"/>
  <rect x="509.1" y="104.3" width="18.2" height="20.8" fill="#4ade80" rx="1"/>
  <text x="490.9" y="306" text-anchor="middle" fill="#e6edf3" font-size="10" font-weight="600">dickens</text>
  <text x="490.9" y="318" text-anchor="middle" fill="#7d8590" font-size="9">10.2 MB</text>
  <rect x="551.5" y="263.9" width="18.2" height="26.1" fill="#60a5fa" rx="1"/>
  <rect x="551.5" y="260.3" width="18.2" height="3.6" fill="#4680c4" rx="1"/>
  <rect x="551.5" y="253.5" width="18.2" height="6.8" fill="#60a5fa" rx="1"/>
  <rect x="569.6" y="262.6" width="18.2" height="27.4" fill="#f87171" rx="1"/>
  <rect x="569.6" y="259.0" width="18.2" height="3.6" fill="#c45050" rx="1"/>
  <rect x="569.6" y="251.5" width="18.2" height="7.5" fill="#f87171" rx="1"/>
  <rect x="587.8" y="259.4" width="18.2" height="30.6" fill="#f59e0b" rx="1"/>
  <rect x="587.8" y="255.8" width="18.2" height="3.6" fill="#c47d08" rx="1"/>
  <rect x="587.8" y="247.4" width="18.2" height="8.4" fill="#f59e0b" rx="1"/>
  <rect x="606.0" y="254.6" width="18.2" height="35.4" fill="#4ade80" rx="1"/>
  <rect x="606.0" y="251.0" width="18.2" height="3.6" fill="#3aaf60" rx="1"/>
  <rect x="606.0" y="241.7" width="18.2" height="9.3" fill="#4ade80" rx="1"/>
  <text x="587.8" y="306" text-anchor="middle" fill="#e6edf3" font-size="10" font-weight="600">hdfs.json</text>
  <text x="587.8" y="318" text-anchor="middle" fill="#7d8590" font-size="9">7.0 MB</text>
  <rect x="648.4" y="184.8" width="18.2" height="105.2" fill="#60a5fa" rx="1"/>
  <rect x="648.4" y="169.0" width="18.2" height="15.8" fill="#4680c4" rx="1"/>
  <rect x="648.4" y="152.3" width="18.2" height="16.7" fill="#60a5fa" rx="1"/>
  <rect x="666.5" y="183.5" width="18.2" height="106.5" fill="#f87171" rx="1"/>
  <rect x="666.5" y="167.6" width="18.2" height="15.8" fill="#c45050" rx="1"/>
  <rect x="666.5" y="148.4" width="18.2" height="19.3" fill="#f87171" rx="1"/>
  <rect x="684.7" y="180.5" width="18.2" height="109.5" fill="#f59e0b" rx="1"/>
  <rect x="684.7" y="164.7" width="18.2" height="15.8" fill="#c47d08" rx="1"/>
  <rect x="684.7" y="148.7" width="18.2" height="16.0" fill="#f59e0b" rx="1"/>
  <rect x="702.9" y="158.6" width="18.2" height="131.4" fill="#4ade80" rx="1"/>
  <rect x="702.9" y="142.8" width="18.2" height="15.8" fill="#3aaf60" rx="1"/>
  <rect x="702.9" y="119.4" width="18.2" height="23.4" fill="#4ade80" rx="1"/>
  <text x="684.7" y="306" text-anchor="middle" fill="#e6edf3" font-size="10" font-weight="600">reymont.pdf</text>
  <text x="684.7" y="318" text-anchor="middle" fill="#7d8590" font-size="9">6.6 MB</text>
  <rect x="745.2" y="240.6" width="18.2" height="49.4" fill="#60a5fa" rx="1"/>
  <rect x="745.2" y="233.0" width="18.2" height="7.6" fill="#4680c4" rx="1"/>
  <rect x="745.2" y="220.8" width="18.2" height="12.3" fill="#60a5fa" rx="1"/>
  <rect x="763.4" y="239.5" width="18.2" height="50.5" fill="#f87171" rx="1"/>
  <rect x="763.4" y="231.8" width="18.2" height="7.6" fill="#c45050" rx="1"/>
  <rect x="763.4" y="218.4" width="18.2" height="13.5" fill="#f87171" rx="1"/>
  <rect x="781.6" y="236.4" width="18.2" height="53.6" fill="#f59e0b" rx="1"/>
  <rect x="781.6" y="228.8" width="18.2" height="7.6" fill="#c47d08" rx="1"/>
  <rect x="781.6" y="215.0" width="18.2" height="13.8" fill="#f59e0b" rx="1"/>
  <rect x="799.7" y="226.4" width="18.2" height="63.6" fill="#4ade80" rx="1"/>
  <rect x="799.7" y="218.8" width="18.2" height="7.6" fill="#3aaf60" rx="1"/>
  <rect x="799.7" y="202.5" width="18.2" height="16.3" fill="#4ade80" rx="1"/>
  <text x="781.6" y="306" text-anchor="middle" fill="#e6edf3" font-size="10" font-weight="600">xml_collection.xml</text>
  <text x="781.6" y="318" text-anchor="middle" fill="#7d8590" font-size="9">5.3 MB</text>
  <line x1="55" y1="534.2" x2="830" y2="534.2" stroke="#21262d" stroke-width="1"/>
  <text x="47" y="534.2" text-anchor="end" dominant-baseline="middle" fill="#7d8590" font-size="10">2</text>
  <line x1="55" y1="468.5" x2="830" y2="468.5" stroke="#21262d" stroke-width="1"/>
  <text x="47" y="468.5" text-anchor="end" dominant-baseline="middle" fill="#7d8590" font-size="10">4</text>
  <line x1="55" y1="402.7" x2="830" y2="402.7" stroke="#21262d" stroke-width="1"/>
  <text x="47" y="402.7" text-anchor="end" dominant-baseline="middle" fill="#7d8590" font-size="10">6</text>
  <line x1="55" y1="600" x2="830" y2="600" stroke="#30363d" stroke-width="1.5"/>
  <rect x="67.1" y="533.4" width="18.2" height="66.6" fill="#60a5fa" rx="1"/>
  <rect x="67.1" y="515.4" width="18.2" height="17.9" fill="#4680c4" rx="1"/>
  <rect x="67.1" y="503.0" width="18.2" height="12.4" fill="#60a5fa" rx="1"/>
  <rect x="85.3" y="545.7" width="18.2" height="54.3" fill="#f87171" rx="1"/>
  <rect x="85.3" y="527.3" width="18.2" height="18.4" fill="#c45050" rx="1"/>
  <rect x="85.3" y="514.1" width="18.2" height="13.2" fill="#f87171" rx="1"/>
  <rect x="103.4" y="532.0" width="18.2" height="68.0" fill="#f59e0b" rx="1"/>
  <rect x="103.4" y="514.0" width="18.2" height="18.0" fill="#c47d08" rx="1"/>
  <rect x="103.4" y="499.6" width="18.2" height="14.4" fill="#f59e0b" rx="1"/>
  <rect x="121.6" y="516.8" width="18.2" height="83.2" fill="#4ade80" rx="1"/>
  <rect x="121.6" y="498.8" width="18.2" height="18.0" fill="#3aaf60" rx="1"/>
  <rect x="121.6" y="481.8" width="18.2" height="17.0" fill="#4ade80" rx="1"/>
  <text x="103.4" y="616" text-anchor="middle" fill="#e6edf3" font-size="10" font-weight="600">mr</text>
  <text x="103.4" y="628" text-anchor="middle" fill="#7d8590" font-size="9">10.0 MB</text>
  <rect x="164.0" y="535.8" width="18.2" height="64.2" fill="#60a5fa" rx="1"/>
  <rect x="164.0" y="518.9" width="18.2" height="17.0" fill="#4680c4" rx="1"/>
  <rect x="164.0" y="505.5" width="18.2" height="13.3" fill="#60a5fa" rx="1"/>
  <rect x="182.1" y="537.1" width="18.2" height="62.9" fill="#f87171" rx="1"/>
  <rect x="182.1" y="519.8" width="18.2" height="17.3" fill="#c45050" rx="1"/>
  <rect x="182.1" y="504.0" width="18.2" height="15.8" fill="#f87171" rx="1"/>
  <rect x="200.3" y="528.7" width="18.2" height="71.3" fill="#f59e0b" rx="1"/>
  <rect x="200.3" y="511.7" width="18.2" height="17.0" fill="#c47d08" rx="1"/>
  <rect x="200.3" y="496.3" width="18.2" height="15.4" fill="#f59e0b" rx="1"/>
  <rect x="218.5" y="512.6" width="18.2" height="87.4" fill="#4ade80" rx="1"/>
  <rect x="218.5" y="495.6" width="18.2" height="17.0" fill="#3aaf60" rx="1"/>
  <rect x="218.5" y="477.1" width="18.2" height="18.5" fill="#4ade80" rx="1"/>
  <text x="200.3" y="616" text-anchor="middle" fill="#e6edf3" font-size="10" font-weight="600">mozilla</text>
  <text x="200.3" y="628" text-anchor="middle" fill="#7d8590" font-size="9">51.2 MB</text>
  <rect x="260.9" y="560.3" width="18.2" height="39.7" fill="#60a5fa" rx="1"/>
  <rect x="260.9" y="554.9" width="18.2" height="5.4" fill="#4680c4" rx="1"/>
  <rect x="260.9" y="544.9" width="18.2" height="10.0" fill="#60a5fa" rx="1"/>
  <rect x="279.0" y="558.4" width="18.2" height="41.6" fill="#f87171" rx="1"/>
  <rect x="279.0" y="553.0" width="18.2" height="5.4" fill="#c45050" rx="1"/>
  <rect x="279.0" y="542.0" width="18.2" height="10.9" fill="#f87171" rx="1"/>
  <rect x="297.2" y="556.0" width="18.2" height="44.0" fill="#f59e0b" rx="1"/>
  <rect x="297.2" y="550.6" width="18.2" height="5.4" fill="#c47d08" rx="1"/>
  <rect x="297.2" y="537.5" width="18.2" height="13.1" fill="#f59e0b" rx="1"/>
  <rect x="315.4" y="547.7" width="18.2" height="52.3" fill="#4ade80" rx="1"/>
  <rect x="315.4" y="542.3" width="18.2" height="5.4" fill="#3aaf60" rx="1"/>
  <rect x="315.4" y="527.9" width="18.2" height="14.4" fill="#4ade80" rx="1"/>
  <text x="297.2" y="616" text-anchor="middle" fill="#e6edf3" font-size="10" font-weight="600">nci</text>
  <text x="297.2" y="628" text-anchor="middle" fill="#7d8590" font-size="9">33.6 MB</text>
  <rect x="357.7" y="525.8" width="18.2" height="74.2" fill="#60a5fa" rx="1"/>
  <rect x="357.7" y="508.6" width="18.2" height="17.1" fill="#4680c4" rx="1"/>
  <rect x="357.7" y="494.5" width="18.2" height="14.1" fill="#60a5fa" rx="1"/>
  <rect x="375.9" y="529.1" width="18.2" height="70.9" fill="#f87171" rx="1"/>
  <rect x="375.9" y="510.5" width="18.2" height="18.6" fill="#c45050" rx="1"/>
  <rect x="375.9" y="493.4" width="18.2" height="17.1" fill="#f87171" rx="1"/>
  <rect x="394.1" y="515.2" width="18.2" height="84.8" fill="#f59e0b" rx="1"/>
  <rect x="394.1" y="498.0" width="18.2" height="17.2" fill="#c47d08" rx="1"/>
  <rect x="394.1" y="481.6" width="18.2" height="16.4" fill="#f59e0b" rx="1"/>
  <rect x="412.2" y="499.0" width="18.2" height="101.0" fill="#4ade80" rx="1"/>
  <rect x="412.2" y="481.8" width="18.2" height="17.2" fill="#3aaf60" rx="1"/>
  <rect x="412.2" y="462.5" width="18.2" height="19.3" fill="#4ade80" rx="1"/>
  <text x="394.1" y="616" text-anchor="middle" fill="#e6edf3" font-size="10" font-weight="600">osdb</text>
  <text x="394.1" y="628" text-anchor="middle" fill="#7d8590" font-size="9">10.1 MB</text>
  <rect x="454.6" y="537.5" width="18.2" height="62.5" fill="#60a5fa" rx="1"/>
  <rect x="454.6" y="525.8" width="18.2" height="11.7" fill="#4680c4" rx="1"/>
  <rect x="454.6" y="513.3" width="18.2" height="12.5" fill="#60a5fa" rx="1"/>
  <rect x="472.8" y="535.6" width="18.2" height="64.4" fill="#f87171" rx="1"/>
  <rect x="472.8" y="523.8" width="18.2" height="11.9" fill="#c45050" rx="1"/>
  <rect x="472.8" y="509.6" width="18.2" height="14.2" fill="#f87171" rx="1"/>
  <rect x="490.9" y="532.1" width="18.2" height="67.9" fill="#f59e0b" rx="1"/>
  <rect x="490.9" y="520.4" width="18.2" height="11.7" fill="#c47d08" rx="1"/>
  <rect x="490.9" y="506.2" width="18.2" height="14.1" fill="#f59e0b" rx="1"/>
  <rect x="509.1" y="519.5" width="18.2" height="80.5" fill="#4ade80" rx="1"/>
  <rect x="509.1" y="507.7" width="18.2" height="11.7" fill="#3aaf60" rx="1"/>
  <rect x="509.1" y="490.4" width="18.2" height="17.4" fill="#4ade80" rx="1"/>
  <text x="490.9" y="616" text-anchor="middle" fill="#e6edf3" font-size="10" font-weight="600">samba</text>
  <text x="490.9" y="628" text-anchor="middle" fill="#7d8590" font-size="9">21.6 MB</text>
  <rect x="551.5" y="526.8" width="18.2" height="73.2" fill="#60a5fa" rx="1"/>
  <rect x="551.5" y="496.0" width="18.2" height="30.8" fill="#4680c4" rx="1"/>
  <rect x="551.5" y="484.1" width="18.2" height="11.9" fill="#60a5fa" rx="1"/>
  <rect x="569.6" y="563.3" width="18.2" height="36.7" fill="#f87171" rx="1"/>
  <rect x="569.6" y="531.6" width="18.2" height="31.8" fill="#c45050" rx="1"/>
  <rect x="569.6" y="522.3" width="18.2" height="9.3" fill="#f87171" rx="1"/>
  <rect x="587.8" y="521.4" width="18.2" height="78.6" fill="#f59e0b" rx="1"/>
  <rect x="587.8" y="490.5" width="18.2" height="30.9" fill="#c47d08" rx="1"/>
  <rect x="587.8" y="477.3" width="18.2" height="13.2" fill="#f59e0b" rx="1"/>
  <rect x="606.0" y="502.8" width="18.2" height="97.2" fill="#4ade80" rx="1"/>
  <rect x="606.0" y="471.9" width="18.2" height="30.9" fill="#3aaf60" rx="1"/>
  <rect x="606.0" y="456.9" width="18.2" height="15.0" fill="#4ade80" rx="1"/>
  <text x="587.8" y="616" text-anchor="middle" fill="#e6edf3" font-size="10" font-weight="600">sao</text>
  <text x="587.8" y="628" text-anchor="middle" fill="#7d8590" font-size="9">7.3 MB</text>
  <rect x="648.4" y="507.0" width="18.2" height="93.0" fill="#60a5fa" rx="1"/>
  <rect x="648.4" y="491.0" width="18.2" height="16.0" fill="#4680c4" rx="1"/>
  <rect x="648.4" y="475.8" width="18.2" height="15.2" fill="#60a5fa" rx="1"/>
  <rect x="666.5" y="503.3" width="18.2" height="96.7" fill="#f87171" rx="1"/>
  <rect x="666.5" y="487.1" width="18.2" height="16.2" fill="#c45050" rx="1"/>
  <rect x="666.5" y="469.5" width="18.2" height="17.6" fill="#f87171" rx="1"/>
  <rect x="684.7" y="496.9" width="18.2" height="103.1" fill="#f59e0b" rx="1"/>
  <rect x="684.7" y="480.9" width="18.2" height="16.0" fill="#c47d08" rx="1"/>
  <rect x="684.7" y="464.6" width="18.2" height="16.4" fill="#f59e0b" rx="1"/>
  <rect x="702.9" y="477.3" width="18.2" height="122.7" fill="#4ade80" rx="1"/>
  <rect x="702.9" y="461.3" width="18.2" height="16.0" fill="#3aaf60" rx="1"/>
  <rect x="702.9" y="439.7" width="18.2" height="21.6" fill="#4ade80" rx="1"/>
  <text x="684.7" y="616" text-anchor="middle" fill="#e6edf3" font-size="10" font-weight="600">webster</text>
  <text x="684.7" y="628" text-anchor="middle" fill="#7d8590" font-size="9">41.5 MB</text>
  <rect x="745.2" y="572.9" width="18.2" height="27.1" fill="#60a5fa" rx="1"/>
  <rect x="745.2" y="540.3" width="18.2" height="32.6" fill="#4680c4" rx="1"/>
  <rect x="745.2" y="535.5" width="18.2" height="4.8" fill="#60a5fa" rx="1"/>
  <rect x="763.4" y="596.4" width="18.2" height="3.6" fill="#f87171" rx="1"/>
  <rect x="763.4" y="563.4" width="18.2" height="33.0" fill="#c45050" rx="1"/>
  <rect x="763.4" y="560.6" width="18.2" height="2.8" fill="#f87171" rx="1"/>
  <rect x="781.6" y="577.4" width="18.2" height="22.6" fill="#f59e0b" rx="1"/>
  <rect x="781.6" y="544.7" width="18.2" height="32.7" fill="#c47d08" rx="1"/>
  <rect x="781.6" y="540.4" width="18.2" height="4.3" fill="#f59e0b" rx="1"/>
  <rect x="799.7" y="573.1" width="18.2" height="26.9" fill="#4ade80" rx="1"/>
  <rect x="799.7" y="540.4" width="18.2" height="32.7" fill="#3aaf60" rx="1"/>
  <rect x="799.7" y="536.0" width="18.2" height="4.5" fill="#4ade80" rx="1"/>
  <text x="781.6" y="616" text-anchor="middle" fill="#e6edf3" font-size="10" font-weight="600">x-ray</text>
  <text x="781.6" y="628" text-anchor="middle" fill="#7d8590" font-size="9">8.5 MB</text>
  <rect x="242" y="645" width="12" height="12" fill="#60a5fa" rx="2"/>
  <text x="260" y="655" fill="#e6edf3" font-size="10" font-weight="500">lz4 (C)</text>
  <rect x="242" y="663" width="12" height="12" fill="#f87171" rx="2"/>
  <text x="260" y="673" fill="#e6edf3" font-size="10" font-weight="500">lz4rip (safe Rust)</text>
  <rect x="452" y="645" width="12" height="12" fill="#f59e0b" rx="2"/>
  <text x="470" y="655" fill="#e6edf3" font-size="10" font-weight="500">lz4_flex (unsafe Rust)</text>
  <rect x="452" y="663" width="12" height="12" fill="#4ade80" rx="2"/>
  <text x="470" y="673" fill="#e6edf3" font-size="10" font-weight="500">lz4_flex (safe Rust)</text>
  <text x="232" y="698" fill="#e6edf3" font-size="9">bright = compress + decompress</text>
  <text x="472" y="698" fill="#7d8590" font-size="9">dim = transfer @1 GB/s</text>
</svg>
