<svg xmlns="http://www.w3.org/2000/svg" viewBox="0 0 850 720" font-family="system-ui, -apple-system, sans-serif">
  <rect width="850" height="720" fill="#0d1117"/>
  <text x="442.5" y="22" text-anchor="middle" fill="#e6edf3" font-size="14" font-weight="700">LZ4 Block: Compress + Transfer @1 GB/s + Decompress (lower is better)</text>
  <text x="442.5" y="38" text-anchor="middle" fill="#7d8590" font-size="10">Intel Core i7-8700B @ 3.20GHz, performance governor, turbo off</text>
  <line x1="55" y1="224.6" x2="830" y2="224.6" stroke="#21262d" stroke-width="1"/>
  <text x="47" y="224.6" text-anchor="end" dominant-baseline="middle" fill="#7d8590" font-size="10">2</text>
  <line x1="55" y1="159.2" x2="830" y2="159.2" stroke="#21262d" stroke-width="1"/>
  <text x="47" y="159.2" text-anchor="end" dominant-baseline="middle" fill="#7d8590" font-size="10">4</text>
  <line x1="55" y1="93.9" x2="830" y2="93.9" stroke="#21262d" stroke-width="1"/>
  <text x="47" y="93.9" text-anchor="end" dominant-baseline="middle" fill="#7d8590" font-size="10">6</text>
  <line x1="55" y1="290" x2="830" y2="290" stroke="#30363d" stroke-width="1.5"/>
  <text x="22" y="325.0" text-anchor="middle" fill="#e6edf3" font-size="11" font-weight="600" transform="rotate(-90,22,325.0)">seconds / GB</text>
  <rect x="67.1" y="192.0" width="18.2" height="98.0" fill="#60a5fa" rx="1"/>
  <rect x="67.1" y="166.9" width="18.2" height="25.1" fill="#4680c4" rx="1"/>
  <rect x="67.1" y="114.8" width="18.2" height="52.0" fill="#60a5fa" rx="1"/>
  <rect x="85.3" y="204.2" width="18.2" height="85.8" fill="#f87171" rx="1"/>
  <rect x="85.3" y="177.5" width="18.2" height="26.6" fill="#c45050" rx="1"/>
  <rect x="85.3" y="126.9" width="18.2" height="50.6" fill="#f87171" rx="1"/>
  <rect x="103.4" y="179.3" width="18.2" height="110.7" fill="#f59e0b" rx="1"/>
  <rect x="103.4" y="154.2" width="18.2" height="25.2" fill="#c47d08" rx="1"/>
  <rect x="103.4" y="102.5" width="18.2" height="51.6" fill="#f59e0b" rx="1"/>
  <rect x="121.6" y="152.3" width="18.2" height="137.7" fill="#4ade80" rx="1"/>
  <rect x="121.6" y="127.2" width="18.2" height="25.2" fill="#3aaf60" rx="1"/>
  <rect x="121.6" y="71.8" width="18.2" height="55.3" fill="#4ade80" rx="1"/>
  <text x="103.4" y="306" text-anchor="middle" fill="#e6edf3" font-size="10" font-weight="600">1k</text>
  <text x="103.4" y="318" text-anchor="middle" fill="#7d8590" font-size="9">725 B</text>
  <rect x="164.0" y="200.4" width="18.2" height="89.6" fill="#60a5fa" rx="1"/>
  <rect x="164.0" y="181.7" width="18.2" height="18.7" fill="#4680c4" rx="1"/>
  <rect x="164.0" y="163.2" width="18.2" height="18.5" fill="#60a5fa" rx="1"/>
  <rect x="182.1" y="200.7" width="18.2" height="89.3" fill="#f87171" rx="1"/>
  <rect x="182.1" y="181.5" width="18.2" height="19.1" fill="#c45050" rx="1"/>
  <rect x="182.1" y="165.4" width="18.2" height="16.1" fill="#f87171" rx="1"/>
  <rect x="200.3" y="187.6" width="18.2" height="102.4" fill="#f59e0b" rx="1"/>
  <rect x="200.3" y="168.7" width="18.2" height="19.0" fill="#c47d08" rx="1"/>
  <rect x="200.3" y="151.7" width="18.2" height="17.0" fill="#f59e0b" rx="1"/>
  <rect x="218.5" y="155.7" width="18.2" height="134.3" fill="#4ade80" rx="1"/>
  <rect x="218.5" y="136.8" width="18.2" height="19.0" fill="#3aaf60" rx="1"/>
  <rect x="218.5" y="114.4" width="18.2" height="22.4" fill="#4ade80" rx="1"/>
  <text x="200.3" y="306" text-anchor="middle" fill="#e6edf3" font-size="10" font-weight="600">34k</text>
  <text x="200.3" y="318" text-anchor="middle" fill="#7d8590" font-size="9">34 KB</text>
  <rect x="260.9" y="186.7" width="18.2" height="103.3" fill="#60a5fa" rx="1"/>
  <rect x="260.9" y="168.4" width="18.2" height="18.3" fill="#4680c4" rx="1"/>
  <rect x="260.9" y="151.0" width="18.2" height="17.4" fill="#60a5fa" rx="1"/>
  <rect x="279.0" y="202.0" width="18.2" height="88.0" fill="#f87171" rx="1"/>
  <rect x="279.0" y="182.8" width="18.2" height="19.2" fill="#c45050" rx="1"/>
  <rect x="279.0" y="167.8" width="18.2" height="15.0" fill="#f87171" rx="1"/>
  <rect x="297.2" y="178.5" width="18.2" height="111.5" fill="#f59e0b" rx="1"/>
  <rect x="297.2" y="159.7" width="18.2" height="18.8" fill="#c47d08" rx="1"/>
  <rect x="297.2" y="144.0" width="18.2" height="15.8" fill="#f59e0b" rx="1"/>
  <rect x="315.4" y="152.3" width="18.2" height="137.7" fill="#4ade80" rx="1"/>
  <rect x="315.4" y="133.5" width="18.2" height="18.8" fill="#3aaf60" rx="1"/>
  <rect x="315.4" y="112.6" width="18.2" height="20.9" fill="#4ade80" rx="1"/>
  <text x="297.2" y="306" text-anchor="middle" fill="#e6edf3" font-size="10" font-weight="600">65k</text>
  <text x="297.2" y="318" text-anchor="middle" fill="#7d8590" font-size="9">65 KB</text>
  <rect x="357.7" y="254.9" width="18.2" height="35.1" fill="#60a5fa" rx="1"/>
  <rect x="357.7" y="247.5" width="18.2" height="7.5" fill="#4680c4" rx="1"/>
  <rect x="357.7" y="239.2" width="18.2" height="8.3" fill="#60a5fa" rx="1"/>
  <rect x="375.9" y="252.7" width="18.2" height="37.3" fill="#f87171" rx="1"/>
  <rect x="375.9" y="245.0" width="18.2" height="7.7" fill="#c45050" rx="1"/>
  <rect x="375.9" y="233.1" width="18.2" height="11.9" fill="#f87171" rx="1"/>
  <rect x="394.1" y="246.0" width="18.2" height="44.0" fill="#f59e0b" rx="1"/>
  <rect x="394.1" y="238.5" width="18.2" height="7.5" fill="#c47d08" rx="1"/>
  <rect x="394.1" y="229.1" width="18.2" height="9.4" fill="#f59e0b" rx="1"/>
  <rect x="412.2" y="238.0" width="18.2" height="52.0" fill="#4ade80" rx="1"/>
  <rect x="412.2" y="230.5" width="18.2" height="7.5" fill="#3aaf60" rx="1"/>
  <rect x="412.2" y="219.3" width="18.2" height="11.2" fill="#4ade80" rx="1"/>
  <text x="394.1" y="306" text-anchor="middle" fill="#e6edf3" font-size="10" font-weight="600">66k_JSON</text>
  <text x="394.1" y="318" text-anchor="middle" fill="#7d8590" font-size="9">67 KB</text>
  <rect x="454.6" y="183.9" width="18.2" height="106.1" fill="#60a5fa" rx="1"/>
  <rect x="454.6" y="163.2" width="18.2" height="20.6" fill="#4680c4" rx="1"/>
  <rect x="454.6" y="148.3" width="18.2" height="15.0" fill="#60a5fa" rx="1"/>
  <rect x="472.8" y="197.2" width="18.2" height="92.8" fill="#f87171" rx="1"/>
  <rect x="472.8" y="173.9" width="18.2" height="23.4" fill="#c45050" rx="1"/>
  <rect x="472.8" y="156.0" width="18.2" height="17.9" fill="#f87171" rx="1"/>
  <rect x="490.9" y="177.9" width="18.2" height="112.1" fill="#f59e0b" rx="1"/>
  <rect x="490.9" y="157.3" width="18.2" height="20.6" fill="#c47d08" rx="1"/>
  <rect x="490.9" y="142.8" width="18.2" height="14.5" fill="#f59e0b" rx="1"/>
  <rect x="509.1" y="149.9" width="18.2" height="140.1" fill="#4ade80" rx="1"/>
  <rect x="509.1" y="129.2" width="18.2" height="20.6" fill="#3aaf60" rx="1"/>
  <rect x="509.1" y="111.1" width="18.2" height="18.2" fill="#4ade80" rx="1"/>
  <text x="490.9" y="306" text-anchor="middle" fill="#e6edf3" font-size="10" font-weight="600">dickens</text>
  <text x="490.9" y="318" text-anchor="middle" fill="#7d8590" font-size="9">10.2 MB</text>
  <rect x="551.5" y="263.9" width="18.2" height="26.1" fill="#60a5fa" rx="1"/>
  <rect x="551.5" y="260.3" width="18.2" height="3.6" fill="#4680c4" rx="1"/>
  <rect x="551.5" y="253.5" width="18.2" height="6.8" fill="#60a5fa" rx="1"/>
  <rect x="569.6" y="264.4" width="18.2" height="25.6" fill="#f87171" rx="1"/>
  <rect x="569.6" y="260.7" width="18.2" height="3.7" fill="#c45050" rx="1"/>
  <rect x="569.6" y="253.2" width="18.2" height="7.5" fill="#f87171" rx="1"/>
  <rect x="587.8" y="259.3" width="18.2" height="30.7" fill="#f59e0b" rx="1"/>
  <rect x="587.8" y="255.7" width="18.2" height="3.6" fill="#c47d08" rx="1"/>
  <rect x="587.8" y="247.2" width="18.2" height="8.5" fill="#f59e0b" rx="1"/>
  <rect x="606.0" y="254.9" width="18.2" height="35.1" fill="#4ade80" rx="1"/>
  <rect x="606.0" y="251.3" width="18.2" height="3.6" fill="#3aaf60" rx="1"/>
  <rect x="606.0" y="242.3" width="18.2" height="9.1" fill="#4ade80" rx="1"/>
  <text x="587.8" y="306" text-anchor="middle" fill="#e6edf3" font-size="10" font-weight="600">hdfs.json</text>
  <text x="587.8" y="318" text-anchor="middle" fill="#7d8590" font-size="9">7.0 MB</text>
  <rect x="648.4" y="185.3" width="18.2" height="104.7" fill="#60a5fa" rx="1"/>
  <rect x="648.4" y="169.6" width="18.2" height="15.7" fill="#4680c4" rx="1"/>
  <rect x="648.4" y="152.9" width="18.2" height="16.6" fill="#60a5fa" rx="1"/>
  <rect x="666.5" y="185.4" width="18.2" height="104.6" fill="#f87171" rx="1"/>
  <rect x="666.5" y="168.8" width="18.2" height="16.6" fill="#c45050" rx="1"/>
  <rect x="666.5" y="150.1" width="18.2" height="18.7" fill="#f87171" rx="1"/>
  <rect x="684.7" y="183.9" width="18.2" height="106.1" fill="#f59e0b" rx="1"/>
  <rect x="684.7" y="168.2" width="18.2" height="15.7" fill="#c47d08" rx="1"/>
  <rect x="684.7" y="152.2" width="18.2" height="16.0" fill="#f59e0b" rx="1"/>
  <rect x="702.9" y="166.4" width="18.2" height="123.6" fill="#4ade80" rx="1"/>
  <rect x="702.9" y="150.7" width="18.2" height="15.7" fill="#3aaf60" rx="1"/>
  <rect x="702.9" y="129.8" width="18.2" height="20.9" fill="#4ade80" rx="1"/>
  <text x="684.7" y="306" text-anchor="middle" fill="#e6edf3" font-size="10" font-weight="600">reymont.pdf</text>
  <text x="684.7" y="318" text-anchor="middle" fill="#7d8590" font-size="9">6.6 MB</text>
  <rect x="745.2" y="241.4" width="18.2" height="48.6" fill="#60a5fa" rx="1"/>
  <rect x="745.2" y="233.8" width="18.2" height="7.6" fill="#4680c4" rx="1"/>
  <rect x="745.2" y="221.6" width="18.2" height="12.2" fill="#60a5fa" rx="1"/>
  <rect x="763.4" y="241.8" width="18.2" height="48.2" fill="#f87171" rx="1"/>
  <rect x="763.4" y="233.7" width="18.2" height="8.0" fill="#c45050" rx="1"/>
  <rect x="763.4" y="220.3" width="18.2" height="13.4" fill="#f87171" rx="1"/>
  <rect x="781.6" y="238.9" width="18.2" height="51.1" fill="#f59e0b" rx="1"/>
  <rect x="781.6" y="231.3" width="18.2" height="7.6" fill="#c47d08" rx="1"/>
  <rect x="781.6" y="217.7" width="18.2" height="13.6" fill="#f59e0b" rx="1"/>
  <rect x="799.7" y="230.2" width="18.2" height="59.8" fill="#4ade80" rx="1"/>
  <rect x="799.7" y="222.7" width="18.2" height="7.6" fill="#3aaf60" rx="1"/>
  <rect x="799.7" y="207.3" width="18.2" height="15.4" fill="#4ade80" rx="1"/>
  <text x="781.6" y="306" text-anchor="middle" fill="#e6edf3" font-size="10" font-weight="600">xml_collection.xml</text>
  <text x="781.6" y="318" text-anchor="middle" fill="#7d8590" font-size="9">5.3 MB</text>
  <line x1="55" y1="534.6" x2="830" y2="534.6" stroke="#21262d" stroke-width="1"/>
  <text x="47" y="534.6" text-anchor="end" dominant-baseline="middle" fill="#7d8590" font-size="10">2</text>
  <line x1="55" y1="469.2" x2="830" y2="469.2" stroke="#21262d" stroke-width="1"/>
  <text x="47" y="469.2" text-anchor="end" dominant-baseline="middle" fill="#7d8590" font-size="10">4</text>
  <line x1="55" y1="403.9" x2="830" y2="403.9" stroke="#21262d" stroke-width="1"/>
  <text x="47" y="403.9" text-anchor="end" dominant-baseline="middle" fill="#7d8590" font-size="10">6</text>
  <line x1="55" y1="600" x2="830" y2="600" stroke="#30363d" stroke-width="1.5"/>
  <rect x="67.1" y="534.1" width="18.2" height="65.9" fill="#60a5fa" rx="1"/>
  <rect x="67.1" y="516.3" width="18.2" height="17.8" fill="#4680c4" rx="1"/>
  <rect x="67.1" y="503.9" width="18.2" height="12.3" fill="#60a5fa" rx="1"/>
  <rect x="85.3" y="555.3" width="18.2" height="44.7" fill="#f87171" rx="1"/>
  <rect x="85.3" y="536.1" width="18.2" height="19.2" fill="#c45050" rx="1"/>
  <rect x="85.3" y="524.0" width="18.2" height="12.1" fill="#f87171" rx="1"/>
  <rect x="103.4" y="532.5" width="18.2" height="67.5" fill="#f59e0b" rx="1"/>
  <rect x="103.4" y="514.6" width="18.2" height="17.9" fill="#c47d08" rx="1"/>
  <rect x="103.4" y="500.7" width="18.2" height="13.9" fill="#f59e0b" rx="1"/>
  <rect x="121.6" y="519.8" width="18.2" height="80.2" fill="#4ade80" rx="1"/>
  <rect x="121.6" y="501.9" width="18.2" height="17.9" fill="#3aaf60" rx="1"/>
  <rect x="121.6" y="486.4" width="18.2" height="15.5" fill="#4ade80" rx="1"/>
  <text x="103.4" y="616" text-anchor="middle" fill="#e6edf3" font-size="10" font-weight="600">mr</text>
  <text x="103.4" y="628" text-anchor="middle" fill="#7d8590" font-size="9">10.0 MB</text>
  <rect x="164.0" y="536.2" width="18.2" height="63.8" fill="#60a5fa" rx="1"/>
  <rect x="164.0" y="519.3" width="18.2" height="16.9" fill="#4680c4" rx="1"/>
  <rect x="164.0" y="506.2" width="18.2" height="13.1" fill="#60a5fa" rx="1"/>
  <rect x="182.1" y="543.7" width="18.2" height="56.3" fill="#f87171" rx="1"/>
  <rect x="182.1" y="525.9" width="18.2" height="17.8" fill="#c45050" rx="1"/>
  <rect x="182.1" y="510.4" width="18.2" height="15.5" fill="#f87171" rx="1"/>
  <rect x="200.3" y="530.9" width="18.2" height="69.1" fill="#f59e0b" rx="1"/>
  <rect x="200.3" y="514.0" width="18.2" height="16.9" fill="#c47d08" rx="1"/>
  <rect x="200.3" y="498.8" width="18.2" height="15.1" fill="#f59e0b" rx="1"/>
  <rect x="218.5" y="516.4" width="18.2" height="83.6" fill="#4ade80" rx="1"/>
  <rect x="218.5" y="499.5" width="18.2" height="16.9" fill="#3aaf60" rx="1"/>
  <rect x="218.5" y="482.4" width="18.2" height="17.1" fill="#4ade80" rx="1"/>
  <text x="200.3" y="616" text-anchor="middle" fill="#e6edf3" font-size="10" font-weight="600">mozilla</text>
  <text x="200.3" y="628" text-anchor="middle" fill="#7d8590" font-size="9">51.2 MB</text>
  <rect x="260.9" y="560.9" width="18.2" height="39.1" fill="#60a5fa" rx="1"/>
  <rect x="260.9" y="555.5" width="18.2" height="5.4" fill="#4680c4" rx="1"/>
  <rect x="260.9" y="545.9" width="18.2" height="9.6" fill="#60a5fa" rx="1"/>
  <rect x="279.0" y="559.6" width="18.2" height="40.4" fill="#f87171" rx="1"/>
  <rect x="279.0" y="554.0" width="18.2" height="5.6" fill="#c45050" rx="1"/>
  <rect x="279.0" y="542.8" width="18.2" height="11.1" fill="#f87171" rx="1"/>
  <rect x="297.2" y="558.1" width="18.2" height="41.9" fill="#f59e0b" rx="1"/>
  <rect x="297.2" y="552.7" width="18.2" height="5.4" fill="#c47d08" rx="1"/>
  <rect x="297.2" y="539.7" width="18.2" height="13.0" fill="#f59e0b" rx="1"/>
  <rect x="315.4" y="551.5" width="18.2" height="48.5" fill="#4ade80" rx="1"/>
  <rect x="315.4" y="546.1" width="18.2" height="5.4" fill="#3aaf60" rx="1"/>
  <rect x="315.4" y="532.6" width="18.2" height="13.5" fill="#4ade80" rx="1"/>
  <text x="297.2" y="616" text-anchor="middle" fill="#e6edf3" font-size="10" font-weight="600">nci</text>
  <text x="297.2" y="628" text-anchor="middle" fill="#7d8590" font-size="9">33.6 MB</text>
  <rect x="357.7" y="526.0" width="18.2" height="74.0" fill="#60a5fa" rx="1"/>
  <rect x="357.7" y="509.0" width="18.2" height="17.0" fill="#4680c4" rx="1"/>
  <rect x="357.7" y="495.1" width="18.2" height="13.9" fill="#60a5fa" rx="1"/>
  <rect x="375.9" y="540.8" width="18.2" height="59.2" fill="#f87171" rx="1"/>
  <rect x="375.9" y="518.2" width="18.2" height="22.6" fill="#c45050" rx="1"/>
  <rect x="375.9" y="500.5" width="18.2" height="17.7" fill="#f87171" rx="1"/>
  <rect x="394.1" y="516.8" width="18.2" height="83.2" fill="#f59e0b" rx="1"/>
  <rect x="394.1" y="499.7" width="18.2" height="17.1" fill="#c47d08" rx="1"/>
  <rect x="394.1" y="483.7" width="18.2" height="16.0" fill="#f59e0b" rx="1"/>
  <rect x="412.2" y="501.9" width="18.2" height="98.1" fill="#4ade80" rx="1"/>
  <rect x="412.2" y="484.8" width="18.2" height="17.1" fill="#3aaf60" rx="1"/>
  <rect x="412.2" y="466.7" width="18.2" height="18.1" fill="#4ade80" rx="1"/>
  <text x="394.1" y="616" text-anchor="middle" fill="#e6edf3" font-size="10" font-weight="600">osdb</text>
  <text x="394.1" y="628" text-anchor="middle" fill="#7d8590" font-size="9">10.1 MB</text>
  <rect x="454.6" y="538.4" width="18.2" height="61.6" fill="#60a5fa" rx="1"/>
  <rect x="454.6" y="526.7" width="18.2" height="11.7" fill="#4680c4" rx="1"/>
  <rect x="454.6" y="514.7" width="18.2" height="12.0" fill="#60a5fa" rx="1"/>
  <rect x="472.8" y="541.2" width="18.2" height="58.8" fill="#f87171" rx="1"/>
  <rect x="472.8" y="528.7" width="18.2" height="12.5" fill="#c45050" rx="1"/>
  <rect x="472.8" y="514.4" width="18.2" height="14.3" fill="#f87171" rx="1"/>
  <rect x="490.9" y="535.5" width="18.2" height="64.5" fill="#f59e0b" rx="1"/>
  <rect x="490.9" y="523.8" width="18.2" height="11.7" fill="#c47d08" rx="1"/>
  <rect x="490.9" y="510.0" width="18.2" height="13.8" fill="#f59e0b" rx="1"/>
  <rect x="509.1" y="523.9" width="18.2" height="76.1" fill="#4ade80" rx="1"/>
  <rect x="509.1" y="512.2" width="18.2" height="11.7" fill="#3aaf60" rx="1"/>
  <rect x="509.1" y="496.3" width="18.2" height="15.9" fill="#4ade80" rx="1"/>
  <text x="490.9" y="616" text-anchor="middle" fill="#e6edf3" font-size="10" font-weight="600">samba</text>
  <text x="490.9" y="628" text-anchor="middle" fill="#7d8590" font-size="9">21.6 MB</text>
  <rect x="551.5" y="527.1" width="18.2" height="72.9" fill="#60a5fa" rx="1"/>
  <rect x="551.5" y="496.5" width="18.2" height="30.6" fill="#4680c4" rx="1"/>
  <rect x="551.5" y="484.5" width="18.2" height="11.9" fill="#60a5fa" rx="1"/>
  <rect x="569.6" y="578.9" width="18.2" height="21.1" fill="#f87171" rx="1"/>
  <rect x="569.6" y="546.7" width="18.2" height="32.2" fill="#c45050" rx="1"/>
  <rect x="569.6" y="540.5" width="18.2" height="6.2" fill="#f87171" rx="1"/>
  <rect x="587.8" y="523.7" width="18.2" height="76.3" fill="#f59e0b" rx="1"/>
  <rect x="587.8" y="493.0" width="18.2" height="30.7" fill="#c47d08" rx="1"/>
  <rect x="587.8" y="479.8" width="18.2" height="13.2" fill="#f59e0b" rx="1"/>
  <rect x="606.0" y="504.1" width="18.2" height="95.9" fill="#4ade80" rx="1"/>
  <rect x="606.0" y="473.3" width="18.2" height="30.7" fill="#3aaf60" rx="1"/>
  <rect x="606.0" y="457.5" width="18.2" height="15.8" fill="#4ade80" rx="1"/>
  <text x="587.8" y="616" text-anchor="middle" fill="#e6edf3" font-size="10" font-weight="600">sao</text>
  <text x="587.8" y="628" text-anchor="middle" fill="#7d8590" font-size="9">7.3 MB</text>
  <rect x="648.4" y="507.9" width="18.2" height="92.1" fill="#60a5fa" rx="1"/>
  <rect x="648.4" y="492.1" width="18.2" height="15.9" fill="#4680c4" rx="1"/>
  <rect x="648.4" y="477.3" width="18.2" height="14.8" fill="#60a5fa" rx="1"/>
  <rect x="666.5" y="513.8" width="18.2" height="86.2" fill="#f87171" rx="1"/>
  <rect x="666.5" y="496.3" width="18.2" height="17.5" fill="#c45050" rx="1"/>
  <rect x="666.5" y="478.7" width="18.2" height="17.7" fill="#f87171" rx="1"/>
  <rect x="684.7" y="503.0" width="18.2" height="97.0" fill="#f59e0b" rx="1"/>
  <rect x="684.7" y="487.1" width="18.2" height="15.9" fill="#c47d08" rx="1"/>
  <rect x="684.7" y="471.2" width="18.2" height="15.9" fill="#f59e0b" rx="1"/>
  <rect x="702.9" y="482.6" width="18.2" height="117.4" fill="#4ade80" rx="1"/>
  <rect x="702.9" y="466.7" width="18.2" height="15.9" fill="#3aaf60" rx="1"/>
  <rect x="702.9" y="447.2" width="18.2" height="19.5" fill="#4ade80" rx="1"/>
  <text x="684.7" y="616" text-anchor="middle" fill="#e6edf3" font-size="10" font-weight="600">webster</text>
  <text x="684.7" y="628" text-anchor="middle" fill="#7d8590" font-size="9">41.5 MB</text>
  <rect x="745.2" y="573.2" width="18.2" height="26.8" fill="#60a5fa" rx="1"/>
  <rect x="745.2" y="540.8" width="18.2" height="32.4" fill="#4680c4" rx="1"/>
  <rect x="745.2" y="536.2" width="18.2" height="4.6" fill="#60a5fa" rx="1"/>
  <rect x="763.4" y="596.1" width="18.2" height="3.9" fill="#f87171" rx="1"/>
  <rect x="763.4" y="563.3" width="18.2" height="32.8" fill="#c45050" rx="1"/>
  <rect x="763.4" y="560.4" width="18.2" height="2.9" fill="#f87171" rx="1"/>
  <rect x="781.6" y="576.9" width="18.2" height="23.1" fill="#f59e0b" rx="1"/>
  <rect x="781.6" y="544.4" width="18.2" height="32.5" fill="#c47d08" rx="1"/>
  <rect x="781.6" y="540.4" width="18.2" height="4.0" fill="#f59e0b" rx="1"/>
  <rect x="799.7" y="573.8" width="18.2" height="26.2" fill="#4ade80" rx="1"/>
  <rect x="799.7" y="541.3" width="18.2" height="32.5" fill="#3aaf60" rx="1"/>
  <rect x="799.7" y="537.2" width="18.2" height="4.1" fill="#4ade80" rx="1"/>
  <text x="781.6" y="616" text-anchor="middle" fill="#e6edf3" font-size="10" font-weight="600">x-ray</text>
  <text x="781.6" y="628" text-anchor="middle" fill="#7d8590" font-size="9">8.5 MB</text>
  <rect x="242" y="645" width="12" height="12" fill="#60a5fa" rx="2"/>
  <text x="260" y="655" fill="#e6edf3" font-size="10" font-weight="500">lz4 (C)</text>
  <rect x="242" y="663" width="12" height="12" fill="#f87171" rx="2"/>
  <text x="260" y="673" fill="#e6edf3" font-size="10" font-weight="500">lz4rip (encapsulated unsafe, Rust)</text>
  <rect x="452" y="645" width="12" height="12" fill="#f59e0b" rx="2"/>
  <text x="470" y="655" fill="#e6edf3" font-size="10" font-weight="500">lz4_flex (unsafe Rust)</text>
  <rect x="452" y="663" width="12" height="12" fill="#4ade80" rx="2"/>
  <text x="470" y="673" fill="#e6edf3" font-size="10" font-weight="500">lz4_flex (safe Rust)</text>
  <text x="232" y="698" fill="#e6edf3" font-size="9">bright = compress + decompress</text>
  <text x="472" y="698" fill="#7d8590" font-size="9">dim = transfer @1 GB/s</text>
</svg>
