<svg xmlns="http://www.w3.org/2000/svg" viewBox="0 0 850 720" font-family="system-ui, -apple-system, sans-serif">
  <rect width="850" height="720" fill="#0d1117"/>
  <text x="442.5" y="22" text-anchor="middle" fill="#e6edf3" font-size="14" font-weight="700">LZ4 Block: Compress + Transfer @1 GB/s + Decompress (lower is better)</text>
  <text x="442.5" y="38" text-anchor="middle" fill="#7d8590" font-size="10">Intel Core i7-8700B @ 3.20GHz, performance governor, turbo off</text>
  <line x1="55" y1="224.2" x2="830" y2="224.2" stroke="#21262d" stroke-width="1"/>
  <text x="47" y="224.2" text-anchor="end" dominant-baseline="middle" fill="#7d8590" font-size="10">2</text>
  <line x1="55" y1="158.4" x2="830" y2="158.4" stroke="#21262d" stroke-width="1"/>
  <text x="47" y="158.4" text-anchor="end" dominant-baseline="middle" fill="#7d8590" font-size="10">4</text>
  <line x1="55" y1="92.6" x2="830" y2="92.6" stroke="#21262d" stroke-width="1"/>
  <text x="47" y="92.6" text-anchor="end" dominant-baseline="middle" fill="#7d8590" font-size="10">6</text>
  <line x1="55" y1="290" x2="830" y2="290" stroke="#30363d" stroke-width="1.5"/>
  <text x="22" y="325.0" text-anchor="middle" fill="#e6edf3" font-size="11" font-weight="600" transform="rotate(-90,22,325.0)">seconds / GB</text>
  <rect x="67.1" y="192.1" width="18.2" height="97.9" fill="#60a5fa" rx="1"/>
  <rect x="67.1" y="166.8" width="18.2" height="25.3" fill="#4680c4" rx="1"/>
  <rect x="67.1" y="114.4" width="18.2" height="52.5" fill="#60a5fa" rx="1"/>
  <rect x="85.3" y="199.4" width="18.2" height="90.6" fill="#f87171" rx="1"/>
  <rect x="85.3" y="172.6" width="18.2" height="26.8" fill="#c45050" rx="1"/>
  <rect x="85.3" y="122.9" width="18.2" height="49.7" fill="#f87171" rx="1"/>
  <rect x="103.4" y="182.3" width="18.2" height="107.7" fill="#f59e0b" rx="1"/>
  <rect x="103.4" y="157.0" width="18.2" height="25.3" fill="#c47d08" rx="1"/>
  <rect x="103.4" y="105.2" width="18.2" height="51.8" fill="#f59e0b" rx="1"/>
  <rect x="121.6" y="152.8" width="18.2" height="137.2" fill="#4ade80" rx="1"/>
  <rect x="121.6" y="127.4" width="18.2" height="25.3" fill="#3aaf60" rx="1"/>
  <rect x="121.6" y="71.8" width="18.2" height="55.6" fill="#4ade80" rx="1"/>
  <text x="103.4" y="306" text-anchor="middle" fill="#e6edf3" font-size="10" font-weight="600">1k</text>
  <text x="103.4" y="318" text-anchor="middle" fill="#7d8590" font-size="9">725 B</text>
  <rect x="164.0" y="200.6" width="18.2" height="89.4" fill="#60a5fa" rx="1"/>
  <rect x="164.0" y="181.8" width="18.2" height="18.8" fill="#4680c4" rx="1"/>
  <rect x="164.0" y="163.1" width="18.2" height="18.7" fill="#60a5fa" rx="1"/>
  <rect x="182.1" y="193.9" width="18.2" height="96.1" fill="#f87171" rx="1"/>
  <rect x="182.1" y="174.6" width="18.2" height="19.2" fill="#c45050" rx="1"/>
  <rect x="182.1" y="161.1" width="18.2" height="13.5" fill="#f87171" rx="1"/>
  <rect x="200.3" y="182.0" width="18.2" height="108.0" fill="#f59e0b" rx="1"/>
  <rect x="200.3" y="162.9" width="18.2" height="19.1" fill="#c47d08" rx="1"/>
  <rect x="200.3" y="145.9" width="18.2" height="17.0" fill="#f59e0b" rx="1"/>
  <rect x="218.5" y="154.7" width="18.2" height="135.3" fill="#4ade80" rx="1"/>
  <rect x="218.5" y="135.6" width="18.2" height="19.1" fill="#3aaf60" rx="1"/>
  <rect x="218.5" y="113.1" width="18.2" height="22.5" fill="#4ade80" rx="1"/>
  <text x="200.3" y="306" text-anchor="middle" fill="#e6edf3" font-size="10" font-weight="600">34k</text>
  <text x="200.3" y="318" text-anchor="middle" fill="#7d8590" font-size="9">34 KB</text>
  <rect x="260.9" y="186.1" width="18.2" height="103.9" fill="#60a5fa" rx="1"/>
  <rect x="260.9" y="167.6" width="18.2" height="18.4" fill="#4680c4" rx="1"/>
  <rect x="260.9" y="150.1" width="18.2" height="17.5" fill="#60a5fa" rx="1"/>
  <rect x="279.0" y="195.8" width="18.2" height="94.2" fill="#f87171" rx="1"/>
  <rect x="279.0" y="176.4" width="18.2" height="19.4" fill="#c45050" rx="1"/>
  <rect x="279.0" y="163.9" width="18.2" height="12.5" fill="#f87171" rx="1"/>
  <rect x="297.2" y="177.5" width="18.2" height="112.5" fill="#f59e0b" rx="1"/>
  <rect x="297.2" y="158.6" width="18.2" height="18.9" fill="#c47d08" rx="1"/>
  <rect x="297.2" y="142.8" width="18.2" height="15.9" fill="#f59e0b" rx="1"/>
  <rect x="315.4" y="151.4" width="18.2" height="138.6" fill="#4ade80" rx="1"/>
  <rect x="315.4" y="132.5" width="18.2" height="18.9" fill="#3aaf60" rx="1"/>
  <rect x="315.4" y="111.5" width="18.2" height="21.0" fill="#4ade80" rx="1"/>
  <text x="297.2" y="306" text-anchor="middle" fill="#e6edf3" font-size="10" font-weight="600">65k</text>
  <text x="297.2" y="318" text-anchor="middle" fill="#7d8590" font-size="9">65 KB</text>
  <rect x="357.7" y="254.9" width="18.2" height="35.1" fill="#60a5fa" rx="1"/>
  <rect x="357.7" y="247.4" width="18.2" height="7.5" fill="#4680c4" rx="1"/>
  <rect x="357.7" y="239.2" width="18.2" height="8.2" fill="#60a5fa" rx="1"/>
  <rect x="375.9" y="247.8" width="18.2" height="42.2" fill="#f87171" rx="1"/>
  <rect x="375.9" y="240.1" width="18.2" height="7.8" fill="#c45050" rx="1"/>
  <rect x="375.9" y="230.0" width="18.2" height="10.1" fill="#f87171" rx="1"/>
  <rect x="394.1" y="245.2" width="18.2" height="44.8" fill="#f59e0b" rx="1"/>
  <rect x="394.1" y="237.7" width="18.2" height="7.5" fill="#c47d08" rx="1"/>
  <rect x="394.1" y="227.8" width="18.2" height="9.9" fill="#f59e0b" rx="1"/>
  <rect x="412.2" y="237.7" width="18.2" height="52.3" fill="#4ade80" rx="1"/>
  <rect x="412.2" y="230.2" width="18.2" height="7.5" fill="#3aaf60" rx="1"/>
  <rect x="412.2" y="216.6" width="18.2" height="13.6" fill="#4ade80" rx="1"/>
  <text x="394.1" y="306" text-anchor="middle" fill="#e6edf3" font-size="10" font-weight="600">66k_JSON</text>
  <text x="394.1" y="318" text-anchor="middle" fill="#7d8590" font-size="9">67 KB</text>
  <rect x="454.6" y="182.9" width="18.2" height="107.1" fill="#60a5fa" rx="1"/>
  <rect x="454.6" y="162.2" width="18.2" height="20.8" fill="#4680c4" rx="1"/>
  <rect x="454.6" y="147.2" width="18.2" height="15.0" fill="#60a5fa" rx="1"/>
  <rect x="472.8" y="194.2" width="18.2" height="95.8" fill="#f87171" rx="1"/>
  <rect x="472.8" y="170.6" width="18.2" height="23.5" fill="#c45050" rx="1"/>
  <rect x="472.8" y="155.1" width="18.2" height="15.5" fill="#f87171" rx="1"/>
  <rect x="490.9" y="170.4" width="18.2" height="119.6" fill="#f59e0b" rx="1"/>
  <rect x="490.9" y="149.7" width="18.2" height="20.8" fill="#c47d08" rx="1"/>
  <rect x="490.9" y="135.1" width="18.2" height="14.6" fill="#f59e0b" rx="1"/>
  <rect x="509.1" y="148.5" width="18.2" height="141.5" fill="#4ade80" rx="1"/>
  <rect x="509.1" y="127.7" width="18.2" height="20.8" fill="#3aaf60" rx="1"/>
  <rect x="509.1" y="108.9" width="18.2" height="18.8" fill="#4ade80" rx="1"/>
  <text x="490.9" y="306" text-anchor="middle" fill="#e6edf3" font-size="10" font-weight="600">dickens</text>
  <text x="490.9" y="318" text-anchor="middle" fill="#7d8590" font-size="9">10.2 MB</text>
  <rect x="551.5" y="263.6" width="18.2" height="26.4" fill="#60a5fa" rx="1"/>
  <rect x="551.5" y="260.0" width="18.2" height="3.6" fill="#4680c4" rx="1"/>
  <rect x="551.5" y="253.1" width="18.2" height="6.8" fill="#60a5fa" rx="1"/>
  <rect x="569.6" y="263.5" width="18.2" height="26.5" fill="#f87171" rx="1"/>
  <rect x="569.6" y="259.8" width="18.2" height="3.7" fill="#c45050" rx="1"/>
  <rect x="569.6" y="252.6" width="18.2" height="7.2" fill="#f87171" rx="1"/>
  <rect x="587.8" y="259.0" width="18.2" height="31.0" fill="#f59e0b" rx="1"/>
  <rect x="587.8" y="255.4" width="18.2" height="3.6" fill="#c47d08" rx="1"/>
  <rect x="587.8" y="246.8" width="18.2" height="8.6" fill="#f59e0b" rx="1"/>
  <rect x="606.0" y="254.3" width="18.2" height="35.7" fill="#4ade80" rx="1"/>
  <rect x="606.0" y="250.7" width="18.2" height="3.6" fill="#3aaf60" rx="1"/>
  <rect x="606.0" y="241.6" width="18.2" height="9.1" fill="#4ade80" rx="1"/>
  <text x="587.8" y="306" text-anchor="middle" fill="#e6edf3" font-size="10" font-weight="600">hdfs.json</text>
  <text x="587.8" y="318" text-anchor="middle" fill="#7d8590" font-size="9">7.0 MB</text>
  <rect x="648.4" y="184.1" width="18.2" height="105.9" fill="#60a5fa" rx="1"/>
  <rect x="648.4" y="168.3" width="18.2" height="15.8" fill="#4680c4" rx="1"/>
  <rect x="648.4" y="151.6" width="18.2" height="16.7" fill="#60a5fa" rx="1"/>
  <rect x="666.5" y="181.6" width="18.2" height="108.4" fill="#f87171" rx="1"/>
  <rect x="666.5" y="164.9" width="18.2" height="16.7" fill="#c45050" rx="1"/>
  <rect x="666.5" y="149.6" width="18.2" height="15.3" fill="#f87171" rx="1"/>
  <rect x="684.7" y="180.2" width="18.2" height="109.8" fill="#f59e0b" rx="1"/>
  <rect x="684.7" y="164.3" width="18.2" height="15.8" fill="#c47d08" rx="1"/>
  <rect x="684.7" y="148.2" width="18.2" height="16.1" fill="#f59e0b" rx="1"/>
  <rect x="702.9" y="160.5" width="18.2" height="129.5" fill="#4ade80" rx="1"/>
  <rect x="702.9" y="144.7" width="18.2" height="15.8" fill="#3aaf60" rx="1"/>
  <rect x="702.9" y="123.6" width="18.2" height="21.1" fill="#4ade80" rx="1"/>
  <text x="684.7" y="306" text-anchor="middle" fill="#e6edf3" font-size="10" font-weight="600">reymont.pdf</text>
  <text x="684.7" y="318" text-anchor="middle" fill="#7d8590" font-size="9">6.6 MB</text>
  <rect x="745.2" y="240.8" width="18.2" height="49.2" fill="#60a5fa" rx="1"/>
  <rect x="745.2" y="233.2" width="18.2" height="7.6" fill="#4680c4" rx="1"/>
  <rect x="745.2" y="221.0" width="18.2" height="12.2" fill="#60a5fa" rx="1"/>
  <rect x="763.4" y="240.0" width="18.2" height="50.0" fill="#f87171" rx="1"/>
  <rect x="763.4" y="231.9" width="18.2" height="8.1" fill="#c45050" rx="1"/>
  <rect x="763.4" y="219.4" width="18.2" height="12.5" fill="#f87171" rx="1"/>
  <rect x="781.6" y="236.3" width="18.2" height="53.7" fill="#f59e0b" rx="1"/>
  <rect x="781.6" y="228.7" width="18.2" height="7.6" fill="#c47d08" rx="1"/>
  <rect x="781.6" y="214.9" width="18.2" height="13.8" fill="#f59e0b" rx="1"/>
  <rect x="799.7" y="226.7" width="18.2" height="63.3" fill="#4ade80" rx="1"/>
  <rect x="799.7" y="219.1" width="18.2" height="7.6" fill="#3aaf60" rx="1"/>
  <rect x="799.7" y="203.5" width="18.2" height="15.5" fill="#4ade80" rx="1"/>
  <text x="781.6" y="306" text-anchor="middle" fill="#e6edf3" font-size="10" font-weight="600">xml_collection.xml</text>
  <text x="781.6" y="318" text-anchor="middle" fill="#7d8590" font-size="9">5.3 MB</text>
  <line x1="55" y1="534.2" x2="830" y2="534.2" stroke="#21262d" stroke-width="1"/>
  <text x="47" y="534.2" text-anchor="end" dominant-baseline="middle" fill="#7d8590" font-size="10">2</text>
  <line x1="55" y1="468.4" x2="830" y2="468.4" stroke="#21262d" stroke-width="1"/>
  <text x="47" y="468.4" text-anchor="end" dominant-baseline="middle" fill="#7d8590" font-size="10">4</text>
  <line x1="55" y1="402.6" x2="830" y2="402.6" stroke="#21262d" stroke-width="1"/>
  <text x="47" y="402.6" text-anchor="end" dominant-baseline="middle" fill="#7d8590" font-size="10">6</text>
  <line x1="55" y1="600" x2="830" y2="600" stroke="#30363d" stroke-width="1.5"/>
  <rect x="67.1" y="533.2" width="18.2" height="66.8" fill="#60a5fa" rx="1"/>
  <rect x="67.1" y="515.2" width="18.2" height="18.0" fill="#4680c4" rx="1"/>
  <rect x="67.1" y="502.8" width="18.2" height="12.4" fill="#60a5fa" rx="1"/>
  <rect x="85.3" y="553.5" width="18.2" height="46.5" fill="#f87171" rx="1"/>
  <rect x="85.3" y="534.1" width="18.2" height="19.4" fill="#c45050" rx="1"/>
  <rect x="85.3" y="523.6" width="18.2" height="10.6" fill="#f87171" rx="1"/>
  <rect x="103.4" y="531.8" width="18.2" height="68.2" fill="#f59e0b" rx="1"/>
  <rect x="103.4" y="513.8" width="18.2" height="18.0" fill="#c47d08" rx="1"/>
  <rect x="103.4" y="499.7" width="18.2" height="14.1" fill="#f59e0b" rx="1"/>
  <rect x="121.6" y="517.7" width="18.2" height="82.3" fill="#4ade80" rx="1"/>
  <rect x="121.6" y="499.6" width="18.2" height="18.0" fill="#3aaf60" rx="1"/>
  <rect x="121.6" y="484.0" width="18.2" height="15.7" fill="#4ade80" rx="1"/>
  <text x="103.4" y="616" text-anchor="middle" fill="#e6edf3" font-size="10" font-weight="600">mr</text>
  <text x="103.4" y="628" text-anchor="middle" fill="#7d8590" font-size="9">10.0 MB</text>
  <rect x="164.0" y="535.4" width="18.2" height="64.6" fill="#60a5fa" rx="1"/>
  <rect x="164.0" y="518.4" width="18.2" height="17.0" fill="#4680c4" rx="1"/>
  <rect x="164.0" y="505.0" width="18.2" height="13.4" fill="#60a5fa" rx="1"/>
  <rect x="182.1" y="542.1" width="18.2" height="57.9" fill="#f87171" rx="1"/>
  <rect x="182.1" y="524.1" width="18.2" height="17.9" fill="#c45050" rx="1"/>
  <rect x="182.1" y="509.6" width="18.2" height="14.5" fill="#f87171" rx="1"/>
  <rect x="200.3" y="529.0" width="18.2" height="71.0" fill="#f59e0b" rx="1"/>
  <rect x="200.3" y="512.0" width="18.2" height="17.0" fill="#c47d08" rx="1"/>
  <rect x="200.3" y="496.7" width="18.2" height="15.3" fill="#f59e0b" rx="1"/>
  <rect x="218.5" y="513.9" width="18.2" height="86.1" fill="#4ade80" rx="1"/>
  <rect x="218.5" y="496.9" width="18.2" height="17.0" fill="#3aaf60" rx="1"/>
  <rect x="218.5" y="479.5" width="18.2" height="17.3" fill="#4ade80" rx="1"/>
  <text x="200.3" y="616" text-anchor="middle" fill="#e6edf3" font-size="10" font-weight="600">mozilla</text>
  <text x="200.3" y="628" text-anchor="middle" fill="#7d8590" font-size="9">51.2 MB</text>
  <rect x="260.9" y="560.6" width="18.2" height="39.4" fill="#60a5fa" rx="1"/>
  <rect x="260.9" y="555.1" width="18.2" height="5.4" fill="#4680c4" rx="1"/>
  <rect x="260.9" y="545.4" width="18.2" height="9.7" fill="#60a5fa" rx="1"/>
  <rect x="279.0" y="558.6" width="18.2" height="41.4" fill="#f87171" rx="1"/>
  <rect x="279.0" y="553.0" width="18.2" height="5.6" fill="#c45050" rx="1"/>
  <rect x="279.0" y="542.8" width="18.2" height="10.2" fill="#f87171" rx="1"/>
  <rect x="297.2" y="556.1" width="18.2" height="43.9" fill="#f59e0b" rx="1"/>
  <rect x="297.2" y="550.7" width="18.2" height="5.4" fill="#c47d08" rx="1"/>
  <rect x="297.2" y="537.5" width="18.2" height="13.2" fill="#f59e0b" rx="1"/>
  <rect x="315.4" y="547.8" width="18.2" height="52.2" fill="#4ade80" rx="1"/>
  <rect x="315.4" y="542.4" width="18.2" height="5.4" fill="#3aaf60" rx="1"/>
  <rect x="315.4" y="528.6" width="18.2" height="13.8" fill="#4ade80" rx="1"/>
  <text x="297.2" y="616" text-anchor="middle" fill="#e6edf3" font-size="10" font-weight="600">nci</text>
  <text x="297.2" y="628" text-anchor="middle" fill="#7d8590" font-size="9">33.6 MB</text>
  <rect x="357.7" y="525.5" width="18.2" height="74.5" fill="#60a5fa" rx="1"/>
  <rect x="357.7" y="508.4" width="18.2" height="17.2" fill="#4680c4" rx="1"/>
  <rect x="357.7" y="494.4" width="18.2" height="14.0" fill="#60a5fa" rx="1"/>
  <rect x="375.9" y="539.3" width="18.2" height="60.7" fill="#f87171" rx="1"/>
  <rect x="375.9" y="516.6" width="18.2" height="22.7" fill="#c45050" rx="1"/>
  <rect x="375.9" y="499.6" width="18.2" height="17.0" fill="#f87171" rx="1"/>
  <rect x="394.1" y="515.4" width="18.2" height="84.6" fill="#f59e0b" rx="1"/>
  <rect x="394.1" y="498.1" width="18.2" height="17.2" fill="#c47d08" rx="1"/>
  <rect x="394.1" y="482.1" width="18.2" height="16.0" fill="#f59e0b" rx="1"/>
  <rect x="412.2" y="500.1" width="18.2" height="99.9" fill="#4ade80" rx="1"/>
  <rect x="412.2" y="482.9" width="18.2" height="17.2" fill="#3aaf60" rx="1"/>
  <rect x="412.2" y="464.6" width="18.2" height="18.3" fill="#4ade80" rx="1"/>
  <text x="394.1" y="616" text-anchor="middle" fill="#e6edf3" font-size="10" font-weight="600">osdb</text>
  <text x="394.1" y="628" text-anchor="middle" fill="#7d8590" font-size="9">10.1 MB</text>
  <rect x="454.6" y="537.6" width="18.2" height="62.4" fill="#60a5fa" rx="1"/>
  <rect x="454.6" y="525.8" width="18.2" height="11.8" fill="#4680c4" rx="1"/>
  <rect x="454.6" y="513.7" width="18.2" height="12.1" fill="#60a5fa" rx="1"/>
  <rect x="472.8" y="539.5" width="18.2" height="60.5" fill="#f87171" rx="1"/>
  <rect x="472.8" y="527.0" width="18.2" height="12.6" fill="#c45050" rx="1"/>
  <rect x="472.8" y="514.3" width="18.2" height="12.7" fill="#f87171" rx="1"/>
  <rect x="490.9" y="532.2" width="18.2" height="67.8" fill="#f59e0b" rx="1"/>
  <rect x="490.9" y="520.4" width="18.2" height="11.8" fill="#c47d08" rx="1"/>
  <rect x="490.9" y="506.4" width="18.2" height="14.0" fill="#f59e0b" rx="1"/>
  <rect x="509.1" y="520.4" width="18.2" height="79.6" fill="#4ade80" rx="1"/>
  <rect x="509.1" y="508.6" width="18.2" height="11.8" fill="#3aaf60" rx="1"/>
  <rect x="509.1" y="492.5" width="18.2" height="16.1" fill="#4ade80" rx="1"/>
  <text x="490.9" y="616" text-anchor="middle" fill="#e6edf3" font-size="10" font-weight="600">samba</text>
  <text x="490.9" y="628" text-anchor="middle" fill="#7d8590" font-size="9">21.6 MB</text>
  <rect x="551.5" y="526.7" width="18.2" height="73.3" fill="#60a5fa" rx="1"/>
  <rect x="551.5" y="495.9" width="18.2" height="30.8" fill="#4680c4" rx="1"/>
  <rect x="551.5" y="484.1" width="18.2" height="11.8" fill="#60a5fa" rx="1"/>
  <rect x="569.6" y="578.7" width="18.2" height="21.3" fill="#f87171" rx="1"/>
  <rect x="569.6" y="546.4" width="18.2" height="32.4" fill="#c45050" rx="1"/>
  <rect x="569.6" y="540.4" width="18.2" height="5.9" fill="#f87171" rx="1"/>
  <rect x="587.8" y="521.4" width="18.2" height="78.6" fill="#f59e0b" rx="1"/>
  <rect x="587.8" y="490.4" width="18.2" height="31.0" fill="#c47d08" rx="1"/>
  <rect x="587.8" y="477.3" width="18.2" height="13.1" fill="#f59e0b" rx="1"/>
  <rect x="606.0" y="503.7" width="18.2" height="96.3" fill="#4ade80" rx="1"/>
  <rect x="606.0" y="472.7" width="18.2" height="31.0" fill="#3aaf60" rx="1"/>
  <rect x="606.0" y="457.6" width="18.2" height="15.1" fill="#4ade80" rx="1"/>
  <text x="587.8" y="616" text-anchor="middle" fill="#e6edf3" font-size="10" font-weight="600">sao</text>
  <text x="587.8" y="628" text-anchor="middle" fill="#7d8590" font-size="9">7.3 MB</text>
  <rect x="648.4" y="506.7" width="18.2" height="93.3" fill="#60a5fa" rx="1"/>
  <rect x="648.4" y="490.7" width="18.2" height="16.0" fill="#4680c4" rx="1"/>
  <rect x="648.4" y="475.9" width="18.2" height="14.8" fill="#60a5fa" rx="1"/>
  <rect x="666.5" y="511.0" width="18.2" height="89.0" fill="#f87171" rx="1"/>
  <rect x="666.5" y="493.4" width="18.2" height="17.6" fill="#c45050" rx="1"/>
  <rect x="666.5" y="478.2" width="18.2" height="15.2" fill="#f87171" rx="1"/>
  <rect x="684.7" y="496.6" width="18.2" height="103.4" fill="#f59e0b" rx="1"/>
  <rect x="684.7" y="480.6" width="18.2" height="16.0" fill="#c47d08" rx="1"/>
  <rect x="684.7" y="464.6" width="18.2" height="16.0" fill="#f59e0b" rx="1"/>
  <rect x="702.9" y="478.9" width="18.2" height="121.1" fill="#4ade80" rx="1"/>
  <rect x="702.9" y="462.9" width="18.2" height="16.0" fill="#3aaf60" rx="1"/>
  <rect x="702.9" y="443.2" width="18.2" height="19.7" fill="#4ade80" rx="1"/>
  <text x="684.7" y="616" text-anchor="middle" fill="#e6edf3" font-size="10" font-weight="600">webster</text>
  <text x="684.7" y="628" text-anchor="middle" fill="#7d8590" font-size="9">41.5 MB</text>
  <rect x="745.2" y="572.9" width="18.2" height="27.1" fill="#60a5fa" rx="1"/>
  <rect x="745.2" y="540.3" width="18.2" height="32.6" fill="#4680c4" rx="1"/>
  <rect x="745.2" y="535.6" width="18.2" height="4.7" fill="#60a5fa" rx="1"/>
  <rect x="763.4" y="596.5" width="18.2" height="3.5" fill="#f87171" rx="1"/>
  <rect x="763.4" y="563.4" width="18.2" height="33.0" fill="#c45050" rx="1"/>
  <rect x="763.4" y="560.6" width="18.2" height="2.9" fill="#f87171" rx="1"/>
  <rect x="781.6" y="577.7" width="18.2" height="22.3" fill="#f59e0b" rx="1"/>
  <rect x="781.6" y="545.0" width="18.2" height="32.7" fill="#c47d08" rx="1"/>
  <rect x="781.6" y="540.8" width="18.2" height="4.2" fill="#f59e0b" rx="1"/>
  <rect x="799.7" y="573.3" width="18.2" height="26.7" fill="#4ade80" rx="1"/>
  <rect x="799.7" y="540.7" width="18.2" height="32.7" fill="#3aaf60" rx="1"/>
  <rect x="799.7" y="536.4" width="18.2" height="4.2" fill="#4ade80" rx="1"/>
  <text x="781.6" y="616" text-anchor="middle" fill="#e6edf3" font-size="10" font-weight="600">x-ray</text>
  <text x="781.6" y="628" text-anchor="middle" fill="#7d8590" font-size="9">8.5 MB</text>
  <rect x="242" y="645" width="12" height="12" fill="#60a5fa" rx="2"/>
  <text x="260" y="655" fill="#e6edf3" font-size="10" font-weight="500">lz4 (C)</text>
  <rect x="242" y="663" width="12" height="12" fill="#f87171" rx="2"/>
  <text x="260" y="673" fill="#e6edf3" font-size="10" font-weight="500">lz4rip (encapsulated unsafe, Rust)</text>
  <rect x="452" y="645" width="12" height="12" fill="#f59e0b" rx="2"/>
  <text x="470" y="655" fill="#e6edf3" font-size="10" font-weight="500">lz4_flex (unsafe Rust)</text>
  <rect x="452" y="663" width="12" height="12" fill="#4ade80" rx="2"/>
  <text x="470" y="673" fill="#e6edf3" font-size="10" font-weight="500">lz4_flex (safe Rust)</text>
  <text x="232" y="698" fill="#e6edf3" font-size="9">bright = compress + decompress</text>
  <text x="472" y="698" fill="#7d8590" font-size="9">dim = transfer @1 GB/s</text>
</svg>
