<svg xmlns="http://www.w3.org/2000/svg" viewBox="0 0 850 720" font-family="system-ui, -apple-system, sans-serif">
  <rect width="850" height="720" fill="#0d1117"/>
  <text x="442.5" y="22" text-anchor="middle" fill="#e6edf3" font-size="14" font-weight="700">LZ4 Block: Compress + Transfer @1 GB/s + Decompress (lower is better)</text>
  <text x="442.5" y="38" text-anchor="middle" fill="#7d8590" font-size="10">Intel Core i7-8700B @ 3.20GHz, performance governor, turbo off</text>
  <line x1="55" y1="224.2" x2="830" y2="224.2" stroke="#21262d" stroke-width="1"/>
  <text x="47" y="224.2" text-anchor="end" dominant-baseline="middle" fill="#7d8590" font-size="10">2</text>
  <line x1="55" y1="158.4" x2="830" y2="158.4" stroke="#21262d" stroke-width="1"/>
  <text x="47" y="158.4" text-anchor="end" dominant-baseline="middle" fill="#7d8590" font-size="10">4</text>
  <line x1="55" y1="92.7" x2="830" y2="92.7" stroke="#21262d" stroke-width="1"/>
  <text x="47" y="92.7" text-anchor="end" dominant-baseline="middle" fill="#7d8590" font-size="10">6</text>
  <line x1="55" y1="290" x2="830" y2="290" stroke="#30363d" stroke-width="1.5"/>
  <text x="22" y="325.0" text-anchor="middle" fill="#e6edf3" font-size="11" font-weight="600" transform="rotate(-90,22,325.0)">seconds / GB</text>
  <rect x="65.8" y="190.3" width="12.9" height="99.7" fill="#60a5fa" rx="1"/>
  <rect x="65.8" y="165.0" width="12.9" height="25.3" fill="#4680c4" rx="1"/>
  <rect x="65.8" y="112.4" width="12.9" height="52.6" fill="#60a5fa" rx="1"/>
  <rect x="78.7" y="197.3" width="12.9" height="92.7" fill="#f87171" rx="1"/>
  <rect x="78.7" y="170.5" width="12.9" height="26.8" fill="#c45050" rx="1"/>
  <rect x="78.7" y="121.0" width="12.9" height="49.5" fill="#f87171" rx="1"/>
  <rect x="91.6" y="176.5" width="12.9" height="113.5" fill="#f59e0b" rx="1"/>
  <rect x="91.6" y="151.2" width="12.9" height="25.3" fill="#c47d08" rx="1"/>
  <rect x="91.6" y="98.8" width="12.9" height="52.4" fill="#f59e0b" rx="1"/>
  <rect x="104.5" y="180.9" width="12.9" height="109.1" fill="#f472b6" rx="1"/>
  <rect x="104.5" y="154.1" width="12.9" height="26.8" fill="#c05a92" rx="1"/>
  <rect x="104.5" y="101.1" width="12.9" height="53.0" fill="#f472b6" rx="1"/>
  <rect x="117.4" y="153.3" width="12.9" height="136.7" fill="#4ade80" rx="1"/>
  <rect x="117.4" y="128.0" width="12.9" height="25.3" fill="#3aaf60" rx="1"/>
  <rect x="117.4" y="71.8" width="12.9" height="56.2" fill="#4ade80" rx="1"/>
  <text x="98.1" y="306" text-anchor="middle" fill="#e6edf3" font-size="10" font-weight="600">1k</text>
  <text x="98.1" y="318" text-anchor="middle" fill="#7d8590" font-size="9">725 B</text>
  <rect x="151.9" y="200.4" width="12.9" height="89.6" fill="#60a5fa" rx="1"/>
  <rect x="151.9" y="181.6" width="12.9" height="18.8" fill="#4680c4" rx="1"/>
  <rect x="151.9" y="163.0" width="12.9" height="18.6" fill="#60a5fa" rx="1"/>
  <rect x="164.8" y="196.9" width="12.9" height="93.1" fill="#f87171" rx="1"/>
  <rect x="164.8" y="177.6" width="12.9" height="19.2" fill="#c45050" rx="1"/>
  <rect x="164.8" y="164.1" width="12.9" height="13.6" fill="#f87171" rx="1"/>
  <rect x="177.7" y="188.7" width="12.9" height="101.3" fill="#f59e0b" rx="1"/>
  <rect x="177.7" y="169.7" width="12.9" height="19.1" fill="#c47d08" rx="1"/>
  <rect x="177.7" y="152.7" width="12.9" height="17.0" fill="#f59e0b" rx="1"/>
  <rect x="190.6" y="176.9" width="12.9" height="113.1" fill="#f472b6" rx="1"/>
  <rect x="190.6" y="157.7" width="12.9" height="19.2" fill="#c05a92" rx="1"/>
  <rect x="190.6" y="139.0" width="12.9" height="18.6" fill="#f472b6" rx="1"/>
  <rect x="203.5" y="164.2" width="12.9" height="125.8" fill="#4ade80" rx="1"/>
  <rect x="203.5" y="145.1" width="12.9" height="19.1" fill="#3aaf60" rx="1"/>
  <rect x="203.5" y="122.6" width="12.9" height="22.5" fill="#4ade80" rx="1"/>
  <text x="184.2" y="306" text-anchor="middle" fill="#e6edf3" font-size="10" font-weight="600">34k</text>
  <text x="184.2" y="318" text-anchor="middle" fill="#7d8590" font-size="9">34 KB</text>
  <rect x="238.0" y="185.8" width="12.9" height="104.2" fill="#60a5fa" rx="1"/>
  <rect x="238.0" y="167.4" width="12.9" height="18.4" fill="#4680c4" rx="1"/>
  <rect x="238.0" y="149.9" width="12.9" height="17.5" fill="#60a5fa" rx="1"/>
  <rect x="250.9" y="196.0" width="12.9" height="94.0" fill="#f87171" rx="1"/>
  <rect x="250.9" y="176.6" width="12.9" height="19.4" fill="#c45050" rx="1"/>
  <rect x="250.9" y="164.2" width="12.9" height="12.4" fill="#f87171" rx="1"/>
  <rect x="263.8" y="180.8" width="12.9" height="109.2" fill="#f59e0b" rx="1"/>
  <rect x="263.8" y="162.0" width="12.9" height="18.9" fill="#c47d08" rx="1"/>
  <rect x="263.8" y="146.0" width="12.9" height="16.0" fill="#f59e0b" rx="1"/>
  <rect x="276.7" y="178.6" width="12.9" height="111.4" fill="#f472b6" rx="1"/>
  <rect x="276.7" y="159.2" width="12.9" height="19.4" fill="#c05a92" rx="1"/>
  <rect x="276.7" y="141.9" width="12.9" height="17.3" fill="#f472b6" rx="1"/>
  <rect x="289.7" y="160.2" width="12.9" height="129.8" fill="#4ade80" rx="1"/>
  <rect x="289.7" y="141.3" width="12.9" height="18.9" fill="#3aaf60" rx="1"/>
  <rect x="289.7" y="120.3" width="12.9" height="21.1" fill="#4ade80" rx="1"/>
  <text x="270.3" y="306" text-anchor="middle" fill="#e6edf3" font-size="10" font-weight="600">65k</text>
  <text x="270.3" y="318" text-anchor="middle" fill="#7d8590" font-size="9">65 KB</text>
  <rect x="324.1" y="254.8" width="12.9" height="35.2" fill="#60a5fa" rx="1"/>
  <rect x="324.1" y="247.2" width="12.9" height="7.5" fill="#4680c4" rx="1"/>
  <rect x="324.1" y="239.0" width="12.9" height="8.2" fill="#60a5fa" rx="1"/>
  <rect x="337.0" y="252.4" width="12.9" height="37.6" fill="#f87171" rx="1"/>
  <rect x="337.0" y="244.7" width="12.9" height="7.8" fill="#c45050" rx="1"/>
  <rect x="337.0" y="234.5" width="12.9" height="10.1" fill="#f87171" rx="1"/>
  <rect x="349.9" y="250.7" width="12.9" height="39.3" fill="#f59e0b" rx="1"/>
  <rect x="349.9" y="243.1" width="12.9" height="7.5" fill="#c47d08" rx="1"/>
  <rect x="349.9" y="233.5" width="12.9" height="9.7" fill="#f59e0b" rx="1"/>
  <rect x="362.8" y="240.9" width="12.9" height="49.1" fill="#f472b6" rx="1"/>
  <rect x="362.8" y="233.2" width="12.9" height="7.8" fill="#c05a92" rx="1"/>
  <rect x="362.8" y="219.1" width="12.9" height="14.1" fill="#f472b6" rx="1"/>
  <rect x="375.8" y="237.3" width="12.9" height="52.7" fill="#4ade80" rx="1"/>
  <rect x="375.8" y="229.8" width="12.9" height="7.5" fill="#3aaf60" rx="1"/>
  <rect x="375.8" y="216.2" width="12.9" height="13.6" fill="#4ade80" rx="1"/>
  <text x="356.4" y="306" text-anchor="middle" fill="#e6edf3" font-size="10" font-weight="600">66k_JSON</text>
  <text x="356.4" y="318" text-anchor="middle" fill="#7d8590" font-size="9">67 KB</text>
  <rect x="410.2" y="183.6" width="12.9" height="106.4" fill="#60a5fa" rx="1"/>
  <rect x="410.2" y="162.9" width="12.9" height="20.7" fill="#4680c4" rx="1"/>
  <rect x="410.2" y="147.8" width="12.9" height="15.0" fill="#60a5fa" rx="1"/>
  <rect x="423.1" y="196.9" width="12.9" height="93.1" fill="#f87171" rx="1"/>
  <rect x="423.1" y="173.4" width="12.9" height="23.5" fill="#c45050" rx="1"/>
  <rect x="423.1" y="157.8" width="12.9" height="15.5" fill="#f87171" rx="1"/>
  <rect x="436.0" y="179.0" width="12.9" height="111.0" fill="#f59e0b" rx="1"/>
  <rect x="436.0" y="158.2" width="12.9" height="20.7" fill="#c47d08" rx="1"/>
  <rect x="436.0" y="143.6" width="12.9" height="14.6" fill="#f59e0b" rx="1"/>
  <rect x="449.0" y="163.4" width="12.9" height="126.6" fill="#f472b6" rx="1"/>
  <rect x="449.0" y="139.9" width="12.9" height="23.5" fill="#c05a92" rx="1"/>
  <rect x="449.0" y="119.0" width="12.9" height="20.9" fill="#f472b6" rx="1"/>
  <rect x="461.9" y="148.4" width="12.9" height="141.6" fill="#4ade80" rx="1"/>
  <rect x="461.9" y="127.7" width="12.9" height="20.7" fill="#3aaf60" rx="1"/>
  <rect x="461.9" y="108.7" width="12.9" height="19.0" fill="#4ade80" rx="1"/>
  <text x="442.5" y="306" text-anchor="middle" fill="#e6edf3" font-size="10" font-weight="600">dickens</text>
  <text x="442.5" y="318" text-anchor="middle" fill="#7d8590" font-size="9">10.2 MB</text>
  <rect x="496.3" y="263.9" width="12.9" height="26.1" fill="#60a5fa" rx="1"/>
  <rect x="496.3" y="260.3" width="12.9" height="3.6" fill="#4680c4" rx="1"/>
  <rect x="496.3" y="253.4" width="12.9" height="6.9" fill="#60a5fa" rx="1"/>
  <rect x="509.2" y="264.2" width="12.9" height="25.8" fill="#f87171" rx="1"/>
  <rect x="509.2" y="260.6" width="12.9" height="3.7" fill="#c45050" rx="1"/>
  <rect x="509.2" y="253.3" width="12.9" height="7.2" fill="#f87171" rx="1"/>
  <rect x="522.2" y="259.9" width="12.9" height="30.1" fill="#f59e0b" rx="1"/>
  <rect x="522.2" y="256.3" width="12.9" height="3.6" fill="#c47d08" rx="1"/>
  <rect x="522.2" y="247.8" width="12.9" height="8.5" fill="#f59e0b" rx="1"/>
  <rect x="535.1" y="259.7" width="12.9" height="30.3" fill="#f472b6" rx="1"/>
  <rect x="535.1" y="256.1" width="12.9" height="3.7" fill="#c05a92" rx="1"/>
  <rect x="535.1" y="247.8" width="12.9" height="8.3" fill="#f472b6" rx="1"/>
  <rect x="548.0" y="254.4" width="12.9" height="35.6" fill="#4ade80" rx="1"/>
  <rect x="548.0" y="250.8" width="12.9" height="3.6" fill="#3aaf60" rx="1"/>
  <rect x="548.0" y="241.7" width="12.9" height="9.1" fill="#4ade80" rx="1"/>
  <text x="528.6" y="306" text-anchor="middle" fill="#e6edf3" font-size="10" font-weight="600">hdfs.json</text>
  <text x="528.6" y="318" text-anchor="middle" fill="#7d8590" font-size="9">7.0 MB</text>
  <rect x="582.4" y="184.6" width="12.9" height="105.4" fill="#60a5fa" rx="1"/>
  <rect x="582.4" y="168.8" width="12.9" height="15.8" fill="#4680c4" rx="1"/>
  <rect x="582.4" y="152.0" width="12.9" height="16.8" fill="#60a5fa" rx="1"/>
  <rect x="595.3" y="185.8" width="12.9" height="104.2" fill="#f87171" rx="1"/>
  <rect x="595.3" y="169.1" width="12.9" height="16.7" fill="#c45050" rx="1"/>
  <rect x="595.3" y="153.8" width="12.9" height="15.2" fill="#f87171" rx="1"/>
  <rect x="608.3" y="181.2" width="12.9" height="108.8" fill="#f59e0b" rx="1"/>
  <rect x="608.3" y="165.4" width="12.9" height="15.8" fill="#c47d08" rx="1"/>
  <rect x="608.3" y="149.3" width="12.9" height="16.1" fill="#f59e0b" rx="1"/>
  <rect x="621.2" y="157.9" width="12.9" height="132.1" fill="#f472b6" rx="1"/>
  <rect x="621.2" y="141.2" width="12.9" height="16.7" fill="#c05a92" rx="1"/>
  <rect x="621.2" y="119.5" width="12.9" height="21.7" fill="#f472b6" rx="1"/>
  <rect x="634.1" y="160.8" width="12.9" height="129.2" fill="#4ade80" rx="1"/>
  <rect x="634.1" y="145.0" width="12.9" height="15.8" fill="#3aaf60" rx="1"/>
  <rect x="634.1" y="123.9" width="12.9" height="21.1" fill="#4ade80" rx="1"/>
  <text x="614.7" y="306" text-anchor="middle" fill="#e6edf3" font-size="10" font-weight="600">reymont.pdf</text>
  <text x="614.7" y="318" text-anchor="middle" fill="#7d8590" font-size="9">6.6 MB</text>
  <rect x="668.5" y="241.0" width="12.9" height="49.0" fill="#60a5fa" rx="1"/>
  <rect x="668.5" y="233.4" width="12.9" height="7.6" fill="#4680c4" rx="1"/>
  <rect x="668.5" y="221.2" width="12.9" height="12.3" fill="#60a5fa" rx="1"/>
  <rect x="681.5" y="241.2" width="12.9" height="48.8" fill="#f87171" rx="1"/>
  <rect x="681.5" y="233.1" width="12.9" height="8.1" fill="#c45050" rx="1"/>
  <rect x="681.5" y="220.6" width="12.9" height="12.5" fill="#f87171" rx="1"/>
  <rect x="694.4" y="238.1" width="12.9" height="51.9" fill="#f59e0b" rx="1"/>
  <rect x="694.4" y="230.5" width="12.9" height="7.6" fill="#c47d08" rx="1"/>
  <rect x="694.4" y="216.7" width="12.9" height="13.7" fill="#f59e0b" rx="1"/>
  <rect x="707.3" y="229.3" width="12.9" height="60.7" fill="#f472b6" rx="1"/>
  <rect x="707.3" y="221.2" width="12.9" height="8.1" fill="#c05a92" rx="1"/>
  <rect x="707.3" y="205.8" width="12.9" height="15.4" fill="#f472b6" rx="1"/>
  <rect x="720.2" y="226.8" width="12.9" height="63.2" fill="#4ade80" rx="1"/>
  <rect x="720.2" y="219.2" width="12.9" height="7.6" fill="#3aaf60" rx="1"/>
  <rect x="720.2" y="203.6" width="12.9" height="15.6" fill="#4ade80" rx="1"/>
  <text x="700.8" y="306" text-anchor="middle" fill="#e6edf3" font-size="10" font-weight="600">xml_collection.xml</text>
  <text x="700.8" y="318" text-anchor="middle" fill="#7d8590" font-size="9">5.3 MB</text>
  <rect x="754.7" y="223.6" width="12.9" height="66.4" fill="#60a5fa" rx="1"/>
  <rect x="754.7" y="205.7" width="12.9" height="17.9" fill="#4680c4" rx="1"/>
  <rect x="754.7" y="193.3" width="12.9" height="12.4" fill="#60a5fa" rx="1"/>
  <rect x="767.6" y="244.3" width="12.9" height="45.7" fill="#f87171" rx="1"/>
  <rect x="767.6" y="225.0" width="12.9" height="19.3" fill="#c45050" rx="1"/>
  <rect x="767.6" y="214.4" width="12.9" height="10.6" fill="#f87171" rx="1"/>
  <rect x="780.5" y="224.2" width="12.9" height="65.8" fill="#f59e0b" rx="1"/>
  <rect x="780.5" y="206.2" width="12.9" height="18.0" fill="#c47d08" rx="1"/>
  <rect x="780.5" y="192.1" width="12.9" height="14.1" fill="#f59e0b" rx="1"/>
  <rect x="793.4" y="226.7" width="12.9" height="63.3" fill="#f472b6" rx="1"/>
  <rect x="793.4" y="207.4" width="12.9" height="19.3" fill="#c05a92" rx="1"/>
  <rect x="793.4" y="194.1" width="12.9" height="13.3" fill="#f472b6" rx="1"/>
  <rect x="806.3" y="207.6" width="12.9" height="82.4" fill="#4ade80" rx="1"/>
  <rect x="806.3" y="189.6" width="12.9" height="18.0" fill="#3aaf60" rx="1"/>
  <rect x="806.3" y="173.8" width="12.9" height="15.8" fill="#4ade80" rx="1"/>
  <text x="786.9" y="306" text-anchor="middle" fill="#e6edf3" font-size="10" font-weight="600">mr</text>
  <text x="786.9" y="318" text-anchor="middle" fill="#7d8590" font-size="9">10.0 MB</text>
  <line x1="55" y1="534.2" x2="830" y2="534.2" stroke="#21262d" stroke-width="1"/>
  <text x="47" y="534.2" text-anchor="end" dominant-baseline="middle" fill="#7d8590" font-size="10">2</text>
  <line x1="55" y1="468.4" x2="830" y2="468.4" stroke="#21262d" stroke-width="1"/>
  <text x="47" y="468.4" text-anchor="end" dominant-baseline="middle" fill="#7d8590" font-size="10">4</text>
  <line x1="55" y1="402.7" x2="830" y2="402.7" stroke="#21262d" stroke-width="1"/>
  <text x="47" y="402.7" text-anchor="end" dominant-baseline="middle" fill="#7d8590" font-size="10">6</text>
  <line x1="55" y1="600" x2="830" y2="600" stroke="#30363d" stroke-width="1.5"/>
  <rect x="67.1" y="535.4" width="14.5" height="64.6" fill="#60a5fa" rx="1"/>
  <rect x="67.1" y="518.4" width="14.5" height="17.0" fill="#4680c4" rx="1"/>
  <rect x="67.1" y="505.0" width="14.5" height="13.4" fill="#60a5fa" rx="1"/>
  <rect x="81.6" y="543.4" width="14.5" height="56.6" fill="#f87171" rx="1"/>
  <rect x="81.6" y="525.5" width="14.5" height="17.9" fill="#c45050" rx="1"/>
  <rect x="81.6" y="511.0" width="14.5" height="14.5" fill="#f87171" rx="1"/>
  <rect x="96.2" y="532.2" width="14.5" height="67.8" fill="#f59e0b" rx="1"/>
  <rect x="96.2" y="515.1" width="14.5" height="17.0" fill="#c47d08" rx="1"/>
  <rect x="96.2" y="499.7" width="14.5" height="15.4" fill="#f59e0b" rx="1"/>
  <rect x="110.7" y="522.7" width="14.5" height="77.3" fill="#f472b6" rx="1"/>
  <rect x="110.7" y="504.8" width="14.5" height="17.9" fill="#c05a92" rx="1"/>
  <rect x="110.7" y="487.6" width="14.5" height="17.2" fill="#f472b6" rx="1"/>
  <rect x="125.2" y="513.7" width="14.5" height="86.3" fill="#4ade80" rx="1"/>
  <rect x="125.2" y="496.7" width="14.5" height="17.0" fill="#3aaf60" rx="1"/>
  <rect x="125.2" y="479.3" width="14.5" height="17.4" fill="#4ade80" rx="1"/>
  <text x="103.4" y="616" text-anchor="middle" fill="#e6edf3" font-size="10" font-weight="600">mozilla</text>
  <text x="103.4" y="628" text-anchor="middle" fill="#7d8590" font-size="9">51.2 MB</text>
  <rect x="164.0" y="560.2" width="14.5" height="39.8" fill="#60a5fa" rx="1"/>
  <rect x="164.0" y="554.8" width="14.5" height="5.4" fill="#4680c4" rx="1"/>
  <rect x="164.0" y="544.9" width="14.5" height="9.9" fill="#60a5fa" rx="1"/>
  <rect x="178.5" y="559.2" width="14.5" height="40.8" fill="#f87171" rx="1"/>
  <rect x="178.5" y="553.6" width="14.5" height="5.6" fill="#c45050" rx="1"/>
  <rect x="178.5" y="543.2" width="14.5" height="10.3" fill="#f87171" rx="1"/>
  <rect x="193.0" y="556.7" width="14.5" height="43.3" fill="#f59e0b" rx="1"/>
  <rect x="193.0" y="551.2" width="14.5" height="5.4" fill="#c47d08" rx="1"/>
  <rect x="193.0" y="538.1" width="14.5" height="13.2" fill="#f59e0b" rx="1"/>
  <rect x="207.6" y="551.0" width="14.5" height="49.0" fill="#f472b6" rx="1"/>
  <rect x="207.6" y="545.4" width="14.5" height="5.6" fill="#c05a92" rx="1"/>
  <rect x="207.6" y="532.7" width="14.5" height="12.7" fill="#f472b6" rx="1"/>
  <rect x="222.1" y="547.2" width="14.5" height="52.8" fill="#4ade80" rx="1"/>
  <rect x="222.1" y="541.7" width="14.5" height="5.4" fill="#3aaf60" rx="1"/>
  <rect x="222.1" y="527.8" width="14.5" height="13.9" fill="#4ade80" rx="1"/>
  <text x="200.3" y="616" text-anchor="middle" fill="#e6edf3" font-size="10" font-weight="600">nci</text>
  <text x="200.3" y="628" text-anchor="middle" fill="#7d8590" font-size="9">33.6 MB</text>
  <rect x="260.9" y="525.6" width="14.5" height="74.4" fill="#60a5fa" rx="1"/>
  <rect x="260.9" y="508.5" width="14.5" height="17.1" fill="#4680c4" rx="1"/>
  <rect x="260.9" y="494.3" width="14.5" height="14.2" fill="#60a5fa" rx="1"/>
  <rect x="275.4" y="540.1" width="14.5" height="59.9" fill="#f87171" rx="1"/>
  <rect x="275.4" y="517.3" width="14.5" height="22.7" fill="#c45050" rx="1"/>
  <rect x="275.4" y="500.2" width="14.5" height="17.1" fill="#f87171" rx="1"/>
  <rect x="289.9" y="519.6" width="14.5" height="80.4" fill="#f59e0b" rx="1"/>
  <rect x="289.9" y="502.4" width="14.5" height="17.2" fill="#c47d08" rx="1"/>
  <rect x="289.9" y="486.0" width="14.5" height="16.4" fill="#f59e0b" rx="1"/>
  <rect x="304.5" y="517.5" width="14.5" height="82.5" fill="#f472b6" rx="1"/>
  <rect x="304.5" y="494.8" width="14.5" height="22.7" fill="#c05a92" rx="1"/>
  <rect x="304.5" y="474.6" width="14.5" height="20.1" fill="#f472b6" rx="1"/>
  <rect x="319.0" y="500.2" width="14.5" height="99.8" fill="#4ade80" rx="1"/>
  <rect x="319.0" y="483.0" width="14.5" height="17.2" fill="#3aaf60" rx="1"/>
  <rect x="319.0" y="464.4" width="14.5" height="18.5" fill="#4ade80" rx="1"/>
  <text x="297.2" y="616" text-anchor="middle" fill="#e6edf3" font-size="10" font-weight="600">osdb</text>
  <text x="297.2" y="628" text-anchor="middle" fill="#7d8590" font-size="9">10.1 MB</text>
  <rect x="357.7" y="537.6" width="14.5" height="62.4" fill="#60a5fa" rx="1"/>
  <rect x="357.7" y="525.8" width="14.5" height="11.7" fill="#4680c4" rx="1"/>
  <rect x="357.7" y="513.4" width="14.5" height="12.4" fill="#60a5fa" rx="1"/>
  <rect x="372.3" y="540.7" width="14.5" height="59.3" fill="#f87171" rx="1"/>
  <rect x="372.3" y="528.1" width="14.5" height="12.6" fill="#c45050" rx="1"/>
  <rect x="372.3" y="515.1" width="14.5" height="13.0" fill="#f87171" rx="1"/>
  <rect x="386.8" y="534.5" width="14.5" height="65.5" fill="#f59e0b" rx="1"/>
  <rect x="386.8" y="522.8" width="14.5" height="11.7" fill="#c47d08" rx="1"/>
  <rect x="386.8" y="508.5" width="14.5" height="14.3" fill="#f59e0b" rx="1"/>
  <rect x="401.3" y="525.0" width="14.5" height="75.0" fill="#f472b6" rx="1"/>
  <rect x="401.3" y="512.4" width="14.5" height="12.6" fill="#c05a92" rx="1"/>
  <rect x="401.3" y="496.1" width="14.5" height="16.3" fill="#f472b6" rx="1"/>
  <rect x="415.9" y="520.3" width="14.5" height="79.7" fill="#4ade80" rx="1"/>
  <rect x="415.9" y="508.5" width="14.5" height="11.7" fill="#3aaf60" rx="1"/>
  <rect x="415.9" y="492.1" width="14.5" height="16.4" fill="#4ade80" rx="1"/>
  <text x="394.1" y="616" text-anchor="middle" fill="#e6edf3" font-size="10" font-weight="600">samba</text>
  <text x="394.1" y="628" text-anchor="middle" fill="#7d8590" font-size="9">21.6 MB</text>
  <rect x="454.6" y="526.6" width="14.5" height="73.4" fill="#60a5fa" rx="1"/>
  <rect x="454.6" y="495.8" width="14.5" height="30.8" fill="#4680c4" rx="1"/>
  <rect x="454.6" y="483.8" width="14.5" height="12.0" fill="#60a5fa" rx="1"/>
  <rect x="469.1" y="579.0" width="14.5" height="21.0" fill="#f87171" rx="1"/>
  <rect x="469.1" y="546.7" width="14.5" height="32.4" fill="#c45050" rx="1"/>
  <rect x="469.1" y="540.6" width="14.5" height="6.1" fill="#f87171" rx="1"/>
  <rect x="483.7" y="524.0" width="14.5" height="76.0" fill="#f59e0b" rx="1"/>
  <rect x="483.7" y="493.1" width="14.5" height="30.9" fill="#c47d08" rx="1"/>
  <rect x="483.7" y="479.9" width="14.5" height="13.2" fill="#f59e0b" rx="1"/>
  <rect x="498.2" y="566.7" width="14.5" height="33.3" fill="#f472b6" rx="1"/>
  <rect x="498.2" y="534.4" width="14.5" height="32.4" fill="#c05a92" rx="1"/>
  <rect x="498.2" y="527.6" width="14.5" height="6.8" fill="#f472b6" rx="1"/>
  <rect x="512.7" y="503.6" width="14.5" height="96.4" fill="#4ade80" rx="1"/>
  <rect x="512.7" y="472.7" width="14.5" height="30.9" fill="#3aaf60" rx="1"/>
  <rect x="512.7" y="457.3" width="14.5" height="15.4" fill="#4ade80" rx="1"/>
  <text x="490.9" y="616" text-anchor="middle" fill="#e6edf3" font-size="10" font-weight="600">sao</text>
  <text x="490.9" y="628" text-anchor="middle" fill="#7d8590" font-size="9">7.3 MB</text>
  <rect x="551.5" y="506.8" width="14.5" height="93.2" fill="#60a5fa" rx="1"/>
  <rect x="551.5" y="490.9" width="14.5" height="16.0" fill="#4680c4" rx="1"/>
  <rect x="551.5" y="475.8" width="14.5" height="15.1" fill="#60a5fa" rx="1"/>
  <rect x="566.0" y="513.0" width="14.5" height="87.0" fill="#f87171" rx="1"/>
  <rect x="566.0" y="495.4" width="14.5" height="17.6" fill="#c45050" rx="1"/>
  <rect x="566.0" y="480.0" width="14.5" height="15.4" fill="#f87171" rx="1"/>
  <rect x="580.5" y="503.1" width="14.5" height="96.9" fill="#f59e0b" rx="1"/>
  <rect x="580.5" y="487.1" width="14.5" height="16.0" fill="#c47d08" rx="1"/>
  <rect x="580.5" y="470.8" width="14.5" height="16.3" fill="#f59e0b" rx="1"/>
  <rect x="595.1" y="487.1" width="14.5" height="112.9" fill="#f472b6" rx="1"/>
  <rect x="595.1" y="469.6" width="14.5" height="17.6" fill="#c05a92" rx="1"/>
  <rect x="595.1" y="449.3" width="14.5" height="20.3" fill="#f472b6" rx="1"/>
  <rect x="609.6" y="479.0" width="14.5" height="121.0" fill="#4ade80" rx="1"/>
  <rect x="609.6" y="463.1" width="14.5" height="16.0" fill="#3aaf60" rx="1"/>
  <rect x="609.6" y="443.1" width="14.5" height="19.9" fill="#4ade80" rx="1"/>
  <text x="587.8" y="616" text-anchor="middle" fill="#e6edf3" font-size="10" font-weight="600">webster</text>
  <text x="587.8" y="628" text-anchor="middle" fill="#7d8590" font-size="9">41.5 MB</text>
  <rect x="648.4" y="572.8" width="14.5" height="27.2" fill="#60a5fa" rx="1"/>
  <rect x="648.4" y="540.2" width="14.5" height="32.6" fill="#4680c4" rx="1"/>
  <rect x="648.4" y="535.4" width="14.5" height="4.8" fill="#60a5fa" rx="1"/>
  <rect x="662.9" y="596.2" width="14.5" height="3.8" fill="#f87171" rx="1"/>
  <rect x="662.9" y="563.2" width="14.5" height="33.0" fill="#c45050" rx="1"/>
  <rect x="662.9" y="560.3" width="14.5" height="2.9" fill="#f87171" rx="1"/>
  <rect x="677.4" y="578.1" width="14.5" height="21.9" fill="#f59e0b" rx="1"/>
  <rect x="677.4" y="545.4" width="14.5" height="32.7" fill="#c47d08" rx="1"/>
  <rect x="677.4" y="541.2" width="14.5" height="4.2" fill="#f59e0b" rx="1"/>
  <rect x="692.0" y="596.2" width="14.5" height="3.8" fill="#f472b6" rx="1"/>
  <rect x="692.0" y="563.2" width="14.5" height="33.0" fill="#c05a92" rx="1"/>
  <rect x="692.0" y="560.3" width="14.5" height="2.9" fill="#f472b6" rx="1"/>
  <rect x="706.5" y="573.3" width="14.5" height="26.7" fill="#4ade80" rx="1"/>
  <rect x="706.5" y="540.6" width="14.5" height="32.7" fill="#3aaf60" rx="1"/>
  <rect x="706.5" y="536.3" width="14.5" height="4.3" fill="#4ade80" rx="1"/>
  <text x="684.7" y="616" text-anchor="middle" fill="#e6edf3" font-size="10" font-weight="600">x-ray</text>
  <text x="684.7" y="628" text-anchor="middle" fill="#7d8590" font-size="9">8.5 MB</text>
  <rect x="745.2" y="522.5" width="14.5" height="77.5" fill="#60a5fa" rx="1"/>
  <rect x="745.2" y="499.3" width="14.5" height="23.2" fill="#4680c4" rx="1"/>
  <rect x="745.2" y="484.7" width="14.5" height="14.5" fill="#60a5fa" rx="1"/>
  <rect x="759.8" y="545.8" width="14.5" height="54.2" fill="#f87171" rx="1"/>
  <rect x="759.8" y="520.6" width="14.5" height="25.2" fill="#c45050" rx="1"/>
  <rect x="759.8" y="506.6" width="14.5" height="14.0" fill="#f87171" rx="1"/>
  <rect x="774.3" y="518.8" width="14.5" height="81.2" fill="#f59e0b" rx="1"/>
  <rect x="774.3" y="495.4" width="14.5" height="23.3" fill="#c47d08" rx="1"/>
  <rect x="774.3" y="479.2" width="14.5" height="16.2" fill="#f59e0b" rx="1"/>
  <rect x="788.8" y="523.6" width="14.5" height="76.4" fill="#f472b6" rx="1"/>
  <rect x="788.8" y="498.4" width="14.5" height="25.2" fill="#c05a92" rx="1"/>
  <rect x="788.8" y="481.9" width="14.5" height="16.5" fill="#f472b6" rx="1"/>
  <rect x="803.4" y="495.6" width="14.5" height="104.4" fill="#4ade80" rx="1"/>
  <rect x="803.4" y="472.3" width="14.5" height="23.3" fill="#3aaf60" rx="1"/>
  <rect x="803.4" y="454.4" width="14.5" height="17.8" fill="#4ade80" rx="1"/>
  <text x="781.6" y="616" text-anchor="middle" fill="#e6edf3" font-size="10" font-weight="600">ooffice</text>
  <text x="781.6" y="628" text-anchor="middle" fill="#7d8590" font-size="9">6.2 MB</text>
  <rect x="242" y="645" width="12" height="12" fill="#60a5fa" rx="2"/>
  <text x="260" y="655" fill="#e6edf3" font-size="10" font-weight="500">lz4 (C)</text>
  <rect x="242" y="663" width="12" height="12" fill="#f87171" rx="2"/>
  <text x="260" y="673" fill="#e6edf3" font-size="10" font-weight="500">lz4rip (unsafe)</text>
  <rect x="242" y="681" width="12" height="12" fill="#f59e0b" rx="2"/>
  <text x="260" y="691" fill="#e6edf3" font-size="10" font-weight="500">lz4_flex (unsafe)</text>
  <rect x="452" y="645" width="12" height="12" fill="#f472b6" rx="2"/>
  <text x="470" y="655" fill="#e6edf3" font-size="10" font-weight="500">lz4rip paranoid (safe)</text>
  <rect x="452" y="663" width="12" height="12" fill="#4ade80" rx="2"/>
  <text x="470" y="673" fill="#e6edf3" font-size="10" font-weight="500">lz4_flex (safe)</text>
  <text x="232" y="716" fill="#e6edf3" font-size="9">bright = compress + decompress</text>
  <text x="472" y="716" fill="#7d8590" font-size="9">dim = transfer @1 GB/s</text>
</svg>
