<svg xmlns="http://www.w3.org/2000/svg" viewBox="0 0 850 720" font-family="system-ui, -apple-system, sans-serif">
  <rect width="850" height="720" fill="#0d1117"/>
  <text x="442.5" y="22" text-anchor="middle" fill="#e6edf3" font-size="14" font-weight="700">LZ4 Block: Compress + Transfer @1 GB/s + Decompress (lower is better)</text>
  <text x="442.5" y="38" text-anchor="middle" fill="#7d8590" font-size="10">Intel Core i7-8700B @ 3.20GHz, performance governor, turbo off</text>
  <line x1="55" y1="224.0" x2="830" y2="224.0" stroke="#21262d" stroke-width="1"/>
  <text x="47" y="224.0" text-anchor="end" dominant-baseline="middle" fill="#7d8590" font-size="10">2</text>
  <line x1="55" y1="158.0" x2="830" y2="158.0" stroke="#21262d" stroke-width="1"/>
  <text x="47" y="158.0" text-anchor="end" dominant-baseline="middle" fill="#7d8590" font-size="10">4</text>
  <line x1="55" y1="92.0" x2="830" y2="92.0" stroke="#21262d" stroke-width="1"/>
  <text x="47" y="92.0" text-anchor="end" dominant-baseline="middle" fill="#7d8590" font-size="10">6</text>
  <line x1="55" y1="290" x2="830" y2="290" stroke="#30363d" stroke-width="1.5"/>
  <text x="22" y="325.0" text-anchor="middle" fill="#e6edf3" font-size="11" font-weight="600" transform="rotate(-90,22,325.0)">seconds / GB</text>
  <rect x="67.1" y="189.8" width="14.5" height="100.2" fill="#60a5fa" rx="1"/>
  <rect x="67.1" y="164.5" width="14.5" height="25.4" fill="#4680c4" rx="1"/>
  <rect x="67.1" y="111.6" width="14.5" height="52.9" fill="#60a5fa" rx="1"/>
  <rect x="81.6" y="204.8" width="14.5" height="85.2" fill="#f87171" rx="1"/>
  <rect x="81.6" y="177.9" width="14.5" height="26.9" fill="#c45050" rx="1"/>
  <rect x="81.6" y="126.8" width="14.5" height="51.1" fill="#f87171" rx="1"/>
  <rect x="96.2" y="174.8" width="14.5" height="115.2" fill="#f59e0b" rx="1"/>
  <rect x="96.2" y="149.4" width="14.5" height="25.4" fill="#c47d08" rx="1"/>
  <rect x="96.2" y="97.0" width="14.5" height="52.4" fill="#f59e0b" rx="1"/>
  <rect x="110.7" y="171.0" width="14.5" height="119.0" fill="#f472b6" rx="1"/>
  <rect x="110.7" y="144.1" width="14.5" height="26.9" fill="#c05a92" rx="1"/>
  <rect x="110.7" y="89.8" width="14.5" height="54.2" fill="#f472b6" rx="1"/>
  <rect x="125.2" y="153.3" width="14.5" height="136.7" fill="#4ade80" rx="1"/>
  <rect x="125.2" y="127.9" width="14.5" height="25.4" fill="#3aaf60" rx="1"/>
  <rect x="125.2" y="71.8" width="14.5" height="56.1" fill="#4ade80" rx="1"/>
  <text x="103.4" y="306" text-anchor="middle" fill="#e6edf3" font-size="10" font-weight="600">1k</text>
  <text x="103.4" y="318" text-anchor="middle" fill="#7d8590" font-size="9">725 B</text>
  <rect x="164.0" y="199.5" width="14.5" height="90.5" fill="#60a5fa" rx="1"/>
  <rect x="164.0" y="180.7" width="14.5" height="18.8" fill="#4680c4" rx="1"/>
  <rect x="164.0" y="161.9" width="14.5" height="18.8" fill="#60a5fa" rx="1"/>
  <rect x="178.5" y="203.3" width="14.5" height="86.7" fill="#f87171" rx="1"/>
  <rect x="178.5" y="184.0" width="14.5" height="19.3" fill="#c45050" rx="1"/>
  <rect x="178.5" y="166.9" width="14.5" height="17.0" fill="#f87171" rx="1"/>
  <rect x="193.0" y="189.3" width="14.5" height="100.7" fill="#f59e0b" rx="1"/>
  <rect x="193.0" y="170.2" width="14.5" height="19.1" fill="#c47d08" rx="1"/>
  <rect x="193.0" y="153.1" width="14.5" height="17.1" fill="#f59e0b" rx="1"/>
  <rect x="207.6" y="168.1" width="14.5" height="121.9" fill="#f472b6" rx="1"/>
  <rect x="207.6" y="148.9" width="14.5" height="19.3" fill="#c05a92" rx="1"/>
  <rect x="207.6" y="129.3" width="14.5" height="19.6" fill="#f472b6" rx="1"/>
  <rect x="222.1" y="156.6" width="14.5" height="133.4" fill="#4ade80" rx="1"/>
  <rect x="222.1" y="137.4" width="14.5" height="19.1" fill="#3aaf60" rx="1"/>
  <rect x="222.1" y="114.9" width="14.5" height="22.6" fill="#4ade80" rx="1"/>
  <text x="200.3" y="306" text-anchor="middle" fill="#e6edf3" font-size="10" font-weight="600">34k</text>
  <text x="200.3" y="318" text-anchor="middle" fill="#7d8590" font-size="9">34 KB</text>
  <rect x="260.9" y="185.8" width="14.5" height="104.2" fill="#60a5fa" rx="1"/>
  <rect x="260.9" y="167.3" width="14.5" height="18.5" fill="#4680c4" rx="1"/>
  <rect x="260.9" y="149.7" width="14.5" height="17.6" fill="#60a5fa" rx="1"/>
  <rect x="275.4" y="202.1" width="14.5" height="87.9" fill="#f87171" rx="1"/>
  <rect x="275.4" y="182.6" width="14.5" height="19.4" fill="#c45050" rx="1"/>
  <rect x="275.4" y="166.7" width="14.5" height="16.0" fill="#f87171" rx="1"/>
  <rect x="289.9" y="181.0" width="14.5" height="109.0" fill="#f59e0b" rx="1"/>
  <rect x="289.9" y="162.1" width="14.5" height="18.9" fill="#c47d08" rx="1"/>
  <rect x="289.9" y="146.1" width="14.5" height="16.0" fill="#f59e0b" rx="1"/>
  <rect x="304.5" y="168.8" width="14.5" height="121.2" fill="#f472b6" rx="1"/>
  <rect x="304.5" y="149.4" width="14.5" height="19.4" fill="#c05a92" rx="1"/>
  <rect x="304.5" y="131.0" width="14.5" height="18.3" fill="#f472b6" rx="1"/>
  <rect x="319.0" y="153.9" width="14.5" height="136.1" fill="#4ade80" rx="1"/>
  <rect x="319.0" y="135.0" width="14.5" height="18.9" fill="#3aaf60" rx="1"/>
  <rect x="319.0" y="113.9" width="14.5" height="21.0" fill="#4ade80" rx="1"/>
  <text x="297.2" y="306" text-anchor="middle" fill="#e6edf3" font-size="10" font-weight="600">65k</text>
  <text x="297.2" y="318" text-anchor="middle" fill="#7d8590" font-size="9">65 KB</text>
  <rect x="357.7" y="254.9" width="14.5" height="35.1" fill="#60a5fa" rx="1"/>
  <rect x="357.7" y="247.4" width="14.5" height="7.5" fill="#4680c4" rx="1"/>
  <rect x="357.7" y="239.1" width="14.5" height="8.4" fill="#60a5fa" rx="1"/>
  <rect x="372.3" y="252.9" width="14.5" height="37.1" fill="#f87171" rx="1"/>
  <rect x="372.3" y="245.2" width="14.5" height="7.8" fill="#c45050" rx="1"/>
  <rect x="372.3" y="233.8" width="14.5" height="11.4" fill="#f87171" rx="1"/>
  <rect x="386.8" y="250.7" width="14.5" height="39.3" fill="#f59e0b" rx="1"/>
  <rect x="386.8" y="243.2" width="14.5" height="7.6" fill="#c47d08" rx="1"/>
  <rect x="386.8" y="233.3" width="14.5" height="9.9" fill="#f59e0b" rx="1"/>
  <rect x="401.3" y="239.2" width="14.5" height="50.8" fill="#f472b6" rx="1"/>
  <rect x="401.3" y="231.4" width="14.5" height="7.8" fill="#c05a92" rx="1"/>
  <rect x="401.3" y="217.9" width="14.5" height="13.5" fill="#f472b6" rx="1"/>
  <rect x="415.9" y="242.6" width="14.5" height="47.4" fill="#4ade80" rx="1"/>
  <rect x="415.9" y="235.0" width="14.5" height="7.6" fill="#3aaf60" rx="1"/>
  <rect x="415.9" y="221.3" width="14.5" height="13.7" fill="#4ade80" rx="1"/>
  <text x="394.1" y="306" text-anchor="middle" fill="#e6edf3" font-size="10" font-weight="600">66k_JSON</text>
  <text x="394.1" y="318" text-anchor="middle" fill="#7d8590" font-size="9">67 KB</text>
  <rect x="454.6" y="183.2" width="14.5" height="106.8" fill="#60a5fa" rx="1"/>
  <rect x="454.6" y="162.4" width="14.5" height="20.8" fill="#4680c4" rx="1"/>
  <rect x="454.6" y="147.3" width="14.5" height="15.0" fill="#60a5fa" rx="1"/>
  <rect x="469.1" y="197.8" width="14.5" height="92.2" fill="#f87171" rx="1"/>
  <rect x="469.1" y="174.2" width="14.5" height="23.6" fill="#c45050" rx="1"/>
  <rect x="469.1" y="155.9" width="14.5" height="18.3" fill="#f87171" rx="1"/>
  <rect x="483.7" y="178.6" width="14.5" height="111.4" fill="#f59e0b" rx="1"/>
  <rect x="483.7" y="157.8" width="14.5" height="20.8" fill="#c47d08" rx="1"/>
  <rect x="483.7" y="143.3" width="14.5" height="14.5" fill="#f59e0b" rx="1"/>
  <rect x="498.2" y="163.5" width="14.5" height="126.5" fill="#f472b6" rx="1"/>
  <rect x="498.2" y="139.9" width="14.5" height="23.6" fill="#c05a92" rx="1"/>
  <rect x="498.2" y="118.1" width="14.5" height="21.8" fill="#f472b6" rx="1"/>
  <rect x="512.7" y="149.2" width="14.5" height="140.8" fill="#4ade80" rx="1"/>
  <rect x="512.7" y="128.4" width="14.5" height="20.8" fill="#3aaf60" rx="1"/>
  <rect x="512.7" y="109.5" width="14.5" height="18.8" fill="#4ade80" rx="1"/>
  <text x="490.9" y="306" text-anchor="middle" fill="#e6edf3" font-size="10" font-weight="600">dickens</text>
  <text x="490.9" y="318" text-anchor="middle" fill="#7d8590" font-size="9">10.2 MB</text>
  <rect x="551.5" y="263.8" width="14.5" height="26.2" fill="#60a5fa" rx="1"/>
  <rect x="551.5" y="260.1" width="14.5" height="3.6" fill="#4680c4" rx="1"/>
  <rect x="551.5" y="253.3" width="14.5" height="6.8" fill="#60a5fa" rx="1"/>
  <rect x="566.0" y="265.1" width="14.5" height="24.9" fill="#f87171" rx="1"/>
  <rect x="566.0" y="261.4" width="14.5" height="3.7" fill="#c45050" rx="1"/>
  <rect x="566.0" y="253.8" width="14.5" height="7.6" fill="#f87171" rx="1"/>
  <rect x="580.5" y="259.8" width="14.5" height="30.2" fill="#f59e0b" rx="1"/>
  <rect x="580.5" y="256.2" width="14.5" height="3.6" fill="#c47d08" rx="1"/>
  <rect x="580.5" y="247.5" width="14.5" height="8.7" fill="#f59e0b" rx="1"/>
  <rect x="595.1" y="259.9" width="14.5" height="30.1" fill="#f472b6" rx="1"/>
  <rect x="595.1" y="256.2" width="14.5" height="3.7" fill="#c05a92" rx="1"/>
  <rect x="595.1" y="248.2" width="14.5" height="8.0" fill="#f472b6" rx="1"/>
  <rect x="609.6" y="256.7" width="14.5" height="33.3" fill="#4ade80" rx="1"/>
  <rect x="609.6" y="253.1" width="14.5" height="3.6" fill="#3aaf60" rx="1"/>
  <rect x="609.6" y="244.0" width="14.5" height="9.1" fill="#4ade80" rx="1"/>
  <text x="587.8" y="306" text-anchor="middle" fill="#e6edf3" font-size="10" font-weight="600">hdfs.json</text>
  <text x="587.8" y="318" text-anchor="middle" fill="#7d8590" font-size="9">7.0 MB</text>
  <rect x="648.4" y="184.2" width="14.5" height="105.8" fill="#60a5fa" rx="1"/>
  <rect x="648.4" y="168.4" width="14.5" height="15.8" fill="#4680c4" rx="1"/>
  <rect x="648.4" y="151.6" width="14.5" height="16.8" fill="#60a5fa" rx="1"/>
  <rect x="662.9" y="187.6" width="14.5" height="102.4" fill="#f87171" rx="1"/>
  <rect x="662.9" y="170.8" width="14.5" height="16.8" fill="#c45050" rx="1"/>
  <rect x="662.9" y="150.9" width="14.5" height="20.0" fill="#f87171" rx="1"/>
  <rect x="677.4" y="180.9" width="14.5" height="109.1" fill="#f59e0b" rx="1"/>
  <rect x="677.4" y="165.0" width="14.5" height="15.9" fill="#c47d08" rx="1"/>
  <rect x="677.4" y="148.9" width="14.5" height="16.2" fill="#f59e0b" rx="1"/>
  <rect x="692.0" y="159.8" width="14.5" height="130.2" fill="#f472b6" rx="1"/>
  <rect x="692.0" y="143.0" width="14.5" height="16.8" fill="#c05a92" rx="1"/>
  <rect x="692.0" y="120.5" width="14.5" height="22.5" fill="#f472b6" rx="1"/>
  <rect x="706.5" y="165.4" width="14.5" height="124.6" fill="#4ade80" rx="1"/>
  <rect x="706.5" y="149.5" width="14.5" height="15.9" fill="#3aaf60" rx="1"/>
  <rect x="706.5" y="128.3" width="14.5" height="21.2" fill="#4ade80" rx="1"/>
  <text x="684.7" y="306" text-anchor="middle" fill="#e6edf3" font-size="10" font-weight="600">reymont.pdf</text>
  <text x="684.7" y="318" text-anchor="middle" fill="#7d8590" font-size="9">6.6 MB</text>
  <rect x="745.2" y="240.6" width="14.5" height="49.4" fill="#60a5fa" rx="1"/>
  <rect x="745.2" y="233.0" width="14.5" height="7.6" fill="#4680c4" rx="1"/>
  <rect x="745.2" y="220.7" width="14.5" height="12.3" fill="#60a5fa" rx="1"/>
  <rect x="759.8" y="242.2" width="14.5" height="47.8" fill="#f87171" rx="1"/>
  <rect x="759.8" y="234.1" width="14.5" height="8.1" fill="#c45050" rx="1"/>
  <rect x="759.8" y="220.4" width="14.5" height="13.7" fill="#f87171" rx="1"/>
  <rect x="774.3" y="237.9" width="14.5" height="52.1" fill="#f59e0b" rx="1"/>
  <rect x="774.3" y="230.3" width="14.5" height="7.6" fill="#c47d08" rx="1"/>
  <rect x="774.3" y="216.2" width="14.5" height="14.0" fill="#f59e0b" rx="1"/>
  <rect x="788.8" y="230.3" width="14.5" height="59.7" fill="#f472b6" rx="1"/>
  <rect x="788.8" y="222.2" width="14.5" height="8.1" fill="#c05a92" rx="1"/>
  <rect x="788.8" y="207.0" width="14.5" height="15.3" fill="#f472b6" rx="1"/>
  <rect x="803.4" y="229.8" width="14.5" height="60.2" fill="#4ade80" rx="1"/>
  <rect x="803.4" y="222.2" width="14.5" height="7.6" fill="#3aaf60" rx="1"/>
  <rect x="803.4" y="206.6" width="14.5" height="15.6" fill="#4ade80" rx="1"/>
  <text x="781.6" y="306" text-anchor="middle" fill="#e6edf3" font-size="10" font-weight="600">xml_collection.xml</text>
  <text x="781.6" y="318" text-anchor="middle" fill="#7d8590" font-size="9">5.3 MB</text>
  <line x1="55" y1="534.0" x2="830" y2="534.0" stroke="#21262d" stroke-width="1"/>
  <text x="47" y="534.0" text-anchor="end" dominant-baseline="middle" fill="#7d8590" font-size="10">2</text>
  <line x1="55" y1="468.0" x2="830" y2="468.0" stroke="#21262d" stroke-width="1"/>
  <text x="47" y="468.0" text-anchor="end" dominant-baseline="middle" fill="#7d8590" font-size="10">4</text>
  <line x1="55" y1="402.0" x2="830" y2="402.0" stroke="#21262d" stroke-width="1"/>
  <text x="47" y="402.0" text-anchor="end" dominant-baseline="middle" fill="#7d8590" font-size="10">6</text>
  <line x1="55" y1="600" x2="830" y2="600" stroke="#30363d" stroke-width="1.5"/>
  <rect x="67.1" y="533.4" width="14.5" height="66.6" fill="#60a5fa" rx="1"/>
  <rect x="67.1" y="515.4" width="14.5" height="18.0" fill="#4680c4" rx="1"/>
  <rect x="67.1" y="502.9" width="14.5" height="12.5" fill="#60a5fa" rx="1"/>
  <rect x="81.6" y="555.1" width="14.5" height="44.9" fill="#f87171" rx="1"/>
  <rect x="81.6" y="535.7" width="14.5" height="19.4" fill="#c45050" rx="1"/>
  <rect x="81.6" y="523.1" width="14.5" height="12.6" fill="#f87171" rx="1"/>
  <rect x="96.2" y="534.0" width="14.5" height="66.0" fill="#f59e0b" rx="1"/>
  <rect x="96.2" y="515.9" width="14.5" height="18.1" fill="#c47d08" rx="1"/>
  <rect x="96.2" y="501.7" width="14.5" height="14.2" fill="#f59e0b" rx="1"/>
  <rect x="110.7" y="537.4" width="14.5" height="62.6" fill="#f472b6" rx="1"/>
  <rect x="110.7" y="518.0" width="14.5" height="19.4" fill="#c05a92" rx="1"/>
  <rect x="110.7" y="504.1" width="14.5" height="13.9" fill="#f472b6" rx="1"/>
  <rect x="125.2" y="519.2" width="14.5" height="80.8" fill="#4ade80" rx="1"/>
  <rect x="125.2" y="501.1" width="14.5" height="18.1" fill="#3aaf60" rx="1"/>
  <rect x="125.2" y="485.3" width="14.5" height="15.7" fill="#4ade80" rx="1"/>
  <text x="103.4" y="616" text-anchor="middle" fill="#e6edf3" font-size="10" font-weight="600">mr</text>
  <text x="103.4" y="628" text-anchor="middle" fill="#7d8590" font-size="9">10.0 MB</text>
  <rect x="164.0" y="535.4" width="14.5" height="64.6" fill="#60a5fa" rx="1"/>
  <rect x="164.0" y="518.4" width="14.5" height="17.0" fill="#4680c4" rx="1"/>
  <rect x="164.0" y="505.1" width="14.5" height="13.2" fill="#60a5fa" rx="1"/>
  <rect x="178.5" y="544.3" width="14.5" height="55.7" fill="#f87171" rx="1"/>
  <rect x="178.5" y="526.4" width="14.5" height="18.0" fill="#c45050" rx="1"/>
  <rect x="178.5" y="511.1" width="14.5" height="15.3" fill="#f87171" rx="1"/>
  <rect x="193.0" y="532.1" width="14.5" height="67.9" fill="#f59e0b" rx="1"/>
  <rect x="193.0" y="515.0" width="14.5" height="17.1" fill="#c47d08" rx="1"/>
  <rect x="193.0" y="499.7" width="14.5" height="15.3" fill="#f59e0b" rx="1"/>
  <rect x="207.6" y="523.8" width="14.5" height="76.2" fill="#f472b6" rx="1"/>
  <rect x="207.6" y="505.8" width="14.5" height="18.0" fill="#c05a92" rx="1"/>
  <rect x="207.6" y="488.5" width="14.5" height="17.3" fill="#f472b6" rx="1"/>
  <rect x="222.1" y="515.7" width="14.5" height="84.3" fill="#4ade80" rx="1"/>
  <rect x="222.1" y="498.7" width="14.5" height="17.1" fill="#3aaf60" rx="1"/>
  <rect x="222.1" y="481.5" width="14.5" height="17.2" fill="#4ade80" rx="1"/>
  <text x="200.3" y="616" text-anchor="middle" fill="#e6edf3" font-size="10" font-weight="600">mozilla</text>
  <text x="200.3" y="628" text-anchor="middle" fill="#7d8590" font-size="9">51.2 MB</text>
  <rect x="260.9" y="560.2" width="14.5" height="39.8" fill="#60a5fa" rx="1"/>
  <rect x="260.9" y="554.8" width="14.5" height="5.4" fill="#4680c4" rx="1"/>
  <rect x="260.9" y="545.2" width="14.5" height="9.6" fill="#60a5fa" rx="1"/>
  <rect x="275.4" y="560.7" width="14.5" height="39.3" fill="#f87171" rx="1"/>
  <rect x="275.4" y="555.0" width="14.5" height="5.6" fill="#c45050" rx="1"/>
  <rect x="275.4" y="544.1" width="14.5" height="11.0" fill="#f87171" rx="1"/>
  <rect x="289.9" y="556.7" width="14.5" height="43.3" fill="#f59e0b" rx="1"/>
  <rect x="289.9" y="551.2" width="14.5" height="5.4" fill="#c47d08" rx="1"/>
  <rect x="289.9" y="538.1" width="14.5" height="13.1" fill="#f59e0b" rx="1"/>
  <rect x="304.5" y="551.9" width="14.5" height="48.1" fill="#f472b6" rx="1"/>
  <rect x="304.5" y="546.2" width="14.5" height="5.6" fill="#c05a92" rx="1"/>
  <rect x="304.5" y="534.1" width="14.5" height="12.1" fill="#f472b6" rx="1"/>
  <rect x="319.0" y="550.8" width="14.5" height="49.2" fill="#4ade80" rx="1"/>
  <rect x="319.0" y="545.4" width="14.5" height="5.4" fill="#3aaf60" rx="1"/>
  <rect x="319.0" y="531.8" width="14.5" height="13.6" fill="#4ade80" rx="1"/>
  <text x="297.2" y="616" text-anchor="middle" fill="#e6edf3" font-size="10" font-weight="600">nci</text>
  <text x="297.2" y="628" text-anchor="middle" fill="#7d8590" font-size="9">33.6 MB</text>
  <rect x="357.7" y="525.5" width="14.5" height="74.5" fill="#60a5fa" rx="1"/>
  <rect x="357.7" y="508.3" width="14.5" height="17.2" fill="#4680c4" rx="1"/>
  <rect x="357.7" y="494.3" width="14.5" height="14.0" fill="#60a5fa" rx="1"/>
  <rect x="372.3" y="541.4" width="14.5" height="58.6" fill="#f87171" rx="1"/>
  <rect x="372.3" y="518.5" width="14.5" height="22.8" fill="#c45050" rx="1"/>
  <rect x="372.3" y="501.5" width="14.5" height="17.1" fill="#f87171" rx="1"/>
  <rect x="386.8" y="519.8" width="14.5" height="80.2" fill="#f59e0b" rx="1"/>
  <rect x="386.8" y="502.5" width="14.5" height="17.3" fill="#c47d08" rx="1"/>
  <rect x="386.8" y="486.4" width="14.5" height="16.1" fill="#f59e0b" rx="1"/>
  <rect x="401.3" y="518.3" width="14.5" height="81.7" fill="#f472b6" rx="1"/>
  <rect x="401.3" y="495.5" width="14.5" height="22.8" fill="#c05a92" rx="1"/>
  <rect x="401.3" y="475.3" width="14.5" height="20.3" fill="#f472b6" rx="1"/>
  <rect x="415.9" y="501.5" width="14.5" height="98.5" fill="#4ade80" rx="1"/>
  <rect x="415.9" y="484.2" width="14.5" height="17.3" fill="#3aaf60" rx="1"/>
  <rect x="415.9" y="465.9" width="14.5" height="18.3" fill="#4ade80" rx="1"/>
  <text x="394.1" y="616" text-anchor="middle" fill="#e6edf3" font-size="10" font-weight="600">osdb</text>
  <text x="394.1" y="628" text-anchor="middle" fill="#7d8590" font-size="9">10.1 MB</text>
  <rect x="454.6" y="537.7" width="14.5" height="62.3" fill="#60a5fa" rx="1"/>
  <rect x="454.6" y="525.9" width="14.5" height="11.8" fill="#4680c4" rx="1"/>
  <rect x="454.6" y="513.8" width="14.5" height="12.1" fill="#60a5fa" rx="1"/>
  <rect x="469.1" y="542.0" width="14.5" height="58.0" fill="#f87171" rx="1"/>
  <rect x="469.1" y="529.4" width="14.5" height="12.6" fill="#c45050" rx="1"/>
  <rect x="469.1" y="515.2" width="14.5" height="14.2" fill="#f87171" rx="1"/>
  <rect x="483.7" y="534.7" width="14.5" height="65.3" fill="#f59e0b" rx="1"/>
  <rect x="483.7" y="523.0" width="14.5" height="11.8" fill="#c47d08" rx="1"/>
  <rect x="483.7" y="509.0" width="14.5" height="14.0" fill="#f59e0b" rx="1"/>
  <rect x="498.2" y="525.9" width="14.5" height="74.1" fill="#f472b6" rx="1"/>
  <rect x="498.2" y="513.3" width="14.5" height="12.6" fill="#c05a92" rx="1"/>
  <rect x="498.2" y="497.1" width="14.5" height="16.2" fill="#f472b6" rx="1"/>
  <rect x="512.7" y="523.3" width="14.5" height="76.7" fill="#4ade80" rx="1"/>
  <rect x="512.7" y="511.5" width="14.5" height="11.8" fill="#3aaf60" rx="1"/>
  <rect x="512.7" y="495.4" width="14.5" height="16.1" fill="#4ade80" rx="1"/>
  <text x="490.9" y="616" text-anchor="middle" fill="#e6edf3" font-size="10" font-weight="600">samba</text>
  <text x="490.9" y="628" text-anchor="middle" fill="#7d8590" font-size="9">21.6 MB</text>
  <rect x="551.5" y="526.7" width="14.5" height="73.3" fill="#60a5fa" rx="1"/>
  <rect x="551.5" y="495.8" width="14.5" height="30.9" fill="#4680c4" rx="1"/>
  <rect x="551.5" y="484.0" width="14.5" height="11.8" fill="#60a5fa" rx="1"/>
  <rect x="566.0" y="579.3" width="14.5" height="20.7" fill="#f87171" rx="1"/>
  <rect x="566.0" y="546.8" width="14.5" height="32.5" fill="#c45050" rx="1"/>
  <rect x="566.0" y="541.0" width="14.5" height="5.8" fill="#f87171" rx="1"/>
  <rect x="580.5" y="524.1" width="14.5" height="75.9" fill="#f59e0b" rx="1"/>
  <rect x="580.5" y="493.1" width="14.5" height="31.0" fill="#c47d08" rx="1"/>
  <rect x="580.5" y="480.0" width="14.5" height="13.1" fill="#f59e0b" rx="1"/>
  <rect x="595.1" y="566.9" width="14.5" height="33.1" fill="#f472b6" rx="1"/>
  <rect x="595.1" y="534.4" width="14.5" height="32.5" fill="#c05a92" rx="1"/>
  <rect x="595.1" y="527.7" width="14.5" height="6.8" fill="#f472b6" rx="1"/>
  <rect x="609.6" y="503.7" width="14.5" height="96.3" fill="#4ade80" rx="1"/>
  <rect x="609.6" y="472.6" width="14.5" height="31.0" fill="#3aaf60" rx="1"/>
  <rect x="609.6" y="457.6" width="14.5" height="15.0" fill="#4ade80" rx="1"/>
  <text x="587.8" y="616" text-anchor="middle" fill="#e6edf3" font-size="10" font-weight="600">sao</text>
  <text x="587.8" y="628" text-anchor="middle" fill="#7d8590" font-size="9">7.3 MB</text>
  <rect x="648.4" y="506.8" width="14.5" height="93.2" fill="#60a5fa" rx="1"/>
  <rect x="648.4" y="490.7" width="14.5" height="16.0" fill="#4680c4" rx="1"/>
  <rect x="648.4" y="476.0" width="14.5" height="14.7" fill="#60a5fa" rx="1"/>
  <rect x="662.9" y="514.5" width="14.5" height="85.5" fill="#f87171" rx="1"/>
  <rect x="662.9" y="496.9" width="14.5" height="17.6" fill="#c45050" rx="1"/>
  <rect x="662.9" y="479.6" width="14.5" height="17.2" fill="#f87171" rx="1"/>
  <rect x="677.4" y="503.1" width="14.5" height="96.9" fill="#f59e0b" rx="1"/>
  <rect x="677.4" y="487.1" width="14.5" height="16.0" fill="#c47d08" rx="1"/>
  <rect x="677.4" y="471.2" width="14.5" height="15.9" fill="#f59e0b" rx="1"/>
  <rect x="692.0" y="488.1" width="14.5" height="111.9" fill="#f472b6" rx="1"/>
  <rect x="692.0" y="470.5" width="14.5" height="17.6" fill="#c05a92" rx="1"/>
  <rect x="692.0" y="450.1" width="14.5" height="20.3" fill="#f472b6" rx="1"/>
  <rect x="706.5" y="481.6" width="14.5" height="118.4" fill="#4ade80" rx="1"/>
  <rect x="706.5" y="465.6" width="14.5" height="16.0" fill="#3aaf60" rx="1"/>
  <rect x="706.5" y="446.0" width="14.5" height="19.6" fill="#4ade80" rx="1"/>
  <text x="684.7" y="616" text-anchor="middle" fill="#e6edf3" font-size="10" font-weight="600">webster</text>
  <text x="684.7" y="628" text-anchor="middle" fill="#7d8590" font-size="9">41.5 MB</text>
  <rect x="745.2" y="573.1" width="14.5" height="26.9" fill="#60a5fa" rx="1"/>
  <rect x="745.2" y="540.4" width="14.5" height="32.7" fill="#4680c4" rx="1"/>
  <rect x="745.2" y="535.8" width="14.5" height="4.6" fill="#60a5fa" rx="1"/>
  <rect x="759.8" y="596.6" width="14.5" height="3.4" fill="#f87171" rx="1"/>
  <rect x="759.8" y="563.5" width="14.5" height="33.1" fill="#c45050" rx="1"/>
  <rect x="759.8" y="560.8" width="14.5" height="2.6" fill="#f87171" rx="1"/>
  <rect x="774.3" y="578.4" width="14.5" height="21.6" fill="#f59e0b" rx="1"/>
  <rect x="774.3" y="545.6" width="14.5" height="32.8" fill="#c47d08" rx="1"/>
  <rect x="774.3" y="541.6" width="14.5" height="4.0" fill="#f59e0b" rx="1"/>
  <rect x="788.8" y="596.3" width="14.5" height="3.7" fill="#f472b6" rx="1"/>
  <rect x="788.8" y="563.2" width="14.5" height="33.1" fill="#c05a92" rx="1"/>
  <rect x="788.8" y="560.5" width="14.5" height="2.7" fill="#f472b6" rx="1"/>
  <rect x="803.4" y="573.7" width="14.5" height="26.3" fill="#4ade80" rx="1"/>
  <rect x="803.4" y="540.9" width="14.5" height="32.8" fill="#3aaf60" rx="1"/>
  <rect x="803.4" y="536.8" width="14.5" height="4.1" fill="#4ade80" rx="1"/>
  <text x="781.6" y="616" text-anchor="middle" fill="#e6edf3" font-size="10" font-weight="600">x-ray</text>
  <text x="781.6" y="628" text-anchor="middle" fill="#7d8590" font-size="9">8.5 MB</text>
  <rect x="242" y="645" width="12" height="12" fill="#60a5fa" rx="2"/>
  <text x="260" y="655" fill="#e6edf3" font-size="10" font-weight="500">lz4 (C)</text>
  <rect x="242" y="663" width="12" height="12" fill="#f87171" rx="2"/>
  <text x="260" y="673" fill="#e6edf3" font-size="10" font-weight="500">lz4rip (unsafe)</text>
  <rect x="242" y="681" width="12" height="12" fill="#f59e0b" rx="2"/>
  <text x="260" y="691" fill="#e6edf3" font-size="10" font-weight="500">lz4_flex (unsafe)</text>
  <rect x="452" y="645" width="12" height="12" fill="#f472b6" rx="2"/>
  <text x="470" y="655" fill="#e6edf3" font-size="10" font-weight="500">lz4rip paranoid (safe)</text>
  <rect x="452" y="663" width="12" height="12" fill="#4ade80" rx="2"/>
  <text x="470" y="673" fill="#e6edf3" font-size="10" font-weight="500">lz4_flex (safe)</text>
  <text x="232" y="716" fill="#e6edf3" font-size="9">bright = compress + decompress</text>
  <text x="472" y="716" fill="#7d8590" font-size="9">dim = transfer @1 GB/s</text>
</svg>
