<svg xmlns="http://www.w3.org/2000/svg" viewBox="0 0 850 720" font-family="system-ui, -apple-system, sans-serif">
  <rect width="850" height="720" fill="#0d1117"/>
  <text x="442.5" y="22" text-anchor="middle" fill="#e6edf3" font-size="14" font-weight="700">LZ4 Block: Compress + Transfer @1 GB/s + Decompress (lower is better)</text>
  <text x="442.5" y="38" text-anchor="middle" fill="#7d8590" font-size="10">Intel Core i7-8700B @ 3.20GHz, performance governor, turbo off</text>
  <line x1="55" y1="224.2" x2="830" y2="224.2" stroke="#21262d" stroke-width="1"/>
  <text x="47" y="224.2" text-anchor="end" dominant-baseline="middle" fill="#7d8590" font-size="10">2</text>
  <line x1="55" y1="158.4" x2="830" y2="158.4" stroke="#21262d" stroke-width="1"/>
  <text x="47" y="158.4" text-anchor="end" dominant-baseline="middle" fill="#7d8590" font-size="10">4</text>
  <line x1="55" y1="92.6" x2="830" y2="92.6" stroke="#21262d" stroke-width="1"/>
  <text x="47" y="92.6" text-anchor="end" dominant-baseline="middle" fill="#7d8590" font-size="10">6</text>
  <line x1="55" y1="290" x2="830" y2="290" stroke="#30363d" stroke-width="1.5"/>
  <text x="22" y="325.0" text-anchor="middle" fill="#e6edf3" font-size="11" font-weight="600" transform="rotate(-90,22,325.0)">seconds / GB</text>
  <rect x="67.1" y="190.6" width="18.2" height="99.4" fill="#60a5fa" rx="1"/>
  <rect x="67.1" y="165.3" width="18.2" height="25.3" fill="#4680c4" rx="1"/>
  <rect x="67.1" y="112.7" width="18.2" height="52.6" fill="#60a5fa" rx="1"/>
  <rect x="85.3" y="199.5" width="18.2" height="90.5" fill="#f87171" rx="1"/>
  <rect x="85.3" y="173.2" width="18.2" height="26.3" fill="#c45050" rx="1"/>
  <rect x="85.3" y="121.8" width="18.2" height="51.3" fill="#f87171" rx="1"/>
  <rect x="103.4" y="183.0" width="18.2" height="107.0" fill="#f59e0b" rx="1"/>
  <rect x="103.4" y="157.7" width="18.2" height="25.3" fill="#c47d08" rx="1"/>
  <rect x="103.4" y="105.4" width="18.2" height="52.2" fill="#f59e0b" rx="1"/>
  <rect x="121.6" y="154.6" width="18.2" height="135.4" fill="#4ade80" rx="1"/>
  <rect x="121.6" y="129.3" width="18.2" height="25.3" fill="#3aaf60" rx="1"/>
  <rect x="121.6" y="71.8" width="18.2" height="57.5" fill="#4ade80" rx="1"/>
  <text x="103.4" y="306" text-anchor="middle" fill="#e6edf3" font-size="10" font-weight="600">1k</text>
  <text x="103.4" y="318" text-anchor="middle" fill="#7d8590" font-size="9">725 B</text>
  <rect x="164.0" y="200.1" width="18.2" height="89.9" fill="#60a5fa" rx="1"/>
  <rect x="164.0" y="181.3" width="18.2" height="18.8" fill="#4680c4" rx="1"/>
  <rect x="164.0" y="162.7" width="18.2" height="18.6" fill="#60a5fa" rx="1"/>
  <rect x="182.1" y="200.0" width="18.2" height="90.0" fill="#f87171" rx="1"/>
  <rect x="182.1" y="181.4" width="18.2" height="18.6" fill="#c45050" rx="1"/>
  <rect x="182.1" y="164.7" width="18.2" height="16.7" fill="#f87171" rx="1"/>
  <rect x="200.3" y="181.7" width="18.2" height="108.3" fill="#f59e0b" rx="1"/>
  <rect x="200.3" y="162.6" width="18.2" height="19.1" fill="#c47d08" rx="1"/>
  <rect x="200.3" y="145.3" width="18.2" height="17.3" fill="#f59e0b" rx="1"/>
  <rect x="218.5" y="157.5" width="18.2" height="132.5" fill="#4ade80" rx="1"/>
  <rect x="218.5" y="138.4" width="18.2" height="19.1" fill="#3aaf60" rx="1"/>
  <rect x="218.5" y="113.3" width="18.2" height="25.1" fill="#4ade80" rx="1"/>
  <text x="200.3" y="306" text-anchor="middle" fill="#e6edf3" font-size="10" font-weight="600">34k</text>
  <text x="200.3" y="318" text-anchor="middle" fill="#7d8590" font-size="9">34 KB</text>
  <rect x="260.9" y="185.6" width="18.2" height="104.4" fill="#60a5fa" rx="1"/>
  <rect x="260.9" y="167.2" width="18.2" height="18.4" fill="#4680c4" rx="1"/>
  <rect x="260.9" y="149.7" width="18.2" height="17.5" fill="#60a5fa" rx="1"/>
  <rect x="279.0" y="197.5" width="18.2" height="92.5" fill="#f87171" rx="1"/>
  <rect x="279.0" y="178.9" width="18.2" height="18.6" fill="#c45050" rx="1"/>
  <rect x="279.0" y="163.3" width="18.2" height="15.6" fill="#f87171" rx="1"/>
  <rect x="297.2" y="178.4" width="18.2" height="111.6" fill="#f59e0b" rx="1"/>
  <rect x="297.2" y="159.5" width="18.2" height="18.9" fill="#c47d08" rx="1"/>
  <rect x="297.2" y="142.9" width="18.2" height="16.6" fill="#f59e0b" rx="1"/>
  <rect x="315.4" y="154.6" width="18.2" height="135.4" fill="#4ade80" rx="1"/>
  <rect x="315.4" y="135.7" width="18.2" height="18.9" fill="#3aaf60" rx="1"/>
  <rect x="315.4" y="112.3" width="18.2" height="23.4" fill="#4ade80" rx="1"/>
  <text x="297.2" y="306" text-anchor="middle" fill="#e6edf3" font-size="10" font-weight="600">65k</text>
  <text x="297.2" y="318" text-anchor="middle" fill="#7d8590" font-size="9">65 KB</text>
  <rect x="357.7" y="254.8" width="18.2" height="35.2" fill="#60a5fa" rx="1"/>
  <rect x="357.7" y="247.3" width="18.2" height="7.5" fill="#4680c4" rx="1"/>
  <rect x="357.7" y="239.1" width="18.2" height="8.3" fill="#60a5fa" rx="1"/>
  <rect x="375.9" y="252.4" width="18.2" height="37.6" fill="#f87171" rx="1"/>
  <rect x="375.9" y="244.7" width="18.2" height="7.7" fill="#c45050" rx="1"/>
  <rect x="375.9" y="233.0" width="18.2" height="11.7" fill="#f87171" rx="1"/>
  <rect x="394.1" y="245.3" width="18.2" height="44.7" fill="#f59e0b" rx="1"/>
  <rect x="394.1" y="237.7" width="18.2" height="7.5" fill="#c47d08" rx="1"/>
  <rect x="394.1" y="228.0" width="18.2" height="9.7" fill="#f59e0b" rx="1"/>
  <rect x="412.2" y="237.3" width="18.2" height="52.7" fill="#4ade80" rx="1"/>
  <rect x="412.2" y="229.8" width="18.2" height="7.5" fill="#3aaf60" rx="1"/>
  <rect x="412.2" y="217.6" width="18.2" height="12.2" fill="#4ade80" rx="1"/>
  <text x="394.1" y="306" text-anchor="middle" fill="#e6edf3" font-size="10" font-weight="600">66k_JSON</text>
  <text x="394.1" y="318" text-anchor="middle" fill="#7d8590" font-size="9">67 KB</text>
  <rect x="454.6" y="183.5" width="18.2" height="106.5" fill="#60a5fa" rx="1"/>
  <rect x="454.6" y="162.8" width="18.2" height="20.8" fill="#4680c4" rx="1"/>
  <rect x="454.6" y="148.0" width="18.2" height="14.8" fill="#60a5fa" rx="1"/>
  <rect x="472.8" y="179.4" width="18.2" height="110.6" fill="#f87171" rx="1"/>
  <rect x="472.8" y="158.4" width="18.2" height="21.1" fill="#c45050" rx="1"/>
  <rect x="472.8" y="140.5" width="18.2" height="17.9" fill="#f87171" rx="1"/>
  <rect x="490.9" y="170.9" width="18.2" height="119.1" fill="#f59e0b" rx="1"/>
  <rect x="490.9" y="150.1" width="18.2" height="20.8" fill="#c47d08" rx="1"/>
  <rect x="490.9" y="135.7" width="18.2" height="14.4" fill="#f59e0b" rx="1"/>
  <rect x="509.1" y="146.0" width="18.2" height="144.0" fill="#4ade80" rx="1"/>
  <rect x="509.1" y="125.3" width="18.2" height="20.8" fill="#3aaf60" rx="1"/>
  <rect x="509.1" y="104.6" width="18.2" height="20.7" fill="#4ade80" rx="1"/>
  <text x="490.9" y="306" text-anchor="middle" fill="#e6edf3" font-size="10" font-weight="600">dickens</text>
  <text x="490.9" y="318" text-anchor="middle" fill="#7d8590" font-size="9">10.2 MB</text>
  <rect x="551.5" y="263.9" width="18.2" height="26.1" fill="#60a5fa" rx="1"/>
  <rect x="551.5" y="260.3" width="18.2" height="3.6" fill="#4680c4" rx="1"/>
  <rect x="551.5" y="253.5" width="18.2" height="6.8" fill="#60a5fa" rx="1"/>
  <rect x="569.6" y="262.6" width="18.2" height="27.4" fill="#f87171" rx="1"/>
  <rect x="569.6" y="258.9" width="18.2" height="3.6" fill="#c45050" rx="1"/>
  <rect x="569.6" y="251.4" width="18.2" height="7.5" fill="#f87171" rx="1"/>
  <rect x="587.8" y="259.5" width="18.2" height="30.5" fill="#f59e0b" rx="1"/>
  <rect x="587.8" y="255.9" width="18.2" height="3.6" fill="#c47d08" rx="1"/>
  <rect x="587.8" y="247.4" width="18.2" height="8.4" fill="#f59e0b" rx="1"/>
  <rect x="606.0" y="254.7" width="18.2" height="35.3" fill="#4ade80" rx="1"/>
  <rect x="606.0" y="251.1" width="18.2" height="3.6" fill="#3aaf60" rx="1"/>
  <rect x="606.0" y="241.8" width="18.2" height="9.3" fill="#4ade80" rx="1"/>
  <text x="587.8" y="306" text-anchor="middle" fill="#e6edf3" font-size="10" font-weight="600">hdfs.json</text>
  <text x="587.8" y="318" text-anchor="middle" fill="#7d8590" font-size="9">7.0 MB</text>
  <rect x="648.4" y="184.5" width="18.2" height="105.5" fill="#60a5fa" rx="1"/>
  <rect x="648.4" y="168.7" width="18.2" height="15.8" fill="#4680c4" rx="1"/>
  <rect x="648.4" y="152.0" width="18.2" height="16.7" fill="#60a5fa" rx="1"/>
  <rect x="666.5" y="183.2" width="18.2" height="106.8" fill="#f87171" rx="1"/>
  <rect x="666.5" y="167.4" width="18.2" height="15.8" fill="#c45050" rx="1"/>
  <rect x="666.5" y="148.1" width="18.2" height="19.3" fill="#f87171" rx="1"/>
  <rect x="684.7" y="180.3" width="18.2" height="109.7" fill="#f59e0b" rx="1"/>
  <rect x="684.7" y="164.5" width="18.2" height="15.8" fill="#c47d08" rx="1"/>
  <rect x="684.7" y="148.4" width="18.2" height="16.1" fill="#f59e0b" rx="1"/>
  <rect x="702.9" y="159.0" width="18.2" height="131.0" fill="#4ade80" rx="1"/>
  <rect x="702.9" y="143.2" width="18.2" height="15.8" fill="#3aaf60" rx="1"/>
  <rect x="702.9" y="119.8" width="18.2" height="23.3" fill="#4ade80" rx="1"/>
  <text x="684.7" y="306" text-anchor="middle" fill="#e6edf3" font-size="10" font-weight="600">reymont.pdf</text>
  <text x="684.7" y="318" text-anchor="middle" fill="#7d8590" font-size="9">6.6 MB</text>
  <rect x="745.2" y="241.0" width="18.2" height="49.0" fill="#60a5fa" rx="1"/>
  <rect x="745.2" y="233.4" width="18.2" height="7.6" fill="#4680c4" rx="1"/>
  <rect x="745.2" y="221.2" width="18.2" height="12.2" fill="#60a5fa" rx="1"/>
  <rect x="763.4" y="239.5" width="18.2" height="50.5" fill="#f87171" rx="1"/>
  <rect x="763.4" y="231.8" width="18.2" height="7.7" fill="#c45050" rx="1"/>
  <rect x="763.4" y="218.4" width="18.2" height="13.5" fill="#f87171" rx="1"/>
  <rect x="781.6" y="236.4" width="18.2" height="53.6" fill="#f59e0b" rx="1"/>
  <rect x="781.6" y="228.8" width="18.2" height="7.6" fill="#c47d08" rx="1"/>
  <rect x="781.6" y="215.0" width="18.2" height="13.8" fill="#f59e0b" rx="1"/>
  <rect x="799.7" y="226.5" width="18.2" height="63.5" fill="#4ade80" rx="1"/>
  <rect x="799.7" y="218.9" width="18.2" height="7.6" fill="#3aaf60" rx="1"/>
  <rect x="799.7" y="202.6" width="18.2" height="16.3" fill="#4ade80" rx="1"/>
  <text x="781.6" y="306" text-anchor="middle" fill="#e6edf3" font-size="10" font-weight="600">xml_collection.xml</text>
  <text x="781.6" y="318" text-anchor="middle" fill="#7d8590" font-size="9">5.3 MB</text>
  <line x1="55" y1="534.2" x2="830" y2="534.2" stroke="#21262d" stroke-width="1"/>
  <text x="47" y="534.2" text-anchor="end" dominant-baseline="middle" fill="#7d8590" font-size="10">2</text>
  <line x1="55" y1="468.4" x2="830" y2="468.4" stroke="#21262d" stroke-width="1"/>
  <text x="47" y="468.4" text-anchor="end" dominant-baseline="middle" fill="#7d8590" font-size="10">4</text>
  <line x1="55" y1="402.6" x2="830" y2="402.6" stroke="#21262d" stroke-width="1"/>
  <text x="47" y="402.6" text-anchor="end" dominant-baseline="middle" fill="#7d8590" font-size="10">6</text>
  <line x1="55" y1="600" x2="830" y2="600" stroke="#30363d" stroke-width="1.5"/>
  <rect x="67.1" y="533.6" width="18.2" height="66.4" fill="#60a5fa" rx="1"/>
  <rect x="67.1" y="515.6" width="18.2" height="18.0" fill="#4680c4" rx="1"/>
  <rect x="67.1" y="503.3" width="18.2" height="12.3" fill="#60a5fa" rx="1"/>
  <rect x="85.3" y="545.4" width="18.2" height="54.6" fill="#f87171" rx="1"/>
  <rect x="85.3" y="527.0" width="18.2" height="18.4" fill="#c45050" rx="1"/>
  <rect x="85.3" y="513.8" width="18.2" height="13.2" fill="#f87171" rx="1"/>
  <rect x="103.4" y="531.9" width="18.2" height="68.1" fill="#f59e0b" rx="1"/>
  <rect x="103.4" y="513.9" width="18.2" height="18.0" fill="#c47d08" rx="1"/>
  <rect x="103.4" y="499.9" width="18.2" height="14.0" fill="#f59e0b" rx="1"/>
  <rect x="121.6" y="516.9" width="18.2" height="83.1" fill="#4ade80" rx="1"/>
  <rect x="121.6" y="498.8" width="18.2" height="18.0" fill="#3aaf60" rx="1"/>
  <rect x="121.6" y="481.8" width="18.2" height="17.0" fill="#4ade80" rx="1"/>
  <text x="103.4" y="616" text-anchor="middle" fill="#e6edf3" font-size="10" font-weight="600">mr</text>
  <text x="103.4" y="628" text-anchor="middle" fill="#7d8590" font-size="9">10.0 MB</text>
  <rect x="164.0" y="535.9" width="18.2" height="64.1" fill="#60a5fa" rx="1"/>
  <rect x="164.0" y="519.0" width="18.2" height="17.0" fill="#4680c4" rx="1"/>
  <rect x="164.0" y="505.8" width="18.2" height="13.1" fill="#60a5fa" rx="1"/>
  <rect x="182.1" y="537.2" width="18.2" height="62.8" fill="#f87171" rx="1"/>
  <rect x="182.1" y="519.9" width="18.2" height="17.3" fill="#c45050" rx="1"/>
  <rect x="182.1" y="504.7" width="18.2" height="15.2" fill="#f87171" rx="1"/>
  <rect x="200.3" y="529.1" width="18.2" height="70.9" fill="#f59e0b" rx="1"/>
  <rect x="200.3" y="512.1" width="18.2" height="17.0" fill="#c47d08" rx="1"/>
  <rect x="200.3" y="497.0" width="18.2" height="15.1" fill="#f59e0b" rx="1"/>
  <rect x="218.5" y="513.5" width="18.2" height="86.5" fill="#4ade80" rx="1"/>
  <rect x="218.5" y="496.5" width="18.2" height="17.0" fill="#3aaf60" rx="1"/>
  <rect x="218.5" y="478.3" width="18.2" height="18.2" fill="#4ade80" rx="1"/>
  <text x="200.3" y="616" text-anchor="middle" fill="#e6edf3" font-size="10" font-weight="600">mozilla</text>
  <text x="200.3" y="628" text-anchor="middle" fill="#7d8590" font-size="9">51.2 MB</text>
  <rect x="260.9" y="560.6" width="18.2" height="39.4" fill="#60a5fa" rx="1"/>
  <rect x="260.9" y="555.2" width="18.2" height="5.4" fill="#4680c4" rx="1"/>
  <rect x="260.9" y="545.6" width="18.2" height="9.7" fill="#60a5fa" rx="1"/>
  <rect x="279.0" y="558.7" width="18.2" height="41.3" fill="#f87171" rx="1"/>
  <rect x="279.0" y="553.3" width="18.2" height="5.4" fill="#c45050" rx="1"/>
  <rect x="279.0" y="542.7" width="18.2" height="10.6" fill="#f87171" rx="1"/>
  <rect x="297.2" y="555.8" width="18.2" height="44.2" fill="#f59e0b" rx="1"/>
  <rect x="297.2" y="550.4" width="18.2" height="5.4" fill="#c47d08" rx="1"/>
  <rect x="297.2" y="537.5" width="18.2" height="12.9" fill="#f59e0b" rx="1"/>
  <rect x="315.4" y="548.0" width="18.2" height="52.0" fill="#4ade80" rx="1"/>
  <rect x="315.4" y="542.6" width="18.2" height="5.4" fill="#3aaf60" rx="1"/>
  <rect x="315.4" y="528.5" width="18.2" height="14.1" fill="#4ade80" rx="1"/>
  <text x="297.2" y="616" text-anchor="middle" fill="#e6edf3" font-size="10" font-weight="600">nci</text>
  <text x="297.2" y="628" text-anchor="middle" fill="#7d8590" font-size="9">33.6 MB</text>
  <rect x="357.7" y="525.7" width="18.2" height="74.3" fill="#60a5fa" rx="1"/>
  <rect x="357.7" y="508.5" width="18.2" height="17.1" fill="#4680c4" rx="1"/>
  <rect x="357.7" y="494.4" width="18.2" height="14.1" fill="#60a5fa" rx="1"/>
  <rect x="375.9" y="529.2" width="18.2" height="70.8" fill="#f87171" rx="1"/>
  <rect x="375.9" y="510.6" width="18.2" height="18.6" fill="#c45050" rx="1"/>
  <rect x="375.9" y="493.7" width="18.2" height="16.9" fill="#f87171" rx="1"/>
  <rect x="394.1" y="515.4" width="18.2" height="84.6" fill="#f59e0b" rx="1"/>
  <rect x="394.1" y="498.2" width="18.2" height="17.2" fill="#c47d08" rx="1"/>
  <rect x="394.1" y="482.1" width="18.2" height="16.1" fill="#f59e0b" rx="1"/>
  <rect x="412.2" y="499.1" width="18.2" height="100.9" fill="#4ade80" rx="1"/>
  <rect x="412.2" y="481.9" width="18.2" height="17.2" fill="#3aaf60" rx="1"/>
  <rect x="412.2" y="462.8" width="18.2" height="19.1" fill="#4ade80" rx="1"/>
  <text x="394.1" y="616" text-anchor="middle" fill="#e6edf3" font-size="10" font-weight="600">osdb</text>
  <text x="394.1" y="628" text-anchor="middle" fill="#7d8590" font-size="9">10.1 MB</text>
  <rect x="454.6" y="538.0" width="18.2" height="62.0" fill="#60a5fa" rx="1"/>
  <rect x="454.6" y="526.2" width="18.2" height="11.8" fill="#4680c4" rx="1"/>
  <rect x="454.6" y="514.0" width="18.2" height="12.2" fill="#60a5fa" rx="1"/>
  <rect x="472.8" y="536.1" width="18.2" height="63.9" fill="#f87171" rx="1"/>
  <rect x="472.8" y="524.2" width="18.2" height="11.9" fill="#c45050" rx="1"/>
  <rect x="472.8" y="510.2" width="18.2" height="14.0" fill="#f87171" rx="1"/>
  <rect x="490.9" y="532.5" width="18.2" height="67.5" fill="#f59e0b" rx="1"/>
  <rect x="490.9" y="520.7" width="18.2" height="11.8" fill="#c47d08" rx="1"/>
  <rect x="490.9" y="506.7" width="18.2" height="14.1" fill="#f59e0b" rx="1"/>
  <rect x="509.1" y="519.8" width="18.2" height="80.2" fill="#4ade80" rx="1"/>
  <rect x="509.1" y="508.1" width="18.2" height="11.8" fill="#3aaf60" rx="1"/>
  <rect x="509.1" y="490.8" width="18.2" height="17.2" fill="#4ade80" rx="1"/>
  <text x="490.9" y="616" text-anchor="middle" fill="#e6edf3" font-size="10" font-weight="600">samba</text>
  <text x="490.9" y="628" text-anchor="middle" fill="#7d8590" font-size="9">21.6 MB</text>
  <rect x="551.5" y="526.9" width="18.2" height="73.1" fill="#60a5fa" rx="1"/>
  <rect x="551.5" y="496.1" width="18.2" height="30.8" fill="#4680c4" rx="1"/>
  <rect x="551.5" y="484.3" width="18.2" height="11.8" fill="#60a5fa" rx="1"/>
  <rect x="569.6" y="563.4" width="18.2" height="36.6" fill="#f87171" rx="1"/>
  <rect x="569.6" y="531.6" width="18.2" height="31.8" fill="#c45050" rx="1"/>
  <rect x="569.6" y="522.4" width="18.2" height="9.2" fill="#f87171" rx="1"/>
  <rect x="587.8" y="521.7" width="18.2" height="78.3" fill="#f59e0b" rx="1"/>
  <rect x="587.8" y="490.7" width="18.2" height="30.9" fill="#c47d08" rx="1"/>
  <rect x="587.8" y="477.6" width="18.2" height="13.1" fill="#f59e0b" rx="1"/>
  <rect x="606.0" y="502.9" width="18.2" height="97.1" fill="#4ade80" rx="1"/>
  <rect x="606.0" y="472.0" width="18.2" height="30.9" fill="#3aaf60" rx="1"/>
  <rect x="606.0" y="457.1" width="18.2" height="14.9" fill="#4ade80" rx="1"/>
  <text x="587.8" y="616" text-anchor="middle" fill="#e6edf3" font-size="10" font-weight="600">sao</text>
  <text x="587.8" y="628" text-anchor="middle" fill="#7d8590" font-size="9">7.3 MB</text>
  <rect x="648.4" y="507.1" width="18.2" height="92.9" fill="#60a5fa" rx="1"/>
  <rect x="648.4" y="491.1" width="18.2" height="16.0" fill="#4680c4" rx="1"/>
  <rect x="648.4" y="476.4" width="18.2" height="14.7" fill="#60a5fa" rx="1"/>
  <rect x="666.5" y="503.4" width="18.2" height="96.6" fill="#f87171" rx="1"/>
  <rect x="666.5" y="487.2" width="18.2" height="16.2" fill="#c45050" rx="1"/>
  <rect x="666.5" y="470.2" width="18.2" height="17.0" fill="#f87171" rx="1"/>
  <rect x="684.7" y="497.2" width="18.2" height="102.8" fill="#f59e0b" rx="1"/>
  <rect x="684.7" y="481.2" width="18.2" height="16.0" fill="#c47d08" rx="1"/>
  <rect x="684.7" y="465.3" width="18.2" height="15.9" fill="#f59e0b" rx="1"/>
  <rect x="702.9" y="477.5" width="18.2" height="122.5" fill="#4ade80" rx="1"/>
  <rect x="702.9" y="461.5" width="18.2" height="16.0" fill="#3aaf60" rx="1"/>
  <rect x="702.9" y="440.4" width="18.2" height="21.1" fill="#4ade80" rx="1"/>
  <text x="684.7" y="616" text-anchor="middle" fill="#e6edf3" font-size="10" font-weight="600">webster</text>
  <text x="684.7" y="628" text-anchor="middle" fill="#7d8590" font-size="9">41.5 MB</text>
  <rect x="745.2" y="573.1" width="18.2" height="26.9" fill="#60a5fa" rx="1"/>
  <rect x="745.2" y="540.5" width="18.2" height="32.6" fill="#4680c4" rx="1"/>
  <rect x="745.2" y="535.8" width="18.2" height="4.7" fill="#60a5fa" rx="1"/>
  <rect x="763.4" y="596.6" width="18.2" height="3.4" fill="#f87171" rx="1"/>
  <rect x="763.4" y="563.5" width="18.2" height="33.0" fill="#c45050" rx="1"/>
  <rect x="763.4" y="560.8" width="18.2" height="2.8" fill="#f87171" rx="1"/>
  <rect x="781.6" y="578.0" width="18.2" height="22.0" fill="#f59e0b" rx="1"/>
  <rect x="781.6" y="545.3" width="18.2" height="32.7" fill="#c47d08" rx="1"/>
  <rect x="781.6" y="541.2" width="18.2" height="4.2" fill="#f59e0b" rx="1"/>
  <rect x="799.7" y="573.4" width="18.2" height="26.6" fill="#4ade80" rx="1"/>
  <rect x="799.7" y="540.7" width="18.2" height="32.7" fill="#3aaf60" rx="1"/>
  <rect x="799.7" y="536.4" width="18.2" height="4.3" fill="#4ade80" rx="1"/>
  <text x="781.6" y="616" text-anchor="middle" fill="#e6edf3" font-size="10" font-weight="600">x-ray</text>
  <text x="781.6" y="628" text-anchor="middle" fill="#7d8590" font-size="9">8.5 MB</text>
  <rect x="242" y="645" width="12" height="12" fill="#60a5fa" rx="2"/>
  <text x="260" y="655" fill="#e6edf3" font-size="10" font-weight="500">lz4 (C)</text>
  <rect x="242" y="663" width="12" height="12" fill="#f87171" rx="2"/>
  <text x="260" y="673" fill="#e6edf3" font-size="10" font-weight="500">lz4rip (safe Rust)</text>
  <rect x="452" y="645" width="12" height="12" fill="#f59e0b" rx="2"/>
  <text x="470" y="655" fill="#e6edf3" font-size="10" font-weight="500">lz4_flex (unsafe Rust)</text>
  <rect x="452" y="663" width="12" height="12" fill="#4ade80" rx="2"/>
  <text x="470" y="673" fill="#e6edf3" font-size="10" font-weight="500">lz4_flex (safe Rust)</text>
  <text x="232" y="698" fill="#e6edf3" font-size="9">bright = compress + decompress</text>
  <text x="472" y="698" fill="#7d8590" font-size="9">dim = transfer @1 GB/s</text>
</svg>
