<svg xmlns="http://www.w3.org/2000/svg" viewBox="0 0 850 460" font-family="system-ui, -apple-system, sans-serif">
  <rect width="850" height="460" fill="#0d1117"/>
  <text x="450.0" y="22" text-anchor="middle" fill="#e6edf3" font-size="14" font-weight="700">LZ4 Pipeline @1 GB/s: Aggregate across corpus (lower is better)</text>
  <text x="450.0" y="38" text-anchor="middle" fill="#7d8590" font-size="10">Intel Core i7-8700B @ 3.20GHz, performance governor, turbo off</text>
  <line x1="70" y1="250.5" x2="830" y2="250.5" stroke="#21262d" stroke-width="1"/>
  <text x="62" y="250.5" text-anchor="end" dominant-baseline="middle" fill="#7d8590" font-size="10">1</text>
  <line x1="70" y1="191.1" x2="830" y2="191.1" stroke="#21262d" stroke-width="1"/>
  <text x="62" y="191.1" text-anchor="end" dominant-baseline="middle" fill="#7d8590" font-size="10">2</text>
  <line x1="70" y1="131.6" x2="830" y2="131.6" stroke="#21262d" stroke-width="1"/>
  <text x="62" y="131.6" text-anchor="end" dominant-baseline="middle" fill="#7d8590" font-size="10">3</text>
  <line x1="70" y1="72.1" x2="830" y2="72.1" stroke="#21262d" stroke-width="1"/>
  <text x="62" y="72.1" text-anchor="end" dominant-baseline="middle" fill="#7d8590" font-size="10">4</text>
  <line x1="70" y1="310" x2="830" y2="310" stroke="#30363d" stroke-width="1.5"/>
  <text x="22" y="182.5" text-anchor="middle" fill="#e6edf3" font-size="11" font-weight="600" transform="rotate(-90,22,182.5)">seconds / GB</text>
  <rect x="108.0" y="186.2" width="50.0" height="123.8" fill="#60a5fa" rx="1"/>
  <rect x="108.0" y="161.9" width="50.0" height="24.4" fill="#4680c4" rx="1"/>
  <rect x="108.0" y="138.3" width="50.0" height="23.5" fill="#60a5fa" rx="1"/>
  <rect x="159.9" y="184.1" width="50.0" height="125.9" fill="#f87171" rx="1"/>
  <rect x="159.9" y="159.2" width="50.0" height="24.9" fill="#c45050" rx="1"/>
  <rect x="159.9" y="132.0" width="50.0" height="27.2" fill="#f87171" rx="1"/>
  <rect x="211.8" y="173.1" width="50.0" height="136.9" fill="#f59e0b" rx="1"/>
  <rect x="211.8" y="148.7" width="50.0" height="24.4" fill="#c47d08" rx="1"/>
  <rect x="211.8" y="121.9" width="50.0" height="26.7" fill="#f59e0b" rx="1"/>
  <rect x="263.6" y="145.6" width="50.0" height="164.4" fill="#4ade80" rx="1"/>
  <rect x="263.6" y="121.2" width="50.0" height="24.4" fill="#3aaf60" rx="1"/>
  <rect x="263.6" y="88.3" width="50.0" height="33.0" fill="#4ade80" rx="1"/>
  <text x="211.8" y="328" text-anchor="middle" fill="#e6edf3" font-size="11" font-weight="600">Compressible</text>
  <rect x="488.0" y="209.7" width="50.0" height="100.3" fill="#60a5fa" rx="1"/>
  <rect x="488.0" y="162.0" width="50.0" height="47.7" fill="#4680c4" rx="1"/>
  <rect x="488.0" y="144.4" width="50.0" height="17.6" fill="#60a5fa" rx="1"/>
  <rect x="539.9" y="251.0" width="50.0" height="59.0" fill="#f87171" rx="1"/>
  <rect x="539.9" y="202.2" width="50.0" height="48.8" fill="#c45050" rx="1"/>
  <rect x="539.9" y="186.6" width="50.0" height="15.7" fill="#f87171" rx="1"/>
  <rect x="591.8" y="208.7" width="50.0" height="101.3" fill="#f59e0b" rx="1"/>
  <rect x="591.8" y="160.8" width="50.0" height="47.9" fill="#c47d08" rx="1"/>
  <rect x="591.8" y="141.4" width="50.0" height="19.4" fill="#f59e0b" rx="1"/>
  <rect x="643.6" y="186.0" width="50.0" height="124.0" fill="#4ade80" rx="1"/>
  <rect x="643.6" y="138.1" width="50.0" height="47.9" fill="#3aaf60" rx="1"/>
  <rect x="643.6" y="115.9" width="50.0" height="22.2" fill="#4ade80" rx="1"/>
  <text x="591.8" y="328" text-anchor="middle" fill="#e6edf3" font-size="11" font-weight="600">Incompressible</text>
  <rect x="250" y="345" width="12" height="12" fill="#60a5fa" rx="2"/>
  <text x="268" y="355" fill="#e6edf3" font-size="10" font-weight="500">lz4 (C)</text>
  <rect x="250" y="363" width="12" height="12" fill="#f87171" rx="2"/>
  <text x="268" y="373" fill="#e6edf3" font-size="10" font-weight="500">lz4rip (safe Rust)</text>
  <rect x="460" y="345" width="12" height="12" fill="#f59e0b" rx="2"/>
  <text x="478" y="355" fill="#e6edf3" font-size="10" font-weight="500">lz4_flex (unsafe Rust)</text>
  <rect x="460" y="363" width="12" height="12" fill="#4ade80" rx="2"/>
  <text x="478" y="373" fill="#e6edf3" font-size="10" font-weight="500">lz4_flex (safe Rust)</text>
  <text x="240" y="398" fill="#e6edf3" font-size="9">bright = compress + decompress</text>
  <text x="480" y="398" fill="#7d8590" font-size="9">dim = transfer @1 GB/s</text>
</svg>
