<svg xmlns="http://www.w3.org/2000/svg" viewBox="0 0 850 460" font-family="system-ui, -apple-system, sans-serif">
  <rect width="850" height="460" fill="#0d1117"/>
  <text x="450.0" y="22" text-anchor="middle" fill="#e6edf3" font-size="14" font-weight="700">LZ4 Pipeline @1 GB/s: Aggregate across corpus (lower is better)</text>
  <text x="450.0" y="38" text-anchor="middle" fill="#7d8590" font-size="10">Intel Core i7-8700B @ 3.20GHz, performance governor, turbo off</text>
  <line x1="70" y1="249.3" x2="830" y2="249.3" stroke="#21262d" stroke-width="1"/>
  <text x="62" y="249.3" text-anchor="end" dominant-baseline="middle" fill="#7d8590" font-size="10">1</text>
  <line x1="70" y1="188.7" x2="830" y2="188.7" stroke="#21262d" stroke-width="1"/>
  <text x="62" y="188.7" text-anchor="end" dominant-baseline="middle" fill="#7d8590" font-size="10">2</text>
  <line x1="70" y1="128.0" x2="830" y2="128.0" stroke="#21262d" stroke-width="1"/>
  <text x="62" y="128.0" text-anchor="end" dominant-baseline="middle" fill="#7d8590" font-size="10">3</text>
  <line x1="70" y1="67.4" x2="830" y2="67.4" stroke="#21262d" stroke-width="1"/>
  <text x="62" y="67.4" text-anchor="end" dominant-baseline="middle" fill="#7d8590" font-size="10">4</text>
  <line x1="70" y1="310" x2="830" y2="310" stroke="#30363d" stroke-width="1.5"/>
  <text x="22" y="182.5" text-anchor="middle" fill="#e6edf3" font-size="11" font-weight="600" transform="rotate(-90,22,182.5)">seconds / GB</text>
  <rect x="108.0" y="183.5" width="50.0" height="126.5" fill="#60a5fa" rx="1"/>
  <rect x="108.0" y="158.6" width="50.0" height="24.9" fill="#4680c4" rx="1"/>
  <rect x="108.0" y="134.9" width="50.0" height="23.7" fill="#60a5fa" rx="1"/>
  <rect x="159.9" y="190.6" width="50.0" height="119.4" fill="#f87171" rx="1"/>
  <rect x="159.9" y="163.5" width="50.0" height="27.2" fill="#c45050" rx="1"/>
  <rect x="159.9" y="138.5" width="50.0" height="25.0" fill="#f87171" rx="1"/>
  <rect x="211.8" y="170.4" width="50.0" height="139.6" fill="#f59e0b" rx="1"/>
  <rect x="211.8" y="145.5" width="50.0" height="24.9" fill="#c47d08" rx="1"/>
  <rect x="211.8" y="118.5" width="50.0" height="27.0" fill="#f59e0b" rx="1"/>
  <rect x="263.6" y="144.4" width="50.0" height="165.6" fill="#4ade80" rx="1"/>
  <rect x="263.6" y="119.6" width="50.0" height="24.9" fill="#3aaf60" rx="1"/>
  <rect x="263.6" y="88.3" width="50.0" height="31.3" fill="#4ade80" rx="1"/>
  <text x="211.8" y="328" text-anchor="middle" fill="#e6edf3" font-size="11" font-weight="600">Compressible</text>
  <rect x="488.0" y="207.6" width="50.0" height="102.4" fill="#60a5fa" rx="1"/>
  <rect x="488.0" y="158.9" width="50.0" height="48.7" fill="#4680c4" rx="1"/>
  <rect x="488.0" y="141.0" width="50.0" height="17.9" fill="#60a5fa" rx="1"/>
  <rect x="539.9" y="263.5" width="50.0" height="46.5" fill="#f87171" rx="1"/>
  <rect x="539.9" y="212.7" width="50.0" height="50.8" fill="#c45050" rx="1"/>
  <rect x="539.9" y="200.3" width="50.0" height="12.4" fill="#f87171" rx="1"/>
  <rect x="591.8" y="206.8" width="50.0" height="103.2" fill="#f59e0b" rx="1"/>
  <rect x="591.8" y="157.9" width="50.0" height="48.9" fill="#c47d08" rx="1"/>
  <rect x="591.8" y="138.5" width="50.0" height="19.4" fill="#f59e0b" rx="1"/>
  <rect x="643.6" y="184.8" width="50.0" height="125.2" fill="#4ade80" rx="1"/>
  <rect x="643.6" y="135.9" width="50.0" height="48.9" fill="#3aaf60" rx="1"/>
  <rect x="643.6" y="114.3" width="50.0" height="21.7" fill="#4ade80" rx="1"/>
  <text x="591.8" y="328" text-anchor="middle" fill="#e6edf3" font-size="11" font-weight="600">Incompressible</text>
  <rect x="250" y="345" width="12" height="12" fill="#60a5fa" rx="2"/>
  <text x="268" y="355" fill="#e6edf3" font-size="10" font-weight="500">lz4 (C)</text>
  <rect x="250" y="363" width="12" height="12" fill="#f87171" rx="2"/>
  <text x="268" y="373" fill="#e6edf3" font-size="10" font-weight="500">lz4rip (encapsulated unsafe, Rust)</text>
  <rect x="460" y="345" width="12" height="12" fill="#f59e0b" rx="2"/>
  <text x="478" y="355" fill="#e6edf3" font-size="10" font-weight="500">lz4_flex (unsafe Rust)</text>
  <rect x="460" y="363" width="12" height="12" fill="#4ade80" rx="2"/>
  <text x="478" y="373" fill="#e6edf3" font-size="10" font-weight="500">lz4_flex (safe Rust)</text>
  <text x="240" y="398" fill="#e6edf3" font-size="9">bright = compress + decompress</text>
  <text x="480" y="398" fill="#7d8590" font-size="9">dim = transfer @1 GB/s</text>
</svg>
