<svg xmlns="http://www.w3.org/2000/svg" viewBox="0 0 850 460" font-family="system-ui, -apple-system, sans-serif">
  <rect width="850" height="460" fill="#0d1117"/>
  <text x="450.0" y="22" text-anchor="middle" fill="#e6edf3" font-size="14" font-weight="700">LZ4 Pipeline @1 GB/s: Aggregate across corpus (lower is better)</text>
  <text x="450.0" y="38" text-anchor="middle" fill="#7d8590" font-size="10">Intel Core i7-8700B @ 3.20GHz, performance governor, turbo off</text>
  <line x1="70" y1="247.9" x2="830" y2="247.9" stroke="#21262d" stroke-width="1"/>
  <text x="62" y="247.9" text-anchor="end" dominant-baseline="middle" fill="#7d8590" font-size="10">1</text>
  <line x1="70" y1="185.7" x2="830" y2="185.7" stroke="#21262d" stroke-width="1"/>
  <text x="62" y="185.7" text-anchor="end" dominant-baseline="middle" fill="#7d8590" font-size="10">2</text>
  <line x1="70" y1="123.6" x2="830" y2="123.6" stroke="#21262d" stroke-width="1"/>
  <text x="62" y="123.6" text-anchor="end" dominant-baseline="middle" fill="#7d8590" font-size="10">3</text>
  <line x1="70" y1="61.5" x2="830" y2="61.5" stroke="#21262d" stroke-width="1"/>
  <text x="62" y="61.5" text-anchor="end" dominant-baseline="middle" fill="#7d8590" font-size="10">4</text>
  <line x1="70" y1="310" x2="830" y2="310" stroke="#30363d" stroke-width="1.5"/>
  <text x="22" y="182.5" text-anchor="middle" fill="#e6edf3" font-size="11" font-weight="600" transform="rotate(-90,22,182.5)">seconds / GB</text>
  <rect x="108.0" y="180.8" width="50.0" height="129.2" fill="#60a5fa" rx="1"/>
  <rect x="108.0" y="155.3" width="50.0" height="25.5" fill="#4680c4" rx="1"/>
  <rect x="108.0" y="131.2" width="50.0" height="24.1" fill="#60a5fa" rx="1"/>
  <rect x="159.5" y="193.2" width="50.0" height="116.8" fill="#f87171" rx="1"/>
  <rect x="159.5" y="165.4" width="50.0" height="27.8" fill="#c45050" rx="1"/>
  <rect x="159.5" y="137.3" width="50.0" height="28.1" fill="#f87171" rx="1"/>
  <rect x="211.0" y="174.0" width="50.0" height="136.0" fill="#f59e0b" rx="1"/>
  <rect x="211.0" y="148.5" width="50.0" height="25.5" fill="#c47d08" rx="1"/>
  <rect x="211.0" y="120.9" width="50.0" height="27.6" fill="#f59e0b" rx="1"/>
  <rect x="262.5" y="156.4" width="50.0" height="153.6" fill="#f472b6" rx="1"/>
  <rect x="262.5" y="128.6" width="50.0" height="27.8" fill="#c05a92" rx="1"/>
  <rect x="262.5" y="96.4" width="50.0" height="32.2" fill="#f472b6" rx="1"/>
  <rect x="314.0" y="145.6" width="50.0" height="164.4" fill="#4ade80" rx="1"/>
  <rect x="314.0" y="120.1" width="50.0" height="25.5" fill="#3aaf60" rx="1"/>
  <rect x="314.0" y="88.3" width="50.0" height="31.8" fill="#4ade80" rx="1"/>
  <text x="236.8" y="328" text-anchor="middle" fill="#e6edf3" font-size="11" font-weight="600">Compressible</text>
  <rect x="488.0" y="205.7" width="50.0" height="104.3" fill="#60a5fa" rx="1"/>
  <rect x="488.0" y="155.9" width="50.0" height="49.9" fill="#4680c4" rx="1"/>
  <rect x="488.0" y="137.6" width="50.0" height="18.2" fill="#60a5fa" rx="1"/>
  <rect x="539.5" y="264.1" width="50.0" height="45.9" fill="#f87171" rx="1"/>
  <rect x="539.5" y="212.1" width="50.0" height="52.0" fill="#c45050" rx="1"/>
  <rect x="539.5" y="198.2" width="50.0" height="13.9" fill="#f87171" rx="1"/>
  <rect x="591.0" y="208.0" width="50.0" height="102.0" fill="#f59e0b" rx="1"/>
  <rect x="591.0" y="158.0" width="50.0" height="50.0" fill="#c47d08" rx="1"/>
  <rect x="591.0" y="138.2" width="50.0" height="19.8" fill="#f59e0b" rx="1"/>
  <rect x="642.5" y="244.4" width="50.0" height="65.6" fill="#f472b6" rx="1"/>
  <rect x="642.5" y="192.4" width="50.0" height="52.0" fill="#c05a92" rx="1"/>
  <rect x="642.5" y="177.0" width="50.0" height="15.4" fill="#f472b6" rx="1"/>
  <rect x="694.0" y="183.4" width="50.0" height="126.6" fill="#4ade80" rx="1"/>
  <rect x="694.0" y="133.4" width="50.0" height="50.0" fill="#3aaf60" rx="1"/>
  <rect x="694.0" y="111.4" width="50.0" height="22.0" fill="#4ade80" rx="1"/>
  <text x="616.8" y="328" text-anchor="middle" fill="#e6edf3" font-size="11" font-weight="600">Incompressible</text>
  <rect x="250" y="345" width="12" height="12" fill="#60a5fa" rx="2"/>
  <text x="268" y="355" fill="#e6edf3" font-size="10" font-weight="500">lz4 (C)</text>
  <rect x="250" y="363" width="12" height="12" fill="#f87171" rx="2"/>
  <text x="268" y="373" fill="#e6edf3" font-size="10" font-weight="500">lz4rip (unsafe)</text>
  <rect x="250" y="381" width="12" height="12" fill="#f59e0b" rx="2"/>
  <text x="268" y="391" fill="#e6edf3" font-size="10" font-weight="500">lz4_flex (unsafe)</text>
  <rect x="460" y="345" width="12" height="12" fill="#f472b6" rx="2"/>
  <text x="478" y="355" fill="#e6edf3" font-size="10" font-weight="500">lz4rip paranoid (safe)</text>
  <rect x="460" y="363" width="12" height="12" fill="#4ade80" rx="2"/>
  <text x="478" y="373" fill="#e6edf3" font-size="10" font-weight="500">lz4_flex (safe)</text>
  <text x="240" y="416" fill="#e6edf3" font-size="9">bright = compress + decompress</text>
  <text x="480" y="416" fill="#7d8590" font-size="9">dim = transfer @1 GB/s</text>
</svg>
