<svg xmlns="http://www.w3.org/2000/svg" viewBox="0 0 850 460" font-family="system-ui, -apple-system, sans-serif">
  <rect width="850" height="460" fill="#0d1117"/>
  <text x="450.0" y="22" text-anchor="middle" fill="#e6edf3" font-size="14" font-weight="700">LZ4 Pipeline @1 GB/s: Aggregate across corpus (lower is better)</text>
  <text x="450.0" y="38" text-anchor="middle" fill="#7d8590" font-size="10">Intel Core i7-8700B @ 3.20GHz, performance governor, turbo off</text>
  <line x1="70" y1="248.3" x2="830" y2="248.3" stroke="#21262d" stroke-width="1"/>
  <text x="62" y="248.3" text-anchor="end" dominant-baseline="middle" fill="#7d8590" font-size="10">1</text>
  <line x1="70" y1="186.5" x2="830" y2="186.5" stroke="#21262d" stroke-width="1"/>
  <text x="62" y="186.5" text-anchor="end" dominant-baseline="middle" fill="#7d8590" font-size="10">2</text>
  <line x1="70" y1="124.8" x2="830" y2="124.8" stroke="#21262d" stroke-width="1"/>
  <text x="62" y="124.8" text-anchor="end" dominant-baseline="middle" fill="#7d8590" font-size="10">3</text>
  <line x1="70" y1="63.0" x2="830" y2="63.0" stroke="#21262d" stroke-width="1"/>
  <text x="62" y="63.0" text-anchor="end" dominant-baseline="middle" fill="#7d8590" font-size="10">4</text>
  <line x1="70" y1="310" x2="830" y2="310" stroke="#30363d" stroke-width="1.5"/>
  <text x="22" y="182.5" text-anchor="middle" fill="#e6edf3" font-size="11" font-weight="600" transform="rotate(-90,22,182.5)">seconds / GB</text>
  <rect x="108.0" y="182.9" width="50.0" height="127.1" fill="#60a5fa" rx="1"/>
  <rect x="108.0" y="157.6" width="50.0" height="25.3" fill="#4680c4" rx="1"/>
  <rect x="108.0" y="134.1" width="50.0" height="23.5" fill="#60a5fa" rx="1"/>
  <rect x="159.5" y="192.6" width="50.0" height="117.4" fill="#f87171" rx="1"/>
  <rect x="159.5" y="165.0" width="50.0" height="27.6" fill="#c45050" rx="1"/>
  <rect x="159.5" y="137.5" width="50.0" height="27.4" fill="#f87171" rx="1"/>
  <rect x="211.0" y="174.5" width="50.0" height="135.5" fill="#f59e0b" rx="1"/>
  <rect x="211.0" y="149.2" width="50.0" height="25.3" fill="#c47d08" rx="1"/>
  <rect x="211.0" y="122.2" width="50.0" height="27.0" fill="#f59e0b" rx="1"/>
  <rect x="262.5" y="166.4" width="50.0" height="143.6" fill="#f472b6" rx="1"/>
  <rect x="262.5" y="138.8" width="50.0" height="27.6" fill="#c05a92" rx="1"/>
  <rect x="262.5" y="107.7" width="50.0" height="31.1" fill="#f472b6" rx="1"/>
  <rect x="314.0" y="144.8" width="50.0" height="165.2" fill="#4ade80" rx="1"/>
  <rect x="314.0" y="119.4" width="50.0" height="25.3" fill="#3aaf60" rx="1"/>
  <rect x="314.0" y="88.3" width="50.0" height="31.2" fill="#4ade80" rx="1"/>
  <text x="236.8" y="328" text-anchor="middle" fill="#e6edf3" font-size="11" font-weight="600">Compressible</text>
  <rect x="488.0" y="206.9" width="50.0" height="103.1" fill="#60a5fa" rx="1"/>
  <rect x="488.0" y="157.4" width="50.0" height="49.6" fill="#4680c4" rx="1"/>
  <rect x="488.0" y="139.7" width="50.0" height="17.7" fill="#60a5fa" rx="1"/>
  <rect x="539.5" y="264.9" width="50.0" height="45.1" fill="#f87171" rx="1"/>
  <rect x="539.5" y="213.2" width="50.0" height="51.7" fill="#c45050" rx="1"/>
  <rect x="539.5" y="200.0" width="50.0" height="13.2" fill="#f87171" rx="1"/>
  <rect x="591.0" y="203.0" width="50.0" height="107.0" fill="#f59e0b" rx="1"/>
  <rect x="591.0" y="153.3" width="50.0" height="49.7" fill="#c47d08" rx="1"/>
  <rect x="591.0" y="134.1" width="50.0" height="19.2" fill="#f59e0b" rx="1"/>
  <rect x="642.5" y="249.5" width="50.0" height="60.5" fill="#f472b6" rx="1"/>
  <rect x="642.5" y="197.8" width="50.0" height="51.7" fill="#c05a92" rx="1"/>
  <rect x="642.5" y="183.7" width="50.0" height="14.1" fill="#f472b6" rx="1"/>
  <rect x="694.0" y="178.7" width="50.0" height="131.3" fill="#4ade80" rx="1"/>
  <rect x="694.0" y="129.0" width="50.0" height="49.7" fill="#3aaf60" rx="1"/>
  <rect x="694.0" y="107.4" width="50.0" height="21.6" fill="#4ade80" rx="1"/>
  <text x="616.8" y="328" text-anchor="middle" fill="#e6edf3" font-size="11" font-weight="600">Incompressible</text>
  <rect x="250" y="345" width="12" height="12" fill="#60a5fa" rx="2"/>
  <text x="268" y="355" fill="#e6edf3" font-size="10" font-weight="500">lz4 (C)</text>
  <rect x="250" y="363" width="12" height="12" fill="#f87171" rx="2"/>
  <text x="268" y="373" fill="#e6edf3" font-size="10" font-weight="500">lz4rip (encapsulated unsafe)</text>
  <rect x="250" y="381" width="12" height="12" fill="#f59e0b" rx="2"/>
  <text x="268" y="391" fill="#e6edf3" font-size="10" font-weight="500">lz4_flex (unsafe)</text>
  <rect x="460" y="345" width="12" height="12" fill="#f472b6" rx="2"/>
  <text x="478" y="355" fill="#e6edf3" font-size="10" font-weight="500">lz4rip paranoid (safe)</text>
  <rect x="460" y="363" width="12" height="12" fill="#4ade80" rx="2"/>
  <text x="478" y="373" fill="#e6edf3" font-size="10" font-weight="500">lz4_flex (safe)</text>
  <text x="240" y="416" fill="#e6edf3" font-size="9">bright = compress + decompress</text>
  <text x="480" y="416" fill="#7d8590" font-size="9">dim = transfer @1 GB/s</text>
</svg>
