<svg xmlns="http://www.w3.org/2000/svg" viewBox="0 0 600 420" font-family="system-ui, -apple-system, sans-serif">
  <rect width="600" height="420" fill="#0d1117"/>
  <text x="320.0" y="22" text-anchor="middle" fill="#e6edf3" font-size="14" font-weight="700">LZ4 Pipeline @1 GB/s: Aggregate across corpus (lower is better)</text>
  <text x="320.0" y="38" text-anchor="middle" fill="#7d8590" font-size="10">Intel Core i7-8700B @ 3.20GHz, performance governor, turbo off</text>
  <line x1="70" y1="249.1" x2="570" y2="249.1" stroke="#21262d" stroke-width="1"/>
  <text x="62" y="249.1" text-anchor="end" dominant-baseline="middle" fill="#7d8590" font-size="10">1</text>
  <line x1="70" y1="188.1" x2="570" y2="188.1" stroke="#21262d" stroke-width="1"/>
  <text x="62" y="188.1" text-anchor="end" dominant-baseline="middle" fill="#7d8590" font-size="10">2</text>
  <line x1="70" y1="127.2" x2="570" y2="127.2" stroke="#21262d" stroke-width="1"/>
  <text x="62" y="127.2" text-anchor="end" dominant-baseline="middle" fill="#7d8590" font-size="10">3</text>
  <line x1="70" y1="66.2" x2="570" y2="66.2" stroke="#21262d" stroke-width="1"/>
  <text x="62" y="66.2" text-anchor="end" dominant-baseline="middle" fill="#7d8590" font-size="10">4</text>
  <line x1="70" y1="310" x2="570" y2="310" stroke="#30363d" stroke-width="1.5"/>
  <text x="22" y="182.5" text-anchor="middle" fill="#e6edf3" font-size="11" font-weight="600" transform="rotate(-90,22,182.5)">seconds / GB</text>
  <rect x="95.0" y="182.8" width="43.8" height="127.2" fill="#60a5fa" rx="1"/>
  <rect x="95.0" y="157.8" width="43.8" height="25.0" fill="#4680c4" rx="1"/>
  <rect x="95.0" y="133.4" width="43.8" height="24.4" fill="#60a5fa" rx="1"/>
  <rect x="145.0" y="180.0" width="43.8" height="130.0" fill="#f87171" rx="1"/>
  <rect x="145.0" y="154.5" width="43.8" height="25.5" fill="#c45050" rx="1"/>
  <rect x="145.0" y="124.2" width="43.8" height="30.3" fill="#f87171" rx="1"/>
  <rect x="195.0" y="181.2" width="43.8" height="128.8" fill="#fbbf24" rx="1"/>
  <rect x="195.0" y="156.2" width="43.8" height="25.0" fill="#c49520" rx="1"/>
  <rect x="195.0" y="124.6" width="43.8" height="31.6" fill="#fbbf24" rx="1"/>
  <rect x="245.0" y="145.3" width="43.8" height="164.7" fill="#4ade80" rx="1"/>
  <rect x="245.0" y="120.2" width="43.8" height="25.0" fill="#3aaf60" rx="1"/>
  <rect x="245.0" y="88.3" width="43.8" height="32.0" fill="#4ade80" rx="1"/>
  <text x="195.0" y="328" text-anchor="middle" fill="#e6edf3" font-size="11" font-weight="600">Compressible</text>
  <rect x="345.0" y="207.2" width="43.8" height="102.8" fill="#60a5fa" rx="1"/>
  <rect x="345.0" y="158.3" width="43.8" height="48.9" fill="#4680c4" rx="1"/>
  <rect x="345.0" y="140.2" width="43.8" height="18.2" fill="#60a5fa" rx="1"/>
  <rect x="395.0" y="251.1" width="43.8" height="58.9" fill="#f87171" rx="1"/>
  <rect x="395.0" y="201.1" width="43.8" height="50.0" fill="#c45050" rx="1"/>
  <rect x="395.0" y="185.4" width="43.8" height="15.7" fill="#f87171" rx="1"/>
  <rect x="445.0" y="204.2" width="43.8" height="105.8" fill="#fbbf24" rx="1"/>
  <rect x="445.0" y="155.3" width="43.8" height="48.9" fill="#c49520" rx="1"/>
  <rect x="445.0" y="132.1" width="43.8" height="23.2" fill="#fbbf24" rx="1"/>
  <rect x="495.0" y="179.1" width="43.8" height="130.9" fill="#4ade80" rx="1"/>
  <rect x="495.0" y="130.0" width="43.8" height="49.1" fill="#3aaf60" rx="1"/>
  <rect x="495.0" y="108.0" width="43.8" height="22.0" fill="#4ade80" rx="1"/>
  <text x="445.0" y="328" text-anchor="middle" fill="#e6edf3" font-size="11" font-weight="600">Incompressible</text>
  <rect x="140" y="345" width="12" height="12" fill="#60a5fa" rx="2"/>
  <text x="158" y="355" fill="#e6edf3" font-size="11" font-weight="500">lz4 (C)</text>
  <rect x="320" y="345" width="12" height="12" fill="#f87171" rx="2"/>
  <text x="338" y="355" fill="#e6edf3" font-size="11" font-weight="500">lz4rip (safe Rust)</text>
  <rect x="140" y="365" width="12" height="12" fill="#fbbf24" rx="2"/>
  <text x="158" y="375" fill="#e6edf3" font-size="11" font-weight="500">lz4_flex (unsafe Rust)</text>
  <rect x="320" y="365" width="12" height="12" fill="#4ade80" rx="2"/>
  <text x="338" y="375" fill="#e6edf3" font-size="11" font-weight="500">lz4_flex (safe Rust)</text>
  <rect x="160" y="389" width="12" height="12" fill="#60a5fa" rx="2"/>
  <text x="178" y="399" fill="#7d8590" font-size="10">compress + decompress</text>
  <rect x="360" y="389" width="12" height="12" fill="#4680c4" rx="2"/>
  <text x="378" y="399" fill="#7d8590" font-size="10">transfer @1 GB/s</text>
</svg>
