<svg xmlns="http://www.w3.org/2000/svg" viewBox="0 0 850 760" font-family="system-ui, -apple-system, sans-serif">
  <rect width="850" height="760" fill="#0d1117"/>
  <text x="425.0" y="22" text-anchor="middle" fill="#e6edf3" font-size="14" font-weight="700">LZ4 Size Sweep: Synthetic JSON (log-log)</text>
  <text x="425.0" y="38" text-anchor="middle" fill="#7d8590" font-size="10">Intel Core i7-8700B @ 3.20GHz, performance governor, turbo off</text>
  <text x="425.0" y="56" text-anchor="middle" fill="#e6edf3" font-size="12" font-weight="600">Compress</text>
  <text x="25" y="193" text-anchor="middle" fill="#e6edf3" font-size="10" font-weight="600" transform="rotate(-90,25,193)">ops/sec</text>
  <text x="838" y="193" text-anchor="middle" fill="#e6edf3" font-size="10" font-weight="600" transform="rotate(90,838,193)">throughput</text>
  <line x1="80" y1="318" x2="790" y2="318" stroke="#30363d" stroke-width="1.5"/>
  <line x1="80" y1="68" x2="80" y2="318" stroke="#30363d" stroke-width="1"/>
  <line x1="790" y1="68" x2="790" y2="318" stroke="#30363d" stroke-width="1"/>
  <line x1="80.0" y1="318" x2="80.0" y2="322" stroke="#484f58" stroke-width="1"/>
  <text x="80.0" y="334" text-anchor="middle" fill="#7d8590" font-size="9">64</text>
  <line x1="130.7" y1="318" x2="130.7" y2="322" stroke="#484f58" stroke-width="1"/>
  <text x="130.7" y="334" text-anchor="middle" fill="#7d8590" font-size="9">128</text>
  <line x1="181.4" y1="318" x2="181.4" y2="322" stroke="#484f58" stroke-width="1"/>
  <text x="181.4" y="334" text-anchor="middle" fill="#7d8590" font-size="9">256</text>
  <line x1="232.1" y1="318" x2="232.1" y2="322" stroke="#484f58" stroke-width="1"/>
  <text x="232.1" y="334" text-anchor="middle" fill="#7d8590" font-size="9">512</text>
  <line x1="282.9" y1="318" x2="282.9" y2="322" stroke="#484f58" stroke-width="1"/>
  <text x="282.9" y="334" text-anchor="middle" fill="#7d8590" font-size="9">1K</text>
  <line x1="333.6" y1="318" x2="333.6" y2="322" stroke="#484f58" stroke-width="1"/>
  <text x="333.6" y="334" text-anchor="middle" fill="#7d8590" font-size="9">2K</text>
  <line x1="384.3" y1="318" x2="384.3" y2="322" stroke="#484f58" stroke-width="1"/>
  <text x="384.3" y="334" text-anchor="middle" fill="#7d8590" font-size="9">4K</text>
  <line x1="435.0" y1="318" x2="435.0" y2="322" stroke="#484f58" stroke-width="1"/>
  <text x="435.0" y="334" text-anchor="middle" fill="#7d8590" font-size="9">8K</text>
  <line x1="485.7" y1="318" x2="485.7" y2="322" stroke="#484f58" stroke-width="1"/>
  <text x="485.7" y="334" text-anchor="middle" fill="#7d8590" font-size="9">16K</text>
  <line x1="536.4" y1="318" x2="536.4" y2="322" stroke="#484f58" stroke-width="1"/>
  <text x="536.4" y="334" text-anchor="middle" fill="#7d8590" font-size="9">32K</text>
  <line x1="587.1" y1="318" x2="587.1" y2="322" stroke="#484f58" stroke-width="1"/>
  <text x="587.1" y="334" text-anchor="middle" fill="#7d8590" font-size="9">64K</text>
  <line x1="637.9" y1="318" x2="637.9" y2="322" stroke="#484f58" stroke-width="1"/>
  <text x="637.9" y="334" text-anchor="middle" fill="#7d8590" font-size="9">128K</text>
  <line x1="688.6" y1="318" x2="688.6" y2="322" stroke="#484f58" stroke-width="1"/>
  <text x="688.6" y="334" text-anchor="middle" fill="#7d8590" font-size="9">256K</text>
  <line x1="739.3" y1="318" x2="739.3" y2="322" stroke="#484f58" stroke-width="1"/>
  <text x="739.3" y="334" text-anchor="middle" fill="#7d8590" font-size="9">512K</text>
  <line x1="790.0" y1="318" x2="790.0" y2="322" stroke="#484f58" stroke-width="1"/>
  <text x="790.0" y="334" text-anchor="middle" fill="#7d8590" font-size="9">1M</text>
  <line x1="80" y1="305.9" x2="790" y2="305.9" stroke="#21262d" stroke-width="1"/>
  <text x="74" y="305.9" text-anchor="end" dominant-baseline="middle" fill="#7d8590" font-size="9">1K</text>
  <line x1="80" y1="228.2" x2="790" y2="228.2" stroke="#21262d" stroke-width="1"/>
  <text x="74" y="228.2" text-anchor="end" dominant-baseline="middle" fill="#7d8590" font-size="9">10K</text>
  <line x1="80" y1="150.6" x2="790" y2="150.6" stroke="#21262d" stroke-width="1"/>
  <text x="74" y="150.6" text-anchor="end" dominant-baseline="middle" fill="#7d8590" font-size="9">100K</text>
  <line x1="80" y1="72.9" x2="790" y2="72.9" stroke="#21262d" stroke-width="1"/>
  <text x="74" y="72.9" text-anchor="end" dominant-baseline="middle" fill="#7d8590" font-size="9">1M</text>
  <text x="796" y="243.9" text-anchor="start" dominant-baseline="middle" fill="#7d8590" font-size="9">100 MB/s</text>
  <text x="796" y="95.8" text-anchor="start" dominant-baseline="middle" fill="#7d8590" font-size="9">1 GB/s</text>
  <polyline points="80.0,74.3 130.7,77.2 181.4,83.7 232.1,91.6 282.9,99.9 333.6,110.5 384.3,125.4 435.0,140.5 485.7,159.5 536.4,180.9 587.1,204.1 637.9,232.0 688.6,258.8 739.3,283.0 790.0,306.8" fill="none" stroke="#60a5fa" stroke-width="1.2" stroke-dasharray="4,3" stroke-opacity="0.55"/>
  <polyline points="80.0,275.3 130.7,236.2 181.4,204.1 232.1,174.5 282.9,145.7 333.6,121.3 384.3,105.2 435.0,89.5 485.7,81.1 536.4,77.3 587.1,77.0 637.9,85.6 688.6,92.1 739.3,93.7 790.0,94.5" fill="none" stroke="#60a5fa" stroke-width="2"/>
  <circle cx="80.0" cy="275.3" r="2" fill="#60a5fa"/>
  <circle cx="130.7" cy="236.2" r="2" fill="#60a5fa"/>
  <circle cx="181.4" cy="204.1" r="2" fill="#60a5fa"/>
  <circle cx="232.1" cy="174.5" r="2" fill="#60a5fa"/>
  <circle cx="282.9" cy="145.7" r="2" fill="#60a5fa"/>
  <circle cx="333.6" cy="121.3" r="2" fill="#60a5fa"/>
  <circle cx="384.3" cy="105.2" r="2" fill="#60a5fa"/>
  <circle cx="435.0" cy="89.5" r="2" fill="#60a5fa"/>
  <circle cx="485.7" cy="81.1" r="2" fill="#60a5fa"/>
  <circle cx="536.4" cy="77.3" r="2" fill="#60a5fa"/>
  <circle cx="587.1" cy="77.0" r="2" fill="#60a5fa"/>
  <circle cx="637.9" cy="85.6" r="2" fill="#60a5fa"/>
  <circle cx="688.6" cy="92.1" r="2" fill="#60a5fa"/>
  <circle cx="739.3" cy="93.7" r="2" fill="#60a5fa"/>
  <circle cx="790.0" cy="94.5" r="2" fill="#60a5fa"/>
  <polyline points="80.0,89.2 130.7,90.1 181.4,92.5 232.1,96.6 282.9,102.9 333.6,112.0 384.3,125.6 435.0,141.6 485.7,161.3 536.4,184.1 587.1,211.4 637.9,239.4 688.6,263.9 739.3,287.1 790.0,310.3" fill="none" stroke="#2dd4bf" stroke-width="1.2" stroke-dasharray="4,3" stroke-opacity="0.55"/>
  <polyline points="80.0,303.6 130.7,260.9 181.4,220.9 232.1,184.0 282.9,151.6 333.6,124.3 384.3,105.5 435.0,91.6 485.7,84.5 536.4,83.5 587.1,90.9 637.9,99.7 688.6,101.9 739.3,101.5 790.0,101.1" fill="none" stroke="#2dd4bf" stroke-width="2"/>
  <circle cx="80.0" cy="303.6" r="2" fill="#2dd4bf"/>
  <circle cx="130.7" cy="260.9" r="2" fill="#2dd4bf"/>
  <circle cx="181.4" cy="220.9" r="2" fill="#2dd4bf"/>
  <circle cx="232.1" cy="184.0" r="2" fill="#2dd4bf"/>
  <circle cx="282.9" cy="151.6" r="2" fill="#2dd4bf"/>
  <circle cx="333.6" cy="124.3" r="2" fill="#2dd4bf"/>
  <circle cx="384.3" cy="105.5" r="2" fill="#2dd4bf"/>
  <circle cx="435.0" cy="91.6" r="2" fill="#2dd4bf"/>
  <circle cx="485.7" cy="84.5" r="2" fill="#2dd4bf"/>
  <circle cx="536.4" cy="83.5" r="2" fill="#2dd4bf"/>
  <circle cx="587.1" cy="90.9" r="2" fill="#2dd4bf"/>
  <circle cx="637.9" cy="99.7" r="2" fill="#2dd4bf"/>
  <circle cx="688.6" cy="101.9" r="2" fill="#2dd4bf"/>
  <circle cx="739.3" cy="101.5" r="2" fill="#2dd4bf"/>
  <circle cx="790.0" cy="101.1" r="2" fill="#2dd4bf"/>
  <polyline points="80.0,77.4 130.7,76.8 181.4,80.7 232.1,87.3 282.9,96.3 333.6,108.5 384.3,123.2 435.0,139.7 485.7,160.5 536.4,183.1 587.1,208.0 637.9,234.8 688.6,259.1 739.3,283.0 790.0,306.3" fill="none" stroke="#f87171" stroke-width="1.2" stroke-dasharray="4,3" stroke-opacity="0.55"/>
  <polyline points="80.0,281.3 130.7,235.5 181.4,198.4 232.1,166.3 282.9,138.9 333.6,117.6 384.3,101.1 435.0,88.0 485.7,83.0 536.4,81.5 587.1,84.4 637.9,90.9 688.6,92.7 739.3,93.7 790.0,93.5" fill="none" stroke="#f87171" stroke-width="2"/>
  <circle cx="80.0" cy="281.3" r="2" fill="#f87171"/>
  <circle cx="130.7" cy="235.5" r="2" fill="#f87171"/>
  <circle cx="181.4" cy="198.4" r="2" fill="#f87171"/>
  <circle cx="232.1" cy="166.3" r="2" fill="#f87171"/>
  <circle cx="282.9" cy="138.9" r="2" fill="#f87171"/>
  <circle cx="333.6" cy="117.6" r="2" fill="#f87171"/>
  <circle cx="384.3" cy="101.1" r="2" fill="#f87171"/>
  <circle cx="435.0" cy="88.0" r="2" fill="#f87171"/>
  <circle cx="485.7" cy="83.0" r="2" fill="#f87171"/>
  <circle cx="536.4" cy="81.5" r="2" fill="#f87171"/>
  <circle cx="587.1" cy="84.4" r="2" fill="#f87171"/>
  <circle cx="637.9" cy="90.9" r="2" fill="#f87171"/>
  <circle cx="688.6" cy="92.7" r="2" fill="#f87171"/>
  <circle cx="739.3" cy="93.7" r="2" fill="#f87171"/>
  <circle cx="790.0" cy="93.5" r="2" fill="#f87171"/>
  <polyline points="80.0,72.7 130.7,75.9 181.4,81.2 232.1,86.7 282.9,95.7 333.6,107.8 384.3,123.8 435.0,143.4 485.7,165.7 536.4,189.5 587.1,215.4 637.9,240.3 688.6,264.1 739.3,287.3 790.0,310.5" fill="none" stroke="#fb923c" stroke-width="1.2" stroke-dasharray="4,3" stroke-opacity="0.55"/>
  <polyline points="80.0,272.3 130.7,233.7 181.4,199.3 232.1,165.2 282.9,137.9 333.6,116.3 384.3,102.1 435.0,95.0 485.7,92.9 536.4,93.6 587.1,98.5 637.9,101.5 688.6,102.2 739.3,101.9 790.0,101.4" fill="none" stroke="#fb923c" stroke-width="2"/>
  <circle cx="80.0" cy="272.3" r="2" fill="#fb923c"/>
  <circle cx="130.7" cy="233.7" r="2" fill="#fb923c"/>
  <circle cx="181.4" cy="199.3" r="2" fill="#fb923c"/>
  <circle cx="232.1" cy="165.2" r="2" fill="#fb923c"/>
  <circle cx="282.9" cy="137.9" r="2" fill="#fb923c"/>
  <circle cx="333.6" cy="116.3" r="2" fill="#fb923c"/>
  <circle cx="384.3" cy="102.1" r="2" fill="#fb923c"/>
  <circle cx="435.0" cy="95.0" r="2" fill="#fb923c"/>
  <circle cx="485.7" cy="92.9" r="2" fill="#fb923c"/>
  <circle cx="536.4" cy="93.6" r="2" fill="#fb923c"/>
  <circle cx="587.1" cy="98.5" r="2" fill="#fb923c"/>
  <circle cx="637.9" cy="101.5" r="2" fill="#fb923c"/>
  <circle cx="688.6" cy="102.2" r="2" fill="#fb923c"/>
  <circle cx="739.3" cy="101.9" r="2" fill="#fb923c"/>
  <circle cx="790.0" cy="101.4" r="2" fill="#fb923c"/>
  <text x="425.0" y="386" text-anchor="middle" fill="#e6edf3" font-size="12" font-weight="600">Roundtrip (compress + decompress)</text>
  <text x="25" y="523" text-anchor="middle" fill="#e6edf3" font-size="10" font-weight="600" transform="rotate(-90,25,523)">ops/sec</text>
  <text x="838" y="523" text-anchor="middle" fill="#e6edf3" font-size="10" font-weight="600" transform="rotate(90,838,523)">throughput</text>
  <line x1="80" y1="648" x2="790" y2="648" stroke="#30363d" stroke-width="1.5"/>
  <line x1="80" y1="398" x2="80" y2="648" stroke="#30363d" stroke-width="1"/>
  <line x1="790" y1="398" x2="790" y2="648" stroke="#30363d" stroke-width="1"/>
  <line x1="80.0" y1="648" x2="80.0" y2="652" stroke="#484f58" stroke-width="1"/>
  <text x="80.0" y="664" text-anchor="middle" fill="#7d8590" font-size="9">64</text>
  <line x1="130.7" y1="648" x2="130.7" y2="652" stroke="#484f58" stroke-width="1"/>
  <text x="130.7" y="664" text-anchor="middle" fill="#7d8590" font-size="9">128</text>
  <line x1="181.4" y1="648" x2="181.4" y2="652" stroke="#484f58" stroke-width="1"/>
  <text x="181.4" y="664" text-anchor="middle" fill="#7d8590" font-size="9">256</text>
  <line x1="232.1" y1="648" x2="232.1" y2="652" stroke="#484f58" stroke-width="1"/>
  <text x="232.1" y="664" text-anchor="middle" fill="#7d8590" font-size="9">512</text>
  <line x1="282.9" y1="648" x2="282.9" y2="652" stroke="#484f58" stroke-width="1"/>
  <text x="282.9" y="664" text-anchor="middle" fill="#7d8590" font-size="9">1K</text>
  <line x1="333.6" y1="648" x2="333.6" y2="652" stroke="#484f58" stroke-width="1"/>
  <text x="333.6" y="664" text-anchor="middle" fill="#7d8590" font-size="9">2K</text>
  <line x1="384.3" y1="648" x2="384.3" y2="652" stroke="#484f58" stroke-width="1"/>
  <text x="384.3" y="664" text-anchor="middle" fill="#7d8590" font-size="9">4K</text>
  <line x1="435.0" y1="648" x2="435.0" y2="652" stroke="#484f58" stroke-width="1"/>
  <text x="435.0" y="664" text-anchor="middle" fill="#7d8590" font-size="9">8K</text>
  <line x1="485.7" y1="648" x2="485.7" y2="652" stroke="#484f58" stroke-width="1"/>
  <text x="485.7" y="664" text-anchor="middle" fill="#7d8590" font-size="9">16K</text>
  <line x1="536.4" y1="648" x2="536.4" y2="652" stroke="#484f58" stroke-width="1"/>
  <text x="536.4" y="664" text-anchor="middle" fill="#7d8590" font-size="9">32K</text>
  <line x1="587.1" y1="648" x2="587.1" y2="652" stroke="#484f58" stroke-width="1"/>
  <text x="587.1" y="664" text-anchor="middle" fill="#7d8590" font-size="9">64K</text>
  <line x1="637.9" y1="648" x2="637.9" y2="652" stroke="#484f58" stroke-width="1"/>
  <text x="637.9" y="664" text-anchor="middle" fill="#7d8590" font-size="9">128K</text>
  <line x1="688.6" y1="648" x2="688.6" y2="652" stroke="#484f58" stroke-width="1"/>
  <text x="688.6" y="664" text-anchor="middle" fill="#7d8590" font-size="9">256K</text>
  <line x1="739.3" y1="648" x2="739.3" y2="652" stroke="#484f58" stroke-width="1"/>
  <text x="739.3" y="664" text-anchor="middle" fill="#7d8590" font-size="9">512K</text>
  <line x1="790.0" y1="648" x2="790.0" y2="652" stroke="#484f58" stroke-width="1"/>
  <text x="790.0" y="664" text-anchor="middle" fill="#7d8590" font-size="9">1M</text>
  <line x1="80" y1="623.7" x2="790" y2="623.7" stroke="#21262d" stroke-width="1"/>
  <text x="74" y="623.7" text-anchor="end" dominant-baseline="middle" fill="#7d8590" font-size="9">1K</text>
  <line x1="80" y1="542.3" x2="790" y2="542.3" stroke="#21262d" stroke-width="1"/>
  <text x="74" y="542.3" text-anchor="end" dominant-baseline="middle" fill="#7d8590" font-size="9">10K</text>
  <line x1="80" y1="461.0" x2="790" y2="461.0" stroke="#21262d" stroke-width="1"/>
  <text x="74" y="461.0" text-anchor="end" dominant-baseline="middle" fill="#7d8590" font-size="9">100K</text>
  <text x="796" y="548.2" text-anchor="start" dominant-baseline="middle" fill="#7d8590" font-size="9">100 MB/s</text>
  <text x="796" y="405.3" text-anchor="start" dominant-baseline="middle" fill="#7d8590" font-size="9">1 GB/s</text>
  <polyline points="80.0,403.3 130.7,405.3 181.4,409.7 232.1,415.6 282.9,422.6 333.6,432.6 384.3,447.0 435.0,462.4 485.7,481.9 536.4,504.1 587.1,528.2 637.9,556.2 688.6,583.6 739.3,609.0 790.0,633.8" fill="none" stroke="#60a5fa" stroke-width="1.2" stroke-dasharray="4,3" stroke-opacity="0.55"/>
  <polyline points="80.0,617.5 130.7,578.1 181.4,542.7 232.1,510.1 282.9,479.4 333.6,453.9 384.3,436.2 435.0,420.2 485.7,411.5 536.4,407.5 587.1,406.7 637.9,412.9 688.6,418.0 739.3,419.5 790.0,420.1" fill="none" stroke="#60a5fa" stroke-width="2"/>
  <circle cx="80.0" cy="617.5" r="2" fill="#60a5fa"/>
  <circle cx="130.7" cy="578.1" r="2" fill="#60a5fa"/>
  <circle cx="181.4" cy="542.7" r="2" fill="#60a5fa"/>
  <circle cx="232.1" cy="510.1" r="2" fill="#60a5fa"/>
  <circle cx="282.9" cy="479.4" r="2" fill="#60a5fa"/>
  <circle cx="333.6" cy="453.9" r="2" fill="#60a5fa"/>
  <circle cx="384.3" cy="436.2" r="2" fill="#60a5fa"/>
  <circle cx="435.0" cy="420.2" r="2" fill="#60a5fa"/>
  <circle cx="485.7" cy="411.5" r="2" fill="#60a5fa"/>
  <circle cx="536.4" cy="407.5" r="2" fill="#60a5fa"/>
  <circle cx="587.1" cy="406.7" r="2" fill="#60a5fa"/>
  <circle cx="637.9" cy="412.9" r="2" fill="#60a5fa"/>
  <circle cx="688.6" cy="418.0" r="2" fill="#60a5fa"/>
  <circle cx="739.3" cy="419.5" r="2" fill="#60a5fa"/>
  <circle cx="790.0" cy="420.1" r="2" fill="#60a5fa"/>
  <polyline points="80.0,412.8 130.7,413.8 181.4,416.1 232.1,419.8 282.9,425.7 333.6,434.5 384.3,447.8 435.0,464.0 485.7,484.2 536.4,507.6 587.1,534.9 637.9,563.1 688.6,588.6 739.3,612.9 790.0,637.2" fill="none" stroke="#2dd4bf" stroke-width="1.2" stroke-dasharray="4,3" stroke-opacity="0.55"/>
  <polyline points="80.0,634.2 130.7,593.0 181.4,554.0 232.1,517.5 282.9,484.8 333.6,457.3 384.3,437.6 435.0,423.1 485.7,415.5 536.4,413.5 587.1,418.5 637.9,424.9 688.6,426.7 739.3,426.4 790.0,426.1" fill="none" stroke="#2dd4bf" stroke-width="2"/>
  <circle cx="80.0" cy="634.2" r="2" fill="#2dd4bf"/>
  <circle cx="130.7" cy="593.0" r="2" fill="#2dd4bf"/>
  <circle cx="181.4" cy="554.0" r="2" fill="#2dd4bf"/>
  <circle cx="232.1" cy="517.5" r="2" fill="#2dd4bf"/>
  <circle cx="282.9" cy="484.8" r="2" fill="#2dd4bf"/>
  <circle cx="333.6" cy="457.3" r="2" fill="#2dd4bf"/>
  <circle cx="384.3" cy="437.6" r="2" fill="#2dd4bf"/>
  <circle cx="435.0" cy="423.1" r="2" fill="#2dd4bf"/>
  <circle cx="485.7" cy="415.5" r="2" fill="#2dd4bf"/>
  <circle cx="536.4" cy="413.5" r="2" fill="#2dd4bf"/>
  <circle cx="587.1" cy="418.5" r="2" fill="#2dd4bf"/>
  <circle cx="637.9" cy="424.9" r="2" fill="#2dd4bf"/>
  <circle cx="688.6" cy="426.7" r="2" fill="#2dd4bf"/>
  <circle cx="739.3" cy="426.4" r="2" fill="#2dd4bf"/>
  <circle cx="790.0" cy="426.1" r="2" fill="#2dd4bf"/>
  <polyline points="80.0,405.1 130.7,404.8 181.4,407.4 232.1,412.4 282.9,419.6 333.6,430.5 384.3,445.2 435.0,461.8 485.7,483.2 536.4,506.6 587.1,532.2 637.9,559.2 688.6,584.5 739.3,609.5 790.0,633.9" fill="none" stroke="#f87171" stroke-width="1.2" stroke-dasharray="4,3" stroke-opacity="0.55"/>
  <polyline points="80.0,620.7 130.7,577.1 181.4,538.7 232.1,504.4 282.9,474.1 333.6,450.1 384.3,433.0 435.0,419.1 485.7,413.7 536.4,411.7 587.1,413.8 637.9,418.2 688.6,419.6 739.3,420.4 790.0,420.3" fill="none" stroke="#f87171" stroke-width="2"/>
  <circle cx="80.0" cy="620.7" r="2" fill="#f87171"/>
  <circle cx="130.7" cy="577.1" r="2" fill="#f87171"/>
  <circle cx="181.4" cy="538.7" r="2" fill="#f87171"/>
  <circle cx="232.1" cy="504.4" r="2" fill="#f87171"/>
  <circle cx="282.9" cy="474.1" r="2" fill="#f87171"/>
  <circle cx="333.6" cy="450.1" r="2" fill="#f87171"/>
  <circle cx="384.3" cy="433.0" r="2" fill="#f87171"/>
  <circle cx="435.0" cy="419.1" r="2" fill="#f87171"/>
  <circle cx="485.7" cy="413.7" r="2" fill="#f87171"/>
  <circle cx="536.4" cy="411.7" r="2" fill="#f87171"/>
  <circle cx="587.1" cy="413.8" r="2" fill="#f87171"/>
  <circle cx="637.9" cy="418.2" r="2" fill="#f87171"/>
  <circle cx="688.6" cy="419.6" r="2" fill="#f87171"/>
  <circle cx="739.3" cy="420.4" r="2" fill="#f87171"/>
  <circle cx="790.0" cy="420.3" r="2" fill="#f87171"/>
  <polyline points="80.0,402.9 130.7,405.2 181.4,409.2 232.1,414.4 282.9,422.3 333.6,433.8 384.3,449.6 435.0,469.1 485.7,491.8 536.4,516.7 587.1,541.2 637.9,566.7 688.6,591.5 739.3,615.8 790.0,640.1" fill="none" stroke="#fb923c" stroke-width="1.2" stroke-dasharray="4,3" stroke-opacity="0.55"/>
  <polyline points="80.0,616.9 130.7,577.8 181.4,541.9 232.1,507.9 282.9,478.8 333.6,456.1 384.3,440.7 435.0,432.0 485.7,428.8 536.4,429.5 587.1,429.6 637.9,431.4 688.6,431.8 739.3,431.5 790.0,431.2" fill="none" stroke="#fb923c" stroke-width="2"/>
  <circle cx="80.0" cy="616.9" r="2" fill="#fb923c"/>
  <circle cx="130.7" cy="577.8" r="2" fill="#fb923c"/>
  <circle cx="181.4" cy="541.9" r="2" fill="#fb923c"/>
  <circle cx="232.1" cy="507.9" r="2" fill="#fb923c"/>
  <circle cx="282.9" cy="478.8" r="2" fill="#fb923c"/>
  <circle cx="333.6" cy="456.1" r="2" fill="#fb923c"/>
  <circle cx="384.3" cy="440.7" r="2" fill="#fb923c"/>
  <circle cx="435.0" cy="432.0" r="2" fill="#fb923c"/>
  <circle cx="485.7" cy="428.8" r="2" fill="#fb923c"/>
  <circle cx="536.4" cy="429.5" r="2" fill="#fb923c"/>
  <circle cx="587.1" cy="429.6" r="2" fill="#fb923c"/>
  <circle cx="637.9" cy="431.4" r="2" fill="#fb923c"/>
  <circle cx="688.6" cy="431.8" r="2" fill="#fb923c"/>
  <circle cx="739.3" cy="431.5" r="2" fill="#fb923c"/>
  <circle cx="790.0" cy="431.2" r="2" fill="#fb923c"/>
  <text x="425.0" y="678" text-anchor="middle" fill="#e6edf3" font-size="11" font-weight="600">input size</text>
  <line x1="80" y1="696" x2="100" y2="696" stroke="#60a5fa" stroke-width="2"/>
  <text x="106" y="700" fill="#e6edf3" font-size="10" font-weight="500">lz4 (C)</text>
  <line x1="240" y1="696" x2="260" y2="696" stroke="#2dd4bf" stroke-width="2"/>
  <text x="266" y="700" fill="#e6edf3" font-size="10" font-weight="500">lz4 (C) + dict</text>
  <line x1="400" y1="696" x2="420" y2="696" stroke="#f87171" stroke-width="2"/>
  <text x="426" y="700" fill="#e6edf3" font-size="10" font-weight="500">lz4rip</text>
  <line x1="560" y1="696" x2="580" y2="696" stroke="#fb923c" stroke-width="2"/>
  <text x="586" y="700" fill="#e6edf3" font-size="10" font-weight="500">lz4rip + dict</text>
  <line x1="80" y1="716" x2="100" y2="716" stroke="#7d8590" stroke-width="2"/>
  <text x="106" y="720" fill="#7d8590" font-size="9">solid = throughput (right axis)</text>
  <line x1="300" y1="716" x2="320" y2="716" stroke="#7d8590" stroke-width="1.5" stroke-dasharray="4,3" stroke-opacity="0.6"/>
  <text x="326" y="720" fill="#7d8590" font-size="9">thin = ops/sec (left axis)</text>
</svg>
