<svg xmlns="http://www.w3.org/2000/svg" viewBox="0 0 850 760" font-family="system-ui, -apple-system, sans-serif">
  <rect width="850" height="760" fill="#0d1117"/>
  <text x="425.0" y="22" text-anchor="middle" fill="#e6edf3" font-size="14" font-weight="700">LZ4 Size Sweep: Synthetic JSON (log-log)</text>
  <text x="425.0" y="38" text-anchor="middle" fill="#7d8590" font-size="10">Intel Core i7-8700B @ 3.20GHz</text>
  <text x="425.0" y="56" text-anchor="middle" fill="#e6edf3" font-size="12" font-weight="600">Compress</text>
  <text x="25" y="193" text-anchor="middle" fill="#e6edf3" font-size="10" font-weight="600" transform="rotate(-90,25,193)">ops/sec</text>
  <text x="838" y="193" text-anchor="middle" fill="#e6edf3" font-size="10" font-weight="600" transform="rotate(90,838,193)">throughput</text>
  <line x1="80" y1="318" x2="790" y2="318" stroke="#30363d" stroke-width="1.5"/>
  <line x1="80" y1="68" x2="80" y2="318" stroke="#30363d" stroke-width="1"/>
  <line x1="790" y1="68" x2="790" y2="318" stroke="#30363d" stroke-width="1"/>
  <line x1="80.0" y1="318" x2="80.0" y2="322" stroke="#484f58" stroke-width="1"/>
  <text x="80.0" y="334" text-anchor="middle" fill="#7d8590" font-size="9">64</text>
  <line x1="130.7" y1="318" x2="130.7" y2="322" stroke="#484f58" stroke-width="1"/>
  <text x="130.7" y="334" text-anchor="middle" fill="#7d8590" font-size="9">128</text>
  <line x1="181.4" y1="318" x2="181.4" y2="322" stroke="#484f58" stroke-width="1"/>
  <text x="181.4" y="334" text-anchor="middle" fill="#7d8590" font-size="9">256</text>
  <line x1="232.1" y1="318" x2="232.1" y2="322" stroke="#484f58" stroke-width="1"/>
  <text x="232.1" y="334" text-anchor="middle" fill="#7d8590" font-size="9">512</text>
  <line x1="282.9" y1="318" x2="282.9" y2="322" stroke="#484f58" stroke-width="1"/>
  <text x="282.9" y="334" text-anchor="middle" fill="#7d8590" font-size="9">1K</text>
  <line x1="333.6" y1="318" x2="333.6" y2="322" stroke="#484f58" stroke-width="1"/>
  <text x="333.6" y="334" text-anchor="middle" fill="#7d8590" font-size="9">2K</text>
  <line x1="384.3" y1="318" x2="384.3" y2="322" stroke="#484f58" stroke-width="1"/>
  <text x="384.3" y="334" text-anchor="middle" fill="#7d8590" font-size="9">4K</text>
  <line x1="435.0" y1="318" x2="435.0" y2="322" stroke="#484f58" stroke-width="1"/>
  <text x="435.0" y="334" text-anchor="middle" fill="#7d8590" font-size="9">8K</text>
  <line x1="485.7" y1="318" x2="485.7" y2="322" stroke="#484f58" stroke-width="1"/>
  <text x="485.7" y="334" text-anchor="middle" fill="#7d8590" font-size="9">16K</text>
  <line x1="536.4" y1="318" x2="536.4" y2="322" stroke="#484f58" stroke-width="1"/>
  <text x="536.4" y="334" text-anchor="middle" fill="#7d8590" font-size="9">32K</text>
  <line x1="587.1" y1="318" x2="587.1" y2="322" stroke="#484f58" stroke-width="1"/>
  <text x="587.1" y="334" text-anchor="middle" fill="#7d8590" font-size="9">64K</text>
  <line x1="637.9" y1="318" x2="637.9" y2="322" stroke="#484f58" stroke-width="1"/>
  <text x="637.9" y="334" text-anchor="middle" fill="#7d8590" font-size="9">128K</text>
  <line x1="688.6" y1="318" x2="688.6" y2="322" stroke="#484f58" stroke-width="1"/>
  <text x="688.6" y="334" text-anchor="middle" fill="#7d8590" font-size="9">256K</text>
  <line x1="739.3" y1="318" x2="739.3" y2="322" stroke="#484f58" stroke-width="1"/>
  <text x="739.3" y="334" text-anchor="middle" fill="#7d8590" font-size="9">512K</text>
  <line x1="790.0" y1="318" x2="790.0" y2="322" stroke="#484f58" stroke-width="1"/>
  <text x="790.0" y="334" text-anchor="middle" fill="#7d8590" font-size="9">1M</text>
  <line x1="80" y1="305.1" x2="790" y2="305.1" stroke="#21262d" stroke-width="1"/>
  <text x="74" y="305.1" text-anchor="end" dominant-baseline="middle" fill="#7d8590" font-size="9">1K</text>
  <line x1="80" y1="227.0" x2="790" y2="227.0" stroke="#21262d" stroke-width="1"/>
  <text x="74" y="227.0" text-anchor="end" dominant-baseline="middle" fill="#7d8590" font-size="9">10K</text>
  <line x1="80" y1="149.0" x2="790" y2="149.0" stroke="#21262d" stroke-width="1"/>
  <text x="74" y="149.0" text-anchor="end" dominant-baseline="middle" fill="#7d8590" font-size="9">100K</text>
  <line x1="80" y1="70.9" x2="790" y2="70.9" stroke="#21262d" stroke-width="1"/>
  <text x="74" y="70.9" text-anchor="end" dominant-baseline="middle" fill="#7d8590" font-size="9">1M</text>
  <text x="796" y="243.8" text-anchor="start" dominant-baseline="middle" fill="#7d8590" font-size="9">100 MB/s</text>
  <text x="796" y="95.8" text-anchor="start" dominant-baseline="middle" fill="#7d8590" font-size="9">1 GB/s</text>
  <polyline points="80.0,72.7 130.7,75.5 181.4,82.2 232.1,90.0 282.9,98.1 333.6,108.8 384.3,123.6 435.0,138.6 485.7,157.9 536.4,179.3 587.1,202.8 637.9,230.9 688.6,257.9 739.3,282.3 790.0,306.2" fill="none" stroke="#60a5fa" stroke-width="1.2" stroke-dasharray="4,3" stroke-opacity="0.55"/>
  <polyline points="80.0,276.0 130.7,236.7 181.4,204.9 232.1,175.1 282.9,145.8 333.6,121.6 384.3,104.9 435.0,89.0 485.7,80.9 536.4,77.0 587.1,77.1 637.9,85.7 688.6,92.4 739.3,94.0 790.0,94.7" fill="none" stroke="#60a5fa" stroke-width="2"/>
  <circle cx="80.0" cy="276.0" r="2" fill="#60a5fa"/>
  <circle cx="130.7" cy="236.7" r="2" fill="#60a5fa"/>
  <circle cx="181.4" cy="204.9" r="2" fill="#60a5fa"/>
  <circle cx="232.1" cy="175.1" r="2" fill="#60a5fa"/>
  <circle cx="282.9" cy="145.8" r="2" fill="#60a5fa"/>
  <circle cx="333.6" cy="121.6" r="2" fill="#60a5fa"/>
  <circle cx="384.3" cy="104.9" r="2" fill="#60a5fa"/>
  <circle cx="435.0" cy="89.0" r="2" fill="#60a5fa"/>
  <circle cx="485.7" cy="80.9" r="2" fill="#60a5fa"/>
  <circle cx="536.4" cy="77.0" r="2" fill="#60a5fa"/>
  <circle cx="587.1" cy="77.1" r="2" fill="#60a5fa"/>
  <circle cx="637.9" cy="85.7" r="2" fill="#60a5fa"/>
  <circle cx="688.6" cy="92.4" r="2" fill="#60a5fa"/>
  <circle cx="739.3" cy="94.0" r="2" fill="#60a5fa"/>
  <circle cx="790.0" cy="94.7" r="2" fill="#60a5fa"/>
  <polyline points="80.0,87.3 130.7,88.3 181.4,90.6 232.1,94.7 282.9,101.2 333.6,110.3 384.3,123.6 435.0,139.9 485.7,159.8 536.4,182.3 587.1,210.2 637.9,238.2 688.6,262.9 739.3,286.1 790.0,309.3" fill="none" stroke="#2dd4bf" stroke-width="1.2" stroke-dasharray="4,3" stroke-opacity="0.55"/>
  <polyline points="80.0,303.6 130.7,260.9 181.4,220.8 232.1,184.0 282.9,151.7 333.6,124.3 384.3,105.0 435.0,91.4 485.7,84.5 536.4,82.7 587.1,91.0 637.9,99.5 688.6,101.8 739.3,101.3 790.0,100.7" fill="none" stroke="#2dd4bf" stroke-width="2"/>
  <circle cx="80.0" cy="303.6" r="2" fill="#2dd4bf"/>
  <circle cx="130.7" cy="260.9" r="2" fill="#2dd4bf"/>
  <circle cx="181.4" cy="220.8" r="2" fill="#2dd4bf"/>
  <circle cx="232.1" cy="184.0" r="2" fill="#2dd4bf"/>
  <circle cx="282.9" cy="151.7" r="2" fill="#2dd4bf"/>
  <circle cx="333.6" cy="124.3" r="2" fill="#2dd4bf"/>
  <circle cx="384.3" cy="105.0" r="2" fill="#2dd4bf"/>
  <circle cx="435.0" cy="91.4" r="2" fill="#2dd4bf"/>
  <circle cx="485.7" cy="84.5" r="2" fill="#2dd4bf"/>
  <circle cx="536.4" cy="82.7" r="2" fill="#2dd4bf"/>
  <circle cx="587.1" cy="91.0" r="2" fill="#2dd4bf"/>
  <circle cx="637.9" cy="99.5" r="2" fill="#2dd4bf"/>
  <circle cx="688.6" cy="101.8" r="2" fill="#2dd4bf"/>
  <circle cx="739.3" cy="101.3" r="2" fill="#2dd4bf"/>
  <circle cx="790.0" cy="100.7" r="2" fill="#2dd4bf"/>
  <polyline points="80.0,75.8 130.7,75.2 181.4,78.9 232.1,84.9 282.9,93.9 333.6,105.9 384.3,120.9 435.0,137.5 485.7,158.2 536.4,180.6 587.1,206.0 637.9,232.2 688.6,257.4 739.3,281.1 790.0,304.8" fill="none" stroke="#f87171" stroke-width="1.2" stroke-dasharray="4,3" stroke-opacity="0.55"/>
  <polyline points="80.0,281.8 130.7,236.0 181.4,198.6 232.1,165.3 282.9,137.9 333.6,116.0 384.3,99.9 435.0,86.8 485.7,81.4 536.4,79.5 587.1,83.0 637.9,88.2 688.6,91.4 739.3,91.8 790.0,92.2" fill="none" stroke="#f87171" stroke-width="2"/>
  <circle cx="80.0" cy="281.8" r="2" fill="#f87171"/>
  <circle cx="130.7" cy="236.0" r="2" fill="#f87171"/>
  <circle cx="181.4" cy="198.6" r="2" fill="#f87171"/>
  <circle cx="232.1" cy="165.3" r="2" fill="#f87171"/>
  <circle cx="282.9" cy="137.9" r="2" fill="#f87171"/>
  <circle cx="333.6" cy="116.0" r="2" fill="#f87171"/>
  <circle cx="384.3" cy="99.9" r="2" fill="#f87171"/>
  <circle cx="435.0" cy="86.8" r="2" fill="#f87171"/>
  <circle cx="485.7" cy="81.4" r="2" fill="#f87171"/>
  <circle cx="536.4" cy="79.5" r="2" fill="#f87171"/>
  <circle cx="587.1" cy="83.0" r="2" fill="#f87171"/>
  <circle cx="637.9" cy="88.2" r="2" fill="#f87171"/>
  <circle cx="688.6" cy="91.4" r="2" fill="#f87171"/>
  <circle cx="739.3" cy="91.8" r="2" fill="#f87171"/>
  <circle cx="790.0" cy="92.2" r="2" fill="#f87171"/>
  <polyline points="80.0,75.0 130.7,76.8 181.4,80.8 232.1,86.2 282.9,96.2 333.6,108.1 384.3,124.5 435.0,143.0 485.7,165.1 536.4,188.5 587.1,214.7 637.9,240.6 688.6,264.1 739.3,287.1 790.0,310.4" fill="none" stroke="#fb923c" stroke-width="1.2" stroke-dasharray="4,3" stroke-opacity="0.55"/>
  <polyline points="80.0,280.2 130.7,239.2 181.4,202.1 232.1,167.9 282.9,142.3 333.6,120.1 384.3,106.8 435.0,97.2 485.7,94.6 536.4,94.4 587.1,99.5 637.9,104.1 688.6,104.1 739.3,103.1 790.0,102.8" fill="none" stroke="#fb923c" stroke-width="2"/>
  <circle cx="80.0" cy="280.2" r="2" fill="#fb923c"/>
  <circle cx="130.7" cy="239.2" r="2" fill="#fb923c"/>
  <circle cx="181.4" cy="202.1" r="2" fill="#fb923c"/>
  <circle cx="232.1" cy="167.9" r="2" fill="#fb923c"/>
  <circle cx="282.9" cy="142.3" r="2" fill="#fb923c"/>
  <circle cx="333.6" cy="120.1" r="2" fill="#fb923c"/>
  <circle cx="384.3" cy="106.8" r="2" fill="#fb923c"/>
  <circle cx="435.0" cy="97.2" r="2" fill="#fb923c"/>
  <circle cx="485.7" cy="94.6" r="2" fill="#fb923c"/>
  <circle cx="536.4" cy="94.4" r="2" fill="#fb923c"/>
  <circle cx="587.1" cy="99.5" r="2" fill="#fb923c"/>
  <circle cx="637.9" cy="104.1" r="2" fill="#fb923c"/>
  <circle cx="688.6" cy="104.1" r="2" fill="#fb923c"/>
  <circle cx="739.3" cy="103.1" r="2" fill="#fb923c"/>
  <circle cx="790.0" cy="102.8" r="2" fill="#fb923c"/>
  <text x="425.0" y="386" text-anchor="middle" fill="#e6edf3" font-size="12" font-weight="600">Roundtrip (compress + decompress)</text>
  <text x="25" y="523" text-anchor="middle" fill="#e6edf3" font-size="10" font-weight="600" transform="rotate(-90,25,523)">ops/sec</text>
  <text x="838" y="523" text-anchor="middle" fill="#e6edf3" font-size="10" font-weight="600" transform="rotate(90,838,523)">throughput</text>
  <line x1="80" y1="648" x2="790" y2="648" stroke="#30363d" stroke-width="1.5"/>
  <line x1="80" y1="398" x2="80" y2="648" stroke="#30363d" stroke-width="1"/>
  <line x1="790" y1="398" x2="790" y2="648" stroke="#30363d" stroke-width="1"/>
  <line x1="80.0" y1="648" x2="80.0" y2="652" stroke="#484f58" stroke-width="1"/>
  <text x="80.0" y="664" text-anchor="middle" fill="#7d8590" font-size="9">64</text>
  <line x1="130.7" y1="648" x2="130.7" y2="652" stroke="#484f58" stroke-width="1"/>
  <text x="130.7" y="664" text-anchor="middle" fill="#7d8590" font-size="9">128</text>
  <line x1="181.4" y1="648" x2="181.4" y2="652" stroke="#484f58" stroke-width="1"/>
  <text x="181.4" y="664" text-anchor="middle" fill="#7d8590" font-size="9">256</text>
  <line x1="232.1" y1="648" x2="232.1" y2="652" stroke="#484f58" stroke-width="1"/>
  <text x="232.1" y="664" text-anchor="middle" fill="#7d8590" font-size="9">512</text>
  <line x1="282.9" y1="648" x2="282.9" y2="652" stroke="#484f58" stroke-width="1"/>
  <text x="282.9" y="664" text-anchor="middle" fill="#7d8590" font-size="9">1K</text>
  <line x1="333.6" y1="648" x2="333.6" y2="652" stroke="#484f58" stroke-width="1"/>
  <text x="333.6" y="664" text-anchor="middle" fill="#7d8590" font-size="9">2K</text>
  <line x1="384.3" y1="648" x2="384.3" y2="652" stroke="#484f58" stroke-width="1"/>
  <text x="384.3" y="664" text-anchor="middle" fill="#7d8590" font-size="9">4K</text>
  <line x1="435.0" y1="648" x2="435.0" y2="652" stroke="#484f58" stroke-width="1"/>
  <text x="435.0" y="664" text-anchor="middle" fill="#7d8590" font-size="9">8K</text>
  <line x1="485.7" y1="648" x2="485.7" y2="652" stroke="#484f58" stroke-width="1"/>
  <text x="485.7" y="664" text-anchor="middle" fill="#7d8590" font-size="9">16K</text>
  <line x1="536.4" y1="648" x2="536.4" y2="652" stroke="#484f58" stroke-width="1"/>
  <text x="536.4" y="664" text-anchor="middle" fill="#7d8590" font-size="9">32K</text>
  <line x1="587.1" y1="648" x2="587.1" y2="652" stroke="#484f58" stroke-width="1"/>
  <text x="587.1" y="664" text-anchor="middle" fill="#7d8590" font-size="9">64K</text>
  <line x1="637.9" y1="648" x2="637.9" y2="652" stroke="#484f58" stroke-width="1"/>
  <text x="637.9" y="664" text-anchor="middle" fill="#7d8590" font-size="9">128K</text>
  <line x1="688.6" y1="648" x2="688.6" y2="652" stroke="#484f58" stroke-width="1"/>
  <text x="688.6" y="664" text-anchor="middle" fill="#7d8590" font-size="9">256K</text>
  <line x1="739.3" y1="648" x2="739.3" y2="652" stroke="#484f58" stroke-width="1"/>
  <text x="739.3" y="664" text-anchor="middle" fill="#7d8590" font-size="9">512K</text>
  <line x1="790.0" y1="648" x2="790.0" y2="652" stroke="#484f58" stroke-width="1"/>
  <text x="790.0" y="664" text-anchor="middle" fill="#7d8590" font-size="9">1M</text>
  <line x1="80" y1="622.6" x2="790" y2="622.6" stroke="#21262d" stroke-width="1"/>
  <text x="74" y="622.6" text-anchor="end" dominant-baseline="middle" fill="#7d8590" font-size="9">1K</text>
  <line x1="80" y1="541.4" x2="790" y2="541.4" stroke="#21262d" stroke-width="1"/>
  <text x="74" y="541.4" text-anchor="end" dominant-baseline="middle" fill="#7d8590" font-size="9">10K</text>
  <line x1="80" y1="460.2" x2="790" y2="460.2" stroke="#21262d" stroke-width="1"/>
  <text x="74" y="460.2" text-anchor="end" dominant-baseline="middle" fill="#7d8590" font-size="9">100K</text>
  <text x="796" y="547.7" text-anchor="start" dominant-baseline="middle" fill="#7d8590" font-size="9">100 MB/s</text>
  <text x="796" y="404.2" text-anchor="start" dominant-baseline="middle" fill="#7d8590" font-size="9">1 GB/s</text>
  <polyline points="80.0,402.9 130.7,404.9 181.4,409.3 232.1,415.2 282.9,422.0 333.6,432.0 384.3,446.2 435.0,461.5 485.7,481.2 536.4,503.7 587.1,527.9 637.9,555.7 688.6,583.0 739.3,608.2 790.0,632.9" fill="none" stroke="#60a5fa" stroke-width="1.2" stroke-dasharray="4,3" stroke-opacity="0.55"/>
  <polyline points="80.0,617.8 130.7,578.1 181.4,542.7 232.1,509.8 282.9,478.7 333.6,453.2 384.3,435.1 435.0,419.0 485.7,410.6 536.4,407.2 587.1,406.7 637.9,412.7 688.6,417.7 739.3,419.0 790.0,419.6" fill="none" stroke="#60a5fa" stroke-width="2"/>
  <circle cx="80.0" cy="617.8" r="2" fill="#60a5fa"/>
  <circle cx="130.7" cy="578.1" r="2" fill="#60a5fa"/>
  <circle cx="181.4" cy="542.7" r="2" fill="#60a5fa"/>
  <circle cx="232.1" cy="509.8" r="2" fill="#60a5fa"/>
  <circle cx="282.9" cy="478.7" r="2" fill="#60a5fa"/>
  <circle cx="333.6" cy="453.2" r="2" fill="#60a5fa"/>
  <circle cx="384.3" cy="435.1" r="2" fill="#60a5fa"/>
  <circle cx="435.0" cy="419.0" r="2" fill="#60a5fa"/>
  <circle cx="485.7" cy="410.6" r="2" fill="#60a5fa"/>
  <circle cx="536.4" cy="407.2" r="2" fill="#60a5fa"/>
  <circle cx="587.1" cy="406.7" r="2" fill="#60a5fa"/>
  <circle cx="637.9" cy="412.7" r="2" fill="#60a5fa"/>
  <circle cx="688.6" cy="417.7" r="2" fill="#60a5fa"/>
  <circle cx="739.3" cy="419.0" r="2" fill="#60a5fa"/>
  <circle cx="790.0" cy="419.6" r="2" fill="#60a5fa"/>
  <polyline points="80.0,412.1 130.7,413.2 181.4,415.5 232.1,419.2 282.9,425.1 333.6,433.9 384.3,446.9 435.0,463.2 485.7,483.4 536.4,506.5 587.1,534.1 637.9,562.0 688.6,587.5 739.3,611.8 790.0,635.9" fill="none" stroke="#2dd4bf" stroke-width="1.2" stroke-dasharray="4,3" stroke-opacity="0.55"/>
  <polyline points="80.0,634.1 130.7,592.8 181.4,553.6 232.1,517.0 282.9,484.2 333.6,456.5 384.3,436.3 435.0,421.9 485.7,414.5 536.4,412.1 587.1,417.6 637.9,423.8 688.6,425.7 739.3,425.4 790.0,424.8" fill="none" stroke="#2dd4bf" stroke-width="2"/>
  <circle cx="80.0" cy="634.1" r="2" fill="#2dd4bf"/>
  <circle cx="130.7" cy="592.8" r="2" fill="#2dd4bf"/>
  <circle cx="181.4" cy="553.6" r="2" fill="#2dd4bf"/>
  <circle cx="232.1" cy="517.0" r="2" fill="#2dd4bf"/>
  <circle cx="282.9" cy="484.2" r="2" fill="#2dd4bf"/>
  <circle cx="333.6" cy="456.5" r="2" fill="#2dd4bf"/>
  <circle cx="384.3" cy="436.3" r="2" fill="#2dd4bf"/>
  <circle cx="435.0" cy="421.9" r="2" fill="#2dd4bf"/>
  <circle cx="485.7" cy="414.5" r="2" fill="#2dd4bf"/>
  <circle cx="536.4" cy="412.1" r="2" fill="#2dd4bf"/>
  <circle cx="587.1" cy="417.6" r="2" fill="#2dd4bf"/>
  <circle cx="637.9" cy="423.8" r="2" fill="#2dd4bf"/>
  <circle cx="688.6" cy="425.7" r="2" fill="#2dd4bf"/>
  <circle cx="739.3" cy="425.4" r="2" fill="#2dd4bf"/>
  <circle cx="790.0" cy="424.8" r="2" fill="#2dd4bf"/>
  <polyline points="80.0,404.7 130.7,404.3 181.4,406.9 232.1,411.4 282.9,418.7 333.6,429.4 384.3,444.1 435.0,460.6 485.7,481.7 536.4,505.0 587.1,530.6 637.9,557.1 688.6,582.9 739.3,607.5 790.0,632.1" fill="none" stroke="#f87171" stroke-width="1.2" stroke-dasharray="4,3" stroke-opacity="0.55"/>
  <polyline points="80.0,621.0 130.7,577.1 181.4,538.4 232.1,503.3 282.9,473.0 333.6,448.6 384.3,431.3 435.0,417.3 485.7,411.5 536.4,409.4 587.1,411.4 637.9,415.2 688.6,417.5 739.3,417.8 790.0,418.2" fill="none" stroke="#f87171" stroke-width="2"/>
  <circle cx="80.0" cy="621.0" r="2" fill="#f87171"/>
  <circle cx="130.7" cy="577.1" r="2" fill="#f87171"/>
  <circle cx="181.4" cy="538.4" r="2" fill="#f87171"/>
  <circle cx="232.1" cy="503.3" r="2" fill="#f87171"/>
  <circle cx="282.9" cy="473.0" r="2" fill="#f87171"/>
  <circle cx="333.6" cy="448.6" r="2" fill="#f87171"/>
  <circle cx="384.3" cy="431.3" r="2" fill="#f87171"/>
  <circle cx="435.0" cy="417.3" r="2" fill="#f87171"/>
  <circle cx="485.7" cy="411.5" r="2" fill="#f87171"/>
  <circle cx="536.4" cy="409.4" r="2" fill="#f87171"/>
  <circle cx="587.1" cy="411.4" r="2" fill="#f87171"/>
  <circle cx="637.9" cy="415.2" r="2" fill="#f87171"/>
  <circle cx="688.6" cy="417.5" r="2" fill="#f87171"/>
  <circle cx="739.3" cy="417.8" r="2" fill="#f87171"/>
  <circle cx="790.0" cy="418.2" r="2" fill="#f87171"/>
  <polyline points="80.0,404.6 130.7,406.3 181.4,409.7 232.1,414.4 282.9,422.8 333.6,434.0 384.3,449.8 435.0,468.2 485.7,490.5 536.4,514.7 587.1,540.9 637.9,567.2 688.6,591.7 739.3,615.8 790.0,640.1" fill="none" stroke="#fb923c" stroke-width="1.2" stroke-dasharray="4,3" stroke-opacity="0.55"/>
  <polyline points="80.0,620.9 130.7,580.6 181.4,543.5 232.1,508.6 282.9,480.2 333.6,456.8 384.3,441.5 435.0,430.7 485.7,426.9 536.4,426.6 587.1,429.8 637.9,432.9 688.6,433.1 739.3,432.5 790.0,432.3" fill="none" stroke="#fb923c" stroke-width="2"/>
  <circle cx="80.0" cy="620.9" r="2" fill="#fb923c"/>
  <circle cx="130.7" cy="580.6" r="2" fill="#fb923c"/>
  <circle cx="181.4" cy="543.5" r="2" fill="#fb923c"/>
  <circle cx="232.1" cy="508.6" r="2" fill="#fb923c"/>
  <circle cx="282.9" cy="480.2" r="2" fill="#fb923c"/>
  <circle cx="333.6" cy="456.8" r="2" fill="#fb923c"/>
  <circle cx="384.3" cy="441.5" r="2" fill="#fb923c"/>
  <circle cx="435.0" cy="430.7" r="2" fill="#fb923c"/>
  <circle cx="485.7" cy="426.9" r="2" fill="#fb923c"/>
  <circle cx="536.4" cy="426.6" r="2" fill="#fb923c"/>
  <circle cx="587.1" cy="429.8" r="2" fill="#fb923c"/>
  <circle cx="637.9" cy="432.9" r="2" fill="#fb923c"/>
  <circle cx="688.6" cy="433.1" r="2" fill="#fb923c"/>
  <circle cx="739.3" cy="432.5" r="2" fill="#fb923c"/>
  <circle cx="790.0" cy="432.3" r="2" fill="#fb923c"/>
  <text x="425.0" y="678" text-anchor="middle" fill="#e6edf3" font-size="11" font-weight="600">input size</text>
  <line x1="80" y1="696" x2="100" y2="696" stroke="#60a5fa" stroke-width="2"/>
  <text x="106" y="700" fill="#e6edf3" font-size="10" font-weight="500">lz4 (C)</text>
  <line x1="240" y1="696" x2="260" y2="696" stroke="#2dd4bf" stroke-width="2"/>
  <text x="266" y="700" fill="#e6edf3" font-size="10" font-weight="500">lz4 (C) + dict</text>
  <line x1="400" y1="696" x2="420" y2="696" stroke="#f87171" stroke-width="2"/>
  <text x="426" y="700" fill="#e6edf3" font-size="10" font-weight="500">lz4rip</text>
  <line x1="560" y1="696" x2="580" y2="696" stroke="#fb923c" stroke-width="2"/>
  <text x="586" y="700" fill="#e6edf3" font-size="10" font-weight="500">lz4rip + dict</text>
  <line x1="80" y1="716" x2="100" y2="716" stroke="#7d8590" stroke-width="2"/>
  <text x="106" y="720" fill="#7d8590" font-size="9">solid = throughput (right axis)</text>
  <line x1="300" y1="716" x2="320" y2="716" stroke="#7d8590" stroke-width="1.5" stroke-dasharray="4,3" stroke-opacity="0.6"/>
  <text x="326" y="720" fill="#7d8590" font-size="9">thin = ops/sec (left axis)</text>
</svg>
