<svg xmlns="http://www.w3.org/2000/svg" viewBox="0 0 850 760" font-family="system-ui, -apple-system, sans-serif">
  <rect width="850" height="760" fill="#0d1117"/>
  <text x="425.0" y="22" text-anchor="middle" fill="#e6edf3" font-size="14" font-weight="700">LZ4 Size Sweep: Synthetic JSON (log-log)</text>
  <text x="425.0" y="38" text-anchor="middle" fill="#7d8590" font-size="10">Intel Core i7-8700B @ 3.20GHz, performance governor, turbo off</text>
  <text x="425.0" y="56" text-anchor="middle" fill="#e6edf3" font-size="12" font-weight="600">Compress</text>
  <text x="25" y="193" text-anchor="middle" fill="#e6edf3" font-size="10" font-weight="600" transform="rotate(-90,25,193)">ops/sec</text>
  <text x="838" y="193" text-anchor="middle" fill="#e6edf3" font-size="10" font-weight="600" transform="rotate(90,838,193)">throughput</text>
  <line x1="80" y1="318" x2="790" y2="318" stroke="#30363d" stroke-width="1.5"/>
  <line x1="80" y1="68" x2="80" y2="318" stroke="#30363d" stroke-width="1"/>
  <line x1="790" y1="68" x2="790" y2="318" stroke="#30363d" stroke-width="1"/>
  <line x1="80.0" y1="318" x2="80.0" y2="322" stroke="#484f58" stroke-width="1"/>
  <text x="80.0" y="334" text-anchor="middle" fill="#7d8590" font-size="9">64</text>
  <line x1="130.7" y1="318" x2="130.7" y2="322" stroke="#484f58" stroke-width="1"/>
  <text x="130.7" y="334" text-anchor="middle" fill="#7d8590" font-size="9">128</text>
  <line x1="181.4" y1="318" x2="181.4" y2="322" stroke="#484f58" stroke-width="1"/>
  <text x="181.4" y="334" text-anchor="middle" fill="#7d8590" font-size="9">256</text>
  <line x1="232.1" y1="318" x2="232.1" y2="322" stroke="#484f58" stroke-width="1"/>
  <text x="232.1" y="334" text-anchor="middle" fill="#7d8590" font-size="9">512</text>
  <line x1="282.9" y1="318" x2="282.9" y2="322" stroke="#484f58" stroke-width="1"/>
  <text x="282.9" y="334" text-anchor="middle" fill="#7d8590" font-size="9">1K</text>
  <line x1="333.6" y1="318" x2="333.6" y2="322" stroke="#484f58" stroke-width="1"/>
  <text x="333.6" y="334" text-anchor="middle" fill="#7d8590" font-size="9">2K</text>
  <line x1="384.3" y1="318" x2="384.3" y2="322" stroke="#484f58" stroke-width="1"/>
  <text x="384.3" y="334" text-anchor="middle" fill="#7d8590" font-size="9">4K</text>
  <line x1="435.0" y1="318" x2="435.0" y2="322" stroke="#484f58" stroke-width="1"/>
  <text x="435.0" y="334" text-anchor="middle" fill="#7d8590" font-size="9">8K</text>
  <line x1="485.7" y1="318" x2="485.7" y2="322" stroke="#484f58" stroke-width="1"/>
  <text x="485.7" y="334" text-anchor="middle" fill="#7d8590" font-size="9">16K</text>
  <line x1="536.4" y1="318" x2="536.4" y2="322" stroke="#484f58" stroke-width="1"/>
  <text x="536.4" y="334" text-anchor="middle" fill="#7d8590" font-size="9">32K</text>
  <line x1="587.1" y1="318" x2="587.1" y2="322" stroke="#484f58" stroke-width="1"/>
  <text x="587.1" y="334" text-anchor="middle" fill="#7d8590" font-size="9">64K</text>
  <line x1="637.9" y1="318" x2="637.9" y2="322" stroke="#484f58" stroke-width="1"/>
  <text x="637.9" y="334" text-anchor="middle" fill="#7d8590" font-size="9">128K</text>
  <line x1="688.6" y1="318" x2="688.6" y2="322" stroke="#484f58" stroke-width="1"/>
  <text x="688.6" y="334" text-anchor="middle" fill="#7d8590" font-size="9">256K</text>
  <line x1="739.3" y1="318" x2="739.3" y2="322" stroke="#484f58" stroke-width="1"/>
  <text x="739.3" y="334" text-anchor="middle" fill="#7d8590" font-size="9">512K</text>
  <line x1="790.0" y1="318" x2="790.0" y2="322" stroke="#484f58" stroke-width="1"/>
  <text x="790.0" y="334" text-anchor="middle" fill="#7d8590" font-size="9">1M</text>
  <line x1="80" y1="290.8" x2="790" y2="290.8" stroke="#21262d" stroke-width="1"/>
  <text x="74" y="290.8" text-anchor="end" dominant-baseline="middle" fill="#7d8590" font-size="9">1K</text>
  <line x1="80" y1="218.1" x2="790" y2="218.1" stroke="#21262d" stroke-width="1"/>
  <text x="74" y="218.1" text-anchor="end" dominant-baseline="middle" fill="#7d8590" font-size="9">10K</text>
  <line x1="80" y1="145.4" x2="790" y2="145.4" stroke="#21262d" stroke-width="1"/>
  <text x="74" y="145.4" text-anchor="end" dominant-baseline="middle" fill="#7d8590" font-size="9">100K</text>
  <line x1="80" y1="72.6" x2="790" y2="72.6" stroke="#21262d" stroke-width="1"/>
  <text x="74" y="72.6" text-anchor="end" dominant-baseline="middle" fill="#7d8590" font-size="9">1M</text>
  <text x="796" y="240.2" text-anchor="start" dominant-baseline="middle" fill="#7d8590" font-size="9">100 MB/s</text>
  <text x="796" y="85.8" text-anchor="start" dominant-baseline="middle" fill="#7d8590" font-size="9">1 GB/s</text>
  <polyline points="80.0,74.2 130.7,77.4 181.4,83.2 232.1,91.6 282.9,99.9 333.6,111.4 384.3,125.0 435.0,140.3 485.7,157.8 536.4,180.7 587.1,206.8 637.9,234.9 688.6,258.7 739.3,281.5 790.0,303.6" fill="none" stroke="#60a5fa" stroke-width="1.2" stroke-dasharray="4,3" stroke-opacity="0.55"/>
  <polyline points="80.0,273.4 130.7,233.9 181.4,199.7 232.1,171.0 282.9,142.2 333.6,120.1 384.3,102.4 435.0,88.5 485.7,79.2 536.4,81.2 587.1,90.1 637.9,103.4 688.6,107.4 739.3,109.2 790.0,109.7" fill="none" stroke="#60a5fa" stroke-width="2"/>
  <circle cx="80.0" cy="273.4" r="2" fill="#60a5fa"/>
  <circle cx="130.7" cy="233.9" r="2" fill="#60a5fa"/>
  <circle cx="181.4" cy="199.7" r="2" fill="#60a5fa"/>
  <circle cx="232.1" cy="171.0" r="2" fill="#60a5fa"/>
  <circle cx="282.9" cy="142.2" r="2" fill="#60a5fa"/>
  <circle cx="333.6" cy="120.1" r="2" fill="#60a5fa"/>
  <circle cx="384.3" cy="102.4" r="2" fill="#60a5fa"/>
  <circle cx="435.0" cy="88.5" r="2" fill="#60a5fa"/>
  <circle cx="485.7" cy="79.2" r="2" fill="#60a5fa"/>
  <circle cx="536.4" cy="81.2" r="2" fill="#60a5fa"/>
  <circle cx="587.1" cy="90.1" r="2" fill="#60a5fa"/>
  <circle cx="637.9" cy="103.4" r="2" fill="#60a5fa"/>
  <circle cx="688.6" cy="107.4" r="2" fill="#60a5fa"/>
  <circle cx="739.3" cy="109.2" r="2" fill="#60a5fa"/>
  <circle cx="790.0" cy="109.7" r="2" fill="#60a5fa"/>
  <polyline points="80.0,88.1 130.7,89.4 181.4,92.2 232.1,96.8 282.9,103.6 333.6,114.7 384.3,127.9 435.0,143.9 485.7,167.3 536.4,196.4 587.1,221.7 637.9,243.9 688.6,264.8 739.3,285.9 790.0,307.3" fill="none" stroke="#2dd4bf" stroke-width="1.2" stroke-dasharray="4,3" stroke-opacity="0.55"/>
  <polyline points="80.0,303.0 130.7,259.3 181.4,218.8 232.1,182.0 282.9,149.9 333.6,127.1 384.3,108.6 435.0,96.1 485.7,99.4 536.4,114.6 587.1,121.7 637.9,122.4 688.6,120.3 739.3,118.8 790.0,117.5" fill="none" stroke="#2dd4bf" stroke-width="2"/>
  <circle cx="80.0" cy="303.0" r="2" fill="#2dd4bf"/>
  <circle cx="130.7" cy="259.3" r="2" fill="#2dd4bf"/>
  <circle cx="181.4" cy="218.8" r="2" fill="#2dd4bf"/>
  <circle cx="232.1" cy="182.0" r="2" fill="#2dd4bf"/>
  <circle cx="282.9" cy="149.9" r="2" fill="#2dd4bf"/>
  <circle cx="333.6" cy="127.1" r="2" fill="#2dd4bf"/>
  <circle cx="384.3" cy="108.6" r="2" fill="#2dd4bf"/>
  <circle cx="435.0" cy="96.1" r="2" fill="#2dd4bf"/>
  <circle cx="485.7" cy="99.4" r="2" fill="#2dd4bf"/>
  <circle cx="536.4" cy="114.6" r="2" fill="#2dd4bf"/>
  <circle cx="587.1" cy="121.7" r="2" fill="#2dd4bf"/>
  <circle cx="637.9" cy="122.4" r="2" fill="#2dd4bf"/>
  <circle cx="688.6" cy="120.3" r="2" fill="#2dd4bf"/>
  <circle cx="739.3" cy="118.8" r="2" fill="#2dd4bf"/>
  <circle cx="790.0" cy="117.5" r="2" fill="#2dd4bf"/>
  <polyline points="80.0,77.3 130.7,76.9 181.4,79.6 232.1,85.5 282.9,94.7 333.6,106.0 384.3,120.1 435.0,137.4 485.7,157.0 536.4,181.8 587.1,209.6 637.9,235.2 688.6,257.8 739.3,280.1 790.0,301.9" fill="none" stroke="#f87171" stroke-width="1.2" stroke-dasharray="4,3" stroke-opacity="0.55"/>
  <polyline points="80.0,280.1 130.7,232.6 181.4,191.9 232.1,158.1 282.9,131.2 333.6,108.6 384.3,92.1 435.0,82.3 485.7,77.4 536.4,83.6 587.1,96.1 637.9,103.9 688.6,105.4 739.3,106.4 790.0,106.2" fill="none" stroke="#f87171" stroke-width="2"/>
  <circle cx="80.0" cy="280.1" r="2" fill="#f87171"/>
  <circle cx="130.7" cy="232.6" r="2" fill="#f87171"/>
  <circle cx="181.4" cy="191.9" r="2" fill="#f87171"/>
  <circle cx="232.1" cy="158.1" r="2" fill="#f87171"/>
  <circle cx="282.9" cy="131.2" r="2" fill="#f87171"/>
  <circle cx="333.6" cy="108.6" r="2" fill="#f87171"/>
  <circle cx="384.3" cy="92.1" r="2" fill="#f87171"/>
  <circle cx="435.0" cy="82.3" r="2" fill="#f87171"/>
  <circle cx="485.7" cy="77.4" r="2" fill="#f87171"/>
  <circle cx="536.4" cy="83.6" r="2" fill="#f87171"/>
  <circle cx="587.1" cy="96.1" r="2" fill="#f87171"/>
  <circle cx="637.9" cy="103.9" r="2" fill="#f87171"/>
  <circle cx="688.6" cy="105.4" r="2" fill="#f87171"/>
  <circle cx="739.3" cy="106.4" r="2" fill="#f87171"/>
  <circle cx="790.0" cy="106.2" r="2" fill="#f87171"/>
  <polyline points="80.0,72.4 130.7,75.2 181.4,80.6 232.1,88.3 282.9,98.7 333.6,112.1 384.3,128.7 435.0,146.1 485.7,168.4 536.4,198.3 587.1,225.5 637.9,247.2 688.6,268.1 739.3,289.4 790.0,311.0" fill="none" stroke="#fb923c" stroke-width="1.2" stroke-dasharray="4,3" stroke-opacity="0.55"/>
  <polyline points="80.0,269.7 130.7,229.1 181.4,194.1 232.1,163.9 282.9,139.6 333.6,121.5 384.3,110.2 435.0,100.8 485.7,101.5 536.4,118.7 587.1,129.9 637.9,129.5 688.6,127.3 739.3,126.0 790.0,125.4" fill="none" stroke="#fb923c" stroke-width="2"/>
  <circle cx="80.0" cy="269.7" r="2" fill="#fb923c"/>
  <circle cx="130.7" cy="229.1" r="2" fill="#fb923c"/>
  <circle cx="181.4" cy="194.1" r="2" fill="#fb923c"/>
  <circle cx="232.1" cy="163.9" r="2" fill="#fb923c"/>
  <circle cx="282.9" cy="139.6" r="2" fill="#fb923c"/>
  <circle cx="333.6" cy="121.5" r="2" fill="#fb923c"/>
  <circle cx="384.3" cy="110.2" r="2" fill="#fb923c"/>
  <circle cx="435.0" cy="100.8" r="2" fill="#fb923c"/>
  <circle cx="485.7" cy="101.5" r="2" fill="#fb923c"/>
  <circle cx="536.4" cy="118.7" r="2" fill="#fb923c"/>
  <circle cx="587.1" cy="129.9" r="2" fill="#fb923c"/>
  <circle cx="637.9" cy="129.5" r="2" fill="#fb923c"/>
  <circle cx="688.6" cy="127.3" r="2" fill="#fb923c"/>
  <circle cx="739.3" cy="126.0" r="2" fill="#fb923c"/>
  <circle cx="790.0" cy="125.4" r="2" fill="#fb923c"/>
  <text x="425.0" y="386" text-anchor="middle" fill="#e6edf3" font-size="12" font-weight="600">Roundtrip (compress + decompress)</text>
  <text x="25" y="523" text-anchor="middle" fill="#e6edf3" font-size="10" font-weight="600" transform="rotate(-90,25,523)">ops/sec</text>
  <text x="838" y="523" text-anchor="middle" fill="#e6edf3" font-size="10" font-weight="600" transform="rotate(90,838,523)">throughput</text>
  <line x1="80" y1="648" x2="790" y2="648" stroke="#30363d" stroke-width="1.5"/>
  <line x1="80" y1="398" x2="80" y2="648" stroke="#30363d" stroke-width="1"/>
  <line x1="790" y1="398" x2="790" y2="648" stroke="#30363d" stroke-width="1"/>
  <line x1="80.0" y1="648" x2="80.0" y2="652" stroke="#484f58" stroke-width="1"/>
  <text x="80.0" y="664" text-anchor="middle" fill="#7d8590" font-size="9">64</text>
  <line x1="130.7" y1="648" x2="130.7" y2="652" stroke="#484f58" stroke-width="1"/>
  <text x="130.7" y="664" text-anchor="middle" fill="#7d8590" font-size="9">128</text>
  <line x1="181.4" y1="648" x2="181.4" y2="652" stroke="#484f58" stroke-width="1"/>
  <text x="181.4" y="664" text-anchor="middle" fill="#7d8590" font-size="9">256</text>
  <line x1="232.1" y1="648" x2="232.1" y2="652" stroke="#484f58" stroke-width="1"/>
  <text x="232.1" y="664" text-anchor="middle" fill="#7d8590" font-size="9">512</text>
  <line x1="282.9" y1="648" x2="282.9" y2="652" stroke="#484f58" stroke-width="1"/>
  <text x="282.9" y="664" text-anchor="middle" fill="#7d8590" font-size="9">1K</text>
  <line x1="333.6" y1="648" x2="333.6" y2="652" stroke="#484f58" stroke-width="1"/>
  <text x="333.6" y="664" text-anchor="middle" fill="#7d8590" font-size="9">2K</text>
  <line x1="384.3" y1="648" x2="384.3" y2="652" stroke="#484f58" stroke-width="1"/>
  <text x="384.3" y="664" text-anchor="middle" fill="#7d8590" font-size="9">4K</text>
  <line x1="435.0" y1="648" x2="435.0" y2="652" stroke="#484f58" stroke-width="1"/>
  <text x="435.0" y="664" text-anchor="middle" fill="#7d8590" font-size="9">8K</text>
  <line x1="485.7" y1="648" x2="485.7" y2="652" stroke="#484f58" stroke-width="1"/>
  <text x="485.7" y="664" text-anchor="middle" fill="#7d8590" font-size="9">16K</text>
  <line x1="536.4" y1="648" x2="536.4" y2="652" stroke="#484f58" stroke-width="1"/>
  <text x="536.4" y="664" text-anchor="middle" fill="#7d8590" font-size="9">32K</text>
  <line x1="587.1" y1="648" x2="587.1" y2="652" stroke="#484f58" stroke-width="1"/>
  <text x="587.1" y="664" text-anchor="middle" fill="#7d8590" font-size="9">64K</text>
  <line x1="637.9" y1="648" x2="637.9" y2="652" stroke="#484f58" stroke-width="1"/>
  <text x="637.9" y="664" text-anchor="middle" fill="#7d8590" font-size="9">128K</text>
  <line x1="688.6" y1="648" x2="688.6" y2="652" stroke="#484f58" stroke-width="1"/>
  <text x="688.6" y="664" text-anchor="middle" fill="#7d8590" font-size="9">256K</text>
  <line x1="739.3" y1="648" x2="739.3" y2="652" stroke="#484f58" stroke-width="1"/>
  <text x="739.3" y="664" text-anchor="middle" fill="#7d8590" font-size="9">512K</text>
  <line x1="790.0" y1="648" x2="790.0" y2="652" stroke="#484f58" stroke-width="1"/>
  <text x="790.0" y="664" text-anchor="middle" fill="#7d8590" font-size="9">1M</text>
  <line x1="80" y1="612.1" x2="790" y2="612.1" stroke="#21262d" stroke-width="1"/>
  <text x="74" y="612.1" text-anchor="end" dominant-baseline="middle" fill="#7d8590" font-size="9">1K</text>
  <line x1="80" y1="534.9" x2="790" y2="534.9" stroke="#21262d" stroke-width="1"/>
  <text x="74" y="534.9" text-anchor="end" dominant-baseline="middle" fill="#7d8590" font-size="9">10K</text>
  <line x1="80" y1="457.7" x2="790" y2="457.7" stroke="#21262d" stroke-width="1"/>
  <text x="74" y="457.7" text-anchor="end" dominant-baseline="middle" fill="#7d8590" font-size="9">100K</text>
  <text x="796" y="543.4" text-anchor="start" dominant-baseline="middle" fill="#7d8590" font-size="9">100 MB/s</text>
  <polyline points="80.0,403.3 130.7,405.5 181.4,409.3 232.1,415.7 282.9,422.8 333.6,433.3 384.3,446.8 435.0,462.5 485.7,480.9 536.4,504.3 587.1,531.1 637.9,559.1 688.6,584.2 739.3,608.5 790.0,632.1" fill="none" stroke="#60a5fa" stroke-width="1.2" stroke-dasharray="4,3" stroke-opacity="0.55"/>
  <polyline points="80.0,616.4 130.7,575.6 181.4,538.1 232.1,505.7 282.9,474.5 333.6,449.8 384.3,431.0 435.0,416.4 485.7,407.1 536.4,407.4 587.1,414.3 637.9,423.6 688.6,427.2 739.3,429.3 790.0,429.8" fill="none" stroke="#60a5fa" stroke-width="2"/>
  <circle cx="80.0" cy="616.4" r="2" fill="#60a5fa"/>
  <circle cx="130.7" cy="575.6" r="2" fill="#60a5fa"/>
  <circle cx="181.4" cy="538.1" r="2" fill="#60a5fa"/>
  <circle cx="232.1" cy="505.7" r="2" fill="#60a5fa"/>
  <circle cx="282.9" cy="474.5" r="2" fill="#60a5fa"/>
  <circle cx="333.6" cy="449.8" r="2" fill="#60a5fa"/>
  <circle cx="384.3" cy="431.0" r="2" fill="#60a5fa"/>
  <circle cx="435.0" cy="416.4" r="2" fill="#60a5fa"/>
  <circle cx="485.7" cy="407.1" r="2" fill="#60a5fa"/>
  <circle cx="536.4" cy="407.4" r="2" fill="#60a5fa"/>
  <circle cx="587.1" cy="414.3" r="2" fill="#60a5fa"/>
  <circle cx="637.9" cy="423.6" r="2" fill="#60a5fa"/>
  <circle cx="688.6" cy="427.2" r="2" fill="#60a5fa"/>
  <circle cx="739.3" cy="429.3" r="2" fill="#60a5fa"/>
  <circle cx="790.0" cy="429.8" r="2" fill="#60a5fa"/>
  <polyline points="80.0,412.2 130.7,413.3 181.4,415.9 232.1,419.9 282.9,426.2 333.6,436.7 384.3,449.6 435.0,465.7 485.7,488.8 536.4,517.8 587.1,544.0 637.9,567.6 688.6,590.2 739.3,612.9 790.0,635.6" fill="none" stroke="#2dd4bf" stroke-width="1.2" stroke-dasharray="4,3" stroke-opacity="0.55"/>
  <polyline points="80.0,633.5 130.7,590.8 181.4,551.0 232.1,513.7 282.9,481.1 333.6,456.4 384.3,436.4 435.0,422.7 485.7,422.4 536.4,433.4 587.1,439.3 637.9,440.0 688.6,438.8 739.3,437.6 790.0,436.7" fill="none" stroke="#2dd4bf" stroke-width="2"/>
  <circle cx="80.0" cy="633.5" r="2" fill="#2dd4bf"/>
  <circle cx="130.7" cy="590.8" r="2" fill="#2dd4bf"/>
  <circle cx="181.4" cy="551.0" r="2" fill="#2dd4bf"/>
  <circle cx="232.1" cy="513.7" r="2" fill="#2dd4bf"/>
  <circle cx="282.9" cy="481.1" r="2" fill="#2dd4bf"/>
  <circle cx="333.6" cy="456.4" r="2" fill="#2dd4bf"/>
  <circle cx="384.3" cy="436.4" r="2" fill="#2dd4bf"/>
  <circle cx="435.0" cy="422.7" r="2" fill="#2dd4bf"/>
  <circle cx="485.7" cy="422.4" r="2" fill="#2dd4bf"/>
  <circle cx="536.4" cy="433.4" r="2" fill="#2dd4bf"/>
  <circle cx="587.1" cy="439.3" r="2" fill="#2dd4bf"/>
  <circle cx="637.9" cy="440.0" r="2" fill="#2dd4bf"/>
  <circle cx="688.6" cy="438.8" r="2" fill="#2dd4bf"/>
  <circle cx="739.3" cy="437.6" r="2" fill="#2dd4bf"/>
  <circle cx="790.0" cy="436.7" r="2" fill="#2dd4bf"/>
  <polyline points="80.0,405.1 130.7,404.8 181.4,406.7 232.1,411.2 282.9,418.8 333.6,429.3 384.3,443.4 435.0,460.8 485.7,481.3 536.4,506.4 587.1,534.3 637.9,560.7 688.6,584.7 739.3,608.5 790.0,631.7" fill="none" stroke="#f87171" stroke-width="1.2" stroke-dasharray="4,3" stroke-opacity="0.55"/>
  <polyline points="80.0,619.9 130.7,574.4 181.4,533.2 232.1,496.9 282.9,466.7 333.6,442.2 384.3,424.4 435.0,413.3 485.7,407.8 536.4,411.6 587.1,420.5 637.9,426.6 688.6,428.2 739.3,429.1 790.0,429.1" fill="none" stroke="#f87171" stroke-width="2"/>
  <circle cx="80.0" cy="619.9" r="2" fill="#f87171"/>
  <circle cx="130.7" cy="574.4" r="2" fill="#f87171"/>
  <circle cx="181.4" cy="533.2" r="2" fill="#f87171"/>
  <circle cx="232.1" cy="496.9" r="2" fill="#f87171"/>
  <circle cx="282.9" cy="466.7" r="2" fill="#f87171"/>
  <circle cx="333.6" cy="442.2" r="2" fill="#f87171"/>
  <circle cx="384.3" cy="424.4" r="2" fill="#f87171"/>
  <circle cx="435.0" cy="413.3" r="2" fill="#f87171"/>
  <circle cx="485.7" cy="407.8" r="2" fill="#f87171"/>
  <circle cx="536.4" cy="411.6" r="2" fill="#f87171"/>
  <circle cx="587.1" cy="420.5" r="2" fill="#f87171"/>
  <circle cx="637.9" cy="426.6" r="2" fill="#f87171"/>
  <circle cx="688.6" cy="428.2" r="2" fill="#f87171"/>
  <circle cx="739.3" cy="429.1" r="2" fill="#f87171"/>
  <circle cx="790.0" cy="429.1" r="2" fill="#f87171"/>
  <polyline points="80.0,402.7 130.7,404.5 181.4,408.7 232.1,414.7 282.9,423.8 333.6,436.2 384.3,452.3 435.0,470.4 485.7,493.1 536.4,523.1 587.1,549.3 637.9,572.3 688.6,594.8 739.3,617.5 790.0,640.5" fill="none" stroke="#fb923c" stroke-width="1.2" stroke-dasharray="4,3" stroke-opacity="0.55"/>
  <polyline points="80.0,615.2 130.7,573.8 181.4,537.0 232.1,503.8 282.9,476.4 333.6,455.5 384.3,441.7 435.0,431.7 485.7,430.6 536.4,443.8 587.1,449.5 637.9,449.1 688.6,447.6 739.3,446.6 790.0,446.2" fill="none" stroke="#fb923c" stroke-width="2"/>
  <circle cx="80.0" cy="615.2" r="2" fill="#fb923c"/>
  <circle cx="130.7" cy="573.8" r="2" fill="#fb923c"/>
  <circle cx="181.4" cy="537.0" r="2" fill="#fb923c"/>
  <circle cx="232.1" cy="503.8" r="2" fill="#fb923c"/>
  <circle cx="282.9" cy="476.4" r="2" fill="#fb923c"/>
  <circle cx="333.6" cy="455.5" r="2" fill="#fb923c"/>
  <circle cx="384.3" cy="441.7" r="2" fill="#fb923c"/>
  <circle cx="435.0" cy="431.7" r="2" fill="#fb923c"/>
  <circle cx="485.7" cy="430.6" r="2" fill="#fb923c"/>
  <circle cx="536.4" cy="443.8" r="2" fill="#fb923c"/>
  <circle cx="587.1" cy="449.5" r="2" fill="#fb923c"/>
  <circle cx="637.9" cy="449.1" r="2" fill="#fb923c"/>
  <circle cx="688.6" cy="447.6" r="2" fill="#fb923c"/>
  <circle cx="739.3" cy="446.6" r="2" fill="#fb923c"/>
  <circle cx="790.0" cy="446.2" r="2" fill="#fb923c"/>
  <text x="425.0" y="678" text-anchor="middle" fill="#e6edf3" font-size="11" font-weight="600">input size</text>
  <line x1="80" y1="696" x2="100" y2="696" stroke="#60a5fa" stroke-width="2"/>
  <text x="106" y="700" fill="#e6edf3" font-size="10" font-weight="500">lz4 (C)</text>
  <line x1="240" y1="696" x2="260" y2="696" stroke="#2dd4bf" stroke-width="2"/>
  <text x="266" y="700" fill="#e6edf3" font-size="10" font-weight="500">lz4 (C) + dict</text>
  <line x1="400" y1="696" x2="420" y2="696" stroke="#f87171" stroke-width="2"/>
  <text x="426" y="700" fill="#e6edf3" font-size="10" font-weight="500">lz4rip</text>
  <line x1="560" y1="696" x2="580" y2="696" stroke="#fb923c" stroke-width="2"/>
  <text x="586" y="700" fill="#e6edf3" font-size="10" font-weight="500">lz4rip + dict</text>
  <line x1="80" y1="716" x2="100" y2="716" stroke="#7d8590" stroke-width="2"/>
  <text x="106" y="720" fill="#7d8590" font-size="9">solid = throughput (right axis)</text>
  <line x1="300" y1="716" x2="320" y2="716" stroke="#7d8590" stroke-width="1.5" stroke-dasharray="4,3" stroke-opacity="0.6"/>
  <text x="326" y="720" fill="#7d8590" font-size="9">thin = ops/sec (left axis)</text>
</svg>
