<svg xmlns="http://www.w3.org/2000/svg" viewBox="0 0 850 760" font-family="system-ui, -apple-system, sans-serif">
  <rect width="850" height="760" fill="#0d1117"/>
  <text x="425.0" y="22" text-anchor="middle" fill="#e6edf3" font-size="14" font-weight="700">LZ4 Size Sweep: Synthetic JSON (log-log)</text>
  <text x="425.0" y="38" text-anchor="middle" fill="#7d8590" font-size="10">Intel Core i7-8700B @ 3.20GHz, performance governor, turbo off</text>
  <text x="425.0" y="56" text-anchor="middle" fill="#e6edf3" font-size="12" font-weight="600">Compress</text>
  <text x="25" y="193" text-anchor="middle" fill="#e6edf3" font-size="10" font-weight="600" transform="rotate(-90,25,193)">ops/sec</text>
  <text x="838" y="193" text-anchor="middle" fill="#e6edf3" font-size="10" font-weight="600" transform="rotate(90,838,193)">throughput</text>
  <line x1="80" y1="318" x2="790" y2="318" stroke="#30363d" stroke-width="1.5"/>
  <line x1="80" y1="68" x2="80" y2="318" stroke="#30363d" stroke-width="1"/>
  <line x1="790" y1="68" x2="790" y2="318" stroke="#30363d" stroke-width="1"/>
  <line x1="80.0" y1="318" x2="80.0" y2="322" stroke="#484f58" stroke-width="1"/>
  <text x="80.0" y="334" text-anchor="middle" fill="#7d8590" font-size="9">64</text>
  <line x1="130.7" y1="318" x2="130.7" y2="322" stroke="#484f58" stroke-width="1"/>
  <text x="130.7" y="334" text-anchor="middle" fill="#7d8590" font-size="9">128</text>
  <line x1="181.4" y1="318" x2="181.4" y2="322" stroke="#484f58" stroke-width="1"/>
  <text x="181.4" y="334" text-anchor="middle" fill="#7d8590" font-size="9">256</text>
  <line x1="232.1" y1="318" x2="232.1" y2="322" stroke="#484f58" stroke-width="1"/>
  <text x="232.1" y="334" text-anchor="middle" fill="#7d8590" font-size="9">512</text>
  <line x1="282.9" y1="318" x2="282.9" y2="322" stroke="#484f58" stroke-width="1"/>
  <text x="282.9" y="334" text-anchor="middle" fill="#7d8590" font-size="9">1K</text>
  <line x1="333.6" y1="318" x2="333.6" y2="322" stroke="#484f58" stroke-width="1"/>
  <text x="333.6" y="334" text-anchor="middle" fill="#7d8590" font-size="9">2K</text>
  <line x1="384.3" y1="318" x2="384.3" y2="322" stroke="#484f58" stroke-width="1"/>
  <text x="384.3" y="334" text-anchor="middle" fill="#7d8590" font-size="9">4K</text>
  <line x1="435.0" y1="318" x2="435.0" y2="322" stroke="#484f58" stroke-width="1"/>
  <text x="435.0" y="334" text-anchor="middle" fill="#7d8590" font-size="9">8K</text>
  <line x1="485.7" y1="318" x2="485.7" y2="322" stroke="#484f58" stroke-width="1"/>
  <text x="485.7" y="334" text-anchor="middle" fill="#7d8590" font-size="9">16K</text>
  <line x1="536.4" y1="318" x2="536.4" y2="322" stroke="#484f58" stroke-width="1"/>
  <text x="536.4" y="334" text-anchor="middle" fill="#7d8590" font-size="9">32K</text>
  <line x1="587.1" y1="318" x2="587.1" y2="322" stroke="#484f58" stroke-width="1"/>
  <text x="587.1" y="334" text-anchor="middle" fill="#7d8590" font-size="9">64K</text>
  <line x1="637.9" y1="318" x2="637.9" y2="322" stroke="#484f58" stroke-width="1"/>
  <text x="637.9" y="334" text-anchor="middle" fill="#7d8590" font-size="9">128K</text>
  <line x1="688.6" y1="318" x2="688.6" y2="322" stroke="#484f58" stroke-width="1"/>
  <text x="688.6" y="334" text-anchor="middle" fill="#7d8590" font-size="9">256K</text>
  <line x1="739.3" y1="318" x2="739.3" y2="322" stroke="#484f58" stroke-width="1"/>
  <text x="739.3" y="334" text-anchor="middle" fill="#7d8590" font-size="9">512K</text>
  <line x1="790.0" y1="318" x2="790.0" y2="322" stroke="#484f58" stroke-width="1"/>
  <text x="790.0" y="334" text-anchor="middle" fill="#7d8590" font-size="9">1M</text>
  <line x1="80" y1="290.4" x2="790" y2="290.4" stroke="#21262d" stroke-width="1"/>
  <text x="74" y="290.4" text-anchor="end" dominant-baseline="middle" fill="#7d8590" font-size="9">1K</text>
  <line x1="80" y1="217.9" x2="790" y2="217.9" stroke="#21262d" stroke-width="1"/>
  <text x="74" y="217.9" text-anchor="end" dominant-baseline="middle" fill="#7d8590" font-size="9">10K</text>
  <line x1="80" y1="145.3" x2="790" y2="145.3" stroke="#21262d" stroke-width="1"/>
  <text x="74" y="145.3" text-anchor="end" dominant-baseline="middle" fill="#7d8590" font-size="9">100K</text>
  <line x1="80" y1="72.7" x2="790" y2="72.7" stroke="#21262d" stroke-width="1"/>
  <text x="74" y="72.7" text-anchor="end" dominant-baseline="middle" fill="#7d8590" font-size="9">1M</text>
  <text x="796" y="236.9" text-anchor="start" dominant-baseline="middle" fill="#7d8590" font-size="9">100 MB/s</text>
  <text x="796" y="84.6" text-anchor="start" dominant-baseline="middle" fill="#7d8590" font-size="9">1 GB/s</text>
  <polyline points="80.0,74.3 130.7,77.5 181.4,83.2 232.1,91.4 282.9,99.6 333.6,111.2 384.3,124.9 435.0,140.2 485.7,157.4 536.4,180.2 587.1,206.7 637.9,234.6 688.6,258.3 739.3,280.9 790.0,302.9" fill="none" stroke="#60a5fa" stroke-width="1.2" stroke-dasharray="4,3" stroke-opacity="0.55"/>
  <polyline points="80.0,269.7 130.7,230.6 181.4,196.8 232.1,168.1 282.9,139.4 333.6,117.9 384.3,100.8 435.0,87.2 485.7,77.2 536.4,79.2 587.1,89.0 637.9,101.7 688.6,105.8 739.3,107.2 790.0,107.7" fill="none" stroke="#60a5fa" stroke-width="2"/>
  <circle cx="80.0" cy="269.7" r="2" fill="#60a5fa"/>
  <circle cx="130.7" cy="230.6" r="2" fill="#60a5fa"/>
  <circle cx="181.4" cy="196.8" r="2" fill="#60a5fa"/>
  <circle cx="232.1" cy="168.1" r="2" fill="#60a5fa"/>
  <circle cx="282.9" cy="139.4" r="2" fill="#60a5fa"/>
  <circle cx="333.6" cy="117.9" r="2" fill="#60a5fa"/>
  <circle cx="384.3" cy="100.8" r="2" fill="#60a5fa"/>
  <circle cx="435.0" cy="87.2" r="2" fill="#60a5fa"/>
  <circle cx="485.7" cy="77.2" r="2" fill="#60a5fa"/>
  <circle cx="536.4" cy="79.2" r="2" fill="#60a5fa"/>
  <circle cx="587.1" cy="89.0" r="2" fill="#60a5fa"/>
  <circle cx="637.9" cy="101.7" r="2" fill="#60a5fa"/>
  <circle cx="688.6" cy="105.8" r="2" fill="#60a5fa"/>
  <circle cx="739.3" cy="107.2" r="2" fill="#60a5fa"/>
  <circle cx="790.0" cy="107.7" r="2" fill="#60a5fa"/>
  <polyline points="80.0,90.3 130.7,91.5 181.4,94.3 232.1,98.2 282.9,104.9 333.6,115.5 384.3,128.6 435.0,143.9 485.7,168.0 536.4,196.9 587.1,221.9 637.9,243.7 688.6,264.6 739.3,285.6 790.0,306.9" fill="none" stroke="#2dd4bf" stroke-width="1.2" stroke-dasharray="4,3" stroke-opacity="0.55"/>
  <polyline points="80.0,303.2 130.7,259.9 181.4,220.1 232.1,182.4 282.9,150.4 333.6,127.0 384.3,108.7 435.0,94.8 485.7,99.7 536.4,114.4 587.1,120.9 637.9,120.9 688.6,118.8 739.3,117.2 790.0,116.1" fill="none" stroke="#2dd4bf" stroke-width="2"/>
  <circle cx="80.0" cy="303.2" r="2" fill="#2dd4bf"/>
  <circle cx="130.7" cy="259.9" r="2" fill="#2dd4bf"/>
  <circle cx="181.4" cy="220.1" r="2" fill="#2dd4bf"/>
  <circle cx="232.1" cy="182.4" r="2" fill="#2dd4bf"/>
  <circle cx="282.9" cy="150.4" r="2" fill="#2dd4bf"/>
  <circle cx="333.6" cy="127.0" r="2" fill="#2dd4bf"/>
  <circle cx="384.3" cy="108.7" r="2" fill="#2dd4bf"/>
  <circle cx="435.0" cy="94.8" r="2" fill="#2dd4bf"/>
  <circle cx="485.7" cy="99.7" r="2" fill="#2dd4bf"/>
  <circle cx="536.4" cy="114.4" r="2" fill="#2dd4bf"/>
  <circle cx="587.1" cy="120.9" r="2" fill="#2dd4bf"/>
  <circle cx="637.9" cy="120.9" r="2" fill="#2dd4bf"/>
  <circle cx="688.6" cy="118.8" r="2" fill="#2dd4bf"/>
  <circle cx="739.3" cy="117.2" r="2" fill="#2dd4bf"/>
  <circle cx="790.0" cy="116.1" r="2" fill="#2dd4bf"/>
  <polyline points="80.0,77.8 130.7,77.2 181.4,80.2 232.1,86.7 282.9,96.7 333.6,108.4 384.3,122.9 435.0,139.4 485.7,159.2 536.4,183.4 587.1,209.7 637.9,234.4 688.6,257.1 739.3,279.4 790.0,301.1" fill="none" stroke="#f87171" stroke-width="1.2" stroke-dasharray="4,3" stroke-opacity="0.55"/>
  <polyline points="80.0,277.0 130.7,229.9 181.4,190.5 232.1,158.3 282.9,133.3 333.6,112.1 384.3,96.6 435.0,85.5 485.7,81.2 536.4,86.1 587.1,95.3 637.9,101.5 688.6,103.2 739.3,104.1 790.0,103.9" fill="none" stroke="#f87171" stroke-width="2"/>
  <circle cx="80.0" cy="277.0" r="2" fill="#f87171"/>
  <circle cx="130.7" cy="229.9" r="2" fill="#f87171"/>
  <circle cx="181.4" cy="190.5" r="2" fill="#f87171"/>
  <circle cx="232.1" cy="158.3" r="2" fill="#f87171"/>
  <circle cx="282.9" cy="133.3" r="2" fill="#f87171"/>
  <circle cx="333.6" cy="112.1" r="2" fill="#f87171"/>
  <circle cx="384.3" cy="96.6" r="2" fill="#f87171"/>
  <circle cx="435.0" cy="85.5" r="2" fill="#f87171"/>
  <circle cx="485.7" cy="81.2" r="2" fill="#f87171"/>
  <circle cx="536.4" cy="86.1" r="2" fill="#f87171"/>
  <circle cx="587.1" cy="95.3" r="2" fill="#f87171"/>
  <circle cx="637.9" cy="101.5" r="2" fill="#f87171"/>
  <circle cx="688.6" cy="103.2" r="2" fill="#f87171"/>
  <circle cx="739.3" cy="104.1" r="2" fill="#f87171"/>
  <circle cx="790.0" cy="103.9" r="2" fill="#f87171"/>
  <polyline points="80.0,72.4 130.7,74.9 181.4,79.8 232.1,88.1 282.9,98.6 333.6,112.2 384.3,128.6 435.0,146.0 485.7,169.4 536.4,198.7 587.1,226.4 637.9,247.7 688.6,268.4 739.3,289.6 790.0,311.0" fill="none" stroke="#fb923c" stroke-width="1.2" stroke-dasharray="4,3" stroke-opacity="0.55"/>
  <polyline points="80.0,265.8 130.7,225.2 181.4,189.5 232.1,161.2 282.9,137.3 333.6,120.0 384.3,108.5 435.0,99.2 485.7,102.5 536.4,118.1 587.1,130.4 637.9,129.3 688.6,126.8 739.3,125.5 790.0,124.5" fill="none" stroke="#fb923c" stroke-width="2"/>
  <circle cx="80.0" cy="265.8" r="2" fill="#fb923c"/>
  <circle cx="130.7" cy="225.2" r="2" fill="#fb923c"/>
  <circle cx="181.4" cy="189.5" r="2" fill="#fb923c"/>
  <circle cx="232.1" cy="161.2" r="2" fill="#fb923c"/>
  <circle cx="282.9" cy="137.3" r="2" fill="#fb923c"/>
  <circle cx="333.6" cy="120.0" r="2" fill="#fb923c"/>
  <circle cx="384.3" cy="108.5" r="2" fill="#fb923c"/>
  <circle cx="435.0" cy="99.2" r="2" fill="#fb923c"/>
  <circle cx="485.7" cy="102.5" r="2" fill="#fb923c"/>
  <circle cx="536.4" cy="118.1" r="2" fill="#fb923c"/>
  <circle cx="587.1" cy="130.4" r="2" fill="#fb923c"/>
  <circle cx="637.9" cy="129.3" r="2" fill="#fb923c"/>
  <circle cx="688.6" cy="126.8" r="2" fill="#fb923c"/>
  <circle cx="739.3" cy="125.5" r="2" fill="#fb923c"/>
  <circle cx="790.0" cy="124.5" r="2" fill="#fb923c"/>
  <text x="425.0" y="386" text-anchor="middle" fill="#e6edf3" font-size="12" font-weight="600">Roundtrip (compress + decompress)</text>
  <text x="25" y="523" text-anchor="middle" fill="#e6edf3" font-size="10" font-weight="600" transform="rotate(-90,25,523)">ops/sec</text>
  <text x="838" y="523" text-anchor="middle" fill="#e6edf3" font-size="10" font-weight="600" transform="rotate(90,838,523)">throughput</text>
  <line x1="80" y1="648" x2="790" y2="648" stroke="#30363d" stroke-width="1.5"/>
  <line x1="80" y1="398" x2="80" y2="648" stroke="#30363d" stroke-width="1"/>
  <line x1="790" y1="398" x2="790" y2="648" stroke="#30363d" stroke-width="1"/>
  <line x1="80.0" y1="648" x2="80.0" y2="652" stroke="#484f58" stroke-width="1"/>
  <text x="80.0" y="664" text-anchor="middle" fill="#7d8590" font-size="9">64</text>
  <line x1="130.7" y1="648" x2="130.7" y2="652" stroke="#484f58" stroke-width="1"/>
  <text x="130.7" y="664" text-anchor="middle" fill="#7d8590" font-size="9">128</text>
  <line x1="181.4" y1="648" x2="181.4" y2="652" stroke="#484f58" stroke-width="1"/>
  <text x="181.4" y="664" text-anchor="middle" fill="#7d8590" font-size="9">256</text>
  <line x1="232.1" y1="648" x2="232.1" y2="652" stroke="#484f58" stroke-width="1"/>
  <text x="232.1" y="664" text-anchor="middle" fill="#7d8590" font-size="9">512</text>
  <line x1="282.9" y1="648" x2="282.9" y2="652" stroke="#484f58" stroke-width="1"/>
  <text x="282.9" y="664" text-anchor="middle" fill="#7d8590" font-size="9">1K</text>
  <line x1="333.6" y1="648" x2="333.6" y2="652" stroke="#484f58" stroke-width="1"/>
  <text x="333.6" y="664" text-anchor="middle" fill="#7d8590" font-size="9">2K</text>
  <line x1="384.3" y1="648" x2="384.3" y2="652" stroke="#484f58" stroke-width="1"/>
  <text x="384.3" y="664" text-anchor="middle" fill="#7d8590" font-size="9">4K</text>
  <line x1="435.0" y1="648" x2="435.0" y2="652" stroke="#484f58" stroke-width="1"/>
  <text x="435.0" y="664" text-anchor="middle" fill="#7d8590" font-size="9">8K</text>
  <line x1="485.7" y1="648" x2="485.7" y2="652" stroke="#484f58" stroke-width="1"/>
  <text x="485.7" y="664" text-anchor="middle" fill="#7d8590" font-size="9">16K</text>
  <line x1="536.4" y1="648" x2="536.4" y2="652" stroke="#484f58" stroke-width="1"/>
  <text x="536.4" y="664" text-anchor="middle" fill="#7d8590" font-size="9">32K</text>
  <line x1="587.1" y1="648" x2="587.1" y2="652" stroke="#484f58" stroke-width="1"/>
  <text x="587.1" y="664" text-anchor="middle" fill="#7d8590" font-size="9">64K</text>
  <line x1="637.9" y1="648" x2="637.9" y2="652" stroke="#484f58" stroke-width="1"/>
  <text x="637.9" y="664" text-anchor="middle" fill="#7d8590" font-size="9">128K</text>
  <line x1="688.6" y1="648" x2="688.6" y2="652" stroke="#484f58" stroke-width="1"/>
  <text x="688.6" y="664" text-anchor="middle" fill="#7d8590" font-size="9">256K</text>
  <line x1="739.3" y1="648" x2="739.3" y2="652" stroke="#484f58" stroke-width="1"/>
  <text x="739.3" y="664" text-anchor="middle" fill="#7d8590" font-size="9">512K</text>
  <line x1="790.0" y1="648" x2="790.0" y2="652" stroke="#484f58" stroke-width="1"/>
  <text x="790.0" y="664" text-anchor="middle" fill="#7d8590" font-size="9">1M</text>
  <line x1="80" y1="611.7" x2="790" y2="611.7" stroke="#21262d" stroke-width="1"/>
  <text x="74" y="611.7" text-anchor="end" dominant-baseline="middle" fill="#7d8590" font-size="9">1K</text>
  <line x1="80" y1="534.6" x2="790" y2="534.6" stroke="#21262d" stroke-width="1"/>
  <text x="74" y="534.6" text-anchor="end" dominant-baseline="middle" fill="#7d8590" font-size="9">10K</text>
  <line x1="80" y1="457.5" x2="790" y2="457.5" stroke="#21262d" stroke-width="1"/>
  <text x="74" y="457.5" text-anchor="end" dominant-baseline="middle" fill="#7d8590" font-size="9">100K</text>
  <text x="796" y="542.0" text-anchor="start" dominant-baseline="middle" fill="#7d8590" font-size="9">100 MB/s</text>
  <polyline points="80.0,403.2 130.7,405.4 181.4,409.1 232.1,415.5 282.9,422.5 333.6,433.0 384.3,446.6 435.0,462.2 485.7,480.4 536.4,503.8 587.1,530.8 637.9,558.7 688.6,583.8 739.3,608.0 790.0,631.4" fill="none" stroke="#60a5fa" stroke-width="1.2" stroke-dasharray="4,3" stroke-opacity="0.55"/>
  <polyline points="80.0,613.9 130.7,573.8 181.4,536.7 232.1,504.5 282.9,473.6 333.6,449.3 384.3,431.0 435.0,416.6 485.7,406.9 536.4,407.3 587.1,414.7 637.9,423.6 688.6,427.3 739.3,429.0 790.0,429.5" fill="none" stroke="#60a5fa" stroke-width="2"/>
  <circle cx="80.0" cy="613.9" r="2" fill="#60a5fa"/>
  <circle cx="130.7" cy="573.8" r="2" fill="#60a5fa"/>
  <circle cx="181.4" cy="536.7" r="2" fill="#60a5fa"/>
  <circle cx="232.1" cy="504.5" r="2" fill="#60a5fa"/>
  <circle cx="282.9" cy="473.6" r="2" fill="#60a5fa"/>
  <circle cx="333.6" cy="449.3" r="2" fill="#60a5fa"/>
  <circle cx="384.3" cy="431.0" r="2" fill="#60a5fa"/>
  <circle cx="435.0" cy="416.6" r="2" fill="#60a5fa"/>
  <circle cx="485.7" cy="406.9" r="2" fill="#60a5fa"/>
  <circle cx="536.4" cy="407.3" r="2" fill="#60a5fa"/>
  <circle cx="587.1" cy="414.7" r="2" fill="#60a5fa"/>
  <circle cx="637.9" cy="423.6" r="2" fill="#60a5fa"/>
  <circle cx="688.6" cy="427.3" r="2" fill="#60a5fa"/>
  <circle cx="739.3" cy="429.0" r="2" fill="#60a5fa"/>
  <circle cx="790.0" cy="429.5" r="2" fill="#60a5fa"/>
  <polyline points="80.0,413.6 130.7,414.6 181.4,417.3 232.1,420.8 282.9,427.1 333.6,437.2 384.3,450.1 435.0,465.6 485.7,489.3 536.4,518.2 587.1,544.2 637.9,567.5 688.6,590.0 739.3,612.6 790.0,635.3" fill="none" stroke="#2dd4bf" stroke-width="1.2" stroke-dasharray="4,3" stroke-opacity="0.55"/>
  <polyline points="80.0,633.7 130.7,591.4 181.4,552.2 232.1,514.7 282.9,482.4 333.6,457.4 384.3,437.7 435.0,423.0 485.7,424.0 536.4,434.8 587.1,440.2 637.9,440.4 688.6,439.1 739.3,437.9 790.0,437.0" fill="none" stroke="#2dd4bf" stroke-width="2"/>
  <circle cx="80.0" cy="633.7" r="2" fill="#2dd4bf"/>
  <circle cx="130.7" cy="591.4" r="2" fill="#2dd4bf"/>
  <circle cx="181.4" cy="552.2" r="2" fill="#2dd4bf"/>
  <circle cx="232.1" cy="514.7" r="2" fill="#2dd4bf"/>
  <circle cx="282.9" cy="482.4" r="2" fill="#2dd4bf"/>
  <circle cx="333.6" cy="457.4" r="2" fill="#2dd4bf"/>
  <circle cx="384.3" cy="437.7" r="2" fill="#2dd4bf"/>
  <circle cx="435.0" cy="423.0" r="2" fill="#2dd4bf"/>
  <circle cx="485.7" cy="424.0" r="2" fill="#2dd4bf"/>
  <circle cx="536.4" cy="434.8" r="2" fill="#2dd4bf"/>
  <circle cx="587.1" cy="440.2" r="2" fill="#2dd4bf"/>
  <circle cx="637.9" cy="440.4" r="2" fill="#2dd4bf"/>
  <circle cx="688.6" cy="439.1" r="2" fill="#2dd4bf"/>
  <circle cx="739.3" cy="437.9" r="2" fill="#2dd4bf"/>
  <circle cx="790.0" cy="437.0" r="2" fill="#2dd4bf"/>
  <polyline points="80.0,405.2 130.7,404.8 181.4,406.9 232.1,411.7 282.9,419.6 333.6,430.1 384.3,444.1 435.0,460.9 485.7,481.4 536.4,506.3 587.1,533.1 637.9,559.0 688.6,583.1 739.3,606.8 790.0,630.0" fill="none" stroke="#f87171" stroke-width="1.2" stroke-dasharray="4,3" stroke-opacity="0.55"/>
  <polyline points="80.0,617.7 130.7,572.8 181.4,532.5 232.1,497.3 282.9,468.1 333.6,443.9 384.3,426.4 435.0,414.0 485.7,409.0 536.4,412.2 587.1,419.0 637.9,424.2 688.6,425.9 739.3,426.8 790.0,426.7" fill="none" stroke="#f87171" stroke-width="2"/>
  <circle cx="80.0" cy="617.7" r="2" fill="#f87171"/>
  <circle cx="130.7" cy="572.8" r="2" fill="#f87171"/>
  <circle cx="181.4" cy="532.5" r="2" fill="#f87171"/>
  <circle cx="232.1" cy="497.3" r="2" fill="#f87171"/>
  <circle cx="282.9" cy="468.1" r="2" fill="#f87171"/>
  <circle cx="333.6" cy="443.9" r="2" fill="#f87171"/>
  <circle cx="384.3" cy="426.4" r="2" fill="#f87171"/>
  <circle cx="435.0" cy="414.0" r="2" fill="#f87171"/>
  <circle cx="485.7" cy="409.0" r="2" fill="#f87171"/>
  <circle cx="536.4" cy="412.2" r="2" fill="#f87171"/>
  <circle cx="587.1" cy="419.0" r="2" fill="#f87171"/>
  <circle cx="637.9" cy="424.2" r="2" fill="#f87171"/>
  <circle cx="688.6" cy="425.9" r="2" fill="#f87171"/>
  <circle cx="739.3" cy="426.8" r="2" fill="#f87171"/>
  <circle cx="790.0" cy="426.7" r="2" fill="#f87171"/>
  <polyline points="80.0,402.7 130.7,404.4 181.4,408.1 232.1,414.6 282.9,423.5 333.6,436.2 384.3,452.2 435.0,470.0 485.7,493.8 536.4,523.4 587.1,550.0 637.9,572.7 688.6,595.0 739.3,617.7 790.0,640.5" fill="none" stroke="#fb923c" stroke-width="1.2" stroke-dasharray="4,3" stroke-opacity="0.55"/>
  <polyline points="80.0,613.0 130.7,572.0 181.4,534.8 232.1,502.8 282.9,475.6 333.6,455.5 384.3,441.7 435.0,431.5 485.7,432.6 536.4,444.8 587.1,451.2 637.9,450.4 688.6,448.6 739.3,447.6 790.0,446.9" fill="none" stroke="#fb923c" stroke-width="2"/>
  <circle cx="80.0" cy="613.0" r="2" fill="#fb923c"/>
  <circle cx="130.7" cy="572.0" r="2" fill="#fb923c"/>
  <circle cx="181.4" cy="534.8" r="2" fill="#fb923c"/>
  <circle cx="232.1" cy="502.8" r="2" fill="#fb923c"/>
  <circle cx="282.9" cy="475.6" r="2" fill="#fb923c"/>
  <circle cx="333.6" cy="455.5" r="2" fill="#fb923c"/>
  <circle cx="384.3" cy="441.7" r="2" fill="#fb923c"/>
  <circle cx="435.0" cy="431.5" r="2" fill="#fb923c"/>
  <circle cx="485.7" cy="432.6" r="2" fill="#fb923c"/>
  <circle cx="536.4" cy="444.8" r="2" fill="#fb923c"/>
  <circle cx="587.1" cy="451.2" r="2" fill="#fb923c"/>
  <circle cx="637.9" cy="450.4" r="2" fill="#fb923c"/>
  <circle cx="688.6" cy="448.6" r="2" fill="#fb923c"/>
  <circle cx="739.3" cy="447.6" r="2" fill="#fb923c"/>
  <circle cx="790.0" cy="446.9" r="2" fill="#fb923c"/>
  <text x="425.0" y="678" text-anchor="middle" fill="#e6edf3" font-size="11" font-weight="600">input size</text>
  <line x1="80" y1="696" x2="100" y2="696" stroke="#60a5fa" stroke-width="2"/>
  <text x="106" y="700" fill="#e6edf3" font-size="10" font-weight="500">lz4 (C)</text>
  <line x1="240" y1="696" x2="260" y2="696" stroke="#2dd4bf" stroke-width="2"/>
  <text x="266" y="700" fill="#e6edf3" font-size="10" font-weight="500">lz4 (C) + dict</text>
  <line x1="400" y1="696" x2="420" y2="696" stroke="#f87171" stroke-width="2"/>
  <text x="426" y="700" fill="#e6edf3" font-size="10" font-weight="500">lz4rip</text>
  <line x1="560" y1="696" x2="580" y2="696" stroke="#fb923c" stroke-width="2"/>
  <text x="586" y="700" fill="#e6edf3" font-size="10" font-weight="500">lz4rip + dict</text>
  <line x1="80" y1="716" x2="100" y2="716" stroke="#7d8590" stroke-width="2"/>
  <text x="106" y="720" fill="#7d8590" font-size="9">solid = throughput (right axis)</text>
  <line x1="300" y1="716" x2="320" y2="716" stroke="#7d8590" stroke-width="1.5" stroke-dasharray="4,3" stroke-opacity="0.6"/>
  <text x="326" y="720" fill="#7d8590" font-size="9">thin = ops/sec (left axis)</text>
</svg>
