<svg xmlns="http://www.w3.org/2000/svg" viewBox="0 0 850 490" font-family="system-ui, -apple-system, sans-serif">
  <rect width="850" height="490" fill="#0d1117"/>
  <text x="442.5" y="22" text-anchor="middle" fill="#e6edf3" font-size="14" font-weight="700">LZ4 Structured JSON + Dict (2 KB): Compress + Transfer @1 GB/s + Decompress (lower is better)</text>
  <text x="442.5" y="38" text-anchor="middle" fill="#7d8590" font-size="10">Intel Core i7-8700B @ 3.20GHz, performance governor, turbo off</text>
  <line x1="55" y1="252.7" x2="830" y2="252.7" stroke="#21262d" stroke-width="1"/>
  <text x="47" y="252.7" text-anchor="end" dominant-baseline="middle" fill="#7d8590" font-size="10">5</text>
  <line x1="55" y1="115.5" x2="830" y2="115.5" stroke="#21262d" stroke-width="1"/>
  <text x="47" y="115.5" text-anchor="end" dominant-baseline="middle" fill="#7d8590" font-size="10">10</text>
  <line x1="55" y1="390" x2="830" y2="390" stroke="#30363d" stroke-width="1.5"/>
  <text x="22" y="220.0" text-anchor="middle" fill="#e6edf3" font-size="11" font-weight="600" transform="rotate(-90,22,220.0)">seconds / GB</text>
  <rect x="71.1" y="200.4" width="24.2" height="189.6" fill="#60a5fa" rx="1"/>
  <rect x="71.1" y="192.2" width="24.2" height="8.3" fill="#4680c4" rx="1"/>
  <rect x="71.1" y="80.9" width="24.2" height="111.3" fill="#60a5fa" rx="1"/>
  <rect x="95.4" y="246.1" width="24.2" height="143.9" fill="#f87171" rx="1"/>
  <rect x="95.4" y="237.9" width="24.2" height="8.3" fill="#c45050" rx="1"/>
  <rect x="95.4" y="124.6" width="24.2" height="113.3" fill="#f87171" rx="1"/>
  <text x="119.6" y="406" text-anchor="middle" fill="#e6edf3" font-size="10" font-weight="600">256</text>
  <rect x="200.3" y="283.6" width="24.2" height="106.4" fill="#60a5fa" rx="1"/>
  <rect x="200.3" y="276.6" width="24.2" height="7.0" fill="#4680c4" rx="1"/>
  <rect x="200.3" y="216.5" width="24.2" height="60.1" fill="#60a5fa" rx="1"/>
  <rect x="224.5" y="304.6" width="24.2" height="85.4" fill="#f87171" rx="1"/>
  <rect x="224.5" y="297.6" width="24.2" height="7.0" fill="#c45050" rx="1"/>
  <rect x="224.5" y="234.8" width="24.2" height="62.8" fill="#f87171" rx="1"/>
  <text x="248.8" y="406" text-anchor="middle" fill="#e6edf3" font-size="10" font-weight="600">512</text>
  <rect x="329.5" y="324.9" width="24.2" height="65.1" fill="#60a5fa" rx="1"/>
  <rect x="329.5" y="317.8" width="24.2" height="7.1" fill="#4680c4" rx="1"/>
  <rect x="329.5" y="283.8" width="24.2" height="34.0" fill="#60a5fa" rx="1"/>
  <rect x="353.7" y="333.0" width="24.2" height="57.0" fill="#f87171" rx="1"/>
  <rect x="353.7" y="325.9" width="24.2" height="7.1" fill="#c45050" rx="1"/>
  <rect x="353.7" y="289.3" width="24.2" height="36.6" fill="#f87171" rx="1"/>
  <text x="377.9" y="406" text-anchor="middle" fill="#e6edf3" font-size="10" font-weight="600">1K</text>
  <rect x="458.6" y="347.1" width="24.2" height="42.9" fill="#60a5fa" rx="1"/>
  <rect x="458.6" y="340.4" width="24.2" height="6.6" fill="#4680c4" rx="1"/>
  <rect x="458.6" y="319.3" width="24.2" height="21.1" fill="#60a5fa" rx="1"/>
  <rect x="482.9" y="347.9" width="24.2" height="42.1" fill="#f87171" rx="1"/>
  <rect x="482.9" y="341.1" width="24.2" height="6.8" fill="#c45050" rx="1"/>
  <rect x="482.9" y="316.9" width="24.2" height="24.2" fill="#f87171" rx="1"/>
  <text x="507.1" y="406" text-anchor="middle" fill="#e6edf3" font-size="10" font-weight="600">2K</text>
  <rect x="587.8" y="357.3" width="24.2" height="32.7" fill="#60a5fa" rx="1"/>
  <rect x="587.8" y="350.6" width="24.2" height="6.7" fill="#4680c4" rx="1"/>
  <rect x="587.8" y="336.0" width="24.2" height="14.5" fill="#60a5fa" rx="1"/>
  <rect x="612.0" y="355.0" width="24.2" height="35.0" fill="#f87171" rx="1"/>
  <rect x="612.0" y="348.2" width="24.2" height="6.8" fill="#c45050" rx="1"/>
  <rect x="612.0" y="330.6" width="24.2" height="17.7" fill="#f87171" rx="1"/>
  <text x="636.2" y="406" text-anchor="middle" fill="#e6edf3" font-size="10" font-weight="600">4K</text>
  <rect x="717.0" y="363.5" width="24.2" height="26.5" fill="#60a5fa" rx="1"/>
  <rect x="717.0" y="357.1" width="24.2" height="6.4" fill="#4680c4" rx="1"/>
  <rect x="717.0" y="346.0" width="24.2" height="11.1" fill="#60a5fa" rx="1"/>
  <rect x="741.2" y="359.9" width="24.2" height="30.1" fill="#f87171" rx="1"/>
  <rect x="741.2" y="353.4" width="24.2" height="6.5" fill="#c45050" rx="1"/>
  <rect x="741.2" y="339.2" width="24.2" height="14.3" fill="#f87171" rx="1"/>
  <text x="765.4" y="406" text-anchor="middle" fill="#e6edf3" font-size="10" font-weight="600">8K</text>
  <rect x="242" y="420" width="12" height="12" fill="#60a5fa" rx="2"/>
  <text x="260" y="430" fill="#e6edf3" font-size="10" font-weight="500">lz4 (C, dict)</text>
  <rect x="242" y="438" width="12" height="12" fill="#f87171" rx="2"/>
  <text x="260" y="448" fill="#e6edf3" font-size="10" font-weight="500">lz4rip (dict)</text>
  <text x="232" y="473" fill="#e6edf3" font-size="9">bright = compress + decompress</text>
  <text x="472" y="473" fill="#7d8590" font-size="9">dim = transfer @1 GB/s</text>
</svg>
