<svg xmlns="http://www.w3.org/2000/svg" viewBox="0 0 850 490" font-family="system-ui, -apple-system, sans-serif">
  <rect width="850" height="490" fill="#0d1117"/>
  <text x="442.5" y="22" text-anchor="middle" fill="#e6edf3" font-size="14" font-weight="700">LZ4 Structured JSON + Dict (2 KB): Compress + Transfer @1 GB/s + Decompress (lower is better)</text>
  <text x="442.5" y="38" text-anchor="middle" fill="#7d8590" font-size="10">Intel Core i7-8700B @ 3.20GHz</text>
  <line x1="55" y1="257.6" x2="830" y2="257.6" stroke="#21262d" stroke-width="1"/>
  <text x="47" y="257.6" text-anchor="end" dominant-baseline="middle" fill="#7d8590" font-size="10">5</text>
  <line x1="55" y1="125.3" x2="830" y2="125.3" stroke="#21262d" stroke-width="1"/>
  <text x="47" y="125.3" text-anchor="end" dominant-baseline="middle" fill="#7d8590" font-size="10">10</text>
  <line x1="55" y1="390" x2="830" y2="390" stroke="#30363d" stroke-width="1.5"/>
  <text x="22" y="220.0" text-anchor="middle" fill="#e6edf3" font-size="11" font-weight="600" transform="rotate(-90,22,220.0)">seconds / GB</text>
  <rect x="71.1" y="194.8" width="24.2" height="195.2" fill="#60a5fa" rx="1"/>
  <rect x="71.1" y="186.9" width="24.2" height="8.0" fill="#4680c4" rx="1"/>
  <rect x="71.1" y="80.9" width="24.2" height="106.0" fill="#60a5fa" rx="1"/>
  <rect x="95.4" y="257.6" width="24.2" height="132.4" fill="#f87171" rx="1"/>
  <rect x="95.4" y="247.5" width="24.2" height="10.1" fill="#c45050" rx="1"/>
  <rect x="95.4" y="140.4" width="24.2" height="107.1" fill="#f87171" rx="1"/>
  <text x="119.6" y="406" text-anchor="middle" fill="#e6edf3" font-size="10" font-weight="600">256</text>
  <rect x="200.3" y="281.4" width="24.2" height="108.6" fill="#60a5fa" rx="1"/>
  <rect x="200.3" y="274.7" width="24.2" height="6.7" fill="#4680c4" rx="1"/>
  <rect x="200.3" y="217.4" width="24.2" height="57.3" fill="#60a5fa" rx="1"/>
  <rect x="224.5" y="310.9" width="24.2" height="79.1" fill="#f87171" rx="1"/>
  <rect x="224.5" y="304.0" width="24.2" height="6.8" fill="#c45050" rx="1"/>
  <rect x="224.5" y="243.7" width="24.2" height="60.3" fill="#f87171" rx="1"/>
  <text x="248.8" y="406" text-anchor="middle" fill="#e6edf3" font-size="10" font-weight="600">512</text>
  <rect x="329.5" y="324.3" width="24.2" height="65.7" fill="#60a5fa" rx="1"/>
  <rect x="329.5" y="317.5" width="24.2" height="6.9" fill="#4680c4" rx="1"/>
  <rect x="329.5" y="285.0" width="24.2" height="32.5" fill="#60a5fa" rx="1"/>
  <rect x="353.7" y="337.2" width="24.2" height="52.8" fill="#f87171" rx="1"/>
  <rect x="353.7" y="330.5" width="24.2" height="6.7" fill="#c45050" rx="1"/>
  <rect x="353.7" y="294.6" width="24.2" height="35.9" fill="#f87171" rx="1"/>
  <text x="377.9" y="406" text-anchor="middle" fill="#e6edf3" font-size="10" font-weight="600">1K</text>
  <rect x="458.6" y="347.1" width="24.2" height="42.9" fill="#60a5fa" rx="1"/>
  <rect x="458.6" y="340.7" width="24.2" height="6.4" fill="#4680c4" rx="1"/>
  <rect x="458.6" y="320.5" width="24.2" height="20.2" fill="#60a5fa" rx="1"/>
  <rect x="482.9" y="351.4" width="24.2" height="38.6" fill="#f87171" rx="1"/>
  <rect x="482.9" y="344.9" width="24.2" height="6.5" fill="#c45050" rx="1"/>
  <rect x="482.9" y="320.5" width="24.2" height="24.4" fill="#f87171" rx="1"/>
  <text x="507.1" y="406" text-anchor="middle" fill="#e6edf3" font-size="10" font-weight="600">2K</text>
  <rect x="587.8" y="357.7" width="24.2" height="32.3" fill="#60a5fa" rx="1"/>
  <rect x="587.8" y="351.3" width="24.2" height="6.5" fill="#4680c4" rx="1"/>
  <rect x="587.8" y="337.4" width="24.2" height="13.9" fill="#60a5fa" rx="1"/>
  <rect x="612.0" y="358.1" width="24.2" height="31.9" fill="#f87171" rx="1"/>
  <rect x="612.0" y="351.5" width="24.2" height="6.6" fill="#c45050" rx="1"/>
  <rect x="612.0" y="332.9" width="24.2" height="18.5" fill="#f87171" rx="1"/>
  <text x="636.2" y="406" text-anchor="middle" fill="#e6edf3" font-size="10" font-weight="600">4K</text>
  <rect x="717.0" y="364.3" width="24.2" height="25.7" fill="#60a5fa" rx="1"/>
  <rect x="717.0" y="358.1" width="24.2" height="6.2" fill="#4680c4" rx="1"/>
  <rect x="717.0" y="347.4" width="24.2" height="10.7" fill="#60a5fa" rx="1"/>
  <rect x="741.2" y="361.8" width="24.2" height="28.2" fill="#f87171" rx="1"/>
  <rect x="741.2" y="355.5" width="24.2" height="6.3" fill="#c45050" rx="1"/>
  <rect x="741.2" y="339.6" width="24.2" height="15.8" fill="#f87171" rx="1"/>
  <text x="765.4" y="406" text-anchor="middle" fill="#e6edf3" font-size="10" font-weight="600">8K</text>
  <rect x="242" y="420" width="12" height="12" fill="#60a5fa" rx="2"/>
  <text x="260" y="430" fill="#e6edf3" font-size="10" font-weight="500">lz4 (C, dict)</text>
  <rect x="242" y="438" width="12" height="12" fill="#f87171" rx="2"/>
  <text x="260" y="448" fill="#e6edf3" font-size="10" font-weight="500">lz4rip (dict)</text>
  <text x="232" y="473" fill="#e6edf3" font-size="9">bright = compress + decompress</text>
  <text x="472" y="473" fill="#7d8590" font-size="9">dim = transfer @1 GB/s</text>
</svg>
