<svg xmlns="http://www.w3.org/2000/svg" viewBox="0 0 850 490" font-family="system-ui, -apple-system, sans-serif">
  <rect width="850" height="490" fill="#0d1117"/>
  <text x="442.5" y="22" text-anchor="middle" fill="#e6edf3" font-size="14" font-weight="700">LZ4 Structured JSON + Dict (2 KB): Compress + Transfer @1 GB/s + Decompress (lower is better)</text>
  <text x="442.5" y="38" text-anchor="middle" fill="#7d8590" font-size="10">Intel Core i7-8700B @ 3.20GHz, performance governor, turbo off</text>
  <line x1="55" y1="252.0" x2="830" y2="252.0" stroke="#21262d" stroke-width="1"/>
  <text x="47" y="252.0" text-anchor="end" dominant-baseline="middle" fill="#7d8590" font-size="10">5</text>
  <line x1="55" y1="114.0" x2="830" y2="114.0" stroke="#21262d" stroke-width="1"/>
  <text x="47" y="114.0" text-anchor="end" dominant-baseline="middle" fill="#7d8590" font-size="10">10</text>
  <line x1="55" y1="390" x2="830" y2="390" stroke="#30363d" stroke-width="1.5"/>
  <text x="22" y="220.0" text-anchor="middle" fill="#e6edf3" font-size="11" font-weight="600" transform="rotate(-90,22,220.0)">seconds / GB</text>
  <rect x="71.1" y="200.0" width="24.2" height="190.0" fill="#60a5fa" rx="1"/>
  <rect x="71.1" y="191.7" width="24.2" height="8.3" fill="#4680c4" rx="1"/>
  <rect x="71.1" y="80.9" width="24.2" height="110.7" fill="#60a5fa" rx="1"/>
  <rect x="95.4" y="247.7" width="24.2" height="142.3" fill="#f87171" rx="1"/>
  <rect x="95.4" y="239.4" width="24.2" height="8.3" fill="#c45050" rx="1"/>
  <rect x="95.4" y="123.3" width="24.2" height="116.1" fill="#f87171" rx="1"/>
  <text x="119.6" y="406" text-anchor="middle" fill="#e6edf3" font-size="10" font-weight="600">256</text>
  <rect x="200.3" y="282.9" width="24.2" height="107.1" fill="#60a5fa" rx="1"/>
  <rect x="200.3" y="275.9" width="24.2" height="7.0" fill="#4680c4" rx="1"/>
  <rect x="200.3" y="216.1" width="24.2" height="59.8" fill="#60a5fa" rx="1"/>
  <rect x="224.5" y="306.9" width="24.2" height="83.1" fill="#f87171" rx="1"/>
  <rect x="224.5" y="299.9" width="24.2" height="7.1" fill="#c45050" rx="1"/>
  <rect x="224.5" y="235.7" width="24.2" height="64.2" fill="#f87171" rx="1"/>
  <text x="248.8" y="406" text-anchor="middle" fill="#e6edf3" font-size="10" font-weight="600">512</text>
  <rect x="329.5" y="324.8" width="24.2" height="65.2" fill="#60a5fa" rx="1"/>
  <rect x="329.5" y="317.6" width="24.2" height="7.1" fill="#4680c4" rx="1"/>
  <rect x="329.5" y="283.7" width="24.2" height="33.9" fill="#60a5fa" rx="1"/>
  <rect x="353.7" y="333.8" width="24.2" height="56.2" fill="#f87171" rx="1"/>
  <rect x="353.7" y="326.7" width="24.2" height="7.1" fill="#c45050" rx="1"/>
  <rect x="353.7" y="288.3" width="24.2" height="38.4" fill="#f87171" rx="1"/>
  <text x="377.9" y="406" text-anchor="middle" fill="#e6edf3" font-size="10" font-weight="600">1K</text>
  <rect x="458.6" y="346.8" width="24.2" height="43.2" fill="#60a5fa" rx="1"/>
  <rect x="458.6" y="340.1" width="24.2" height="6.7" fill="#4680c4" rx="1"/>
  <rect x="458.6" y="319.0" width="24.2" height="21.1" fill="#60a5fa" rx="1"/>
  <rect x="482.9" y="349.5" width="24.2" height="40.5" fill="#f87171" rx="1"/>
  <rect x="482.9" y="342.8" width="24.2" height="6.7" fill="#c45050" rx="1"/>
  <rect x="482.9" y="317.4" width="24.2" height="25.4" fill="#f87171" rx="1"/>
  <text x="507.1" y="406" text-anchor="middle" fill="#e6edf3" font-size="10" font-weight="600">2K</text>
  <rect x="587.8" y="357.3" width="24.2" height="32.7" fill="#60a5fa" rx="1"/>
  <rect x="587.8" y="350.5" width="24.2" height="6.8" fill="#4680c4" rx="1"/>
  <rect x="587.8" y="336.0" width="24.2" height="14.5" fill="#60a5fa" rx="1"/>
  <rect x="612.0" y="356.2" width="24.2" height="33.8" fill="#f87171" rx="1"/>
  <rect x="612.0" y="349.4" width="24.2" height="6.8" fill="#c45050" rx="1"/>
  <rect x="612.0" y="330.3" width="24.2" height="19.1" fill="#f87171" rx="1"/>
  <text x="636.2" y="406" text-anchor="middle" fill="#e6edf3" font-size="10" font-weight="600">4K</text>
  <rect x="717.0" y="363.5" width="24.2" height="26.5" fill="#60a5fa" rx="1"/>
  <rect x="717.0" y="357.0" width="24.2" height="6.5" fill="#4680c4" rx="1"/>
  <rect x="717.0" y="345.8" width="24.2" height="11.2" fill="#60a5fa" rx="1"/>
  <rect x="741.2" y="360.3" width="24.2" height="29.7" fill="#f87171" rx="1"/>
  <rect x="741.2" y="353.9" width="24.2" height="6.5" fill="#c45050" rx="1"/>
  <rect x="741.2" y="337.9" width="24.2" height="15.9" fill="#f87171" rx="1"/>
  <text x="765.4" y="406" text-anchor="middle" fill="#e6edf3" font-size="10" font-weight="600">8K</text>
  <rect x="242" y="420" width="12" height="12" fill="#60a5fa" rx="2"/>
  <text x="260" y="430" fill="#e6edf3" font-size="10" font-weight="500">lz4 (C, dict)</text>
  <rect x="242" y="438" width="12" height="12" fill="#f87171" rx="2"/>
  <text x="260" y="448" fill="#e6edf3" font-size="10" font-weight="500">lz4rip (dict)</text>
  <text x="232" y="473" fill="#e6edf3" font-size="9">bright = compress + decompress</text>
  <text x="472" y="473" fill="#7d8590" font-size="9">dim = transfer @1 GB/s</text>
</svg>
