<svg xmlns="http://www.w3.org/2000/svg" viewBox="0 0 850 490" font-family="system-ui, -apple-system, sans-serif">
  <rect width="850" height="490" fill="#0d1117"/>
  <text x="442.5" y="22" text-anchor="middle" fill="#e6edf3" font-size="14" font-weight="700">LZ4 Structured JSON + Dict (2 KB): Compress + Transfer @1 GB/s + Decompress (lower is better)</text>
  <text x="442.5" y="38" text-anchor="middle" fill="#7d8590" font-size="10">Intel Core i7-8700B @ 3.20GHz, performance governor, turbo off</text>
  <line x1="55" y1="258.5" x2="830" y2="258.5" stroke="#21262d" stroke-width="1"/>
  <text x="47" y="258.5" text-anchor="end" dominant-baseline="middle" fill="#7d8590" font-size="10">5</text>
  <line x1="55" y1="127.1" x2="830" y2="127.1" stroke="#21262d" stroke-width="1"/>
  <text x="47" y="127.1" text-anchor="end" dominant-baseline="middle" fill="#7d8590" font-size="10">10</text>
  <line x1="55" y1="390" x2="830" y2="390" stroke="#30363d" stroke-width="1.5"/>
  <text x="22" y="220.0" text-anchor="middle" fill="#e6edf3" font-size="11" font-weight="600" transform="rotate(-90,22,220.0)">seconds / GB</text>
  <rect x="71.1" y="193.9" width="24.2" height="196.1" fill="#60a5fa" rx="1"/>
  <rect x="71.1" y="185.4" width="24.2" height="8.5" fill="#4680c4" rx="1"/>
  <rect x="71.1" y="80.9" width="24.2" height="104.5" fill="#60a5fa" rx="1"/>
  <rect x="95.4" y="267.3" width="24.2" height="122.7" fill="#f87171" rx="1"/>
  <rect x="95.4" y="257.4" width="24.2" height="10.0" fill="#c45050" rx="1"/>
  <rect x="95.4" y="152.6" width="24.2" height="104.7" fill="#f87171" rx="1"/>
  <text x="119.6" y="406" text-anchor="middle" fill="#e6edf3" font-size="10" font-weight="600">256</text>
  <rect x="200.3" y="280.8" width="24.2" height="109.2" fill="#60a5fa" rx="1"/>
  <rect x="200.3" y="273.2" width="24.2" height="7.6" fill="#4680c4" rx="1"/>
  <rect x="200.3" y="218.1" width="24.2" height="55.1" fill="#60a5fa" rx="1"/>
  <rect x="224.5" y="309.4" width="24.2" height="80.6" fill="#f87171" rx="1"/>
  <rect x="224.5" y="301.6" width="24.2" height="7.8" fill="#c45050" rx="1"/>
  <rect x="224.5" y="243.7" width="24.2" height="57.8" fill="#f87171" rx="1"/>
  <text x="248.8" y="406" text-anchor="middle" fill="#e6edf3" font-size="10" font-weight="600">512</text>
  <rect x="329.5" y="320.6" width="24.2" height="69.4" fill="#60a5fa" rx="1"/>
  <rect x="329.5" y="311.7" width="24.2" height="8.9" fill="#4680c4" rx="1"/>
  <rect x="329.5" y="280.5" width="24.2" height="31.2" fill="#60a5fa" rx="1"/>
  <rect x="353.7" y="332.6" width="24.2" height="57.4" fill="#f87171" rx="1"/>
  <rect x="353.7" y="323.5" width="24.2" height="9.0" fill="#c45050" rx="1"/>
  <rect x="353.7" y="288.8" width="24.2" height="34.7" fill="#f87171" rx="1"/>
  <text x="377.9" y="406" text-anchor="middle" fill="#e6edf3" font-size="10" font-weight="600">1K</text>
  <rect x="458.6" y="342.1" width="24.2" height="47.9" fill="#60a5fa" rx="1"/>
  <rect x="458.6" y="333.2" width="24.2" height="8.9" fill="#4680c4" rx="1"/>
  <rect x="458.6" y="313.8" width="24.2" height="19.5" fill="#60a5fa" rx="1"/>
  <rect x="482.9" y="345.7" width="24.2" height="44.3" fill="#f87171" rx="1"/>
  <rect x="482.9" y="336.8" width="24.2" height="8.9" fill="#c45050" rx="1"/>
  <rect x="482.9" y="313.6" width="24.2" height="23.1" fill="#f87171" rx="1"/>
  <text x="507.1" y="406" text-anchor="middle" fill="#e6edf3" font-size="10" font-weight="600">2K</text>
  <rect x="587.8" y="354.1" width="24.2" height="35.9" fill="#60a5fa" rx="1"/>
  <rect x="587.8" y="345.8" width="24.2" height="8.4" fill="#4680c4" rx="1"/>
  <rect x="587.8" y="332.6" width="24.2" height="13.2" fill="#60a5fa" rx="1"/>
  <rect x="612.0" y="354.1" width="24.2" height="35.9" fill="#f87171" rx="1"/>
  <rect x="612.0" y="345.8" width="24.2" height="8.3" fill="#c45050" rx="1"/>
  <rect x="612.0" y="329.0" width="24.2" height="16.8" fill="#f87171" rx="1"/>
  <text x="636.2" y="406" text-anchor="middle" fill="#e6edf3" font-size="10" font-weight="600">4K</text>
  <rect x="717.0" y="359.6" width="24.2" height="30.4" fill="#60a5fa" rx="1"/>
  <rect x="717.0" y="351.5" width="24.2" height="8.0" fill="#4680c4" rx="1"/>
  <rect x="717.0" y="341.5" width="24.2" height="10.0" fill="#60a5fa" rx="1"/>
  <rect x="741.2" y="357.6" width="24.2" height="32.4" fill="#f87171" rx="1"/>
  <rect x="741.2" y="349.6" width="24.2" height="8.0" fill="#c45050" rx="1"/>
  <rect x="741.2" y="335.4" width="24.2" height="14.2" fill="#f87171" rx="1"/>
  <text x="765.4" y="406" text-anchor="middle" fill="#e6edf3" font-size="10" font-weight="600">8K</text>
  <rect x="242" y="420" width="12" height="12" fill="#60a5fa" rx="2"/>
  <text x="260" y="430" fill="#e6edf3" font-size="10" font-weight="500">lz4 (C, dict)</text>
  <rect x="242" y="438" width="12" height="12" fill="#f87171" rx="2"/>
  <text x="260" y="448" fill="#e6edf3" font-size="10" font-weight="500">lz4rip (dict)</text>
  <text x="232" y="473" fill="#e6edf3" font-size="9">bright = compress + decompress</text>
  <text x="472" y="473" fill="#7d8590" font-size="9">dim = transfer @1 GB/s</text>
</svg>
