<svg xmlns="http://www.w3.org/2000/svg" viewBox="0 0 850 490" font-family="system-ui, -apple-system, sans-serif">
  <rect width="850" height="490" fill="#0d1117"/>
  <text x="442.5" y="22" text-anchor="middle" fill="#e6edf3" font-size="14" font-weight="700">LZ4 Structured JSON: Compressor Reuse (256 B – 8 KB): Compress + Transfer @1 GB/s + Decompress (lower is better)</text>
  <text x="442.5" y="38" text-anchor="middle" fill="#7d8590" font-size="10">Intel Core i7-8700B @ 3.20GHz, performance governor, turbo off</text>
  <line x1="55" y1="333.0" x2="830" y2="333.0" stroke="#21262d" stroke-width="1"/>
  <text x="47" y="333.0" text-anchor="end" dominant-baseline="middle" fill="#7d8590" font-size="10">2</text>
  <line x1="55" y1="276.0" x2="830" y2="276.0" stroke="#21262d" stroke-width="1"/>
  <text x="47" y="276.0" text-anchor="end" dominant-baseline="middle" fill="#7d8590" font-size="10">4</text>
  <line x1="55" y1="219.1" x2="830" y2="219.1" stroke="#21262d" stroke-width="1"/>
  <text x="47" y="219.1" text-anchor="end" dominant-baseline="middle" fill="#7d8590" font-size="10">6</text>
  <line x1="55" y1="162.1" x2="830" y2="162.1" stroke="#21262d" stroke-width="1"/>
  <text x="47" y="162.1" text-anchor="end" dominant-baseline="middle" fill="#7d8590" font-size="10">8</text>
  <line x1="55" y1="105.1" x2="830" y2="105.1" stroke="#21262d" stroke-width="1"/>
  <text x="47" y="105.1" text-anchor="end" dominant-baseline="middle" fill="#7d8590" font-size="10">10</text>
  <line x1="55" y1="390" x2="830" y2="390" stroke="#30363d" stroke-width="1.5"/>
  <text x="22" y="220.0" text-anchor="middle" fill="#e6edf3" font-size="11" font-weight="600" transform="rotate(-90,22,220.0)">seconds / GB</text>
  <rect x="71.1" y="247.9" width="24.2" height="142.1" fill="#60a5fa" rx="1"/>
  <rect x="71.1" y="223.6" width="24.2" height="24.3" fill="#4680c4" rx="1"/>
  <rect x="71.1" y="117.8" width="24.2" height="105.8" fill="#60a5fa" rx="1"/>
  <rect x="95.4" y="262.9" width="24.2" height="127.1" fill="#f87171" rx="1"/>
  <rect x="95.4" y="238.2" width="24.2" height="24.7" fill="#c45050" rx="1"/>
  <rect x="95.4" y="132.3" width="24.2" height="105.9" fill="#f87171" rx="1"/>
  <rect x="119.6" y="225.7" width="24.2" height="164.3" fill="#f59e0b" rx="1"/>
  <rect x="119.6" y="200.7" width="24.2" height="25.0" fill="#c47d08" rx="1"/>
  <rect x="119.6" y="95.6" width="24.2" height="105.1" fill="#f59e0b" rx="1"/>
  <rect x="143.8" y="212.6" width="24.2" height="177.4" fill="#4ade80" rx="1"/>
  <rect x="143.8" y="187.6" width="24.2" height="25.0" fill="#3aaf60" rx="1"/>
  <rect x="143.8" y="80.9" width="24.2" height="106.7" fill="#4ade80" rx="1"/>
  <text x="119.6" y="406" text-anchor="middle" fill="#e6edf3" font-size="10" font-weight="600">256</text>
  <rect x="200.3" y="305.7" width="24.2" height="84.3" fill="#60a5fa" rx="1"/>
  <rect x="200.3" y="287.2" width="24.2" height="18.5" fill="#4680c4" rx="1"/>
  <rect x="200.3" y="230.7" width="24.2" height="56.5" fill="#60a5fa" rx="1"/>
  <rect x="224.5" y="315.6" width="24.2" height="74.4" fill="#f87171" rx="1"/>
  <rect x="224.5" y="296.0" width="24.2" height="19.6" fill="#c45050" rx="1"/>
  <rect x="224.5" y="239.1" width="24.2" height="56.9" fill="#f87171" rx="1"/>
  <rect x="248.8" y="289.4" width="24.2" height="100.6" fill="#f59e0b" rx="1"/>
  <rect x="248.8" y="270.4" width="24.2" height="19.1" fill="#c47d08" rx="1"/>
  <rect x="248.8" y="212.5" width="24.2" height="57.8" fill="#f59e0b" rx="1"/>
  <rect x="273.0" y="273.6" width="24.2" height="116.4" fill="#4ade80" rx="1"/>
  <rect x="273.0" y="254.5" width="24.2" height="19.1" fill="#3aaf60" rx="1"/>
  <rect x="273.0" y="195.1" width="24.2" height="59.4" fill="#4ade80" rx="1"/>
  <text x="248.8" y="406" text-anchor="middle" fill="#e6edf3" font-size="10" font-weight="600">512</text>
  <rect x="329.5" y="335.5" width="24.2" height="54.5" fill="#60a5fa" rx="1"/>
  <rect x="329.5" y="321.5" width="24.2" height="14.0" fill="#4680c4" rx="1"/>
  <rect x="329.5" y="290.1" width="24.2" height="31.5" fill="#60a5fa" rx="1"/>
  <rect x="353.7" y="340.7" width="24.2" height="49.3" fill="#f87171" rx="1"/>
  <rect x="353.7" y="325.9" width="24.2" height="14.7" fill="#c45050" rx="1"/>
  <rect x="353.7" y="293.8" width="24.2" height="32.1" fill="#f87171" rx="1"/>
  <rect x="377.9" y="326.9" width="24.2" height="63.1" fill="#f59e0b" rx="1"/>
  <rect x="377.9" y="312.4" width="24.2" height="14.4" fill="#c47d08" rx="1"/>
  <rect x="377.9" y="280.3" width="24.2" height="32.2" fill="#f59e0b" rx="1"/>
  <rect x="402.1" y="312.4" width="24.2" height="77.6" fill="#4ade80" rx="1"/>
  <rect x="402.1" y="298.0" width="24.2" height="14.4" fill="#3aaf60" rx="1"/>
  <rect x="402.1" y="263.7" width="24.2" height="34.3" fill="#4ade80" rx="1"/>
  <text x="377.9" y="406" text-anchor="middle" fill="#e6edf3" font-size="10" font-weight="600">1K</text>
  <rect x="458.6" y="350.7" width="24.2" height="39.3" fill="#60a5fa" rx="1"/>
  <rect x="458.6" y="339.0" width="24.2" height="11.7" fill="#4680c4" rx="1"/>
  <rect x="458.6" y="319.6" width="24.2" height="19.4" fill="#60a5fa" rx="1"/>
  <rect x="482.9" y="353.3" width="24.2" height="36.7" fill="#f87171" rx="1"/>
  <rect x="482.9" y="341.2" width="24.2" height="12.1" fill="#c45050" rx="1"/>
  <rect x="482.9" y="320.8" width="24.2" height="20.4" fill="#f87171" rx="1"/>
  <rect x="507.1" y="344.8" width="24.2" height="45.2" fill="#f59e0b" rx="1"/>
  <rect x="507.1" y="332.7" width="24.2" height="12.1" fill="#c47d08" rx="1"/>
  <rect x="507.1" y="312.9" width="24.2" height="19.9" fill="#f59e0b" rx="1"/>
  <rect x="531.3" y="332.1" width="24.2" height="57.9" fill="#4ade80" rx="1"/>
  <rect x="531.3" y="320.0" width="24.2" height="12.1" fill="#3aaf60" rx="1"/>
  <rect x="531.3" y="298.2" width="24.2" height="21.9" fill="#4ade80" rx="1"/>
  <text x="507.1" y="406" text-anchor="middle" fill="#e6edf3" font-size="10" font-weight="600">2K</text>
  <rect x="587.8" y="360.0" width="24.2" height="30.0" fill="#60a5fa" rx="1"/>
  <rect x="587.8" y="350.6" width="24.2" height="9.4" fill="#4680c4" rx="1"/>
  <rect x="587.8" y="337.0" width="24.2" height="13.6" fill="#60a5fa" rx="1"/>
  <rect x="612.0" y="361.1" width="24.2" height="28.9" fill="#f87171" rx="1"/>
  <rect x="612.0" y="351.6" width="24.2" height="9.6" fill="#c45050" rx="1"/>
  <rect x="612.0" y="336.6" width="24.2" height="15.0" fill="#f87171" rx="1"/>
  <rect x="636.2" y="356.4" width="24.2" height="33.6" fill="#f59e0b" rx="1"/>
  <rect x="636.2" y="346.9" width="24.2" height="9.5" fill="#c47d08" rx="1"/>
  <rect x="636.2" y="332.9" width="24.2" height="14.0" fill="#f59e0b" rx="1"/>
  <rect x="660.5" y="346.0" width="24.2" height="44.0" fill="#4ade80" rx="1"/>
  <rect x="660.5" y="336.5" width="24.2" height="9.5" fill="#3aaf60" rx="1"/>
  <rect x="660.5" y="320.8" width="24.2" height="15.6" fill="#4ade80" rx="1"/>
  <text x="636.2" y="406" text-anchor="middle" fill="#e6edf3" font-size="10" font-weight="600">4K</text>
  <rect x="717.0" y="365.4" width="24.2" height="24.6" fill="#60a5fa" rx="1"/>
  <rect x="717.0" y="357.5" width="24.2" height="7.8" fill="#4680c4" rx="1"/>
  <rect x="717.0" y="347.3" width="24.2" height="10.2" fill="#60a5fa" rx="1"/>
  <rect x="741.2" y="364.9" width="24.2" height="25.1" fill="#f87171" rx="1"/>
  <rect x="741.2" y="357.0" width="24.2" height="7.9" fill="#c45050" rx="1"/>
  <rect x="741.2" y="345.3" width="24.2" height="11.7" fill="#f87171" rx="1"/>
  <rect x="765.4" y="363.4" width="24.2" height="26.6" fill="#f59e0b" rx="1"/>
  <rect x="765.4" y="355.5" width="24.2" height="7.9" fill="#c47d08" rx="1"/>
  <rect x="765.4" y="345.2" width="24.2" height="10.3" fill="#f59e0b" rx="1"/>
  <rect x="789.6" y="354.0" width="24.2" height="36.0" fill="#4ade80" rx="1"/>
  <rect x="789.6" y="346.1" width="24.2" height="7.9" fill="#3aaf60" rx="1"/>
  <rect x="789.6" y="333.8" width="24.2" height="12.3" fill="#4ade80" rx="1"/>
  <text x="765.4" y="406" text-anchor="middle" fill="#e6edf3" font-size="10" font-weight="600">8K</text>
  <rect x="242" y="420" width="12" height="12" fill="#60a5fa" rx="2"/>
  <text x="260" y="430" fill="#e6edf3" font-size="10" font-weight="500">lz4 (C, stream)</text>
  <rect x="242" y="438" width="12" height="12" fill="#f87171" rx="2"/>
  <text x="260" y="448" fill="#e6edf3" font-size="10" font-weight="500">lz4rip (Compressor)</text>
  <rect x="452" y="420" width="12" height="12" fill="#f59e0b" rx="2"/>
  <text x="470" y="430" fill="#e6edf3" font-size="10" font-weight="500">lz4_flex (unsafe, oneshot)</text>
  <rect x="452" y="438" width="12" height="12" fill="#4ade80" rx="2"/>
  <text x="470" y="448" fill="#e6edf3" font-size="10" font-weight="500">lz4_flex (safe, oneshot)</text>
  <text x="232" y="473" fill="#e6edf3" font-size="9">bright = compress + decompress</text>
  <text x="472" y="473" fill="#7d8590" font-size="9">dim = transfer @1 GB/s</text>
</svg>
