<svg xmlns="http://www.w3.org/2000/svg" viewBox="0 0 850 490" font-family="system-ui, -apple-system, sans-serif">
  <rect width="850" height="490" fill="#0d1117"/>
  <text x="442.5" y="22" text-anchor="middle" fill="#e6edf3" font-size="14" font-weight="700">LZ4 Structured JSON: Compressor Reuse (256 B – 8 KB): Compress + Transfer @1 GB/s + Decompress (lower is better)</text>
  <text x="442.5" y="38" text-anchor="middle" fill="#7d8590" font-size="10">Intel Core i7-8700B @ 3.20GHz</text>
  <line x1="55" y1="333.1" x2="830" y2="333.1" stroke="#21262d" stroke-width="1"/>
  <text x="47" y="333.1" text-anchor="end" dominant-baseline="middle" fill="#7d8590" font-size="10">2</text>
  <line x1="55" y1="276.2" x2="830" y2="276.2" stroke="#21262d" stroke-width="1"/>
  <text x="47" y="276.2" text-anchor="end" dominant-baseline="middle" fill="#7d8590" font-size="10">4</text>
  <line x1="55" y1="219.3" x2="830" y2="219.3" stroke="#21262d" stroke-width="1"/>
  <text x="47" y="219.3" text-anchor="end" dominant-baseline="middle" fill="#7d8590" font-size="10">6</text>
  <line x1="55" y1="162.5" x2="830" y2="162.5" stroke="#21262d" stroke-width="1"/>
  <text x="47" y="162.5" text-anchor="end" dominant-baseline="middle" fill="#7d8590" font-size="10">8</text>
  <line x1="55" y1="105.6" x2="830" y2="105.6" stroke="#21262d" stroke-width="1"/>
  <text x="47" y="105.6" text-anchor="end" dominant-baseline="middle" fill="#7d8590" font-size="10">10</text>
  <line x1="55" y1="390" x2="830" y2="390" stroke="#30363d" stroke-width="1.5"/>
  <text x="22" y="220.0" text-anchor="middle" fill="#e6edf3" font-size="11" font-weight="600" transform="rotate(-90,22,220.0)">seconds / GB</text>
  <rect x="71.1" y="246.9" width="24.2" height="143.1" fill="#60a5fa" rx="1"/>
  <rect x="71.1" y="222.6" width="24.2" height="24.2" fill="#4680c4" rx="1"/>
  <rect x="71.1" y="116.9" width="24.2" height="105.7" fill="#60a5fa" rx="1"/>
  <rect x="95.4" y="263.5" width="24.2" height="126.5" fill="#f87171" rx="1"/>
  <rect x="95.4" y="238.8" width="24.2" height="24.7" fill="#c45050" rx="1"/>
  <rect x="95.4" y="133.4" width="24.2" height="105.4" fill="#f87171" rx="1"/>
  <rect x="119.6" y="227.3" width="24.2" height="162.7" fill="#f59e0b" rx="1"/>
  <rect x="119.6" y="202.3" width="24.2" height="25.0" fill="#c47d08" rx="1"/>
  <rect x="119.6" y="97.4" width="24.2" height="104.9" fill="#f59e0b" rx="1"/>
  <rect x="143.8" y="212.5" width="24.2" height="177.5" fill="#4ade80" rx="1"/>
  <rect x="143.8" y="187.5" width="24.2" height="25.0" fill="#3aaf60" rx="1"/>
  <rect x="143.8" y="80.9" width="24.2" height="106.6" fill="#4ade80" rx="1"/>
  <text x="119.6" y="406" text-anchor="middle" fill="#e6edf3" font-size="10" font-weight="600">256</text>
  <rect x="200.3" y="306.2" width="24.2" height="83.8" fill="#60a5fa" rx="1"/>
  <rect x="200.3" y="287.7" width="24.2" height="18.5" fill="#4680c4" rx="1"/>
  <rect x="200.3" y="231.3" width="24.2" height="56.4" fill="#60a5fa" rx="1"/>
  <rect x="224.5" y="316.1" width="24.2" height="73.9" fill="#f87171" rx="1"/>
  <rect x="224.5" y="296.6" width="24.2" height="19.6" fill="#c45050" rx="1"/>
  <rect x="224.5" y="240.8" width="24.2" height="55.7" fill="#f87171" rx="1"/>
  <rect x="248.8" y="289.1" width="24.2" height="100.9" fill="#f59e0b" rx="1"/>
  <rect x="248.8" y="270.1" width="24.2" height="19.1" fill="#c47d08" rx="1"/>
  <rect x="248.8" y="212.4" width="24.2" height="57.7" fill="#f59e0b" rx="1"/>
  <rect x="273.0" y="273.0" width="24.2" height="117.0" fill="#4ade80" rx="1"/>
  <rect x="273.0" y="253.9" width="24.2" height="19.1" fill="#3aaf60" rx="1"/>
  <rect x="273.0" y="194.7" width="24.2" height="59.3" fill="#4ade80" rx="1"/>
  <text x="248.8" y="406" text-anchor="middle" fill="#e6edf3" font-size="10" font-weight="600">512</text>
  <rect x="329.5" y="335.5" width="24.2" height="54.5" fill="#60a5fa" rx="1"/>
  <rect x="329.5" y="321.6" width="24.2" height="13.9" fill="#4680c4" rx="1"/>
  <rect x="329.5" y="289.9" width="24.2" height="31.7" fill="#60a5fa" rx="1"/>
  <rect x="353.7" y="340.8" width="24.2" height="49.2" fill="#f87171" rx="1"/>
  <rect x="353.7" y="326.1" width="24.2" height="14.7" fill="#c45050" rx="1"/>
  <rect x="353.7" y="295.2" width="24.2" height="31.0" fill="#f87171" rx="1"/>
  <rect x="377.9" y="326.7" width="24.2" height="63.3" fill="#f59e0b" rx="1"/>
  <rect x="377.9" y="312.3" width="24.2" height="14.4" fill="#c47d08" rx="1"/>
  <rect x="377.9" y="280.2" width="24.2" height="32.1" fill="#f59e0b" rx="1"/>
  <rect x="402.1" y="311.7" width="24.2" height="78.3" fill="#4ade80" rx="1"/>
  <rect x="402.1" y="297.3" width="24.2" height="14.4" fill="#3aaf60" rx="1"/>
  <rect x="402.1" y="263.1" width="24.2" height="34.2" fill="#4ade80" rx="1"/>
  <text x="377.9" y="406" text-anchor="middle" fill="#e6edf3" font-size="10" font-weight="600">1K</text>
  <rect x="458.6" y="350.8" width="24.2" height="39.2" fill="#60a5fa" rx="1"/>
  <rect x="458.6" y="339.1" width="24.2" height="11.7" fill="#4680c4" rx="1"/>
  <rect x="458.6" y="319.8" width="24.2" height="19.3" fill="#60a5fa" rx="1"/>
  <rect x="482.9" y="353.2" width="24.2" height="36.8" fill="#f87171" rx="1"/>
  <rect x="482.9" y="341.1" width="24.2" height="12.1" fill="#c45050" rx="1"/>
  <rect x="482.9" y="322.3" width="24.2" height="18.8" fill="#f87171" rx="1"/>
  <rect x="507.1" y="345.5" width="24.2" height="44.5" fill="#f59e0b" rx="1"/>
  <rect x="507.1" y="333.5" width="24.2" height="12.1" fill="#c47d08" rx="1"/>
  <rect x="507.1" y="313.7" width="24.2" height="19.8" fill="#f59e0b" rx="1"/>
  <rect x="531.3" y="331.5" width="24.2" height="58.5" fill="#4ade80" rx="1"/>
  <rect x="531.3" y="319.5" width="24.2" height="12.1" fill="#3aaf60" rx="1"/>
  <rect x="531.3" y="297.6" width="24.2" height="21.9" fill="#4ade80" rx="1"/>
  <text x="507.1" y="406" text-anchor="middle" fill="#e6edf3" font-size="10" font-weight="600">2K</text>
  <rect x="587.8" y="360.1" width="24.2" height="29.9" fill="#60a5fa" rx="1"/>
  <rect x="587.8" y="350.8" width="24.2" height="9.4" fill="#4680c4" rx="1"/>
  <rect x="587.8" y="337.3" width="24.2" height="13.5" fill="#60a5fa" rx="1"/>
  <rect x="612.0" y="361.1" width="24.2" height="28.9" fill="#f87171" rx="1"/>
  <rect x="612.0" y="351.5" width="24.2" height="9.6" fill="#c45050" rx="1"/>
  <rect x="612.0" y="338.2" width="24.2" height="13.3" fill="#f87171" rx="1"/>
  <rect x="636.2" y="357.0" width="24.2" height="33.0" fill="#f59e0b" rx="1"/>
  <rect x="636.2" y="347.4" width="24.2" height="9.5" fill="#c47d08" rx="1"/>
  <rect x="636.2" y="333.9" width="24.2" height="13.6" fill="#f59e0b" rx="1"/>
  <rect x="660.5" y="345.0" width="24.2" height="45.0" fill="#4ade80" rx="1"/>
  <rect x="660.5" y="335.5" width="24.2" height="9.5" fill="#3aaf60" rx="1"/>
  <rect x="660.5" y="319.9" width="24.2" height="15.6" fill="#4ade80" rx="1"/>
  <text x="636.2" y="406" text-anchor="middle" fill="#e6edf3" font-size="10" font-weight="600">4K</text>
  <rect x="717.0" y="365.4" width="24.2" height="24.6" fill="#60a5fa" rx="1"/>
  <rect x="717.0" y="357.5" width="24.2" height="7.8" fill="#4680c4" rx="1"/>
  <rect x="717.0" y="347.4" width="24.2" height="10.2" fill="#60a5fa" rx="1"/>
  <rect x="741.2" y="365.2" width="24.2" height="24.8" fill="#f87171" rx="1"/>
  <rect x="741.2" y="357.2" width="24.2" height="7.9" fill="#c45050" rx="1"/>
  <rect x="741.2" y="346.2" width="24.2" height="11.0" fill="#f87171" rx="1"/>
  <rect x="765.4" y="363.3" width="24.2" height="26.7" fill="#f59e0b" rx="1"/>
  <rect x="765.4" y="355.4" width="24.2" height="7.9" fill="#c47d08" rx="1"/>
  <rect x="765.4" y="345.0" width="24.2" height="10.4" fill="#f59e0b" rx="1"/>
  <rect x="789.6" y="352.8" width="24.2" height="37.2" fill="#4ade80" rx="1"/>
  <rect x="789.6" y="344.9" width="24.2" height="7.9" fill="#3aaf60" rx="1"/>
  <rect x="789.6" y="332.6" width="24.2" height="12.4" fill="#4ade80" rx="1"/>
  <text x="765.4" y="406" text-anchor="middle" fill="#e6edf3" font-size="10" font-weight="600">8K</text>
  <rect x="242" y="420" width="12" height="12" fill="#60a5fa" rx="2"/>
  <text x="260" y="430" fill="#e6edf3" font-size="10" font-weight="500">lz4 (C, stream)</text>
  <rect x="242" y="438" width="12" height="12" fill="#f87171" rx="2"/>
  <text x="260" y="448" fill="#e6edf3" font-size="10" font-weight="500">lz4rip (Compressor)</text>
  <rect x="452" y="420" width="12" height="12" fill="#f59e0b" rx="2"/>
  <text x="470" y="430" fill="#e6edf3" font-size="10" font-weight="500">lz4_flex (unsafe, oneshot)</text>
  <rect x="452" y="438" width="12" height="12" fill="#4ade80" rx="2"/>
  <text x="470" y="448" fill="#e6edf3" font-size="10" font-weight="500">lz4_flex (safe, oneshot)</text>
  <text x="232" y="473" fill="#e6edf3" font-size="9">bright = compress + decompress</text>
  <text x="472" y="473" fill="#7d8590" font-size="9">dim = transfer @1 GB/s</text>
</svg>
